<mxfile host="app.diagrams.net" modified="2024-02-13T03:32:30.571Z" agent="Mozilla/5.0 (Windows NT 10.0; Win64; x64) AppleWebKit/537.36 (KHTML, like Gecko) Chrome/121.0.0.0 Safari/537.36" etag="pOmTaAN2InuXNVW9q4mi" version="23.1.3" type="github">
  <diagram name="ページ1" id="5KQegtgsJZUfMi-a7FGY">
    <mxGraphModel dx="1034" dy="412" grid="1" gridSize="10" guides="1" tooltips="1" connect="1" arrows="1" fold="1" page="1" pageScale="1" pageWidth="827" pageHeight="1169" math="0" shadow="0">
      <root>
        <mxCell id="0" />
        <mxCell id="1" parent="0" />
        <mxCell id="K3Nuk1EUV9wkUVcjrLwg-29" value="&lt;b&gt;Google &lt;/b&gt;Cloud Platform" style="fillColor=#F6F6F6;strokeColor=none;shadow=0;gradientColor=none;fontSize=14;align=left;spacing=10;fontColor=#717171;9E9E9E;verticalAlign=top;spacingTop=-4;fontStyle=0;spacingLeft=40;html=1;whiteSpace=wrap;" vertex="1" parent="1">
          <mxGeometry x="340" y="185" width="650" height="350" as="geometry" />
        </mxCell>
        <mxCell id="K3Nuk1EUV9wkUVcjrLwg-30" value="" style="shape=mxgraph.gcp2.google_cloud_platform;fillColor=#F6F6F6;strokeColor=none;shadow=0;gradientColor=none;" vertex="1" parent="K3Nuk1EUV9wkUVcjrLwg-29">
          <mxGeometry width="23" height="20" relative="1" as="geometry">
            <mxPoint x="20" y="10" as="offset" />
          </mxGeometry>
        </mxCell>
        <mxCell id="K3Nuk1EUV9wkUVcjrLwg-33" value="" style="strokeColor=#dddddd;shadow=1;strokeWidth=1;rounded=1;absoluteArcSize=1;arcSize=2;" vertex="1" parent="K3Nuk1EUV9wkUVcjrLwg-29">
          <mxGeometry x="200" y="65" width="150" height="155" as="geometry" />
        </mxCell>
        <mxCell id="K3Nuk1EUV9wkUVcjrLwg-34" value="Cloud Run" style="editableCssRules=.*;html=1;fontColor=#999999;shape=image;verticalLabelPosition=middle;verticalAlign=middle;labelPosition=right;align=left;spacingLeft=20;part=1;points=[];imageAspect=0;image=data:image/svg+xml,PHN2ZyB4bWxucz0iaHR0cDovL3d3dy53My5vcmcvMjAwMC9zdmciIHhtbG5zOnY9Imh0dHBzOi8vdmVjdGEuaW8vbmFubyIgd2lkdGg9IjM2NS40NjQ5OTY3NzA0MjQ5MyIgaGVpZ2h0PSIzNzkuMjIyOTk0NDYzNTc3OTUiIHZpZXdCb3g9IjAgMCA5Ni42OTU5OTkxNDU1MDc4MSAxMDAuMzM1OTk4NTM1MTU2MjUiPiYjeGE7PHN0eWxlIHR5cGU9InRleHQvY3NzIj4mI3hhOwkuc3Qwe2ZpbGw6IzQyODVmNDt9JiN4YTsJLnN0MXtmaWxsOiNhZWNiZmE7fSYjeGE7PC9zdHlsZT4mI3hhOwk8cGF0aCBjbGFzcz0ic3QwIiBkPSJNMjkuNzk0IDEwMC4zMzZMNDYuOTIgNTAuMTY4aDQ5Ljc3NnpNMCA5OS42NzFsMTIuOTc2LTQ5LjUwMkgyOS4yMkwxNi44OTcgOTIuMDU0eiIvPiYjeGE7CTxwYXRoIGNsYXNzPSJzdDEiIGQ9Ik0yOS43OTQgMEw0Ni45MiA1MC4xNjhoNDkuNzc2ek0wIC42NjZsMTIuOTc2IDQ5LjUwMkgyOS4yMkwxNi44OTcgOC4yODN6Ii8+JiN4YTs8L3N2Zz4=;" vertex="1" parent="K3Nuk1EUV9wkUVcjrLwg-33">
          <mxGeometry width="30" height="30" relative="1" as="geometry">
            <mxPoint x="15" y="15" as="offset" />
          </mxGeometry>
        </mxCell>
        <mxCell id="K3Nuk1EUV9wkUVcjrLwg-53" value="container" style="whiteSpace=wrap;html=1;aspect=fixed;verticalAlign=top;" vertex="1" parent="K3Nuk1EUV9wkUVcjrLwg-33">
          <mxGeometry x="30" y="59.42" width="90" height="90" as="geometry" />
        </mxCell>
        <mxCell id="K3Nuk1EUV9wkUVcjrLwg-43" value="" style="shape=image;imageAspect=0;aspect=fixed;verticalLabelPosition=bottom;verticalAlign=top;image=data:image/avif,AAAAIGZ0eXBhdmlmAAAAAGF2aWZtaWYxbWlhZk1BMUIAAA1HbWV0YQAAAAAAAAAoaGRscgAAAAAAAAAAcGljdAAAAAAAAAAAAAAAAGxpYmF2aWYAAAAADnBpdG0AAAAAAAEAAAAeaWxvYwAAAABEAAABAAEAAAABAAANbwAAG24AAAAoaWluZgAAAAAAAQAAABppbmZlAgAAAAABAABhdjAxQ29sb3IAAAAMv2lwcnAAAAyfaXBjbwAAABRpc3BlAAAAAAAABLAAAAIiAAAAEHBpeGkAAAAAAwgICAAAAAxhdjFDgQQMAAAADFRjb2xycHJvZgAADEhMaW5vAhAAAG1udHJSR0IgWFlaIAfOAAIACQAGADEAAGFjc3BNU0ZUAAAAAElFQyBzUkdCAAAAAAAAAAAAAAAAAAD21gABAAAAANMtSFAgIAAAAAAAAAAAAAAAAAAAAAAAAAAAAAAAAAAAAAAAAAAAAAAAAAAAAAAAAAAAAAAAEWNwcnQAAAFQAAAAM2Rlc2MAAAGEAAAAbHd0cHQAAAHwAAAAFGJrcHQAAAIEAAAAFHJYWVoAAAIYAAAAFGdYWVoAAAIsAAAAFGJYWVoAAAJAAAAAFGRtbmQAAAJUAAAAcGRtZGQAAALEAAAAiHZ1ZWQAAANMAAAAhnZpZXcAAAPUAAAAJGx1bWkAAAP4AAAAFG1lYXMAAAQMAAAAJHRlY2gAAAQwAAAADHJUUkMAAAQ8AAAIDGdUUkMAAAQ8AAAIDGJUUkMAAAQ8AAAIDHRleHQAAAAAQ29weXJpZ2h0IChjKSAxOTk4IEhld2xldHQtUGFja2FyZCBDb21wYW55AABkZXNjAAAAAAAAABJzUkdCIElFQzYxOTY2LTIuMQAAAAAAAAAAAAAAEnNSR0IgSUVDNjE5NjYtMi4xAAAAAAAAAAAAAAAAAAAAAAAAAAAAAAAAAAAAAAAAAAAAAAAAAAAAAAAAAAAAAAAAAABYWVogAAAAAAAA81EAAQAAAAEWzFhZWiAAAAAAAAAAAAAAAAAAAAAAWFlaIAAAAAAAAG+iAAA49QAAA5BYWVogAAAAAAAAYpkAALeFAAAY2lhZWiAAAAAAAAAkoAAAD4QAALbPZGVzYwAAAAAAAAAWSUVDIGh0dHA6Ly93d3cuaWVjLmNoAAAAAAAAAAAAAAAWSUVDIGh0dHA6Ly93d3cuaWVjLmNoAAAAAAAAAAAAAAAAAAAAAAAAAAAAAAAAAAAAAAAAAAAAAAAAAAAAAAAAAAAAAGRlc2MAAAAAAAAALklFQyA2MTk2Ni0yLjEgRGVmYXVsdCBSR0IgY29sb3VyIHNwYWNlIC0gc1JHQgAAAAAAAAAAAAAALklFQyA2MTk2Ni0yLjEgRGVmYXVsdCBSR0IgY29sb3VyIHNwYWNlIC0gc1JHQgAAAAAAAAAAAAAAAAAAAAAAAAAAAABkZXNjAAAAAAAAACxSZWZlcmVuY2UgVmlld2luZyBDb25kaXRpb24gaW4gSUVDNjE5NjYtMi4xAAAAAAAAAAAAAAAsUmVmZXJlbmNlIFZpZXdpbmcgQ29uZGl0aW9uIGluIElFQzYxOTY2LTIuMQAAAAAAAAAAAAAAAAAAAAAAAAAAAAAAAAAAdmlldwAAAAAAE6T+ABRfLgAQzxQAA+3MAAQTCwADXJ4AAAABWFlaIAAAAAAATAlWAFAAAABXH+dtZWFzAAAAAAAAAAEAAAAAAAAAAAAAAAAAAAAAAAACjwAAAAJzaWcgAAAAAENSVCBjdXJ2AAAAAAAABAAAAAAFAAoADwAUABkAHgAjACgALQAyADcAOwBAAEUASgBPAFQAWQBeAGMAaABtAHIAdwB8AIEAhgCLAJAAlQCaAJ8ApACpAK4AsgC3ALwAwQDGAMsA0ADVANsA4ADlAOsA8AD2APsBAQEHAQ0BEwEZAR8BJQErATIBOAE+AUUBTAFSAVkBYAFnAW4BdQF8AYMBiwGSAZoBoQGpAbEBuQHBAckB0QHZAeEB6QHyAfoCAwIMAhQCHQImAi8COAJBAksCVAJdAmcCcQJ6AoQCjgKYAqICrAK2AsECywLVAuAC6wL1AwADCwMWAyEDLQM4A0MDTwNaA2YDcgN+A4oDlgOiA64DugPHA9MD4APsA/kEBgQTBCAELQQ7BEgEVQRjBHEEfgSMBJoEqAS2BMQE0wThBPAE/gUNBRwFKwU6BUkFWAVnBXcFhgWWBaYFtQXFBdUF5QX2BgYGFgYnBjcGSAZZBmoGewaMBp0GrwbABtEG4wb1BwcHGQcrBz0HTwdhB3QHhgeZB6wHvwfSB+UH+AgLCB8IMghGCFoIbgiCCJYIqgi+CNII5wj7CRAJJQk6CU8JZAl5CY8JpAm6Cc8J5Qn7ChEKJwo9ClQKagqBCpgKrgrFCtwK8wsLCyILOQtRC2kLgAuYC7ALyAvhC/kMEgwqDEMMXAx1DI4MpwzADNkM8w0NDSYNQA1aDXQNjg2pDcMN3g34DhMOLg5JDmQOfw6bDrYO0g7uDwkPJQ9BD14Peg+WD7MPzw/sEAkQJhBDEGEQfhCbELkQ1xD1ERMRMRFPEW0RjBGqEckR6BIHEiYSRRJkEoQSoxLDEuMTAxMjE0MTYxODE6QTxRPlFAYUJxRJFGoUixStFM4U8BUSFTQVVhV4FZsVvRXgFgMWJhZJFmwWjxayFtYW+hcdF0EXZReJF64X0hf3GBsYQBhlGIoYrxjVGPoZIBlFGWsZkRm3Gd0aBBoqGlEadxqeGsUa7BsUGzsbYxuKG7Ib2hwCHCocUhx7HKMczBz1HR4dRx1wHZkdwx3sHhYeQB5qHpQevh7pHxMfPh9pH5Qfvx/qIBUgQSBsIJggxCDwIRwhSCF1IaEhziH7IiciVSKCIq8i3SMKIzgjZiOUI8Ij8CQfJE0kfCSrJNolCSU4JWgllyXHJfcmJyZXJocmtyboJxgnSSd6J6sn3CgNKD8ocSiiKNQpBik4KWspnSnQKgIqNSpoKpsqzysCKzYraSudK9EsBSw5LG4soizXLQwtQS12Last4S4WLkwugi63Lu4vJC9aL5Evxy/+MDUwbDCkMNsxEjFKMYIxujHyMioyYzKbMtQzDTNGM38zuDPxNCs0ZTSeNNg1EzVNNYc1wjX9Njc2cjauNuk3JDdgN5w31zgUOFA4jDjIOQU5Qjl/Obw5+To2OnQ6sjrvOy07azuqO+g8JzxlPKQ84z0iPWE9oT3gPiA+YD6gPuA/IT9hP6I/4kAjQGRApkDnQSlBakGsQe5CMEJyQrVC90M6Q31DwEQDREdEikTORRJFVUWaRd5GIkZnRqtG8Ec1R3tHwEgFSEtIkUjXSR1JY0mpSfBKN0p9SsRLDEtTS5pL4kwqTHJMuk0CTUpNk03cTiVObk63TwBPSU+TT91QJ1BxULtRBlFQUZtR5lIxUnxSx1MTU19TqlP2VEJUj1TbVShVdVXCVg9WXFapVvdXRFeSV+BYL1h9WMtZGllpWbhaB1pWWqZa9VtFW5Vb5Vw1XIZc1l0nXXhdyV4aXmxevV8PX2Ffs2AFYFdgqmD8YU9homH1YklinGLwY0Njl2PrZEBklGTpZT1lkmXnZj1mkmboZz1nk2fpaD9olmjsaUNpmmnxakhqn2r3a09rp2v/bFdsr20IbWBtuW4SbmtuxG8eb3hv0XArcIZw4HE6cZVx8HJLcqZzAXNdc7h0FHRwdMx1KHWFdeF2Pnabdvh3VnezeBF4bnjMeSp5iXnnekZ6pXsEe2N7wnwhfIF84X1BfaF+AX5ifsJ/I3+Ef+WAR4CogQqBa4HNgjCCkoL0g1eDuoQdhICE44VHhauGDoZyhteHO4efiASIaYjOiTOJmYn+imSKyoswi5aL/IxjjMqNMY2Yjf+OZo7OjzaPnpAGkG6Q1pE/kaiSEZJ6kuOTTZO2lCCUipT0lV+VyZY0lp+XCpd1l+CYTJi4mSSZkJn8mmia1ZtCm6+cHJyJnPedZJ3SnkCerp8dn4uf+qBpoNihR6G2oiailqMGo3aj5qRWpMelOKWpphqmi6b9p26n4KhSqMSpN6mpqhyqj6sCq3Wr6axcrNCtRK24ri2uoa8Wr4uwALB1sOqxYLHWskuywrM4s660JbSctRO1irYBtnm28Ldot+C4WbjRuUq5wro7urW7LrunvCG8m70VvY++Cr6Evv+/er/1wHDA7MFnwePCX8Lbw1jD1MRRxM7FS8XIxkbGw8dBx7/IPci8yTrJuco4yrfLNsu2zDXMtc01zbXONs62zzfPuNA50LrRPNG+0j/SwdNE08bUSdTL1U7V0dZV1tjXXNfg2GTY6Nls2fHadtr724DcBdyK3RDdlt4c3qLfKd+v4DbgveFE4cziU+Lb42Pj6+Rz5PzlhOYN5pbnH+ep6DLovOlG6dDqW+rl63Dr++yG7RHtnO4o7rTvQO/M8Fjw5fFy8f/yjPMZ86f0NPTC9VD13vZt9vv3ivgZ+Kj5OPnH+lf65/t3/Af8mP0p/br+S/7c/23//wAAABNjb2xybmNseAABAA0ABoAAAAAYaXBtYQAAAAAAAAABAAEFAQKDBAUAABt2bWRhdBIACgoZKmV8Q8EBDQaEMt02EPAAwwwxQPZYL10BaySh7d0krsPBKVysC1ZNvWHFjMODbJLIvMHA8p72JFLQZC817qqFEIrjijavH9O2RiolRAALodpzmZ1VpA2YUYCwYowhWAJnRVqwuKCQEGpb60EgQem5ufYc2k8zntHUDi4FAuPbIMWKU9jPv2WV+gUVf2wPognp9IGXisqMksVVVS4WP00cFhCNsqQBaMc2SCVG69tRZRF8NNs7AgDbSekfRUFsPyy4uHO3to6TbVNcoCqTOjhjRUi0uwbsxuHfD3yg1+0GvlIL/HP2TN1ub2M19kIHoxyj/GV81XyoJYa7MAEr75mYcxYHaoOUihz0CHotIZm8bx8zjwAJbKL1Oa6HvwM07D5zS1hRfSyFjmkJDwkLpRW0wZ5vQGlJR92F/qamuMK7wNkmrOUebObGTmxk5s2SGXl7jBtY9Yf2d8j0RhTUYUDz18IxPdOsy2cjIRJhTTGfjgMOlplKH2NQCbzwelq6ECTEvnA/Jg5u2qt9+S4OR4YJxZ9hiAfFBiCGr8UxXSUnHhG1trVczzQgASmZekeJzOsX/1MyCj7GYHUjZtrVOn/lbfjx6vwV60/E8DOb055Slo8ANea8ZV3GJIeequSn3ebPPc3BpTPKrH7pzOUdaPjxMPJ4nOhF+Pzf/g6R27pmsr3s8r88ef88QxLx/LPsn+UaBjit24hmLygRn6GupX5tYi9GxR8Ut+iE5chQb8VszAvoWgDy9nEyjIJymXP8cctSid5C01gcOfgwQ9Vn5P4xmfNa0STyybBgDqwCeDMkbo6vWHNzEujgOwJkT3h2pdxErPHITuhtGIluRJq8I5BkHlOK+3owNwwDcwOwCyKi8rwwqL1WwurpLep34D0RFmnZVaXjh6ltPXg6gOkF3Nm1KHvvXUd2QoLm9l70t4/J9KSU3exhK+2JZqDJuHoNHoczdd5JNibMTWrDkNU2psQi3OyOPs0TYYeR78DD2M2PpQDh4cIlqEoGsQVR6eNPkRcsd9aeFDOe6Ft5q1jBfz074Uph7CNnIXhSpolMMlS/IugQVqvw55biZ3ZLFBvDoquK3URMYHOkP/Qi0+D0x7UFonhi/hQYDg3pZTFOBmex/ldnAUXcCvBUq9LIt9IPOZm+JvN/19UMeTjOVvtPIKyiHythBx9ZbNCu7IX9kzgxBTSjBYaBgAAzFNwZz5bjCzQYnFPycJcvDdx6PXctdeJ9ABgAkCVdfB3rYncWbG8cTL6MCF3gUiME1zQL158aGicLmC38UYHlKRnIyymzLdShTukiFrQvuX6ddhah0urXS2Ga5bq6M04W7CKLqBitFETXaHNe/Al5ZC8TKm4C2G1q0CMMeOQv3h1FzdoyBOlB5KUJjZNCQicN6cVDNwLmfnFY7oCbhlE9Zjwq0kVM4WrN6US0ZgBHQmOuTCDmP8gmhReVwtzQ0ZT8tErYB4IxligEVaNLanZPe0Bw8EGfe6/AE01i4+IxCjs1rkQ32sPsSdzr6LlNh4/cvJFpsXQvbSSFNL6806KOh66x+pTRmBMCV9lyE4yaSAfBnN4Iwho8KIKFUUkfRjdu17ZRq3pNPjArkPsARYrZRiplX6pq4Uxx8QMyanfL3oJpPAZ3jWLEga7+ebgXo4E+RZwzxmN5FQkd65KnMpNB7AYkHvEA1+ZjiVatQ+HWWs5tHGpoLQNoAGpvNcmEgs/mhZaRd90Loqa/Pq4q+RL8paSoshjHkJZxF8i2tURh2XfuMPsKS9lee5x3C5Q92Ue5+hn6hAkBf1JB5Tde0udIWI/FP+zAhxTgT04qsv2c+BFhDIUJhn8hsvuuSVtQ0D6Ly2lPZr0McGKd+Nie+WIIh0AT+CjCnghQ0AcixoTCsXVCHRYg0JjYMXgPW1tOPSReNL3OBVz6dCO4icEzVkvZ8AOr8sdBvXk5t5X/UrqfXP5/P6oAAEgAPzwIav2Oq9o96GbKsOpiLRYjNZC88SQ1z0iGruy0dGyaXZ7jf5sVdHchq8NlNdBbxh8J7fZSdoXeXvCgqf1FZVIxxEcmsjJigZQoAW/KWgIRxJ1zd7V64sovKjh6F+qm6JfubnzZZeB3qD7UEoTPVqyjaCYehm+J74mvRY4vHONNA4mwe4Y3EHsl6RCB8oSG22/Z+4661+5btoDPblP6yMsH0yof+bqwthhmyWIikDv/IFrZGp6SGBWq57bu1PWSyWApMbx4HJjvIEEtPJLD3wY+DKKo4rDQtMJwWkNqcUcV/B6MX92AD6h2sbqEHF4knaGmUbT5DiIxjF/YzL9Q4RTq1peBPGE+CjW9jNmNgQRFTElkGR4xcjsGoaLR5WhYnHHtwi3CLqlc3tcRRiEQYMXCKXVTeAJmTaVNSA+kr0mH+7L/79oxg6hC2JYpspr1HXH7VmCRpngQh61OUUBusvvios9rTFSJOkeGz96fpXLvFflJHkmvn8sT++bd8CXMH3LuBvmmbtTEzGwGHTEjVeHSg9E0LbiKBpAFm2Gw48YvH4MMIHAZO9/U/f4OCK9ryZTbkbvP/nXWI79kdC/0IPUP8jybQy89C1nNl6IWmsmvvWmwXNTx7urHy/sl2JcVrcaGP0tPLxNLrCljkFsZYy3YRwWthvnkvcxH3YxI7Fy3rj26z6TQUjD2BEaXrIpLQRRX1JOPWSzs01Tr4zxjob3UWqRl0vU1p/L9K7kq2u1C8RSzit+FzfDNnWBM0nJMzjVy7DSQESopjxo7ZSF7WQg9O6gzLRqRZTIfYmH1OaMNOWp9slkpg+wT9W4Hb6LGw1seQ03sDzuiNv5TD79gTdGJ/ZxkHPlt4i6NgQ4znwLPElFvm5WCqxkN7W385E3oCDQ7lMOsI1nInRJmTM7phd8/5JqJUMruhZhKt6Tx69YitLR0dVSw4u2aOc4PPnqDpQVgaffj7kYIaAIGx8IuEFAqPyHfdaTiQbKb+fYcN+uf0lZgRXI74eunFdsyCWWvSvLZok2bvJzybuYZ8Oy25QFEeBC5rXAivjKhGI9FFBjp59PAF/5GHTTbk551Kr+L1sKV7904qR2FRArN0rzqFdj0jBlFqhvVfebQH0e3RiEeFIkpAGnVJ22mT0Qro/bDcgRIbJmEsPbzGdoubaZLLQCUpC1Pguxw8GteI1ppU0j7ZDFhg5rJny88VRlrjvLRZ+4793gKs+nYXxEq6UHYc3ZjBGQli6gHr1RR7YSfjA57Yo1VfaJBxKk53YPrK+rf1CCtRip49AL8LM9AgOpzin8YIdGvO7SOrOG87mXTw5X4rhtCx0bstrYUb69IEKXOVXt4KY/AdxrMI3O/0rBjFP1C8/YAnelfJoy6VWwvh7j/zM5x9Kj8FsbbC1QToD5ToNNa4jMCDn3/XNeI6P6oKBT2+PNcMMZCP+wBh9E3a6RLUYAJJJisBLRiSSFqc0KLqVxM2G/2/fhavYJ9RVeXVM5jDK8aN4JqiHuXubnUo4urE4rTe/PKAPCiGiWSjxbJ9SlsngO0wjFwmea/TAST6ILHYD0jOOC9rXO4whPKQeTnyzO2Nx12VisHsPuX97jFtZM52U74QU/LbpGEd00wfQaTHsZ9HWt5Kr0musaBKhl4EkWFuSbLEGaF6Wc7Zuni6tsuYrrfBBc+P+tXxIOYuLF3K/u6qsj7U3JGFE+aLXDvL8AyrLIO29ftLcs0lED595AhJ9A+zL7Olt+hSnqylXfeYyl2GhWhk0kduKet+U/eTY1UV9sXWn0y2vIfOUv+Coq84oNsx9BoKhDjN/IpSKAztTiF+wbOaJCA+cnfA+pyGVsY9jK+iyDUQcEWP0vwKZrvirvaVpvKMXgmNsQx73oujEiVrKjLq/LW5EMtnge/Xyp6GxjI1p4zmJYUaUrWPgFs48j0mOJEIeCHi1YinMMPtsJNsBifd146QODxRTP7U2wPmE9ewIjim2TaikhIatmlRByqDIzqtIhsPg+0B9D2dOyQNMNxoDlEnJ9nBxW5PRyoNTOI+kyDg9slVOoig5XzgY8dBj92bKRuv0+N8JZGopzSmivoMd5jSKpr6Ku5mwWi8RMUobdw040zkkFYpxPePuZ6K0Mv+ovGDnJ204IfqwmnyoBgls+do6xsR9D2qSuqXPCReP+pU8cBr4S2lF7hs4hs8DQddQ7jXE+8p1BEuMhcA6i7hyFntFWS6tKcJyRm57qSkGrBjK1igwyfMlTPFa3vWvW1iP2kONN1rkL7XCV671QDHYsiggtbu9Rik0DmK4bSnogvn5ZUYPBW0XCdZC1zbba2SsrZxFWTNgIsxULUdfls11EkPdu44Q2WNuGWt5XxPsTapr8tIHArQBmzxzTTU35fyPG0F0Vj1K4olY40JpCy6SXYW0wLjcPNdWOn72/ubVkhr8r6oDOcAMt/+DtZtXYODDAJYDlyST0drZumw8XFkYW0GSQeUCNOGhE2rQOyj6F4PazwrFduotCL1khvMTybtyVgH9NoJzZwDYOVLpu+mU2Op4q21ToiV2pXj2P4sEKjtH7j7mLfq6sA4tvj7AyYDqieRdk9zzxBXhNd/tp94Hilg5Lcynku5OnF9cdJwhLTNYco4ucGoCYGPrbqbjJ4ha26EA6fobEDodmEfUlufmmjGrO81n3LntvU1ohFdckk0RP0Tc2wIn0EklTodvOsRtJKknOWs0UyW5yQTxThTHvc2gDb+PLj96WkcCGu36+syJKi4T99CIa/rM96SC7VPjmPvyG8d+OQ6FLKxxdj/waLPe973vin/rhcanUCaI4NpI7vj+bh12LXDjBdcZ0EpToHjl0t3gVaJWBEZWAJB/RLYCbXXMHCStn5zjB9XMOmDuzSYZhZcRNHfx1PlY+Gx6/uI+u5kMI3dwHFAL6vq+r68ax0ibvSzqjgIar0INBYVSVa4iBOU/xfy415to8rQclbBN6ziROdBEOn3e6wKVffaDLPbGk4QlMYxvin6+VFiziStJNrlXSNcuZCtzIVuZN0g/K5SYJQguC7mVaXhuVs/Dfts/Cd2Dy8Zt/ctE8nEdATA+46bUUhrCk/nvWjW+HRk4nT3zuPiEURoGbuXVM+XI4U60ELi85eULJ2oiNNKENq+zx2eS+3hW/zIfzowT1d2IGVXMieAL894AWvpDIvhk1ZgYFU7Pj+Er0GVmNOIYFlGrrFCj5FxQylP7K2xDYBkCJzYM312BfzOTBTeBOOGva5znt+SU9d3jvidzNG/+DapuImFLbyQ28kNvKWZid7iH2OLX8h1Qa9KoSn6OrB1c/UZo/qm5MVnX9vb2vXjw3bJHD9Bb1DHWN0UUN34+St+7CrjdP8B7shs5Fyai+fEWa1lUngHuY6pqFUJCdFMZ8Jaf4Grze3rc+p9nBF9cOPBkd4WO6dVK1uliQEXHgRdQ0ZnGs5M7WsVfOBoQh500pO+04jdhTrKCpIRVg3b030CCOce7tWonOD8PQUxAUrTXLTodsX4fQQWVxUo5cxmccvRq2DZReoXP8S5DEsAVNQnkjkZJvdNCO5YUFpac3aKCWIhq5IlL2hwc4Bu8grWMk3DL+7VGKYH+1v8btQs3ljep24/QxyLMtQ88Y4qjq/QAzE0jbRT2pldK25bMyYc1TLCyC2iXlbxswXhUULZ9X+4/Dxqo/wFGAWW9KdD/gjkwjz7y+C7jX2U7tVguvDXnQBJ2twWQDvh6Ghlxdwiad3e+MeoxDY2rVUEjZamFomoFeX0DlDZpHI/uTObusBNs6Lk6RDsRxk6574b2z3MVt7WLRZHIFrmEesgCHIiW2eAv7Xvgy33khMbjKuN5GjMhgvjSgLYxAba+AnPaxcEIidbfn0B/ZpiKIEdbQmCA311YMg/xSrv3o+Le9ByigUZG38Jn6l+QdmXUjt/C3uUmg4PXmUUCjbefKTJUntqN/vSKiHifuKNicmSMQoRRenwDxtgOAk00L4QFBNvo/zhegJmfE8agicj8ozg4eYMcaIfem271MIos9jeebWfffwJstxRcrHrjOWr8fhv9o1ZRWqkZvGW2emw6REvahZjJlMBJV9SpNQEzWDTOxsJV61KUPxR4V3hzipeUky/IklxOtwfWmojh/3QDxrxD2Tqzm5IESDT0XzhqRSLurYGL2yymr3/2Z5M9Ia3DmA1CPKGiRfK55JXkEIHxO84n4Kmts7B8RZQS5am5SYEZ5EXGAsRj8KdFx8WjUiOlYYn0XtGPJvXwpoVnmJPeo115VbstzrfCyGW6Bo6TGsX1E1A9KTxdYUNkN+BpB2jxGAm0XX2gEt+0cbIUherdxwyHROveUkT2w544nJs5STb6JSR20tOvoGeO9amJUhI/mo2/0OBsmRL0m8CRa1KgSeE7GfGPUURiNuVfaD2JB6XgZ7MYGnQLdqKR0oP0agYmJ4k7Yr/1OiqFyLGWl8vTVpvZDwp+qyccJ/7tEczg3UsQ0Jzyt5+LhVTQfA/JKs+deRq4o14RrlLUL6pCWt/V2cTQVgLNtg5tWEJAcAsRlS5ol098cz+hn/W8mlftdmJTSsPykaKkTyKcA3/0zXEotXjwmix9H8dn9D+sbbCmxBGZKj6pK0AuPLNS9oOqkxMlp0Pquw9MKxgQraWMnuzkWMPfOfWAtYaw3n7VD9zSNsaRwNWT7SqWZbAbDwCv/+ljTJ8EKp2k/1nlIxI2txFa4TeR/Gmz0B82Bc9xZSbUuIS9BTUNEuPxoa52rPy2nRLVUl0CPLmwzLEhhz7Sp9ffy8ycBlHjvPDsvG/uY0D8V4fG58nAgppLNwQ2Mt/ea4pJBzn57l5WAa/IAfx5iHoiewahDO/iZEIBGGXz1fHQnub8bsD6LT94hhnrcrHViQLid8MJXh1wJTHx+G2mEZxR0MszvhkOZl1h4VO46N9LL9i6YYwrC8US/uGiQNo2J4X4lkVnhmC40gapJrjbBTBTshXhZ5qCs97rqQoiznmf9fG14oiLy+zMMnRGgDY4x3Tjm+4oIwRF9gxwG9lmI3AI3AfnaSQSf5o4JfzspOYTZZ0a51OVFsYCeQQJMizB8LrwSLYL+SGfrBzPZC0Hs849Ai3AGqx5jraACvmvkzfLuS9Q4Bkq8JJAPfkiNQJEbMZtuX1BmSL6v+ibHcLX8TY6tOABDxgNNon8+0rQG2iox/iyYx/XEfvAUHAyQnkwP8vfiVnz8NvxZvOlfzQMJBC4LazqiAJRr1pkLSe5A4kJ0nlffXonyg4wutqwpuZYHQtELJEQ7JJN59ZXohA75egS90Le8nOYTD7eDk+7nGcZT1E4jvtFKInkWOJjC686u58xSuXZB13BNoxKpLRd032tG0hS/1uQfgOxTj6wiK/nDnJuk9s6619ol803jf4cm3MX6L9Wwdk8RYoAYR1v2enl8pDB/Hw9PldPmTnyOs0ej0ZPd7Ec+JfDhmOJrPz8zz2/8FhLEyHrXhCQPTr2vfKA/Pi6GvOfiojiNP7FMYGvuGeG6GlsXJotkUXOqXrVbgm60upwAEYbGidQDhaatG7x6J9tyf5dgh7gSxh3IcQrgqHuFQd7h9eYuPKYZHUwWGfDTplhGhbDMBVB1Dhj8SBDEQusV594b+pfEP6TeUQXqGESnhB89PgssIFGlOaDKwbbYcAnRVjBHsH1j1VVhjy2fSit3058LpuElEKOT8k/GOAArRYLZGIaOxVwKtb2CGI7HKx9pHj1ceXkaRItxpW43hKbJOg/YQQ007XD9pbblNsVk/Ot3KkxxxV4bVrTPDaQBlJCHAnBCDWuIzI3c/Cftf1lYHOYqyehHEiFIgDxwuf9xzW11oG4iGH5XCWoV1+6zMd12VMsdw95MSqBKESnACrLWVxMq/ffHKlHoR0de3hGItT8MlBY9YyZ/UDO2/brmBwHB6iqoU50118yvIxZbX3TKXs5MKe3ydxhec+HAcPDXrEwSJ+3kGXrP7pWhnhAOW+uuqwYqOoRLdVjk7X2JjfPD8n09CCWkhl7jBN3CpeUkdWwFglN9p8QXhxvTZ9Tzw0yU/Y5ouA+rpEBDDNjzbioqMvTNlf24s+zpS3X5iS3N2jZh7GqFItYLap44WVm9tp8N5aqg7t6gzdR2ftE4aLZiwiRtTZ2QKVqofz1uQCvvB3vsNOK5slaEYGhj557wrpWJWZnhClDra31XlnVxxUNkoWgkSZT5M6egdRonTFJ2cDsmy8nHdR3zKlBpnPhVo9wv5CBvoBoInM5cPTqnklElg7bx7w3lcGjAA8EYCmRzymY3qXgTV9aPEP7JNUXxmCmoBZQcMPza0RioEP/t3/5tlvzM1o+VVJRN/ZfTjCYAQAia1IvXlLYve6fadmUmA0vNJTc3l3G2uIFreNPtiLu+66E+fSpwJUxz91kN3dwtTHf7xXZmUdaviRx901Hrv5AlBPifqbm9NfRz4cphhyrbq9f4/p+cIbnCd74M7DrorfkHDux479bGh6uOKX/reDexVrxRZyI7QaM6YyK9JroNJcwatZv74KrwGULOfIP3t0wvayxnDsyFt0sqplPZNz1bW7Tb7udH1a9exCFeBto6BV+41fvxdIhMP/rZUGXB1G1W8X4XTHfI0SupELRyo3L7GV9EMyo/M0WifRwD7uu5Hw5IRTrYGVUFIX0pfBkLftctEfH1n/cWKyznXeI8kTvxDL5VGhzGcxvbIQc+ZuYgJkDteRLKi/MugCeguk8HXeLOO8hNaDceu/jgENL3QS/l9EsaZdMkFxLMnhCaNuITwOfyr8v/C3eMsyYq11fqRl2BmTi3uk7L+KhJoHvazSwEXG4pYCF/17tSfE5MJeg0Kzfms5GZNS4Um21673UNoDLiA2D3NMZ2K8kpAwn5Wu7RhjybZBJ0RcPMIu8+dlq00o8OaQb6JyeMSyKtsN4WQpVWYAb7NSz3k9h9Vd1aqD/jsk2P7FsJimPgHPfSns5b1/q53uBJ6K4Zq0L2Wj06ZIfjfGqVuLRlRBURAuX91/XyfEG1Mxc+etKDly4voBRG8fIVBJmv5Qqj8P4z6kVerjVWxFYXphCAuB3BhqArU/G29gcwhYfEnDsNcjEpCWJ40a6mkkoy44e8HBKnRTPmbJWqOqDouSzlxhoPe+LISA+Q12OSaVaY96amZ5kAfC8LvviCtxahhd7EGKpNXyBM1oouEn5Bvt1iSciTXYuwzW7SnIEVTr7C7tWLPBfbxDlNPSA8bZ1gZflIseTgrajCzVqoVrCt8w9gmBA9+4q26jBXifVJmHKQLelpFj4bzElosVahzsD8Tk/2UPLhe3J+R8XXDUl+4Aj86l0x0xjrcPRVzOZpSg2BtB3O15NERKHAjqp4IkHHjE4GtAlq8bv5keDMGtbqIwe8HYXbE5NdkMzWaLjCjrYkzE4qL6OtcxGmYsN9g;" vertex="1" parent="K3Nuk1EUV9wkUVcjrLwg-33">
          <mxGeometry x="35" y="90.00221288515408" width="80" height="36.46" as="geometry" />
        </mxCell>
        <mxCell id="K3Nuk1EUV9wkUVcjrLwg-35" value="" style="strokeColor=#dddddd;shadow=1;strokeWidth=1;rounded=1;absoluteArcSize=1;arcSize=2;" vertex="1" parent="K3Nuk1EUV9wkUVcjrLwg-29">
          <mxGeometry x="447" y="17.5" width="100" height="60" as="geometry" />
        </mxCell>
        <mxCell id="K3Nuk1EUV9wkUVcjrLwg-36" value="Cloud&#xa;SQL" style="editableCssRules=.*;html=1;fontColor=#999999;shape=image;verticalLabelPosition=middle;verticalAlign=middle;labelPosition=right;align=left;spacingLeft=20;part=1;points=[];imageAspect=0;image=data:image/svg+xml,PHN2ZyB4bWxucz0iaHR0cDovL3d3dy53My5vcmcvMjAwMC9zdmciIHhtbG5zOnY9Imh0dHBzOi8vdmVjdGEuaW8vbmFubyIgd2lkdGg9IjE0LjY1OTk5OTg0NzQxMjExIiBoZWlnaHQ9IjIwIiB2aWV3Qm94PSIwIDAgMTQuNjU5OTk5ODQ3NDEyMTEgMjAiPiYjeGE7CTxzdHlsZSB0eXBlPSJ0ZXh0L2NzcyI+JiN4YTsJLnN0MHtmaWxsOiM0Mjg1ZjQ7fSYjeGE7CS5zdDF7ZmlsbDojNjY5ZGY2O30mI3hhOwkuc3Qye2ZpbGw6I2FlY2JmYTt9JiN4YTsJPC9zdHlsZT4mI3hhOwk8c3R5bGU+JiN4YTsJCS5Ee2ZpbGwtcnVsZTpldmVub2RkfSYjeGE7CTwvc3R5bGU+JiN4YTsJPHBhdGggZD0iTTcuMzMgMTUuMzV2LTMuMDFMMCA4LjQ0djMuMDF6bTAgNC42NXYtMy4wMUwwIDEzLjA5djMuMDF6IiBjbGFzcz0ic3QyIEQiLz4mI3hhOwk8cGF0aCBkPSJNMTQuNjYgOC40NGwtNy4zMyAzLjl2My4wMWw3LjMzLTMuOXptMCA0LjY1bC03LjMzIDMuOVYyMGw3LjMzLTMuOXoiIGNsYXNzPSJzdDEgRCIvPiYjeGE7CTxwYXRoIGQ9Ik03LjMzIDB2My4wMWw3LjMzIDMuOVYzLjl6IiBjbGFzcz0ic3QwIEQiLz4mI3hhOwk8cGF0aCBkPSJNMCA2LjkxbDcuMzMtMy45VjBMMCAzLjl6IiBjbGFzcz0iRCBzdDEiLz4mI3hhOwk8cGF0aCBkPSJNNy4zMyAxMC43OVY3Ljc3TDAgMy44N3YzLjAyeiIgY2xhc3M9IkQgc3QyIi8+JiN4YTsJPHBhdGggZD0iTTE0LjY2IDMuODdsLTcuMzMgMy45djMuMDJsNy4zMy0zLjl6IiBjbGFzcz0iRCBzdDEiLz4mI3hhOzwvc3ZnPg==;" vertex="1" parent="K3Nuk1EUV9wkUVcjrLwg-35">
          <mxGeometry width="22" height="30" relative="1" as="geometry">
            <mxPoint x="19" y="15" as="offset" />
          </mxGeometry>
        </mxCell>
        <mxCell id="K3Nuk1EUV9wkUVcjrLwg-37" value="" style="strokeColor=#dddddd;shadow=1;strokeWidth=1;rounded=1;absoluteArcSize=1;arcSize=2;" vertex="1" parent="K3Nuk1EUV9wkUVcjrLwg-29">
          <mxGeometry x="442" y="105" width="120" height="60" as="geometry" />
        </mxCell>
        <mxCell id="K3Nuk1EUV9wkUVcjrLwg-38" value="Cloud&#xa;Storage" style="editableCssRules=.*;html=1;fontColor=#999999;shape=image;verticalLabelPosition=middle;verticalAlign=middle;labelPosition=right;align=left;spacingLeft=20;part=1;points=[];imageAspect=0;image=data:image/svg+xml,PHN2ZyB4bWxucz0iaHR0cDovL3d3dy53My5vcmcvMjAwMC9zdmciIHhtbG5zOnY9Imh0dHBzOi8vdmVjdGEuaW8vbmFubyIgd2lkdGg9IjIwIiBoZWlnaHQ9IjE2IiB2aWV3Qm94PSIwIDAgMjAgMTYiPiYjeGE7CTxzdHlsZSB0eXBlPSJ0ZXh0L2NzcyI+JiN4YTsJLnN0MHtmaWxsOiM0Mjg1ZjQ7fSYjeGE7CS5zdDF7ZmlsbDojNjY5ZGY2O30mI3hhOwkuc3Qye2ZpbGw6I2FlY2JmYTt9JiN4YTsJLnN0M3tmaWxsOiNmZmY7fSYjeGE7CTwvc3R5bGU+JiN4YTsJPHBhdGggY2xhc3M9InN0MiIgZD0iTTAgMGgyMHY3SDB6Ii8+JiN4YTsJPHBhdGggY2xhc3M9InN0MSIgZD0iTTE4IDBoMnY3aC0yeiIvPiYjeGE7CTxwYXRoIGNsYXNzPSJzdDAiIGQ9Ik0xOCA3bDItN2gtMnoiLz4mI3hhOwk8cGF0aCBjbGFzcz0ic3QxIiBkPSJNMCAwaDJ2N0gweiIvPiYjeGE7CTxnIGNsYXNzPSJzdDMiPiYjeGE7CQk8cGF0aCBkPSJNNCAzaDZ2MUg0eiIvPiYjeGE7CQk8cmVjdCB4PSIxMyIgeT0iMiIgd2lkdGg9IjMiIGhlaWdodD0iMyIgcng9IjEuNSIvPiYjeGE7CTwvZz4mI3hhOwk8cGF0aCBjbGFzcz0ic3QyIiBkPSJNMCA5aDIwdjdIMHoiLz4mI3hhOwk8cGF0aCBjbGFzcz0ic3QxIiBkPSJNMTggOWgydjdoLTJ6Ii8+JiN4YTsJPHBhdGggY2xhc3M9InN0MCIgZD0iTTE4IDE2bDItN2gtMnoiLz4mI3hhOwk8cGF0aCBjbGFzcz0ic3QxIiBkPSJNMCA5aDJ2N0gweiIvPiYjeGE7CTxnIGNsYXNzPSJzdDMiPiYjeGE7CQk8cGF0aCBkPSJNNCAxMmg2djFINHoiLz4mI3hhOwkJPHJlY3QgeD0iMTMiIHk9IjExIiB3aWR0aD0iMyIgaGVpZ2h0PSIzIiByeD0iMS41Ii8+JiN4YTsJPC9nPiYjeGE7PC9zdmc+;" vertex="1" parent="K3Nuk1EUV9wkUVcjrLwg-37">
          <mxGeometry width="30" height="24" relative="1" as="geometry">
            <mxPoint x="15" y="18" as="offset" />
          </mxGeometry>
        </mxCell>
        <mxCell id="K3Nuk1EUV9wkUVcjrLwg-39" value="" style="strokeColor=#dddddd;shadow=1;strokeWidth=1;rounded=1;absoluteArcSize=1;arcSize=2;" vertex="1" parent="K3Nuk1EUV9wkUVcjrLwg-29">
          <mxGeometry x="30" y="125" width="110" height="60" as="geometry" />
        </mxCell>
        <mxCell id="K3Nuk1EUV9wkUVcjrLwg-40" value="Cloud&#xa;Build" style="editableCssRules=.*;html=1;fontColor=#999999;shape=image;verticalLabelPosition=middle;verticalAlign=middle;labelPosition=right;align=left;spacingLeft=20;part=1;points=[];imageAspect=0;image=data:image/svg+xml,PHN2ZyB4bWxucz0iaHR0cDovL3d3dy53My5vcmcvMjAwMC9zdmciIHhtbG5zOnY9Imh0dHBzOi8vdmVjdGEuaW8vbmFubyIgd2lkdGg9IjE3LjMyOTk5OTkyMzcwNjA1NSIgaGVpZ2h0PSIxOS42MTAwMDA2MTAzNTE1NjIiIHZpZXdCb3g9IjAgMCAxNy4zMjk5OTk5MjM3MDYwNTUgMTkuNjEwMDAwNjEwMzUxNTYyIj4mI3hhOwk8c3R5bGUgdHlwZT0idGV4dC9jc3MiPiYjeGE7CS5zdDB7ZmlsbDojNDI4NWY0O30mI3hhOwkuc3Qxe2ZpbGw6IzY2OWRmNjt9JiN4YTsJLnN0MntmaWxsOiNhZWNiZmE7fSYjeGE7CTwvc3R5bGU+JiN4YTsJPHBhdGggY2xhc3M9InN0MCIgZD0iTTEyLjE4IDcuOThMMTEgNy4yOWwtMy41MiA2LjEgMS4xOC42OCAzLjUyLTIuMDN6IiBmaWxsPSIjNDI4NWY0Ii8+JiN4YTsJPHBhdGggY2xhc3M9InN0MSIgZD0iTTYuMzIgMTIuNzJsMy41My02LjA5LTEuMTktLjY5LTMuNTIgMi4wNHY0LjA2eiIgZmlsbD0iIzY2OWRmNiIvPiYjeGE7CTxwYXRoIGNsYXNzPSJzdDIiIGQ9Ik0zLjc1IDcuOThMMCA1LjgxdjkuMmw3Ljk3IDQuNnYtNC4zM2wtNC4yMi0yLjQ0em05LjEzLTEuMmwzLjc2LTIuMTdMOC42NiAwIC42OCA0LjYxbDMuNzYgMi4xNyA0LjIyLTIuNDR6TTkuMzUgMTkuNjFsNy45OC00LjZ2LTkuMmwtMy43NiAyLjE3djQuODZsLTQuMjIgMi40NHoiIGZpbGw9IiNhZWNiZmEiLz4mI3hhOzwvc3ZnPg==;" vertex="1" parent="K3Nuk1EUV9wkUVcjrLwg-39">
          <mxGeometry width="26" height="30" relative="1" as="geometry">
            <mxPoint x="17" y="15" as="offset" />
          </mxGeometry>
        </mxCell>
        <mxCell id="K3Nuk1EUV9wkUVcjrLwg-71" value="" style="edgeStyle=orthogonalEdgeStyle;fontSize=12;html=1;endArrow=blockThin;endFill=1;rounded=0;strokeWidth=2;endSize=4;startSize=4;dashed=0;strokeColor=#4284F3;exitX=1.031;exitY=0.456;exitDx=0;exitDy=0;exitPerimeter=0;entryX=0;entryY=0.5;entryDx=0;entryDy=0;" edge="1" parent="K3Nuk1EUV9wkUVcjrLwg-29" source="K3Nuk1EUV9wkUVcjrLwg-33" target="K3Nuk1EUV9wkUVcjrLwg-37">
          <mxGeometry width="100" relative="1" as="geometry">
            <mxPoint x="200" y="185" as="sourcePoint" />
            <mxPoint x="300" y="185" as="targetPoint" />
          </mxGeometry>
        </mxCell>
        <mxCell id="K3Nuk1EUV9wkUVcjrLwg-72" value="" style="edgeStyle=orthogonalEdgeStyle;fontSize=12;html=1;endArrow=blockThin;endFill=1;rounded=0;strokeWidth=2;endSize=4;startSize=4;dashed=0;strokeColor=#4284F3;exitX=1;exitY=0.11;exitDx=0;exitDy=0;exitPerimeter=0;entryX=0;entryY=0.5;entryDx=0;entryDy=0;" edge="1" parent="K3Nuk1EUV9wkUVcjrLwg-29" source="K3Nuk1EUV9wkUVcjrLwg-33" target="K3Nuk1EUV9wkUVcjrLwg-35">
          <mxGeometry width="100" relative="1" as="geometry">
            <mxPoint x="200" y="185" as="sourcePoint" />
            <mxPoint x="300" y="185" as="targetPoint" />
          </mxGeometry>
        </mxCell>
        <mxCell id="K3Nuk1EUV9wkUVcjrLwg-79" value="" style="edgeStyle=orthogonalEdgeStyle;fontSize=12;html=1;endArrow=blockThin;endFill=1;rounded=0;strokeWidth=2;endSize=4;startSize=4;dashed=0;strokeColor=#4284F3;exitX=0.996;exitY=0.813;exitDx=0;exitDy=0;exitPerimeter=0;entryX=0.5;entryY=0;entryDx=0;entryDy=0;" edge="1" parent="K3Nuk1EUV9wkUVcjrLwg-29" source="K3Nuk1EUV9wkUVcjrLwg-33" target="K3Nuk1EUV9wkUVcjrLwg-82">
          <mxGeometry width="100" relative="1" as="geometry">
            <mxPoint x="200" y="185" as="sourcePoint" />
            <mxPoint x="508" y="267.5" as="targetPoint" />
          </mxGeometry>
        </mxCell>
        <mxCell id="K3Nuk1EUV9wkUVcjrLwg-80" value="" style="strokeColor=#dddddd;shadow=1;strokeWidth=1;rounded=1;absoluteArcSize=1;arcSize=2;" vertex="1" parent="K3Nuk1EUV9wkUVcjrLwg-29">
          <mxGeometry x="30" y="265" width="130" height="60" as="geometry" />
        </mxCell>
        <mxCell id="K3Nuk1EUV9wkUVcjrLwg-81" value="Artifact&#xa;Registry" style="editableCssRules=.*;html=1;fontColor=#999999;shape=image;verticalLabelPosition=middle;verticalAlign=middle;labelPosition=right;align=left;spacingLeft=20;part=1;points=[];imageAspect=0;image=data:image/svg+xml,PHN2ZyB4bWxucz0iaHR0cDovL3d3dy53My5vcmcvMjAwMC9zdmciIHhtbG5zOnY9Imh0dHBzOi8vdmVjdGEuaW8vbmFubyIgd2lkdGg9IjIxLjk5OTAwMDU0OTMxNjQwNiIgaGVpZ2h0PSIyMC4zOTM5OTkwOTk3MzE0NDUiIHZpZXdCb3g9IjAgMCAyMS45OTkwMDA1NDkzMTY0MDYgMjAuMzkzOTk5MDk5NzMxNDQ1Ij4mI3hhOwk8c3R5bGUgdHlwZT0idGV4dC9jc3MiPiYjeGE7CS5zdDB7ZmlsbDojNDI4NWY0O2ZpbGwtcnVsZTpldmVub2RkfSYjeGE7CTwvc3R5bGU+JiN4YTsJPHBhdGggY2xhc3M9InN0MCIgZD0iTTUgMHYyLjQ1OEwxLjk5OSA0LjE5N3YxMi4wMUw1IDE3LjkzOHYyLjQ1NmwtNS0yLjg4N1YyLjg4NnptMTIgMGw0Ljk5OSAyLjg4NnYxNC42MjFMMTcgMjAuMzk0di0yLjQ1NmwzLTEuNzMxVjQuMTk3bC0zLTEuNzM5em0tNi4wMTYgNi42NzNsMi45NDctMS42NDYtMi45NDctMS42NDYtMi45NDcgMS42NDZ6bTMuMjY4LTEuMDk2bC0yLjg3MSAxLjY3OHYzLjI4N2wyLjg3MS0xLjY3NnpNNy43NzMgOC44NjZsMi44NzEgMS42NzRWNy4yNTZMNy43NzMgNS41Nzd6bS0uMjEyIDMuODc4bDIuODItMS42NDYtMi44Mi0xLjY0Ni0yLjgyIDEuNjQ2em0zLjEzMi0xLjA5OGwtMi44NzEgMS42Nzh2My4yODdsMi44NzEtMS42NzZ6bS02LjI2NCAzLjI4OUw3LjMgMTYuNjA5di0zLjI4NWwtMi44NzEtMS42Nzl6bTEwLjAyOS0yLjE5MWwyLjgyLTEuNjQ2LTIuODItMS42NDYtMi44MiAxLjY0NnptMy4xMzItMS4wOThsLTIuODcxIDEuNjc4djMuMjg3bDIuODcxLTEuNjc2em0tNi4yNjQgMy4yODlsMi44NzEgMS42NzR2LTMuMjg1bC0yLjg3MS0xLjY3OXoiLz4mI3hhOzwvc3ZnPg==;" vertex="1" parent="K3Nuk1EUV9wkUVcjrLwg-80">
          <mxGeometry width="30" height="27" relative="1" as="geometry">
            <mxPoint x="15" y="16" as="offset" />
          </mxGeometry>
        </mxCell>
        <mxCell id="K3Nuk1EUV9wkUVcjrLwg-82" value="Secret&#xa;Manager" style="sketch=0;html=1;verticalAlign=top;labelPosition=center;verticalLabelPosition=bottom;align=center;spacingTop=-6;fontSize=11;fontStyle=1;fontColor=#999999;shape=image;aspect=fixed;imageAspect=0;image=data:image/svg+xml,PHN2ZyB4bWxucz0iaHR0cDovL3d3dy53My5vcmcvMjAwMC9zdmciIGlkPSJzdmc1MzkzNyIgdmVyc2lvbj0iMS4xIiB2aWV3Qm94PSIwIDAgMTc1LjE2MDYzIDEwNC4yNzczNSIgaGVpZ2h0PSIxMDQuMjc3MzVtbSIgd2lkdGg9IjE3NS4xNjA2M21tIj4mI3hhOyAgPHBhdGggZD0ibSAxMjguNTY5MSwzNC4xMTUyMzYgdiAxMi45Nzg1MTYgbCAtMTIuMzM3ODksLTQuMzgwODYgLTIuNTA5NzcsNy4wNjgzNiAxMi41NDEwMiw0LjQ1MzEyNSAtOC41NjA1NSwxMS40MzE2NCA2LjAwMTk2LDQuNDk2MDk0IDguNTk5NjEsLTExLjQ4MDQ2OSA4LjQ5NDE0LDExLjQ2NDg0NCA2LjAyNzM0LC00LjQ2NDg0NCAtOC40NzI2NiwtMTEuNDMzNTkzIDEyLjY0MDYzLC00LjQ2Njc5NyAtMi41LC03LjA3MDMxMyAtMTIuNDIzODMsNC4zOTA2MjUgViAzNC4xMTUyMzYgWiBtIC00NC43NzY4NzIsMCB2IDEyLjk3ODUxNiBsIC0xMi4zMzc4OTEsLTQuMzgwODYgLTIuNTA5NzY1LDcuMDY4MzYgMTIuNTQxMDE1LDQuNDUzMTI1IC04LjU2MDU0NywxMS40MzE2NCA2LjAwMTk1Myw0LjQ5NjA5NCA4LjU5OTYxLC0xMS40ODA0NjkgOC40OTQxNCwxMS40NjQ4NDQgNi4wMjczNDcsLTQuNDY0ODQ0IC04LjQ3MjY1OSwtMTEuNDMzNTkzIDEyLjY0MDYyOSwtNC40NjY3OTcgLTIuNSwtNy4wNzAzMTMgLTEyLjQyMzgzMiw0LjM5MDYyNSBWIDM0LjExNTIzNiBaIG0gLTQ0Ljc3Njg1LDAgdiAxMi45Nzg1MTYgbCAtMTIuMzM3ODkxLC00LjM4MDg2IC0yLjUwOTc2NSw3LjA2ODM2IDEyLjU0MTAxNSw0LjQ1MzEyNSAtOC41NjA1NDcsMTEuNDMxNjQgNi4wMDE5NTMsNC40OTYwOTQgOC41OTk2MSwtMTEuNDgwNDY5IDguNDk0MTQsMTEuNDY0ODQ0IDYuMDI3MzQ0LC00LjQ2NDg0NCAtOC40NzI2NTYsLTExLjQzMzU5MyAxMi42NDA2MjUsLTQuNDY2Nzk3IC0yLjUsLTcuMDcwMzEzIC0xMi40MjM4MjgsNC4zOTA2MjUgViAzNC4xMTUyMzYgWiBNIDE3NS4xNjA2NCwxMGUtNyBWIDEwNC4yNzczNCBoIC0zNy4yNzY4MiBjIC0xLjIwODU3LDAgLTIuMDAyNDgsLTAuNjIzNTQgLTIuMDAyNDgsLTEuODY2MzQgdiAtOS45MjcyMzggYyAwLC0xLjE0ODI1IDAuNzE1OTYsLTEuNzA2NDIgMi4wMDI0OCwtMS43MDY0MiBoIDIzLjc3NjgyIFYgMTMuNSBoIC0yMy45NDQ5OCBjIC0xLjQwODU1LDAgLTEuOTUxNTEsLTAuNzUyMzE3IC0xLjk1MTUxLC0yLjA3NDQ4MiBWIDEuODQyNzI2IGMgMCwtMS4yNjU5NzEgMC42OTgwOCwtMS44NDI3MjUgMS45NTE1MSwtMS44NDI3MjUgeiBNIDAsMCB2IDEwNC4yNzczNSBoIDM3LjI3NjgxNCBjIDEuMjA4NTcxLDAgMi4wMDI0ODMsLTAuNjIzNTQgMi4wMDI0ODMsLTEuODY2MzQgdiAtOS45MjcyMzggYyAwLC0xLjE0ODI1IC0wLjcxNTk1NywtMS43MDY0MiAtMi4wMDI0ODMsLTEuNzA2NDIgSCAxMy41IFYgMTMuNDk5OTk5IGggMjMuOTQ0OTczIGMgMS40MDg1NTIsMCAxLjk1MTUxMSwtMC43NTIzMTcgMS45NTE1MTEsLTIuMDc0NDgyIFYgMS44NDI3MjUgQyAzOS4zOTY0ODQsMC41NzY3NTQgMzguNjk4NDEsMCAzNy40NDQ5NzMsMCBaIiBzdHlsZT0iY29sb3I6IzAwMDAwMDtvcGFjaXR5OjE7ZmlsbDojNDI4NWY0O2ZpbGwtb3BhY2l0eToxOy1pbmtzY2FwZS1zdHJva2U6bm9uZSIvPiYjeGE7PC9zdmc+;" vertex="1" parent="K3Nuk1EUV9wkUVcjrLwg-29">
          <mxGeometry x="487" y="285" width="42" height="25" as="geometry" />
        </mxCell>
        <mxCell id="K3Nuk1EUV9wkUVcjrLwg-83" value="" style="edgeStyle=orthogonalEdgeStyle;fontSize=12;html=1;endArrow=blockThin;endFill=1;rounded=0;strokeWidth=2;endSize=4;startSize=4;dashed=0;strokeColor=#4284F3;entryX=0;entryY=0.5;entryDx=0;entryDy=0;exitX=0.576;exitY=1.011;exitDx=0;exitDy=0;exitPerimeter=0;" edge="1" parent="K3Nuk1EUV9wkUVcjrLwg-29" source="K3Nuk1EUV9wkUVcjrLwg-39" target="K3Nuk1EUV9wkUVcjrLwg-82">
          <mxGeometry width="100" relative="1" as="geometry">
            <mxPoint x="130" y="195" as="sourcePoint" />
            <mxPoint x="300" y="185" as="targetPoint" />
            <Array as="points">
              <mxPoint x="93" y="245" />
              <mxPoint x="314" y="245" />
              <mxPoint x="314" y="298" />
            </Array>
          </mxGeometry>
        </mxCell>
        <mxCell id="K3Nuk1EUV9wkUVcjrLwg-84" value="" style="edgeStyle=orthogonalEdgeStyle;fontSize=12;html=1;endArrow=blockThin;endFill=1;rounded=0;strokeWidth=2;endSize=4;startSize=4;dashed=0;strokeColor=#4284F3;exitX=0.564;exitY=0.047;exitDx=0;exitDy=0;exitPerimeter=0;entryX=0;entryY=0.25;entryDx=0;entryDy=0;" edge="1" parent="K3Nuk1EUV9wkUVcjrLwg-29" source="K3Nuk1EUV9wkUVcjrLwg-39" target="K3Nuk1EUV9wkUVcjrLwg-35">
          <mxGeometry width="100" relative="1" as="geometry">
            <mxPoint x="200" y="185" as="sourcePoint" />
            <mxPoint x="300" y="185" as="targetPoint" />
            <Array as="points">
              <mxPoint x="92" y="115" />
              <mxPoint x="170" y="115" />
              <mxPoint x="170" y="33" />
            </Array>
          </mxGeometry>
        </mxCell>
        <mxCell id="K3Nuk1EUV9wkUVcjrLwg-85" value="" style="edgeStyle=orthogonalEdgeStyle;fontSize=12;html=1;endArrow=blockThin;endFill=1;rounded=0;strokeWidth=2;endSize=4;startSize=4;dashed=0;strokeColor=#4284F3;exitX=0.25;exitY=1;exitDx=0;exitDy=0;entryX=0.212;entryY=0.167;entryDx=0;entryDy=0;entryPerimeter=0;" edge="1" parent="K3Nuk1EUV9wkUVcjrLwg-29" source="K3Nuk1EUV9wkUVcjrLwg-39" target="K3Nuk1EUV9wkUVcjrLwg-80">
          <mxGeometry width="100" relative="1" as="geometry">
            <mxPoint x="200" y="185" as="sourcePoint" />
            <mxPoint x="300" y="185" as="targetPoint" />
          </mxGeometry>
        </mxCell>
        <mxCell id="K3Nuk1EUV9wkUVcjrLwg-86" value="" style="edgeStyle=orthogonalEdgeStyle;fontSize=12;html=1;endArrow=blockThin;endFill=1;rounded=0;strokeWidth=2;endSize=4;startSize=4;dashed=0;strokeColor=#4284F3;exitX=0.009;exitY=0.895;exitDx=0;exitDy=0;entryX=0.75;entryY=0;entryDx=0;entryDy=0;exitPerimeter=0;" edge="1" parent="K3Nuk1EUV9wkUVcjrLwg-29" source="K3Nuk1EUV9wkUVcjrLwg-33" target="K3Nuk1EUV9wkUVcjrLwg-80">
          <mxGeometry width="100" relative="1" as="geometry">
            <mxPoint x="200" y="185" as="sourcePoint" />
            <mxPoint x="300" y="185" as="targetPoint" />
            <Array as="points">
              <mxPoint x="201" y="205" />
              <mxPoint x="128" y="205" />
            </Array>
          </mxGeometry>
        </mxCell>
        <mxCell id="K3Nuk1EUV9wkUVcjrLwg-31" value="" style="strokeColor=#dddddd;shadow=1;strokeWidth=1;rounded=1;absoluteArcSize=1;arcSize=2;labelPosition=center;verticalLabelPosition=middle;align=center;verticalAlign=bottom;spacingLeft=0;fontColor=#999999;fontSize=12;whiteSpace=wrap;spacingBottom=2;html=1;" vertex="1" parent="1">
          <mxGeometry x="160" y="270" width="70" height="180" as="geometry" />
        </mxCell>
        <mxCell id="K3Nuk1EUV9wkUVcjrLwg-44" value="" style="shape=image;imageAspect=0;aspect=fixed;verticalLabelPosition=bottom;verticalAlign=top;image=data:image/png,iVBORw0KGgoAAAANSUhEUgAAAZAAAAGDCAMAAAAyI7bLAAAByFBMVEUAAABaTeVYTuQAAAAAAAAAAAAAAAAAAAAAAABSPtdbTOQAAABcTeMAAAA/P64AAAAAAAAAAAAVD2EAAAAAAAAAAAAAAAAAAAAAAAAAAAAAAAAAAAAAAAAAAAAAAAAAAAAAAAAAAAMAAABELc0AAAAAAAAAAAAAAAAAAAAAAAAAAAAAAAAAAAAAAAAAAAAAAAAAAAAAAANbTeYAAAAAAAAAAAAAAABaTOUAAAAAAABbTOUAAAAAAAAAAAAAAAAAAAAAAAA5KcIAAAAAAAAAAAAAAABaTOVbTOYAAABQQ99aTOUAAAAAAAAAAAAAAABZS+QAAABZSeNbTOUAAAAAAAAAAABWR+BUR+EAAABaS+RYSONYSuJVRuEAAABaTORYSeMAAAAAAABXR+RaTeY/P7I+PrFaTORZSuIjI6A+PrE+PrFZS+MAAAAAAABaS+RZS+RYSeJQRdVaTORaTOVYS+RWReFaS+RaTOU+PrBaTOU+PrA8PK5XRuI2Nqs+PrE+PrFZS+QAAABZTOQ5Oa9aTOQ9PbA9PbA4OKs+PrEAAAAAAABWSeM8PK09PbE+PrA9Pa9ZTOQ9PbAAAAA8PK05ObFAQLIAAABcTuUAhwItAAAAlXRSTlMA0Y1cwTDp9/MKqZ2JLFT9qYcChcV2IpnlYjwQCAwYrxQGyQbv3RzTKPt4vZ9OdBIKBPvh2TTr681W97lwZFImiQR+lUpE898gEOXPkY0ydlhW72izbCYep5s6NhrVyU5GOCz7++vXagzhx4N6QJNkQg7Nu14Uwa+vo5NGMBb31belfDSzg2oe86OhSCq5n1zRdGA8JDj1ElIAABcZSURBVHja7Z35Q9NIG4CjlLaItVhcioWe9IRFrlJuUEBAueUSkEtRPEC87/tY7939dpfk3/2SlraTNnfaZArv84OWJk0meTKZzDtHCAIAAAAAAAAAAAAAAAAAAAAAhKnZWi7ROw0AQsmxzufLeicCSFNyjKLa7l7QOxlAEkYIRQ1PgxJMSAihmj+t1eidFIBhXwhFDR27ondaAAIRQhclk6BEfxAhVPPq7n2903PoQYVQ1LXVBb0TdNhhC6GLkrvzeifpcJMphKJu3IH7lo5kC6FrJfdseifr8MIlhGpeXIJaiU5wCqGoi4uP9U7ZIYVHCEV1PoIosB7wCqE6361B6a49/EIo6tJTeATWHCEhdK3kAxQlGiMshK6670JgXlNEhNCZZBUaFLVEVAhdut9dOKd3Mg8PEoQw0RS4b2mFJCFUc9saRFO0QZoQWsnzZYimaIFUIRTVtgi1Eg2QLoSuKG5BJsk7coRQ1578gNI9z8gSwkRTXumd4gOOTCF0reQ43LfyiWwhFPX3LgTm84cCIVTn6g+oleQLJUKYWsljUJIflAmhqIvQzTE/KBVCNQ9PQ+meBxQLoXl3FZTkHDVCqLa7V/VO/4FDlRCmKIFH4NyiUghFQYNiblEthDqu9yEcLEAIZoAQzAAhmJEzIXd28eia8t8vvVOgjpwJOdr8bk3/R+D/Pt/a0zsN6sidEIq6dEzveuL/3u7tgZDEho7G/9CzA9e5f2/t7YEQthDqwSOdlNg+/vl1D4RkCaE6n9zT4zhuvkhkDxCSKYRmcUHr1qubL6/v7YEQPiHUsLatV+dePtvcAyECQqjmG4+0q5V8eYZkDxDCKYTm6SttWq9e/8HWAUJ4hFCXjmpQK6n56/beHgiRJIS61pb31quPt9/sgRCpQmhWl/I5svq/z9f39kCIHCHU0LGlfKX8fjxOAkLkCWHmTclP4f7vrc09EKJACEXdyH00xfbxTz4dIERUCNX5cDq3tZIv6TgJCFEghOZpLjPJiet7eyBEnRCqbTJHszmee/lrbw+EqBZCNR/ZykWt5Oez63sgJBdCKKYvsNqi5Ob/vorpACHShVCX7qoaofiaI04CQtQIoa4N31FeK/l4W0L2ACGyhNDcuKesKPnyYlOSDhAiUwjV+fye/FzyhS9OAkJUC2GKErmZ5OVbqdkDhCgQQtdK5MxT1/TxmXQbIESREKr54SOp962fgnESEJIbIXRR8lRaR4g/ZOoAIQqF0ErEoyk3X0qqeYCQnAihrj0QiaZ8FI+TgJAcCqF5IDBC8ebnNwp0gBBVQqihuzwBrtd/Sa95HCQh5yabdRVCUdzRlJe/lGWPghdCEMur13QVQtdKsqY8ff2nUhsHQAhxf+uBvkKozmOsaMoX+Y+6B0oIYVuYbNNVCDPlabpW8tdtGXGSAymEZv5hp65C6NJ9N7Gd1wpqHgdQCEFMP9RXCHUksZ0Tan0cFCHE4+mLIAQvHj+/BELw4scx+bUSEJJPSu7dACF4cf/OMAjBCturo20gBCvOLR8BIZghI5oCQjRhYVJqUQJCNOKKxKo7CNGM6YdSaiUgRDseT0u4b4EQLbl/VzQKDEK05d4xkQAXCNGYkjXhR2AQoj2TQoF5EKI9tld320AIVpxbfgdCMGP6BnetBIToxQJ3UQJCdMO28JyjTx0I0ZMfq1kVRRCiKxd2M9t4QYjO1NxhZxIQojvLn9BoCgjRn5I1pK0EhGDBbhsIwYv5xYsgBCtqlhLdHEEIPkxfvAZCsOLxh2EQghW2+aMfEp9ACC7sjw4EIZgBQjADhGAGCMGMNZnDSvIlZPOZ3mcCE2wLKmdNyY2Q6ye0edNSQbD2RPFg9xwJufXipt4nASuuPJIz0ifnQr6++IjHG6sx4sJxxTPZqBby9qPW77MsCJaeKhnsrlrI5tv/wd2KmwtrT7QXcv3zT8ge/GwpySQqhGz++qL3IePHq3nkEr26KH/eFMVC3tz+Cx51szn+9xZyWmqWnmol5Pofr/U+diw5SlF/L6FX6tqwvAcuZUK+/gllOTdMLKttcRm5by3ckTVvihIhb569hJoHD4ng4vBx5ATZ5hdlTC6kQMjbE5A9eElGey+uoa+/XVodypuQ6y+gLBcgFX7v/PQDySUXdqVO0iFTyNcXH/U+ZLxB2kMuHUNffPD4g7RaiTwht/+F7CEMq4Hq0u5jZNGrd1KUyBCyeesPKDzEyGgxfDKN1krWJMybIl3I9c//6X20BUBmE27ng6vI0pJHolV3yUKefYGwlQSy29Qv3UGjKQti0RRpQt7cPuHV+1ALA65ODkcmkXd/nVsSnvJUkpBbECeRCnevk+F76DpLF1UKgRZa6fB0AxpiRVMufBhWLuTNs3/1PshCgrdf1vBRpFZiu3p0SKGQ2yfgbiUHgY5ybdNoBPAVz4wQwkLefIaKoDwEey6yoinE1qpcIdf//Kn38RUcwl1J254itRIb5yQd/EI2f/0LhblsxPr2tm2hr7+d/zQkVcjmLWihVYJ4Z+vVR8hrJGvW3jVLEnLrM3RgUISE3u9Dq0vIDy5kTHnKLeTFT2gSVIak4QhDx6+gtZLFNmEhm7df6n1YhYvE8SFHJtFaydLzIQEhbyFOogKpA3aaj6DRlJqlYV4hn0GHGmSMoHqORlOIZN8UtpCvv6DmoQ45Q9qGj86nf2i7erwtU8jmbehPohZ5YwzbppGf2q4+YQt5Ay206pE76PMJ+vrbmt3V5pQQiJPkBNmjcNuOvUJ+vjD5LvHh5bOXUDHPBQqGRQ99gEpf/lA0Tv3vRxfU7xngRNnEAZ3v7qnfNcCF4pkcFq+o3zmQjfKpNW5sLeid+IOIirlOmh9Mq98/kIG6yWceXoUHrhyjcjagi8evqk8DgKB6eqaHeh/BASNX82UBOQKEYAYIwQwQghkgBDNACGaAEMwAIZgBQjADhGAGCMEMEIIZIAQzQAhmgBDMACGYAUIwA4RgBgjBDBCCGSAEM0AIZoAQzAAhmAFCMAOEYAYIwQwQghkgBDNACGaAEMwAIZgBQjADhGAGCMEMEIIZIAQzLhyX//pbEJJPzi3dlfzOQhCiDUvDIAQvaiZlvf4WhOQd27zE10iCEM2YfyLjjcQgRANKHj3pBCFYcWWrDYTgxePnsh+BQUheqfnxVKYSEJJn7k/Lq7qDkLxTIiuaAkLyj21ZRjQFhGhBzfIDEIIXNZM3pFUUQYhWzH9oAyFYYVv4dA2EYEXN9KpoNAWEaMqVLbFHYBCiMSV3QQhe2O497QQhWHF/+m8Qghc1H4ZACF5cXRwCIVhR8urhNRCCFed2LzaDEKyYvzMMQrCiZv55MwjBCtvag04QghWPt46AELy4cgeEYMbyp04QghX3p59cAyFYUTMJQjBjfrENhGBFydKnZhCCFbbpNhCCFwuP9E4BAAAAAAAAAAAAAAAAAAAAAAAAAAAAcHjwNOidgkNEUShkdzIf/gmFtpu417kc9Z1Pft4JhQaY9afKRkOhkLvcpfcBHDTOkKQhngF+I0m7l3sdA0l2Jz/Xk2RXFeHpIhNY9U7/gUORkKbyCEmaAoFKslLv9B845AqpDgY9hPMU/auwx+Pqc+id/gMHW0j1xkx5ael4fZD+onGi215qP9PrZYRsh+v7S09aCKJibm7QWxUgTUXJLdj6OsZK7d2WRoKompnbcDrmiIqemVbLzEBpd5/eh1d4sIVUrCSKBp+FaOr2Jz47GSHRgJX5ui9xy6KF+JPFvK0oEF/NOF5N9JlIn9sfIzrM1lAlU8KEKvQ+voKDFtI+6KCxM0Jcvv3C2u71tCc+meO3rASmjpSQWPJm1dqyvzBSzwhhvNFCkr8o0/v4Co4zZBq7tyk8Qn83biVnq4ItpHGHIIIjcSH+utraGEn2ZAspipDReqKijiTdjBDS6ptjhPgHLI3ltEK9j6/gYAtJfDdoJn0uWoi5PHHHoYWMVxFON6eQfpIstRFEL31DiwuZocsfWoihiiA2mNwCyIMW0nK2n6YuIcRxpr//PV0UuDzxu1d0jkg+ZTVe5hRCZ4MB+r/WpBDmO1pIHQhRBrtQdyUrfD4XsV5nZD61N4AQLWEL6YiQ5tn3dUwOIQhPa9EsfUoHOYWYe/c3sC/EAUJyA1vIHP0PXYb4GSE25tsQSfZyCImS1vLqpqYmbzVThlymqyDdJHkKFcKUITsgRD5sIT30X70dlyO0EOfcXG99R4wzh3i/04/DZWNjY243MWgiY2enaisZlYiQyv6eIvp3Ab2Pr+BgC3GYyIjZFC9DXPRtyUzXJ8yebCHEeixZMyE8TC3FRFc/KvtQIfTzL7OdHr2Pr+CYMRrLqvY/nPU2jsVMZqMhZJz1BANGv8nkD9BlhdtopE9so91onCLWjcb3TroM98WYpbFKFxEso1c0x0bpUr6ixWhktkULMfnp5bExvQ+v8HCOjLhs+x/onFK9UTRYXO1ivnNazheddnjoRa6REaYJxMP81zgy4mHWbypeP120s8EsJsLrp3snmDWaRkaYiiUj5NTgetHURJOiNAG5Zv8pC8AFEIIZIAQzOoyGM9V6JwIAAAAApNAYDLc6HI7WcEWDV/3WAHU0Do7N+lZaYrFY5UrIMDt2OmzTO0mHGVtHC5nJuN6JOsS0dpHZFKnfrm6Ei+SBWc84S9TKIaRV72Sp4AwpD7feCWbhMXOlMVLIPcALWgjTRMNB1KN3wlRQ0EIcRs40Gpx6J0wFBS2knDuNlws5jlbIQmwh7jSOFXK7WCELqYqwklZpGOjyMT2/a/VOmBoKWcggki7rqYnEl03hKYveCVNDIQvZRtIVLWgLCIUs5HckXXa9E5MrClmIAUnXnN6JyRWOk5lE0XIyaylOYSJUCE7pyjFlyGGe0jsxgoAQzAAhmAFCMAOEpKhyBScmLC6XjBiFLSiwsClrYYPLFaZ3EXQJdLiTIcTFJLjY5WqUcSKagiIreFyWiURP5yy89P4swdwEOcWEVPwzYGgfDbW0BEZHDd/nJqQ1YDvs/GPWq4u63Gm1rvWZATe9h9EovYvQqM/wvnaHO1ooTYi3tfu9YZRJcMvoqM99tsMj7Tz0ugWixlXr3WV0GgMtK+2zcxnXTLC3322g9xcI+b7Xq5TBICTE1tDbnlkzic642E6KUotWwolvnDtMGLCY+ZgO0A7sO/DMGOmNxK/GqnB3GWeTk3nAgjixCFeVUqPtaBot41khepO7PuMU/pauZu078ExVkqQ/fgmVJpeVJhJsc4bn6kzoBlsGkyfAW1VcvsLa2anifAoJbkdJDgL9rCa6tJDKeFuqp8cQjwLWs4XUMafYFt4OMY2wgfixh0wkH6bLg1KFGDdSOurdnFuMjNaybkdpIT4P83dfdzuTKP8ES8gp5iidg/2GrG36T8YvF9eUPRTJXNaiOpPwC9ngO2GRdrQVOy3EvE7/2evb/1UPW8gKcz/v3m8TT6gLCJ1nf3myy5VUIcHLfr51rO0bSIrTQgKMqJmVSDr5aSHmCcLVv8K5ycgcbXEgypm7/et5EtI0xbm/BNEJLiFkkS2cbmUdZwsxOavXo+xUnxI+03anJCEt+zfKYLvQWqbBdLGVFkKGvY70TCKnWULI2pO8ZyBab+fN3QaVE/LxCak3kgIg0VZEyEA5ctG/Zwshe+3pq800xSy0C59p/4wkIYHE7ag1JLyaqSfVyRERMjeQPsxIN1uIAFb+my2rTMuhkAq/cJJ8qesAEWJCO+nUZQgxIwutcxknhhOjU5IQTzx/GEixraW6NCH7RROVyNOShAiiMiDLLcQpcjuhLzgOISx8ToK3GZz8LZ4JI6QwA1KEhOIrnRQ/UaHkYy3fhTBgy4kQo7qurdxC/jGJ7Tb11M4nZDQoICTeDu6IiezDXCFViFiGTuxUREiZMydCyHDuhTSWie7VmizX+YQELAJC3jMPjuEoKUykR4KQ+B3CLeVE+cPCQuo8uRGynXsh7AsuOsbUnW3Bf+rQx45kox2fkKiQEDfzEBz0xVZOzQ6cmXJYKpgc4ymu7/exsqadyf2eswkqkQWzZ1MwZaiF9StrYPbsFE33t1HW96ZubYSoa87kFNKDbn821d+/AW1w9HuFhJhn6/nLEP94K7NJ7875vsxnRE83a9doHVsgdHIGLZvN48XJB6qR06y+8vsVc24h5oGdJh4hkRb3WHkpd7XJFHKXl79nXcCG3AtB+5j70FouelIsAkJ8+3cHLiGR74JRuDFk1Xa+fbOFeN+j22fdMfrQTJ0IEHALce+HH7KFxAYSB+PJruhY23s88WWsTpW5F2JDhFtn0LWDyD2gh0+IuS51vrKFGL+JdFYPI6cwis5zyi/EhS76xt7cIJJi0wSPEL879UzMFhJZ+X0wFTIeZP/IbNhOR67Qy6gl50IqkO9M7L7lyFVykkdIe68ntXqWkFmHWEi8wZdeuxLt7cMvJIzcmPwZHYQ8dcjPpriFGHbSeZYlxDeDDs/yootM3wY9yG7WkUXq5v/mEjKBfBflXf0ypxDzOHpDYguxBiTUYquQMyhRiAW5YZzKLJXQGko/l5DKGbTigAiJ9Gc0AKE+MoKIxXkVchr5ro69OpI1DRxCzGXsIT4sIZUDUub1bfwmW4gDWfItMwfOIfcse7YQo51dbUCEJIJb3ELMGYeimxDkDHMIMfc6eVcn2x2SqrDVSIc4BUJ+z2zdmhIUEj2fMY73YAnJer5AhZyUlqBcCzmPPCRkCynN3D32QgK1LJAbPAjRRQg/IORgCnG6KsIWhFYkLgVCtBbidWyX+Sp5Q8sgRGMhDWV+wTYREKKpENt5o8guQIimQjYCYrsAIZoKEWsmBiHaCikS3wUI0VCIt0V8FyAkW0id2AaUCtkQ63MCQrQVchptdm3/vp0MzmwjTS4gREMh48gidzAdCM516KRDMNoLQlIg592ENp2rFPI9U8jMARCCNh6P5kmIF9lxO9rKp0BIK3JXyuzrbCtHbo3lBSoE3bpJbKCWQiFVSM+WOnQfCoRY0Db1jJFpVbPIz3oKVEg12i9abASKUiHIiVIrJOjj3Q0r90SKC1QIayiNm3O8Q3Wq5VPpLQuZry/kUSekGj0IUwfaUtyHuuLol1UgQtCRG6bsFxl56+3tybcV56RQR7pqNW4jEUeJQoha9BHaj3QWWWcNAdzvCFmAQhysSlugKOxqcNJUuYLh4qly5sxYU69cVyoE7Z4Tqog/GzldEydZnTKlCmllt6gY+88X9/WFW3vqWF9b9/s0FqAQT8ZwJKOvq4ymyxcyJlUlR9UqFvIPelW3fBuvHR93t2c0VUkV0pQ1XMdUWRnL/M5cXLBCbP1cExaz6OIaHyJHSDgjdMIVSZEqhAiLJZch2Su9AIUQFvGmCo9KIcSK2C5kCCHGxCNjgWSKC1GIbUbs8CLJDn+KhXTkUgjraYoTf6obayEKYYeaOEmeE+UNVO1iu5AhJP4mXiGsZ1PPXoUppOG7yE2gTLWQwRj3ltNVORlCiJ2QULkXG093GS1MIURDt/BASr9qIdWcudBU2q9ICBEWGBi50ot0ZC9QIfQR+ngzScTsTlbm1HQD6s/cgTXiayWcqUtdlhCCmDJyZhKr6XdWl3i8hdiNaTKHvDcO/j6aPb1ELOQ+i4zJ6RXYAPEbspBrBur6LrTm4TeMxTujdyV/MooOFXAj2+IZZ+LpcUczHFsrDeUZY3hmkA1lvZ1nPL2sZSpjGfK76Ah7URhZVqlKyEhxmuzhG96KjdMDdSv7Z60l1GX/bae1ghUArhLagAtZyPmaD4+j3xdjth0wjPW0ujLShM7SRFQg2+Kd56yxz1Frb9+3UtnuLu8t9mTtE9lQ1qxlwfQyS2YUD/mdJWMUQzWyTP0UTQAAAAAAAAAAAAAAAAAAAAAAAAAAAABwqPg/QOvOSERu+DwAAAAASUVORK5CYII=;" vertex="1" parent="K3Nuk1EUV9wkUVcjrLwg-31">
          <mxGeometry y="99.99600000000001" width="70" height="67.73" as="geometry" />
        </mxCell>
        <mxCell id="K3Nuk1EUV9wkUVcjrLwg-50" value="" style="shape=image;imageAspect=0;aspect=fixed;verticalLabelPosition=bottom;verticalAlign=top;image=data:image/png,iVBORw0KGgoAAAANSUhEUgAAAcgAAAG1CAYAAAB9HWT1AAAAAXNSR0IArs4c6QAAAARnQU1BAACxjwv8YQUAAAAJcEhZcwAAFiUAABYlAUlSJPAAAP+lSURBVHhe7P0HkGZLdt8HZnnTvvt5N2/mjcF4zGAwg4EXAFooVuQSFLkixdWakF0XoWWQoV0qGEvtBhW7DK1oliutApKCBCWSogdhCHJgBhgAA8xg/Hszb96b502/9l1d3uz5nXP/lee7db8y/aq6q7ruv/urmzczT56TJzPPuZn33rwjG4bSo0ePHj169BjAaHPs0aNHjx49eiT0DrJHjx49evToQO8ge/To0aNHjw6MLK+s9Pcge/To0aNHjxZGXn/ryq4d5MhIKWNjY2V1da2JuX2Mj4+VtbW1MjY6auWOlLX19TJi/0ZHR8r6xkbZWN8wXoMT3BXjC52J4VhbMxrLP2r065aff5TXw3ST9Hk3QBvSJuOtNqTvjKU2zBjW7nsFHXqt6StgNfWz7dCmy3B9Gj19bSfslt9OiDYs1oZ70wd06B7Q/v2Y2H/wbCN6Hjd72IVsmzJ2Q8c4EGg/t48W3+POYXV11cfdyKtvXtq1gwQ01n48+Kpyov/UMnP5bQMT+WvcbmjudWDMcTo6CuhDjkbGcjuQl3yhP+UPvfpFiw3q0dG4qAFtfmHEwykCLlb439WG0FJe02RePpARoCzidJ55SU61twCfTEO6eAdN5QeCZ9QLkBW+8JmYGB+oGxC/3fQv+LUNGvwoH9nFcxhUxypb8GzXcRjIE+KGDtQme0Xm125vMKwtjgeo9/D+MLy/7I4ug6zHUsWGFXNUXEwM01cbyyurPn6H5ebiBB3nCxRUu9LQ4RhJ4yKXfNs6SAqDmoHQ4/aBYUTZ7c6fDdBOIJ9RbDGulOEN2RyBDFc0fQwu8SIeeeTohHY5diC2FRdGHlrFCfmcMD9kzTRCzksa2NigXoN0ubyuMMh6IRy6xtlu5YdeVH6UMViW8nEctbzMJrMTCFnjIsDzdOiTFZZ1qwszYaHWMeIyT/JDqyOQHED1C/7Bj3CbLssJPXKOjFDfeuFhxdhssvIRMi3IOs06UbrX0dIAcVkvXRh2gSO6QPDbK5BLsiH3bsZSj61wvXn/iL7ahbazgoag+jftSt/PzgfHM54cFo5n1Ppl9DFoYsacaTJI0yw88xOdhy2efhUrN2Netq82Whw+DH7edynGDtCRn/FNgfBeXlkpkxMTlmwzfCuPMvg3SkGCvKaAYKrIYQEVa/TlQEEsZQg0njeYRZEXMKDjGAbSaZq6uSJSXBcNZVWaOPrySYoTRAfEL3Ra9SoQL6PSRZdBEeSvMkQ+4qCNY9BFmZFX5YhXHMOIDNSxgWj4wUd1Ey/RtvsF+Skv4quxzTSgylx1YwcPiy54R/nKLxAPH/1oHNHw84HTqp9ocBjkjV/IBqDLcnGk72PYlU964Fz5xTvXjzC09t9pyEsefkByIg/lq565DOVpzizsmrE8tRzl17HmD3nJFrJFfocFlT/kD6jcaG/kDVqh6ib0SRmcS07CKbvHSV/AL7Qb5DqILn4RB22WDZ7RdnEunVZEefxyXSUrZUmeOMYvx4nfIM1WXoPlDMqY0abbLW6Xbq/gYkX6FlwvLd7kyasGum2An8DJYAM5pz/QxpDLGeULIkoVT+qIE839NuuSPNkn4fwkq/h5uKHjTHpDPo0nwu5Q7R/8QK4fIWQjP/WZ4CLOjsTDT0cruxJ1KUjC3W2oE4dMHnS4fPY/FObV2oyT7DE7iXP94jx+EW6nVZpaVk3vjDOIDqgxSU9ZHGpg0Wa6yB/x1EnlxCHSSG7Tii7yy9BVXqCLJ+fwkY5B0IpXNT7qL8RlQ1Lj4wfEU3kVBpQnmkDITBw/8VN+0cvAtn+W09OUTn7K4UgyclJfBib60I885G/z81lWyic+Sudo0aGDph7iSZb4kTfyEU85IPNkEIeMUa50Bp3gcm7SRjpl5OPmVW+TD1CmyhU4l06EwToO0g2G05jYPEb9gMvp8gzy1Wxa9aQOlV/9CYN1CAOpZMlaUc9zGe0xoTQOyrY1LdPE0f4O6FVxogGio35AeQC0aqMuiAZkuoOE99cBHXbpFVhckh2niIx+AWjnfmz9oq4Wbug0rqQDaHCi4uU09qPcmCEO6kth0gDpjGHNLDm3/+7cNDbc0VmcO3E7asYKD/7J0fOjb1IOcnL08dikOw9OKJBqqONWEM7ndw8mq6MqfHCQAQ7xi3PlVR10nmlAPt+kafQwSDOYlywRNEWaPIGqL11pC2qUikiDtsqa5Vb5gQjnMuKYzyOYiBqEHBEvWUUHv676tcMyrByDhnhP9Ty5aoTVuckPT9ERjg7ryZv1RZ4os/KlTkCnkYeTmifqoboHSAqnEUbZB5W3R+RX3XWOPLkdOOrqteaNNEBQeRlYgLgoz08Tba0rcHkaoyqZKiiAY8goHXIuvUW8jHF1PFk+YbCMANngqzKcJ38bemhEZwdiNuNB5Z37QCDCVb+VR84XAdUlw3VjsgH1F8lK1tBXYmgwKZpQ5ZfbcVDewV+u31Ya8kDn0Zs0uX5AdIP5FK7xodOqD6A0kOkOEu4AmvB2oIrkFazW/pc6yFl6fKML3d+jjUSnNNVLM83IxziIh5YckdVp8UkAXpQBTZNMoS4LZYg2ZAtITvoPtCZp9BAKMTD2XFYPh10jn/c3O8e5+9GyD7SWKijQgduD63axm3JCEd35NGjaHUw07cYCm3lbRW7HR3K2UzWYt6N1bJOU9akOAihOstZjrVduk8i7DRNDzT0IipEeu6Cr9U0YG2SoMgd9bYMwJFGXShv6iSu9oMfQZTryhMHLuiQYZXT3O+iVHTr96Nik5Z/qKRkoM0P6FSSP6Adg8ZlfpYs25LxNU8uJvFU3EeaqtgveJyxdfMiLow/64Ke4yE+aB4PWAN8qY8UwnVJelB9QfdBJF9q6E327HEC20EPIGset+XYL0Ym/82zq3Yb4tgFt/Q3madNkPqJpI9cv6zjTdgE66aSNYbwOCrSJ+s8whCNpTgy314LdoK4+g0v6iH4fYXRFntrHB/WMbANoqU56Vlup3+QLgC54qt94teOwhny7iIZuSdwBssWvdo72oG6ivcLRaeNcEB3YzOsziRwfYdVX53GMcMw+Ko3iyaL8aiyKMXV72E82oUEYP2+UgXTLYTzg1RS5eYS2DdIgF18NSMkaOnGunp7rR3qVOzqLjGyA9OiEykeVIjxIJ6jTkg4rtUeUEXkIQ5d5ca6ykGuz09qP/DmO2JC9zii6QHrlH7KRX7rloZuQtyEwDPD2i4Og1WBTWQimvF7fJl7nyCTjETJGe/ADA7QO6SfqomjRUB55+alOgLqoTQfbQuUEPT/RA10lq66qn+QMeWp+oGCwi/LVhsjAP/HLdIB0ybep/4a3AE1TFQ/nH/IA1TV0QnmkV9lq/opap5qPuNBjzZ/JJCsYpAkeGZyqfm0+ga08xFd0Wn5UusrJIC1+W+vYlf/tA103DWLIbSho1gVwLL40ST77ESYOWdW/gNpQVSAPUeSjHkTH30DNH/qSTIwJzvlHAR62oMrLsipPQ1rLt7hNOZs4ZM3jSlD6QK/NTyjtJ2DeVnYGPGGLEmQAIy5+AmENUsB5KCo6PxCfrrxk4Uge0egH2nLmq0vFkwfNR1kq1xq7KaNNk2WDlF8XXRgSOcsqIxC9OkmXjMoDlE6UomV0h4FyvcM2NMrKkQ7HoM705IXGZbRozjGCMoRRXjxcoTbl6Dzsh4yqT/CzeMtDuvJTlh7SIJ/qJR4hTvQZxEB3DFbCeZB6utGiK9Fm3jCGhrDXx4AcXp7lCz4R5zrwLBEZ8oZc8AZqE9GqbJUDSAv91DbnR12RUfkJx0/6Df25HAbRRXrojp/SPN7kifw1j8oJHUS80xBvQWRSWtBGecDL9zpBFw8aOZ3TRp4MlQO2HuMX4dSn/FztHDIFDXk82qFyMvTQjPQgqBzKJy2OGitRDvXOCFmq/Fm3bRrOKQ8awhwjXMvnmMc88LSI2gR8Mq/BY+3b+wX1swz1Z8Fn6k1cjLP6Ewhnvatf5bhMM0Dvuqljh4fYqHPoAr2GQ0TOAbrGBgj4MZLIBz350LnCpNlftxGcUxd4Ac9nR5Zh/d6lx95hqKGFOK9xLnTT0XLFZfREn+kI5vjNAd/ExYCPBhukpzHCQLWRH7uvxzyIq9IlZ/sRepAHjcpo0wHVL8sIKl2F4igb5HKIj84RMy7lCZkjvX0UT35O0+SFhg5Hx8TwkE4c5XNFSRGkQUN8/UHbdOqmXqFnK8fyw4+f6CjH5bGfZOEISId3rSP5deVo9PaPOGRC1kxHOaJFnpDfkz3MTzTUmTKA68/iYhBFWRwtu/+oSzVwfvB6AckvWrV/lFPToYt20hOz5AnnBdo6Jd4OLq8GtOgohzSg9qZc4HWzsjhFb/FaSLRpLpewIJ78pPdNI2J0QUN66NT7R1OXNsivcQEdeaQTylb50T9qu6seGruShzywCfrBugLiQei2pokfUJzKIq+Qy4qw2qvSUBZy5bziB+g70IGoo/peXR4X/NzEymUJqiNp0kvbLh0EKJt+lkH7iycyoWa1O3L6r0kTvO3sqL4DjfoA+Tn6OLE06LTEylOlskHEswIEa/HJdEDlq32jnMgLP9qG8qrNinGjckB2lKSTr/aKPUKK2i1yfgmkqFC2qhogDRp1XMJ6dDg6Yh1kQJ0wUDth5RXMosGq4l35Vp46X5ZTULr4YWTCQBvPxkBkOQePfnCIX5tOeakfYZfR+Xj0Jp3D4shDQ1I31U/OK8qMQS9wrrwKA3UGZHCZjAdhz+t1Jl8Y19BndCDC/IxLE64XBehFuqDMrFdo4QFN8Iw8gKP/vB0jHDwbA9IA2USnOkJDXKQFnY7wJB8/1SP0FOfkE6hz5imDX3nGjJIw8lMGQPcg01IuP9elt03oHhroJSv6QMbIG20Ij+gLoc9AMBMdIC+QvimfsvK5wtBF/es7rKGLqGPkbSpkyHHQZiAzdCF3fYRf9WnE8jJA8Ikw6W0gI3zIEmVE/dp8JQ9lKA+QrILagXzIF2XHT2Xkc/JIL6COJZUR9eInWQF5JCNhyqAsp2v6gCC+gngBhSXXFlgUZaleAry7st8J5AtRIOfDDIx+IeSX9lcbnZCP/LSh2lHtjmOU3nhPkTD1pNw2HbloE8oFpOmBU8qJNqljUbNIyoF6U57Gr6yurPo58f4gjx33vJOOgBLksHYCQlHJdn7KUAVIt4NXWB0ld4jt+MkIQAsd59log0Fe0Qjq8EYSyhgiJ4CG/NAJw+SEN/mJp3zRSU7rDpt0wZO6rXrK+Pi401edRF6gMJ2jLScv4zpch2uex/kZKYMVOmTzLFYOtNoxJnihE/KFAbCoJm+VHbmQjzREIotepq/1qe0hPuKd6aJG0nulaUM0wxC6HTSm8KVc8QS5DJUpWuqb87uMzTGDPOoz8IuBOkiXgb6oO2lA5XbRRp8JPQLpBajs2g6DPNWGQH07wsGHNoRObUE8YcqgLNLk/EkDwV/tNthfyCM66a7KWmVUPmQCvkuJlUe51Dfzg46+h04kXxdIIy+08IEvPDLgkesnfeyENh3lRx8J+mH8gGgB9RUdNIBzIbcBaMsZdQyaLhszDJnuMIF6UQeBWtazwXPy8h7kpOyZgQ0KfEaHLpo44A7T+oFmm+hTdG2e/uqH/UNHAD0pWXl9Fx4rC2nIPwa/23WQw3CnGsk7lfEY9gRbF3LHl0HYDhgEdoLI6Kpfu8NryyIGSu74XYAWuYDvOmEOiIajLNGpUbcMEss3YfkF0cjZtY1Il5wCceSVwVP9OJfRJR5ZtTvGoHMM40sZ0EqOjLqdU2NkLR/r/LmeyAw9fIgn7xY5LV/cUwx+QpZRUPsRJzmlF+lVyPyiLWp/kV7QOTNLZKSc7eSM+oScTRUjDjktnXjoc7t3YSd9dsFlNaiO0g374HKlDKQT12lTR0H1g550IF65b0NH2ZJdcm7yS/QgtwNH6FU/HCTxQrsdpM92v0ZuzjOfDNGTz9g4oG3Xbz8gXtSnDV+y30bOnYC+uvQ5jB/oornTYJca7BSyAGSRXMjOeAjHtD2G0bWdI8DZoRtmjW2EY113mdAbfWxycqJJjXFFH6a/7NpB3q6ih9Hlho0BtbXjgzZ9u0OQRpAKe4WaQZbpNNB2wnY0g/IGTzMHnfy25t9aP4WzQQCDM8igo2zyunGweJyK01k5cpBbjVZjmC1NT/GOwE/yWf0wlNkwqx4hV3Qi6Ch3N4AGoIfbAfxU772gTUdYbZjBVSEDhvqB3fKjLGjQheBtYW1IO2d+MujocS/IdOJHuRRDWLKqbcjbhdyGABnpC8PqWHlFfQDn8OWctoRfHhfqa6oj6U3Qw+iJMshPPH0MqI6RJ+pHvQT1NelT2KqXLGsd8xm5LeBHmcNA2XnsCpkWvkDytmna9gKQDttcxzYyXeaXaXGsm2O+QRe/wwLkb88Cd4M2nRwrOqZf5PG3WzD7pO10+4Sl1fa9VaHTke/HDJKr0q1r7oOObq9ASMpod/w2dtMJ2wgaZJXCY4rdJWt7gN0Ovy60jQF82gM00sMYwBd9wFfnyN+05RZjkPNzTv1wrnQU0QVN2yF3G2XvLJYQcgZddFzaOXQnOoCMXYZZNOTnSL5MB+CpdI7STabr4gmglR7DmFcZhUyX6yheQhftMFgRXqaOot2ufpmX2q/Ni3yAsoTKo6sdBh2kIL2QJn0Sl3lyrqP4AtEQT5hskMBLfbEhNb70rcHy4AUog3KJV18D0GSe0Ku+0IqOOtGnJAMIOSIOGvESKm3wQF7KEV0b5G+XsVdQN/UrkPkNk/PtoM1PgBe8ZUP3o267BbLAP0NLpW1Hh+xr1i7MBjOdwjr6MilpVk05Otpzbd36iIXlXJk9kiMmD9VGAjTEqeg0wQBtme10ewepQUYFtoMqAYImOqJA+rCGorOQF/o2P9dFkm4YXUbw6r5Pp46EfC0y52V/N+UUL9Ut8yMc9KFQ4nP9MshLHgZH1DF4EKYMzuEzeMWrGUvkQ2bxiLJIp5zIm/mQX7wiLoyKeAHS4SMHST2AypbuxB9Ak3noiGzkA9BZtCHnIb1bznwEg/odTO/Kb0EHp23aiB/ML2Q6kMuWbmgTyUpclNEQNvUTr0zDEeQyOdYxRFzVmWiVT20fuhx0NvwyT8knWuUjPMivWy8KA9VRfUTpgBAXwFUvONXIAx00uZ9tymgyYBDDkedZIPzrOCc/oM6kcRQvypG8xG2OBepuNJSDLJKfsqATREse9WfolSZ+olN+2QpPh965gZCnzU/yAngh1zCIR6bJTi76hpx59AH4CZkOtPlBY7FeXk7LfOlnmeZOAN7I0IaL0UrLX+XA8cUDc6TwJ3TDPxyjys1Hz9nBy2/LWfoAncVjCwf4Wbv6Qz04SBpHBiyjlh8dabtGEkIoBnOcC23Bu8N+2KQlLfNVXoRX5VxRImigfJv56RAmq841UDgH0ZHqYBmg9Y5LPeMcNGR2vpWXICMSnZ686vgR1rFNn4+qp/Iig+6/ISdtoHTyy7hmkBzlRTj0yYCO9Xd0C5+gjwFFGOgIxD9ore3pL0157XqRj0Tog3fVjcqEF7QqN8Kk1PzoDj3KAAmDtDJ8hERLnmq01BaikwxdyPIqn2Sk/ECEc3qbpo0oA9Ryot/hDMP5IDPnWS8qLsi38qwGdtCZiy7LCg0GAuMgvcAbfoA+BZ3GB+ekZTnhAw/xk5xyjtBDJ6iPBg1tWGUZRMgJkI088NA5YckE4AMoBnk5V91z2VkvAKPasHEov/hJL9Qn9KH0yE/RmUem50gZ0CldIJ0fOhQqTeWX4wXOAW2R6xjtF44u7IJsl1M14UEbCip9t6ygi24/4eWanLGiFUAOniD1+4oml/plyJf7tOKiKXXxBvyiv3F0tKX0Aq36NWjTZX66IHKaSOxWAmVFebVjCl001VD6oVFyNZ40SA4jAOHo4DQaqZUGEC+ocsiin8V6XOYFKH8zf9PIOg+eUW6OU3kDtFZPgpQvWSKJAVWXp0QH1OGBZMqyEdYv6Fh2iNcB8lE6Fz9Y+cMpnifKy3JlGsWTxC/qELojXxjj0FmlF038QidxxQUd2cjved2Qqw4B0VEn6Q9oUEdaIPQvXhGn42Z+8Uo8gNpOZdKh0bfK57Appx2b6E267VDLqHmDTxypVuZV+80gDXWQ/nzAtWj5hf5qv6W+kjH0F2XHWAud8pN+QJRRDR30ka/KDURDuwHphfySn7DKBTrPckZ65AeSM/Ll/IN9VPzgRd9TPOQqgyNxGn+uO/txXsuMjSO8sGYMZrkJA89jqG0TfOIedOQBwTuOXDwAeFJeyKf0+EW4lqmykA2oHUDUWbwG6wcqTXWOigN+79HOoeOnPCofuiboTgAe0oXyZDqh0mdZt+qlTbefcH4mJzzomw5008ggWXByQGrUAzZqH6KzztCtauH6tyN6ZAyKjirjE6Rbd6SWhyPnIVe0SecSa26UECSUyVFXkgBhNitnIK9AEEEA5QCEkNJzWHQuHJWyU5WrfG1ebeQyCJNfyu1ClhUeiCgFMrhYFsrgSkP1Jo/qJpAm2UnTESgsPUBPHEfqFLOHenUe+q+8BOgrn0G96Eh22KhOoBYRAyd0GuVkflEvtXmE23SC6ChbeuMHRKdz5NxKW/NnQAt5zg8yvzba/DKG0XGvYmqiPrm2Gywur/iNfFDrGvzb8lLnzJP8O8lJGwrKuxWDbSG64Bf9KtMSDt5Vp21ekpV8hAF5oQ36GPOiye0pXs1hWzoQ5dc2zvwEyQOi/TgJAx7l1rxAvOjDhCVfHIN3vajJ8kUflIzwEjI9ZITbNIP5an7lq4j6iq5NI1RZKy+dC1vlrLYaZL5ZTmEYvZDDGW06gPxkz7y7eG6HkD3K6gJlqVw/b3i5E4O20WNeGcGexmsaYSdBpgue0VYAWn+Ix47EQSG+o7nzCm0l6bQVPXCuCoqWg8ISRJ2B8xpu09Url6ib0v3g8EpYNLRZeYA4lSG++Sg6AdooO/Nvd4SQl3z6BWrHRI9Rdhw92o+UFTLC1+VLdJIFGjogR37QiE/lB0gMGl5m9aPJS56grfrgAJ9aTjQ6+ZFzkF+0zyAv8eZPJGiQZDoLNcdAlgGojplWNMEzfoShy+0jRJuEDFHfCKt+0EUZwUOAF7+ZqclyYmbaf3oYgAHBj8HEPY+uH0s+ygcNH1U9OTvj5UxPTnrZbXmRIfgO9s8cFgZ1UpFpMx1tmPk10R6nMPqoCNoumtBj0HKkfqSFHmshxIkGeVWWdB3y1TxCmy6QnUzlAX/VUd2JPhrjKspX/+SocACC2odEwzHGI+l1PCF/1UdE1jTZQ+kz8xFCT+SFn45KQw4d47eZ0pQZvEVTeVYa6UJhyauyKk3kATVPnOsIlD/Tq37+1xKUP/MTUlGb6IpTebtFF6+MkDMcIPL5CkAIHlpsSK214riZFsdMh2jqs0hJPP1Sy7xx3swiLc6PnmJoK5xfF2CgvDm8KalBtBJ2Cwai44S8/LbjvRdIESCLwZVmFkD8xJLGUr2yTjIkn9I513Jg1omWIeEfv6ij/0tCDdDYMWQf1AFn0CBfdCiWI7rkq+Uq/3YQP/SCSOSHjjrVQb8VkhdAg0qkl0xLVNSnQjrpQpuvaINm+7p0AUc2Oz01IC/gRvz84tIufoub4XiKLmTkhwGm7GlzvsNAXbr00obagaxtGoXbIH+7XhnoC3mH8ezC1j4T4TYfyQok32D75PAgyE9W8drSR604DFeuH+MLGvVPUPlGHfmRf0DWVHTmq4SgqWM+eKiMcOKkgVo/ZKg8FA2NykM0+OnnaA7DAO1m3i2QvJLFD34eOolzQeW0dSt6AZ5gsO3AcDrxG6jbHUQsl8aFg2aJ3Gt0Z2dHoIuk3aJewFXwZO2oErysIeUpTQwzX6WhQJRFnpzPVLilsXRPEEjxSsv0QaYG9IMjGgbarQ2k0ygvTpRHvNo04hl8JUflSR3iPK5KJR/YDFuZVa5oKM41kNCz0iHRIFYcSEV5vM69Q0bQ+dFBchkcOY9y+NMU2IA06JTPzjxenUl0bZmCR+hFaaIBof/mpMWzntc8mRaojpQfPEKuXFamdX4WjnpE3qBVWarjiDstfn7PyuIWl5bLrYVF/+EcM8hP+V0/8RGYVVLG3PyCl+m08LS0zLPS2WA22ZBP5xnwqP3S/za/AHEipUz6k4waZYo2Q3ocxlPRtT/UdgYc220hnspPGaKBzyarTUSc4qOetY+BQZ5+aFCdDPXzMuyPaMkr+VRHjpQFnzhvnGwz7qCRrMgRZUT78iMMLXSkabWFMOCYw0C6H7Chjs2AQzz4Ub5kFihH9an5os8QBu12Fs+qw3DmohGdZMn00Gzq1bCZtUHoKOrfjeDXjWHxbw9yhA500/RLycopYUH1g45j6MUS7A/laKlVbR5LsmO+TCs+6Gmzt7rCLWNWisLeoeyfGpG8SvMw/5pzjhGMAZLpctkg06hxda6jwqQDztUp4tdUJPGIX1WonBTn6ihRRi0P3vyUDj/xlJLFA0Cr/OLpxtgVHrS8ZxN6iHL4C10d6PCOgQlEx7keMhAoYrOcRi6B/BhhlZPrnukA4XwOQhfKH+2muDZtRugqyiOvyuBIvZRbckmfgu4LBM8IRzmhQyBa4HEdNBFtBtRoua84NTHu9xj5zd1aKDfNmbHUEnkzXYQ5VZxkzLJmGqD6MahuzM27w7TITZ7wly7IRwjyTb1YOJcnPXS1n/ppzV9loY+EbH46AOJIE88M7y9b6pfDcVLlJS7pz465f0S+kFe0Xm+Laref8lvpm+eQ6AjiAiN0QPyWPtAcKSbKGuSjMQSUT18dgVx0wbOOOR2Jc3voRUf5pPFTmsa9QJh0oHKJi59HOw16ka7a9Pq10c6XwbnkCnriIp64tpxA5zpK7pyPsORsgzIpuw3xA22e+wl0iE0WNGHIz4lEnQbbQz+h2p/BWbj0CQ/nkisTGeOcY07zTtMgd0hoOCcvAsJAtDASnY4qU7xUKdCuhGjED+WogaKc6PTxqw3EWjK0uXz46Ud+dQzKkCyAMMrmp7xKV1ninTu8wAD3p0SbwUVeH/QWjvrVeua6k4f7ipKLskHlH+fSBfSCrpSpc45HTNULhCyD9NIngCfZOSdKsnDMsgIVqzxBE2GHhauOg49APl0VbqGzjp3pgOdv+higc4tkfHy0TE1O+nZRM9N2NCeJ4+KHE8tFU67OOQaf4BfnIWPoxINN2iAd521diif8cZS8hOz3TJo+IjrxE7hqFSRPRqULiCcIZzKYHrLV/iMoD0fqJxkyT9K2lhX9l7D6cein6i3yquxBekHtJ36k8SMu2lXlST5WYvQ0avBTnUQTeSsPQF6AzuFpWQy1vUTHD8CaMvL9J2+vRpaQLaAweVQWIBznwVdlqGyVw3nbpgGNW9VTUByIsitPoLJBlB/6rTRh2wTOxT/kizTRKkyZsp/CsLCQ6dVOGV00bxeUmceP69GO2G6AalRPbxM7ur7sGBMfq6fpShsGYFf8vqWfWTaeYvWnfnZ44hMmUlhuEIW74OmwCnlcWNDFLxSay42KkU98duIHyENZ6iDqxLwfYwc7j3dsCKsohVVH5Mt81KEoS50PHnG+deAC5NYAII/kivPo1HmAZAzShqxRp0rHMcsqvgzy4BODMeSrgzHnhY86UoZ0NyhvNVa5jIw2XVc+xUlOpbu27U/O3paVOuTyaC/u8/KC77Q5R5ZOWfpsoy2HnToyry5kOvV9eLbbIZcNiDtz8oSnLywtu+zoRs66qy2Gh/1g5xFPOXJWmW/WZ8ga7QC9aNVf1O5tnTovC6rUzA+0+0tbBvJSRq4fPMWjnZ+8nHbRVZkinONUPyA68crjoX1s00Vbxlimbiqf/JQTNNgp4o3Ax1SUJ54A2gyKCd2jP2wD9PXiOqPKFzJtB89jR4w59gyEPcOgW0oHfbtctfsmEC2lI2vVVVxQKD+0cREROtc4AJluGNo0t4sgr/1hGLTBgL6cRHjzoR3CJmt79x52+9Eyq8d3veahxqcyGc6kpbB25xAQIDpJXKlmup2AsmUEqIRou/iRBnLDhJwMZOihq7vUSBHRATzofKKjVYOQX/PIdEC8iII2DzDyZsCfBwzyy6rDYEVtygSc1hxADLDh8Ea1OuZcql/mJ30iY5vXMESHrkYSaNeJ7dCmEz/0RJtlfYIuIzlMVmg5n52a8pnj4nLcX2xjGM8u3QDLHvZiB1mFLGNGpuOJV5Z9F5aWXE7Khq5Nm2mi3euFHjTSC2jTSu42umgBcV1VGqaXYdhN/0Q2xhJGfTft0K6bxi1xmRZQD5DrQtzaWowH8UMP28k5jKfaQnYQOaVL4kjrAn1edm8nwAc5VUdkgQf1QG54Igdh4pWXY0amEdSHhskJgm6rrT/McD3ZvzxzvB2gL/vrjpQVH/SAzoinT6HjkYtXrm3oaiQ3khANpM486CAzoI2OGAxyQ7UxuK1adIJ2h9qOVwZ5oIcfZbUhQ84gpeNWfuGwQCgkOiEydQE5oNMg83taRqcORrnDaNuADzTZ6YDQCfevmogOoKPt5NwN4E19upxctPPujaSQjXob2/MbpOuqH3oRLfnPnjpZpqYmyy2bLTJDG4ZMB9ptCMSPdlQb7oZuN8h0PO3KE7VLyyvlxq35JsdwbKfPNuCD/OTvoss6ZYSxSb3ql2nfDjT2KGuviPHQTSs70ZYPftAB9Et9dxqD6tsAfpTZ7mugbSvU7pJTdNFn6gV4BvTQSS/wZRxITmjRfQZyBM9qQ8kPP/h0QTRhT8JJAvhV3lttaaYTgpf0NEhDf1Ed27SZ7jDDZW4cK2MCneZxvmxjk/MYE80GFMP2YpWy1QmHQcoiP3lhnCFFK0+7UwwDdJQt4wriqrA61ty4gApRsUyjhs00qnwXSCcf+YMuNvNW/ZALtuq8xAvE+9XyppIHDQ/ldtG10aaFDmxPM/iFBbAbOtAlaxtZL0IXHfVDD9vLujO/YWDpEqfIrDm3f5dj3Q67kbMN6o/ItB/8NEP2/sZgs76yHXZyksP0kmXtaofdYLd0uc9Ip4TlCMBO7TesLTId5XFElxm3Wz+QadtjN3h2X/xtpds6jrroALTUKzsQAb6iiTbc6iC77JNAXvgG/+qwZAd3ght4mzmjA2GYnLBFxr1gN3SZX1cdQZecbxc8bQ4/f//xNoGuNx3kMOEFdeadKpGV1q54buQ2OpVN3TrEacuKXPDinJmdcd3k024gkDt/dFyLg97CYfDIE52fvDrPUFobLoMPyrpEEx098nbRUT75JF8Xvy5kukxDXHtJSQZdA1S8gGgz3aZeLKE6gkG50C96Jm+bnxD62JkfEE/KbOPc6ZPe2XkiNZxjk5BAFCV18ZSsXW22HbajEz+gOgltOq+btQFxzH5PmqOkr167ecvyhjEfppc2Mq/MZyd9tmXMQF+k0T8yRJNp2+V00eY87fq1sRs5a1+L8bOTbjTOdC4Za9lhL9o88/h0fWJbmvMsp/oY40LOiv5GXIx38tuFgo0dh9FlwINy4EGZAnGk6SKjC6JFJwAZyItOVBb8kSXCW+2uZKUebZA/7ETkJ69oh9HBGzrSuvh1Qf1lWD33AuTRUqnOkQNw8eoyJX76egigJit86mpiwsezvjoCzaaD5IRCqVgY07jaAaqA8gApTY2j+DZCxqpwF7RRXrths6LIRzxx0QmrA5EcaijKo3zyIjvnysMxX6EB1dGS7EcdI1/ulJv1syNVQHZ4kE+QnigPUAfyiX/E1YYS2nRA+UIvbT4hE/zJpzqCXL5kBIqDlpbRE1vEZ17SKchlWZC/fh7yRjtktMsTtuplZ34CcQC56bBnTs76+dz8oqfpJjvIegHEE4ecKlv6BJxrAEffUj+PfkY5pG8nY+aZ+YFcvzadnfLXw8STwsUbM0ryXp+b9yMQbeaVdcpRciov6KLL6YLklG5I76IVMj8gOmRCdwHKoG2qA5FuVHabTnKFaobLCVRGW87gOziWMh2INpc+Io5z6ABljZqcfNBAdGGr4mJD9LIVwGmsPMkUPDHOUW+KznUE5KPukpVyiYOnxi7n0Eo2gXJIJx/QhX/od+vKXcgWPIDkFNrn5AfSK7RKznm3oxtGo/olsm1BfvQpqM9kvl0gHb5tBB1t0Zz7n8G8mVZhd6w4SJQsxZMQBoNiyBgKgEidBZBPBYUAgVCYziNN5SmfN655acxEVxlCdDCUw0AL45W/PSkaI3e+7Q5MvVA0+dR5HRBYHDIRlJzwqGVW2YDHW5iz2okyv0ovmja2oxOgJ1/UJ/E2hEwe4+eqo5B5B6/aKbpkyvnRbR7Qan8NgO3qJexUv2H8RAcv8vBk6qkTMx6ne4z0lzbIG0f/u0mf5ew6B8S1w/kIZLQ4H6bPnF/hLjrqmkFe8vgTc3Y+Mz1ls+N515dAHkA5EdzKS8j6FJ1opBdkyQ5Lxy5ahdv9mvFEeeRXOvGcUz5x6pOiEXTOMeuyDdJ9rBvfTJ8RZQDSu/kInhe+rbYgHpnVVpkuh8O4aywoX/Rtjlmn5OVImvioTYlXXOg8HB62iSP1Jb7yCmcp/VMOR0BZ4hm63+pAah7GVrXxXdAYjTpFW0bZ1SlTT3+329joKxmBkBNIHuohSA5BdZNe2mjnb5/fLvJzI21wsYFfAt7HLQ8t5Q6ySyBVOsJ2ZifKp4bMRzUQeZzG/uf3iAbKNwVKuSiLNH6140a8F2N/KJs0KsF55Iu8AnlBlBNONXiHMlS2EOkRX/lHPaJedNjqfIRM5/U0eE2cVwwQ0cUgSPkgNHTRZYTctZO20wXpBQSv0BnIvFS/KLM6LIC8DJ6QhrzDHUFbNzvWLyq4eQ7a/EjKdDiMqcmJ5pWIDb+XIGR+6AZ6zjN9llNoy5lpMyiGzwep/XgnSstrmQflI7/6bpsf5yo7020H3p2cmuRJ5JHNbe2E7fi5PpHX+YQ+hTZvzrvkaOcTP13oZJpcN5Bpt/Ijf9iHNtS3gyTqlpH5qP0Ul+XJgH/WTRuSTzzRl+QTXVffhg6aAbbEGw0gH3RAdSJvw84Q9OQLGaKdCKNj4jVjIowsFaH/KCv0hGwCMpMWfTroAXHQKV71iLpRx6iz4ivU7rmNIr0dJi+n4im5K68qq/gRH7TImPkePAZlHwR1VR8MvUQ+j8mCKpOiSFOl2hXLxxz2wv1M5dUB4A1qAnAEQafBED/SKANBUbDKdlovn3zBpx5rA6myXkErV/SUpfKUpnrxC8VEYToKlFl5I7cfHMR00UU4znNHFRTKHT7CkZLzAvhLDq6G1DEBWZW9k5eHaxuKJ+dEdR9Dd5Snc9HUY4TbPKHD2ep8GD/F4RRP8UqEv8+46g+yZOcIoqwgEn0MOqV5wmY484ROuhOtUOtYy4FW4Xbdcj7KzTSAdsm8kE99U7w4Kj/gKyHUd9nqLl3ooZ9h/ABhzoJPlAuyXmr9Kp1457pBE2OgKbc5CtDkPrdVL23Z4pehJfJKU+mB9DLYt6PcnE+yZkSeCGfd5rZQHh1lJwgDwvVYHYxsBXDdWjzn0jfh0J14kDd0CY+waVGmZCE/5SIrcfwUV+tfy4OV+Ml+RnzY15rHkzbzAoXzUb/Bc8K1H+kIFJYtV1LQhCykDaPN8ZbV8wPRccrM7aAAH/FsA/66KM9tbRfzbYGiEt2FqcKKr8faAWrn5TTiaoOjo3B0fup5SOc8KzQ6tYyWBmeWNcqrR/JVmVNRDY84KpzTAefQSs5BXiDilYdykJd6AuiROdMpXyACmSaQ81B+/LLxIX/VTWQWiQwBfGUIlCo66YVyVT/CYJAu+BGs/EBk3qob8ihfpEFX69cwMQzjhzPgPhwzR4wnN9rbs8aKyk/iUS6/4Gv9xeK21lE6VnwcB9shoLp5uR4CNT98Kn30zza/NrysgTROBtsdcFHA/q4MVHTBAwfoBh2JJwf4wRvUtgC1wK08A6LrShNNrl+GaIgP/Stf6CW3PeHBtgs0RTiPKEPhaL+IGORd+13049oOanfxruNvq6xVTspQHdWfRKe8uc+ITlC8/2+Kgd6dlkdEXmZimRdF5DrIyUluzpVuf/zoS30NPXmgA5SVbS48FUZWyVt1l/sJCJsN2joJ0nC6wqCfqGVDk/kpDSCr6Dxs5Q3yyKAMP+wJlLe1brsDMuc+arXxvxmN+qoC1RmaejhUKVVSyHkA+ZR3K6IiueMD4tSIAHopPNLiJ0Q48rflrOUovXY+kGmB6gooh19bPkBcpAftYD1rizZFbQI6yodPpheinlW+LGsblA29OuWwfEB5gESSHJQzjE/WhyCeGV06yjyB6Lbjxwv0etkXp8DSor63uFvAJ/MV2jy3bwP1jUCmHUbXxiAN/SUbr60gKefXEVlwlL7M2iy7MZPUi8zeRhZHvozgGXKqDcWfI7wynXhzJJ1yQVtm8ks+0QjtNu9ClnN3ejFZLU+7fiD3z0HeHZkTdiOn6thGNy1xxtVochu6Lv3Mzk1O8kC72W525NcuLtqgORFUJacNO0K+dhsIuZ/qF4gjp518hmIwo87QR24HQfzUjyRnFzvlDV0M0uV2yHXdTRu+XcQFR3PSwL/mEcxTpexE9ZdQHOMXlYBG3pdzNRDgyC/KCCVoNgidOknmF0f9YkArnbIRHj4codcPcIif4tRZIh6oAUgDUrjSJUPNXxtKcSDzlZwRrmUIla4WQB6yZdmFHFa55FP7iLdogfQCoCFJ6U5nx5qfI/RxlulC9koHMp+MWr7oIo5f6CTaOPJt5TczNeU/nlbDIbILDrPGShNQuyssfsEndCkawhhf8jnXTZ4RULk5v+qJjKCdF+Rw1ssAP8uSsjXh4FN/ntTAzu3vVtn8r4fBUqMblpxxknx/cnIiHurJegG5/K38Al10FYPnoR/ybi0r2kF81D/1i3jC8Mr9M8qphZFXED1yEV/lrONQtOIHOKpfhLwByay0CMdRcgPSCSp/k3UAmV8gMkOT9Y+s/PwiwOOCD2mQU47OCct+ho6qEwVip/wKkzfkidWVmn9QJ1l/nJNXNIoXP9GpLEA46150WZ+qe+Ybx/gB6KR3ysv8hPa5MBjdnact514AX+lpGDyVBpUCIRr8qZHiJ0VBk0He3Fn81wwuyoAueKDgcHLEQ0dYdFXp2REGz5ovBqUGRJTjQUd0+qCVArSu3h4wajzSiK/5Ky/iJGd0Kk9yECY+fiGn6hAduQ5g5QMcMz9oungLBHVe9dyVr8bFL8JZjjYfEHmqbkQn5LAeYgHEK2/K4kDOzE8zocnJ+DFTYklVUDkRrroC0X4RVv1BprGQh6lBrWPQcY4sUa4neRjk/gKon3jUcvzgR+WzkIdRmfKpHeGlMiifvpD5UVDmF8etMgK/N2nOEp1xYaHN0EG7fkD8tkPWZ9Qh867MictlZd0PtkOlG3Zs10/HDOUV8rnrzaC4oK9lKQ6oPXQOCCNzOy9qy/l3qhe6AtGmMeahFy1xygOJ7ACgrcWrDeLVFyQDda6yhQ0jT9jS0CXHLL/9db7E8xN/0QiKH/wFHdARKCwdCF6G6yE7qur8Qbs85eM807X55TJqHj/siFzWbtHlaF2rJGSBasZo8K4Bx5NQEoIjNFSWfMwMnMYHHeVVpUJHXp5klHKgp9Ghi7Kik3HkXANDR3WGyBeNxk95FVZnA8QTR5rQpssQrR4qAFWeKCfiQ0eZn/QnncSvW07AX9EA0UkmssFTdaD+pIsGviqLNPJwLjpdbAAdQdYPdQhJAuIHMi+QyxBdyFbTJCdHOUZe3WA3mVsLS+lLGyEnEE/icj1ByKrwoF5UvzYNyHSA8qEBZAv5q7yijTbw4IBusl66+GW6LKeOw/hltNsC4CSv3bjlr73MTk+6o/RZpR2b6mwBRXeVD9CLieDI/MifaQjntlf9iEd+6gFEx7naUHS5fwLxy20BgraeQyNdC9CqKI5RboxBwtmogpA3CDjCozq4wbJByFpptuOnugrQYsMi/2D9iIt6N2W4HLWuGchMEj/RyKZKp1nPkTdsMHyDV9hZQBmSU32S/G17H/JEG+gniC70EXUH8DKWDuL4ZTogPrm/RF4POtp04peh8rkCzrRdoL7itVtkWy/4ax4oH1ARhJQSAOcwIg1+mR467pNwJB2a2ilkpKvzlcDRiULJ4TA12EIpco7KB614aWDLQavhBfLT4OTTOfmCNjqYlKeOkctQ/vaxDWgtyevaztemUd1zByCP5NyZtspoyX7ezqf6gRwP1J7RtlU3oF2Oyt8OavM22vqkXHarODkz43yu3pzz+IxcP3iTjx914ai2B6oj5WY61a+LBmS6DMvqZUTYTgxtWuJFl/MLXfyA6ELOaPtM38VvO17tc/KdO3XSw+wutLpWdxdSXvVR9YuMzGsYtsvD+EP3pItfRps22qA65TYN5/Z3oH9CA0TX1g/IZbQxmL+G23rpypfjMqBTNHm26y9tkAYwxLr3rvzD+3a1qyDLJhrycO73PRsHRx7772HyiU5Ap9CpXxIWyEu8+q74ccx0w/wEsKCXG+FB2izHJlBZK7+QywLSRZb5IIAMmzvptIHiEUpChALiPaE26CAoJleKSkTj0YmigchHFirMfRV/SdpOlC5y0uUgAdHor41hTlKgPO3svxsgP/WgIdtfBIBPG9FBwuFCJ3ljX9TtNx0XxLPSbscvBrY6b9ansB19F9r5KZfgMJ3uBpRFGROmA76wf33uVpMyHKobstwJZH7tNsjI+tmLbtp63Y4f8WQbxmsn3eAo5xYWzfDajNz65Oou5Nypn6hvMxZ2QlsvuX4m9pCxu/v6CTHe4wJ8GE3mN6jPSpuxdfzF2CV/Wz87yQlvduNp04GgDSeREXaw21aIX5U/Vh0IY5tyXYmjzQT0Sl7iKIcw+ugCafAhX4b4QRe2cOtmHWrzTJvpwPiE6dPC1L8L5KecqCPytHfS2caxHiCQYdNB0kHoKFkIKgmIk3NsV16AnkrQIKRXxdEBB+nYsSA64nAHqc7EkXQ5uUwnIDeQvNsB/simgRKK35k20+2WHzTkiTq2DcLWwZKxG36UIX2+XbT1shewVMoL9dCDGfYanZ3xZcFhznE7ftHm3Q4LDOiGgdm03050+4XdtN9ekHfx2A4ydl314wsnxN+8Ne/3dg8S6F/9eju0+2fX2G2jqw23o8ttEbTVVuwXZJ/Uv4fh7dimtk676Nr1y1toIptW3gDnlIV+KIPyAW0xjC5ogg970OLUuiBa8u0GyIvcyo88BJFtO7TptgNyc2FDG9wOpJc2Bj53BaKjYczDYe1UCZCVLYMXHbc2MJXMjbQbQEO5ebCArgHa5gc4R2G75QeG8dwN9sqvzSs67u5mnsOAbnI7CDKu6Gc39etqv53oeGcP57hoBjq+zxjLPNuBMqkvMg8DetlLGwo70UUds3EdrF/uZ8OM5F7paIfdzsxAvgDYDsjAfrunTs6WKaszr4nwE3bTfm1kh0wz5s9kdaFrDA7DMH0KlLPXsZuRx1IeE+gAZBl30k1XG+5lLAlddMPkjPyhT3hvtoNFkA+9BO0Oji6t+sEHnYqGdIA8BOERtNFvHVYOM9wuxyM6AD/KjHD3JKoLkhXaneiG8TtIjLx60WaQDdMuqAJSvBqYSqhjqIHUAcnPOaARgmawcTlSDmk0Imk0cJSTO28caTDxIw4eu0F0kq41fjp8FELdyEc6UPlBwxWhRw/QIbfns7C+AgLET0Bu6kMcNKBdP2XfStvBz87bBjY6fRgSldduB6A0HTPdbiC6NnzXF2tTXnLHOUZbWuYO5HZoQ3UkHXrqIKNA/q1tGPXbiU4IQ7f14kGgjCxW+3wY9kpnyQPLjmqH7XQj5PpliKdvjWc/LlTYYIBv3LH8mvN0Ybg+K01bn/uBPCYon/OusSTdMFaJy2Oi3e4g05KnS+zML+fZXTtE/mFlg6xToU3XlpOHa4iDposuwtQVGWO2KjrC/LgXqYsq8lIfQBpxyKUjeoQP4cgjmapjFdBt2LPuJU/Kj7IqHTTij7yiU9043w7BcysvEPzqRQ/I/NrIPLtk7cLmQzrRKdoVoAOZYKY0bv6Sj3PySMGAvHJugTDiTtuYg9wwCBeNMHgMxP0rzoNP7fBBv73Dovw2LRCfHCYPCPmDf5sn+aJTRN1qGf7Xz0WLPOgIaJCBQRrOo2z0E/KG8RbtXvm15dzMY8eg7obohKxPIcvZBZ5MXVlZ82VWdOeDMwH6rJc2zzZyejvv7aYJw+LboO0kbxfQB2W1dbITXQb07fbbTr7Ms51PfS3HueEzI8dDUqTxNZTtkMuMrrazrpAfPsqXx2DGdnohPxCrYTpQ/ICcIWg630qbx0T077bD2kqjuHb92iBf7ttgyxhs7NlOyGM+AL3p00L6Eg+8QO4zQj6HbZf9BZIr6ka50WYha0XUOxwI/KINY8lT6eqTGSFCdT5VD7txdtVhiWemD/2EPRK247cTdpN3c7NyGFBpCQVQntIEBgHnuXCFETxoUVwoUVAejvAAGtQoTXSAMGWJXk5L9NG4Kjs6YJYFKK+A8iS30KYBbTqQ45AFnrluQs6Xw14/y8/VvTotnS+OW/PfDj/QPg/aQYOQIcMl3QQGB7QVyd+BcsHpE7MeF3umrgw4Rh849k/fX2vLtVtQJLIh40FAbdHWj+Tt6jOAdEA84Xb/zNhL+22HYDmYX+23XTnw9Y3Q7ce3CW/eWvB4aPPFZheibsMvjkinbtiJdr/JdJJP+iQNuXaqu+rXhXbfDlmjHTJd1k3Iy9H/enyWs83P81seqDO/4NV9sZLPc9uTnzTRSFahi07FtuXXedanys5lSM/VvspJxQM9ER60vfClrCwz6fkYdag6ySBPps0QvUA++KmcnJ7D8KM8QFybDrTL3i+MamDDTAw4tp0jcZzzIy9KjnBVIoLbIYXjB3IjUSY/ziMemqCreSp9OJPcSckTabpSyrRAYeQElJHTo76RT/UXkEnIYRB8Iiw6jrl+0o3gdWnCRKsM8R6kHc4PKD/IPIDOJVPQDtYv06tt1Rbx8yjLHzScq1wcPI6RH05xcXl5i3MEZPelPsHCaoc24KHO34aX08i4nxBPylfdMhTX7jNC6El5CIeMw/M2Jy0of1s3ar+sG7KSv6v9uvgK0Kut2JRB7RfGNPobZWao7a1k77sZWVbVbfBI/qCjWMqXfNKnyuxq+676gbaclVcgyq39GagcEPURXRzt76YsoM0PKHWQX6WrcYF8HjQKU35Ny/XOcgLRUV3VmSM0g+VXfUp26VTxkGPjSecn2xQXRzGzDLniR/Hxi74GJLfO1T8oj3wg+NWLB+UF8AC1PNFV/YBMk8MqD5qQq6ZzHg675he/6OOJwW3AZK2Vj0qr8UMYgIB24mFVjh8NSzTpauQkp5cX5Q42LHHiq7LaP6BOnfPq2AQHwqqDgCwuu0FlSKZMB7rKBoSJy3S53KCrMgOF0UmlqY0MJCfnidTDxA3jB1RGG+KnAqPsGtaxCW7Rq3gCohRPR+Op1NmZKX8s3b+2YUaX2WPbOYLgEXWmTEpRWW1E3uakA5JxGNBL1o3QNjoZ4ik5h2En3qrfdvkoHxV1yShslSHOJecgqsziu9nuQwBv2ip2Lor2O2VOkjYdb4xJBsWLt+SXPrOsw/qo6OLoUQ7JW/tY5JEeA4P1G+RbCwva2scUB8SHU8XpCERrnDdlAV38ch0BdVRR/gAVx4Ym2iH00tZXpY8LBhlxQJLSAeH45fiqF5Wd9am88FedOKgc4lQPOTL9gMqifsRxREZ+ZFEYkE4Z0FT5Mt845vwZOV/os3HwVpQfG7Tp87Er3JWff205N/kliLYNj62JUrAUGx3Qf1YRdcRQsGf3MLy1lk1cRZyQrgYAnAtZePEaBlVKnbYOyFSg1yFkJXprxSPvYP3iXHTiQ0dsKxJQbvyiDMKqX6YhvmLgxLB3fpIVXhzVHnUw+iEaMAEZgfK3eRBP2cgkqG68q8oeoOSBDzu58Gux2BGZZ+VX+QjSyXYYpI9fGzku5wdtngeB3cgotNtDY6JLTk7zWAKRZSuD0GWtN+dqP4z79ORE4yTj2YIq7yBfgjodlLU7T8bWdicUGQf5aCwyBgbLBaETyuiyEZGJ6Nx3Mu/Mq62XjDY/lQ1CvkqnFNH4MYcNbRplkGzDxrxoJDMH6UVl74Soc+iMY5QRvBTPT/aD8uOnSVDYebWbqqEycluonpmH8hu35hggz1bAoAk2yPyQZ6tOQl61pfLr3I/8b+IHMRjZncd4D3YodYpAVLoKJIhG95ioAD/LPaCKKC8ULZrMLwNeofA4j8rXjtNNF5lr44T8UmQblEE6+USzW3j9LLv4AJWhBmkj06ALIHqdDwO04hP1Uv7Ki7IzMg2QfLuF2gvwcAdfuWeLOIwprwxgWDPQ53bFU1Zuw4PAoG4q9pNv9MutFd1t/YbJ+HahMRHt7sFdY6F5DYR68bQr29dpdxeBNPXtrnrm/rKbOkqDmQ4QHjYetvIdbIc2bbuZoo/Ktmyl5ZdtS5ufyoZW+UHwjbwcKYMjqRw9bHlgKbZBM1hPjSEdhUyX2wGIL4BOS61ARyBeREkm8m/KavHkz7SVHp41bw1HHZBJ+hykIxy8yZ9B3Ga2Bu1z+ALxHIbKsxYgWYHqDrKcoK1PIF6ZDvjXPFQARChbmYinUM6jciE02dszM1d4EyY9flIiR6VVxUan9aDHiZfO8/KdgtBE45J3aycUpKgcPxgO3uIpmURHPVXHKmctgHPRKJ58mSbQpgk6fqoDyPwE5VMYKL+RbubPdPCl3LZeMi+hdoo6wHCMzBjZ55PlN/jy+kYXouyQUfLtBplfG11ytpHpd8O7zW+v8lLHvWK7Ou4Xch1qH60IXXbLQH4cpF4B4TUdHCVtP+gou+suflmXw/SqfsYFNSpp59P5Xtu+DaLr+AuelU2VEWS9JFEGILni161PjfNcBnZLdMiUbRo/ILqoj+hV1iBdIDEw5PrF6p3K09ivvOBR5ZRsEU9+8aFM0sgbs8qwtehU+VQ20Dk/5QGUQ1xF5DcN+k+ygBqmnNCxnyVy1XWgyAZKE2/lCbnyMeLbEJ3QphslEDdxVfGmYe1cjQeoiJZRs0EGVWER7wU3jL0s5xFp8OIHxA+Il8oCLOsK0FcZUh4vv/KDl+QAnAuSAfIufrnh2jzs72a5nMMvyogjccgmSM6tNCFPlFnRPgc5jmBXHkFpOU/m14V8AYJjjK9ETJihjFkjTzy2Z41AekKf1D/r7U5jJ710gfx7IVE77xduR+YuaByBKG/3ZWosAxwlbU0ZtD2Okn6A01T/bUP8XJcR5eV11asd1+4vw+i2g/Nt0eRzhdVH1Yai04842YW2XDoP2lomh1pGjHmVAWS3It2Dm6DMLjrJCUQnHpKfsKAwdCm6yR8yg8yPMJOceEAn8qqOOUyZ0PMjTLzsNmF+4i+EjPW9TC3bgsF6BR1R+oFwdPUecKYHUUZ1diFv5CFNPDI9rESnuikfyHRCm27kzctXgzKBxKwwGdlQVCi+VjSeUIxOVKfVaqAMaCRQO4ww6jQ0osVuyZsfTVdcVdJwGh5n1jkKoD67oW2HgRqSMizJEOntfBnwJE3Jw8oWtisLdKWHbuog2wuYMbCcOmZ1wljmL/pniG/7cfgeewN6zGPpsAEHyUYD9FsukHjH9U6h3beHjYW2nQmdDr46kUE641ZFycjnNtiuX2d+wWuQVnLqqLjMM6Odr4tmK8/hr4YIosk2TWXqCWS+8s9T5tkWRp6K4Bd1RC9cLEkG5JFNgwcgjvykZ5kkI0fKgo1kBOFbIp0w5QpdclG0x6Todj6dt+PFq+qomy7Dl1hRAMojzI8CqKzl91+EB2cjykt54bQoPBTFTxBDjuQXgjbSKJ+waAkTBzIdnRd5ADIO0oTMoE0DxC86dRSyEz8gOn4gaIJedJlG+YDC8ISGc8VxzB0l04lnF9p0Quimtk8bXcUhFz+2iOOe1LWbt7Z1jqpj7xzfHmin6IeHEzztSl9gVySeXPZ+Yv1eUN/MfZSQTof13YyuLF19O8ZCc5KgsZsh59HFX+NUYDyqDRRPvx4me+bXtoVAcuaxGzxlF/zgIF1jSeFBmgiLJ6fRZwbly3RCpam2CZ1iGqgfv/WGLvdBzimPX/iD2g6yK8SH4yUuaODBjzT4oBd4eJ9pyudIfsrkmO1U0Ic8mScQXQb82QBDiLao7QJER3wXL5DphE5+b16+tsGXK+TkgCqSC1AFtjOObbpooK1XdTRpS44dYey3CL9btGn1LlBbQW1kutiQm843XAjy56+H0GlC6dsL3qbbb0QHjA4AuHpEprOnTtjZiBnDuc1H1nv0yGC8nzlxwvrPhvcTwEUUfSkMb4wJ9TH6VdeYb2O3Y3A3kOFDVmTg01/cQ98N2naNbf92+hJPl12LujcnLbTHX0bei7ULQYszC+fYtsHYGM0Id4KJsMXudrWD6kfcoG7qxuHEQUc6MgL6AcuscCLvbhGbqNRddHYDeIk/oProqIsvekds5GzT7QTfSYfpM8gGnQJgCtRACpOv0gzfaX8YtMkuNJRFQyC4hI7B1+r0xqdLTjCMTtiuE0YHlBIHO2AXnfSCzEFbdbNbbEeXdfN2MMwAsZx67vRJ53/p2o0mtkeP7YEBvnD2tIevXL952xdU7bHbhbaNeTvYDb/tkMdRthUg7AXLsto4vNqKYeMvaAbtUxeyTdsJw2xoxnY6lawg168LWZ9tuhzXtqHEQ4d8yEl+AHnY1JjRk0/6BJRDOvKTDh3tsF+A/5jxYyN+kPmBza957IdRBlFZOZB6pdXuGG+34wI1RrsTgq6OONi4Vc7jALYaY99UvhWoT1CpE/TosRtorJ47dcLHzfW5ed904KDRZSsYv4B40DXeu9Cm22/cjl0bRtN2yIB6kn83Fw/Y37bD2i2kT3iLX54MUS7lkx62fvCiP8sJHfWQjxHtbgANcsADXwI9ZQHUpfYkDG94Bg2z3YiDDn6UIRrKUd22gztIKgMBmdVQUUhkCkZbZ1i7AbSUkxUW8cEzQ1cG2Wm1eWYZ0VMuIRxyNBpo87DTzTq1QV74h0LD+eZ6ch4K3v5BpDYy3X6irZftEE8ljpf5hSXTGfVEcz163B7oz2dOzvqy2M35+aH3rYeBMZGXZsF2YymPYxk3aEEe84zbrmHm/Kz83SxDZtzOmB8mAwhZt9qY7eon5PGe82d7KCAr5ctmYyXbMnXZeuo2SBt1ET/JQBplWorHQ0M8MlNGlpM6Ug7nxEPDOZAuyRd9IdoR2cjPcS9AFujhE/XeOySn6N1BEkAYBFbDRAaFBxWuxgglc1UQDQut0rKihUwrZDpnaWhlGaBrl8FSD2dZ2Zt57cdHP6l0BjzJE43SXTeF1ZFATfODncdRIF6dXmjLeztARqA6CjuVPTM1VaanJny5Qrun9OixH2BM2Kj1p13p7wuLfOqs+33ZNgbHmR+2jCUgQ5nR1ed3Ggdd6Vsupu3XthXD5CRexrwLnbbQjvoqRy1z93UhnnKH6SPbNIsiZYBPmzbzIWw1s3M/3bSJlCU6OStsEP6Ao3RY5Y1ZGjT4hXCOdVP04DMI8ktXlBe8o0yOlENc2OrKSzaRc8mp80wnnrKdxLVpcv0qfdRv5LWLl/1zVxIKhNOJQkDwyIoI5KXZEIQjTKuyldbVoRCQfFxNtorepAnFhMIzoJV8IMuW+eV6CZKV6AhX+qCt/DK9y2s8uRKlfEvdVLzQzo+Mbf57RVvGncBTqdxrZPmLh4toT3WGHj32E/Qz+nhsLDFWlq3P8UT07SLG3/Cxux2CNsaunOuwMRhDarD8Ln55zAtdtBk+Xi1NqX5u2K4uWU7qgH3iHF1A36WPPMMNHmHTBOJ2q8vgCaIsySK6KD/q0I6TjBSP7hWf24A45IDOdUpm0yG0hPnBU45KTkt88hG6hoVDaRntuDZdTlcY2dFpjjP9hoGPAgJ0Bk4RHsURVjplUkFAgYonLwJwnvMHvcVZ5YEEANEI4RzJF2UIobAoL2Rs04JIj/Am7DynAzUSIE7r0kpXB4nyqtPjXLQuz2Z8LTsjx7kMHXn2ipBpd+XgHKkXV/NsKM7yl9qrR4/9Bhdg9DFeDaHP0Utnp6ci8Tbgfb01dneLGCcxdmXXNAYZ3xr/jA/Gf7v8fN415gVlGzauXA47yqapXMnQpuOcLMrn9A0PjrJlINOG7aw0smkAPoRFq3zZhqqOIHgGX6+zlxdlAGRXGaE//SI/+uYnGvLiH6AjPRxnlCOZOI9j+BnVDUfKuRx7bcs4Qkf5OsfvkFcQHSCP6hI04s35YF54CuJrvyAYpiyOGREXYWhFp3yirYiwrsByGmEaVfQkEUZQwsorGdu0OqdB1JCA2JwXcLqVvjkx5DTxEyIt+ClfDgNUlzsv8DxN+KCBY2TjafTH540wWG15evQ4KOAo/Ysh1veAf/3lNh3lXu8VZmjsZptBKI9Vgvk8Q2Mm0gfH/CC641mtGbSjHnTkMkHlhbxh4GWkyUM5FKX8uTxoVUdoZEPDfgZ/0kUrhHOLsMoHUXb91TgPbsaBdnpThAO5kIfj5iTEHc1W2QTKof5Rh9BFyKmSq6PPUDqHmne7cPyEON+aF/7IxPmm20Uw++thCRcKGKwYUGOCShfpuWJSYPbM0KpjBIKneAV0HERTrEOdAkC2SboNMr14ba1nli0QHa05MZBPvDNNW4Ys40EAmXGM/CQHL3f39xp73C0wtnGUGhPqn3cSsi8x/jy4Ocbb4TYUncf8oLEOkNZltHOMeEArnpmuSXabWJFLCGQbo7yizaB8yS1+ANFFz4yJaM4lD9D+saDND31yJI4wNCrfy7Y40fpyNLM5L7cp3CB+pIlO55QtnRBf/UPEhe8h3PAwujj6wUEe6SaHkSvXC+R2y3kryBd0m1/zIFNliILanYLzqKhAeJCuIgsmZFoAD2hDYZHflZaU1abpAjRS2jC0RHEQ1xUPuvhKJ110sN+q6IMBfHgAhwckqDU/HsJhm7jd6KtHj4MEF2j0RTa5V/9kK0P67NuZHe4Vw8Y2YBwznjNkz4StNnA4NO7CHtY6dtkKgbx5vLbtIcjGXMhyEtZSq2jEP9dRMuT6hTNtyrf0XF8Obf2oDJDzZn5WorWxyWPnOGPXh4VVVty+i/wcoz9EWV11zfJmQJtvhQGKyvkbNp2IvJEh5yMu6tacq5JACV4pIyKs9GBcCUEOBw1CxzlJrjCLIC3KijStF2fehNNpg8E40QEpYmsZWwpx6MoJKF90kFqGZAXdxUQkdFW5laYN6WQ/wZNwvNM4Pm6dz8rmawz8htW7R4+7BWYl6p/j1m/ps7xypLFzUJCdyGO+G2FfZLy3DqE63tvjONOBPP5kX0C2FV0YHLe5jPgBeOMMuuSMsOKNr46bmcLpoossr5Xa/CI/eeAjOs4VzvoMnUIXaapfzR8/sRffTKN8HmUgnZ/sKPGUGc4/7KjKlEygyhoFcV7LjNWD0F3EKRxk0abMeOuMtebZPL5x6eqGGjCm0kEohFK3TkOjQjVfCIuCYba1U4Twg/nzOcgVjuDWPBmhwCov9PyGOSzxzHTD6ifsJKfQlW8/gWP0DmpHZL3VfKaoR4+jhJOz075ZBWNQx7sJxi02QE5gGNpjfju6LjvaZTN2A9GBNj/SsjyA8y6bRsz6Wn3/NMsYbVBtdlfdOCc98xTEL2Z0ka58pNUHomr5ipOMKp8nVznqiVKqFXyDDoi/7Djp1Ec0xIk/aSFf0CmtTat08UAuwh0fTM6VaOKazBmiU7yURMEUkfOTlvmQhlDtMjmvcdFIHurIB4JXyAuiwoMdKAMZiFMekqlfPd/Kb2c54zzXbz+BQ+RTVFx5z05Pu6y9c+xxVDE3b7NJM2T0Zfo0fZs+freAzdjJOYL2mN+OjnjSgybiOA6zZ0KOFz/RiV/Ok20TeZQUdrxlsy2sp0pBlh2bAg3ZoWnXjTjRyYb6z2Myv3gohzTJRv7gG2F+zNo0IyYP/II/YWSLV0WQS3Umnlc/JJeXY5GkycHpCV29ekiZmYfVxPN00QK/d9qAPGBzowAAMUJBDCFlck5mK2tTuMpQmwUMOioVDi15OafSQtDEBgO5rC6oElRayDyRq00ODch0bT65fpE95OS8zQ/sJOd+I9ohXvafHB/3e4wLS7f/flmPHocNPLzD7QKefOUVEcahbMdhAnLlod8+H4ZsY4Queybbku1vtqFCps32aCBsP0JyDHIwXTYt8wPwtKxOI3BOvra85MXJQQt5mx9SZLqYGVZHnOun8kJ6HBzb04WzI40ykD/ThtyhY0DY2Roiv+j9MABkpizRAuJC7gr3MW+agwz1DAJimALopDQK6VL27YKKoGgEvh1ITnUkXam05ety5IC8uX7DkBv4oIGMp0/Meh3m5hf8qcAePe5V8LDZrDlLNh65af29bajuNrKNCXsRs7H9wjDbtB1ik5bYHD3Tt+3hfoEWkXTb8dvOP8iGkgcakG1vF614ES8HCaAnLsIx4yVvRsxch9NljLNnrOlUiFms1S1/zeN2MUxhCMeNepZUqDz5hvHKdMOwX5uqh1MeXI49TOBrGyxF3YmNoHv0OCyYtNnk7PSkf4vyKMBtmtmS3X5a63Yx7KJ/J2S6tv3NNlsI5x8Oq+2sskPeDbrsPefY3PYkYzdyIoscHXkB55RHnr0Auljijc0ItqMfWGIFuRLytBQCupX29h1WG9FQ+3uVdtiBDs+fOeVXaRgIBl6PHscNbKrP6glG88qNm03snYWM8u3ate1sKGjb0Yx88Z4dFtiODpCGyNDuFjut4LUdFvD6mUxdr+zsJCOQnED1k5MkLH76egj5qZMe7IGGvHKQpGc6+SXiw49AG/zgS/xO2JxB5s3KoyFiTTkD4TOjWrm69p0VjfAgKqWKG0PyGR8pTzy7OmLm04W3uzQLspx3C9T/zMkTVuGy+Rmq/kX/HscVjGbGIzbh9MlZj+NDzdigO4Vs19rItnAYdrJdYBiPnWjbdF02FLtGOWGvBx0W+QlvZ+8zoCdvdpCSkXI5tu2n0jOynO0VvNBpOEE5O9IlO/Gy83JunJPu+oDOygfwhT/A54QumogGwTse4IFX1kl2rJ5XDtIZUfoQtNNVmJDTo+x8vnN4GMiDwJkX2A3tTrAiHG+zmNsCyzI88u4vVS/Ewzf9rLFHjwpuzQAe5sGg3by1sK9jBBsiI4kp6PryTxcGbVhcrIuOsBz8XrAd3YCcLX6SBRvJMRyHpyQZt4ZznKAJA/HiB8g7zAZbbjsOTjRy/ux8gMps07XlEp3OVT/777JxhA6ZOSef5BMvlSdIPmjQk5ZZ27wHaJqjJyCEEsU4g3RBFaWxVDDGXsJTjBQOREs+oc1T4DznFy9VHORyMjKtkOkyP4oYUsyBgmUkHnHndQ2+fMCg751jjx6D0LhgVx7GOx/83t/7feFQIpSN9/YYtGGDdMOc3DDINm1Pl+Rs8RNNGPyaBxOXV6Kw04A8CoNBe6gyKj9AXOYpGuJxcpAHXSDnz0d+pMWv0uAnCFOmfIboOEdHZCUdXpKNeM7Ji3OkjGz7s07kHFVXDiozllPzsbaFzyBRmBItapMQxAFlwCDSEbpWIF7wBKJRZRUGOV9G5RNlk6dNK3SVEQqtDdpFO0zGOw2cIo+103HZUHwlOe4ePXoMBxeVjNkJs1MYO/YcZgwdBWB/zPK43NgfzrvsJ8adMPUMGuxU2CwZ+IzIjzFvIgyZLo4RyHxyWPYwjoN2lHySM0N5JRvYyZ4O1q3abNED+JEuGQBx5A/daZZc9ag0ycn9xwhXhyvdZVmJ50gc/KQTybCZFwepQkTET8iFCpkpyHTBYDB/GyirrfguPrvB7dLdSUzzUVkb2OgJedlBpH9CtUePvQNHqd2kGPOMo8PyGlTbYckWCsiLucIGZCcgZNspuyZ02bcuu53tIeHgNWhrs5yizYAm6GMWlu11dnRC8IFnrYN4ilaOh7Qso6Ay2vxAW48NuUM6EF2UX9NA5pPDSt8OLkVbgUKuCGEVmCu/EzKdkCtLGnlCeSmhA138dkN3t8D7XX7/xOSjngxmXvjvnWOPHrcHvj3JGOLImMJZMsa4CL3bcDPUYYqyjeJAuG0TAUYek5vtYaZto8tub5df9pPkmiUCg3QRRh4/a6LbMuO45COGoqENpxrhtoyUwa+LX3V61RdxXsmJV1rohCO0EVb+4CleounSoeiQp7XVXNwEljAR9uC2yHSqpMpoQ4JvB2hR/lEGAzYUHYOa+yj9kmqPHvsDLjJjTK36GMNRTk9ONKl3Bz7emzDYzhYOMY+Gvdu9sDPZ+AfCyHc7AKEtoxxDtsHKTxbxyhANR2Z+uXzlxO5Dn51qW942upKynAJR8mPyL8hBlpAtZpjix8/r5ulRJ8kc9fCgHa2M19+6vBGPw2oNtk7XhbZQypuR6aRYFZHL0v1OIZetMCCcFX0UQB2mmseheZjglg1gNdxhBg9C+DfdmvMePQD9mb1S8/g9rMAgsi0j787Rjw/LsqtsYdteZnTZ07bN5TRsYpwPs8FGMRDfpssQDz8aH+WQLYaHlkczX99L1cKirzIOniMPcdj7vPxJWeShLIvZzO98obO8eYk1AxrKpAzKgkfIKAe5MbDJAD6E4vPsGTqVYTEeB8ijskJOo9VrHjiuKKzJnUBhMIY4whQ06ORERxh4ZVt0ysPuOnrJFKGqwqISR80xUhc9RTU9GUs9N27Nb+risAB5llY2yrX5CQuXcumGxVn8ki/7xtPIPXoIPiubmiijNtaxJfedjvjzJ1bMccaYPUzAbpyanbE+bf18acWPR6Ffd9neti2kDrKlAOOv1xqiftXQg1znTJeRbS8gHxYh21+KWV+vk5qt9ro65Cyj6PK76m1+wiBd9ROgfQ4kJ7yRIb8OIr1EmTGb5Ginni5ZKEPheEp2cIIGiNt0kG1E5lC6Z2gE6EJuYDWsnnoVY+KlZAQiPKS4IwMcI40ahmTK6rlers/NN6mHBzw1az6wXF8YLS+/tV6+8eopi9son3+Wq7EmU48e24CL8u99dxjOjzx+ozx633g5M7tWJifM6BzCgXz21An7O+KvUa3buOTBuLYBPIxwGU2fwzRKetsOdzkeHAB5uxxjF6SbdtmZ3/Cw/+1My448o4sfcdlPAPkW0OYH5OjQQa5r6EQP78gBklIvAJSHdGREVhB5I99QBwkx8pCpS9lZCaB9Lq+92wY6aqCu3PNgWWdlbdVfYj5soA1uLY7YTHHFHONG+eor58qXX+hs7h499oTveWqkfPwd18tD50fLuZOjZXZqcOZxWHDm5KxdwI75/Uq+GoKdOswIuzu4TCogO+ndDgeb1JzsANnqbLM1sclt2OYXE5uYCGU5s62Hpu3kduIHbRM9kCeHh/ED5APkEUgjHxO1KId8wdcdn51HmREPFKa+pDndMAe5HSiEtf68/VB46TqdvldBI1FDfwjHwnwt/TCCi6FL1+bLv/jyRPn1bzZrYz16HAB+34eulh/90EY5d3qmdNjuQwE2GcDAc28Sgyejeq9gL/ZXjg4nIId3kNiOX3Z2tAl5uhzyMLRp2tDsMSZ6wYtzxVM+fEA4xljdpEx3pHKQ2hhWwpCBYL6i6MJu6agIgmSnehTBPQ6cI1ekh/XDxej5Sy9Ol18y5/idN+8tQ9DjcOJ9j46Un/jIcvngY0tDjdXdxmEcu9t9JaM9U+pC24lgfwFxrPxRBu2xnf3NTgRkOiHLSTnkxRnfDj+Q6XZC5ge6aNv8CEsvw+pHOvmGwf3afnzuajt0Kfsogg3FeaKPGaM/IWcNchhdz425+fK3P3uyfOOVKZ9Fmvp79DhwYHsmbIh//J0L5Y9/30I5aTO2wwY5Ef/+5PRUWTKjf/PW4XtmoAs7zZSOArLTGoaoJ/cEuxz58ElbdpD5KyCZH37IsnkcEA2ALn8FBB6+c8+bl69uZIHD2w6fqm/XUFGBrnXpusZ8FIFzXFxajtchrDLo4DDiN781XX71axvllcsjZXn1CCu8x5HF1PhGefKBjfIjHyrlE0/FJvyHDW6j7MerWLMzU2639CWdwwzsznbOBWB3QZcTGYaw27ujGZyZVTomQsgX9r57qdQ07/kH6cJPaDYKzbB6kk/Rg/4l+BHWEin0pOtJWvIA8oSs5B+c6bY/kwW23INsC5crLrTzCF6oxZMS5e/coIcVSH3m1Ama1N9n5IVkKe0wAuf4S18aKW9ctQ4ZY6RHj7sCZpKP31fKT3x0/dA6SYBtYn/kkzPT/jrIUXCSGdlZCWGjwhERxn6HE4nJj5wWYRwUtKLBaYAuRwmvtvMa4BURA2ldYTBAF4SernjJqfrhDCWrEA6SukV9xENH1Q/ksjniNAlLF6LBQda8oYcBTeA527D8lrEKBigEUIGmLAfxpITwMZsEMOwq+zCCVzaYMZ62n9+rWIwv+0tphw3IdXNuvvzyV0t5vXeOPQ4BVsz+vHyplF/7+kaZO4RPdwuMHW6X8M4yK0SMe36H8bWVLrSdI3AbvBkVq3keskOe5GSHI5o4bhIPQLRKlz3n1CdRZvNJk61XPnxEpiE98vHlp5hJKo14zsVL9UNWTdSEyBuzTp0Dnat+oov8IS9OVTwoEjkADpN4jvy8jDyDZPnQivFCdgOYdy3FqiISmrONIXkPC9hMnPsS6EB7pR6W3Ti2w+LSevnvPjNWvvIy9xwPr357HD9MT2yUjz25VP7Mvxb3hA4zMFWTE7FV3aQ/jMLK0eKmwb1XoCXICDMzC0eTgf3mh4MYhmzjB8OEwiGB7CMiX/iXYfTD0M7DeS6bMM4tx4XTJS9nyBS3DqHlR1nkISwagbp7PCebXtcItpFxAFIu0HQ3woMV96uE5lx8Dht4+IalFhwjPxzjYXeO6HZxeb181Rzjl16a7p1jj0OHxZWR8oXvTJW/97lJf2DsMAPzpXHPcit2gF2x9NHmw45sgwXZ34zshHJ4K7a3J9Dyw97DljD88sph9hGy/SRJpkoTzoqj8mVfkfNnULbitDxMGQJp/JSPrKTLR3EUvfJGmspsHGSTxwXJDPYHTeF2EJ/DAj6dw5cAuFnPAzh8JeAozBrB0spo+frLk+UzX4tt43r0OIzgYbFf+8ZkefrVybJyRC7iFpeX3RZgpKuNOOyOcmfdYt/zrDA7mAziSMOutB0syH4C8mF2PccP5mkT6DycWEbw4hiOVA9JyqF5nKW1Z7vQUVbkiaPym+trzmMZlx/0/IgnPfiZjihsa+EhBOBYw8EYaA0X1IIHlc6Rcw/br83nboFOz6PeOEZEja3YjoZjFG4ujJhznCzPvR4N2aPHYQUX5b/05fEyv3i0OiqO0m87mY3AVshmHEa0nV3Y7UGbu1s7AW3MpHa2LfDk5/zsHH7Q4CfEW2HyUS5iigaEMw4/IxryCFG35sRIGrJNkCY6+aWchdmleIWOxDsxacBG7JEefs5LC2UEkyigFk85Kpz4tnBHCThGtoejk/OeDcsoc/PNe41HCCxdvfDWWHn2tSPcGD2ODbAZz7yyUV64OGozyibyiICHd7ARXERjM2RDOB5+DNoHOQ/Ze0HOaRAxy+qikTPaQrN5PugnCNfzmhDx+XxrWD6pHsNZKl1pQDJy5GFLzshGHn5AYVYHKIN0jpsTP/g4j2ZmSWR42K1CRTgyk0ZcnjkeJeAUpyYn/be8suIvCPOdxqMG2uGt66V87pt399t3PXrsFb/+zHS5NlftzFECF9HYDC6q3Y5MxIX2YQW2Wo4DZJ3nGRUgnJukTQvkQETXdrJtmuxYCeNOoB1pfIuHLU40QR8+B+BzBJdPR/9VmTlGHn6SsfFnxpuwyhK9hZxvyBiviiCn6gQdspkU4SDJQARKEMMM4toKAV15Dxu4d8CPJ1TnFxb9Xaej/OHixeWN8uLF9fL1lw6/7nv0yGCjfL4mc9RmkRlcVGNDuEc5M82Sa7wScJiBndZDL4TD3uclTj3dOdymq47yEXKAQVPpOMqZgsFwk9lAvvjV8E50HMmPrOFYq1/Kzlb+DBnJT75BfkqrPKkfYeJEh3ONEg2REIprA4GkkIyYpjYnhwiuHFMWnffU7Kz/bs7P+zLJUQad4Y1rY+XLL/Epnx49jh6+8MLJculGNc5HFTzUx36uYV/YpH3Mbc5hBDZdDq79dGhuBxyCHE4bypd9RDgsyqh0pJEHQCO+4V80e5RTlpPS6uT2dHLkguIA+XLdOAeDtEEvmjbPKl91kpstqjXZvYBKWHmHBohCBVn6OHv6ZDlpHffKjZv+G9bwRwk355fK11+4Vb78naNflx7HE7/77Y3y9Itz5lyO1n3/LmAzsS3Xbs4VPquFzeGiHBt0WCHHA9oTIhwHjqELvPDfBnnleNp04bAqTfYvOGbN3NqTr93SAWx67IoTdj/XbZg/a5cByEf9YuObcLQckWvLVnNkkqftggo7yA3Obxfs1M/VHPcJrt08WttG7Qa/9o3x8rd/9WDvPeZW791wj4PCv/f7l8v3PHV0b3UMwzlzkswm+WgA35+825DBz85jGHAclt2dDeEuGmy/O47kWH1lzuiI3ws/IRzd7mkoH7SdsqA9VQdk7KCRLwPD/Jk7SBwKjZoLPGrgEWzqoO8zUvl7Cc+9MVF+8UsT5UsHNHv85HtGyg+8b66877HpcsIuMvgS+1tXr5UX3twoX3zxQvnCc727vJfxkSdHykPnYvy/eHGjfPPVg21v+tvv/+7l8sR9R/iGZAdkQ7lQ52HAxSP2hHwb7kRsRtf1QBJOh+pqyXIYslNldqgdbeSQuxwdTk5Oa5C+29HJKWfnKLpYwq1ycs6ysJZXMypNPNzjDhIGR9U58hIvu+DwlBlGnfeW7jXQWHzb8Z/97uS+P+DwA+8fLT/8gcXyzoemy6mZkTI5YZ3X+kIMjHX7bZQX3xot/+Bza7481uPewfe9b6T8yAeWyiP3TZeTM2NlvLE57KX6LXOQP/+FtfLVFw+mzacmSvkT379Uvv+7Vnc0sEcROIDZ6Wl/HYRXRdjX+ahimH/A1Co6nI7u3Q3OIjN9psm4HZoM5e+i66Inzv4O8MyOWDQjr128vKEMAAIaV0wOK7i/OGFXAFyhraytegPhSO5FPPfmePmFL46XL7+wf23CBdin3jta/sQPjZUHz66XSbOOw9ocp3zx2mr52ndulf/qlw7fd/567A0086feO1L+zR8cLw+fWzdntbXtF5dLefPaSvnCs8vlbx3Qsv4n37Nhs8jVe24WKeidOvZ25bWQ5dXVQ/uRdSD7qQuWttNqz+Q46lacHI76kRwVNKLXFzaIb/MC0Fjv9HxdNJlndsgZmV8Xtjpy8sdMNc4HvyE52mYQFY4KUBgQ4WHAqRMzvuO+P0W2uOjr/CjlXnWOLBk8/dJ6+fYbgwbs7YI+9G/+4Fh59MKIDd7tl9cnrf88emGsfPw9s+V7nrKLpya+x9EDn6JiefOP/8B4efy+kTI92d3205OlPH7/ePnhD02UP/0jB7NM+PQrI+WZl1d8hnUvgntz2CZWt7BV2ChsFxf3hwmy9fQDfrL3hLN/GHAczSQqaGOpFchPKF+md2fYxJMe9HViE3FbaVRW8PSgH+WcM0YTLbJQF9UPZDrKHR3l+4/1QZ9cR+hGdQJq5SJzSuoU5k4jHsBZ8y2glq3T8U6SlHsvgrq9dGmifOfihA2wJnIfcGJqvfzUp26YAbQOUfvTtqA/nD81Uf7opzGoTWSPIweWNnGOTz444hdJ24Gl9vOnJ8r3fddk+dAT+9/oNxdK+Y1nJssXv2Pe+B4GjhJbtWQ/bBcG+W47STkPIFsfx2jn7EQEhbf6iZon+wnybaGxH3bN54pOW8vNjhkETYRl50nTLLBNB+izhKlayBLyhaOsFwECeTinTcJRDvIbVcEgE+aCcvhOgwrQmfgxa+RqjN+9eK+xDZZjvvxCKS9e2qUX2yWmJ0fKT3z3tHWmJmKXwKC+++HR8kEzlrpf1ePoAOf4gSdGy1MP25XzLtveneTJMb9XeRB4/dp4ef6NDd/E414HRlf2C7sru3Y3bGvwDL5t+66wnEQb7bz5XE4XpOgmHBFO46EIg+BFWX7qIFzPa0LEp4yJDr2KLmSLYzjCyAPCYTZOsJmlKr/inc5DDeRNDwOY6rL7DZ+cQWB+7F6RG+BeB1fWX/rOaLkx30TsE+gQvLN1O8CwPvkAHa6J6HFkoC/97xU41u96fIfp5tvAd94cK195sfsx+3sRXNz7RuiNXeMJfGydL0HeIbQdxl7Q9hOanbWh+lDHcEKEIx/0bTrSRYOjy/SkiQZs56faetyOpwBNpou8Fq/1XoTIZBQkYe40kImb2hKYJ8CO8lNgt4PXro6Xzz93srxxfX+Xn7if+NiF5uQ2MDKyUd5x3/Kul2Z7HB7w1PyT9+/9gRjG4cnZ6eZs//Hylanyu8+fKG9eOzgnfNiAbZVdwxijYzZBx1nme3B3C5IpAx8Rx27f0KZRfrLW7DvTbYdcVnV2yBNxVpTD/dkmq81Ag1hqFc9arzhaKV42v02pvLBaYpOhOblD4D1GXtnAOcJ7bn7h2DlGQKP/9rfGysVrw6+SbheMvdOzt18uHfDMLO8y3eHO0eNtY8za7MysjMDhwitXRssXnh93u3PcwK0UbB3giUrs32Fwkm3QNPGrbaQws8o2lI261Hz1IZhwUhEmWTM7jnXiFhuLi0YzX/knnBppyi8+cYiw6LMMTmt/ODbRm+EoG74mXyRFJSQEoJCuSh8U5BxZUkXIhaXj5xgF9qr8xsulXN/npVWwsFys7KZH3AbW10fKV17ifvCd6xs99gd8Ju3LL+59RQJjsXTAO4xfuRmfxLp88/j2KyYDfDEE+4eT5B1K7OJhQfiIQV8hZ6JfhpwW6EofjFMZxNeLOOVRWsRFPCJkn0WcXv4PRzrYl6DD4ZLPzja/2iE/F/KGc9Y2fLUGdwkIw3srLC+w7hw75R9f58iDSJ/71nS5euvgmoYOcruP1tO1rt2KztbjaIHn8W7nfvby6np58c0DuFpr4eKNsfI7355qniY8vsD+MUbZaAC7eFg3QQcxkWpmZM0MMBxQQOGtTlXHSCct8pC3XhSIzh2bW59waJoVyrlRTH7gNJZYIz8gTH6VJX7Et+lUD3BXNU8l2Q3/zIkTZcUGBTeujzteemOp/Pa31vf9wZyM5ZX18qVnLw90oN2AfnN1bqP8xjPrvttKj6MFVg+ib4WB2g3oI/TFX3v64L8gwyzyd55dKy+/1dsBHkhkE/RVM9g86YqtPMzAUXU5nBxWn4tZXDyE01WvLrvkjjI9yQoop943rF8AAeFk67Jq5VmXYwXRkRe6/HWSu6Z1PPjpE7Nl3IS9Ob/gjz4fd9DYf/Nfni+Xb9aGPgjcWBgtf/UXLpjBtA7UxO0GN+fXy9/7dXa8byJ6HDmwQ87f+VU22agGazssLK2Wb718s/zG09XQHSReuTJR/ttfOWcXYIPG8NjC2ig+23d3XgfZK5AxO6ocZmUgnFC3YwThYLuvvmN2V/thODsc2qBTFignNpHp5tmmq/JVJzlAQWFkuBM4f/qk35i+dO2Gb+p73IHeX3/ryh37ZiUzwJ/5FV5cbiJ2ABvav/TG9fKZr+Snw3ocNXAr8V98ab38bWv7ucXtG5Jx+eXnF8v/65/ONjF3BnOLI+UzX+23NASsqmEjuT959tTR+Q4s9oxdwDJwlm0nj8PLDjEcbH3lJ/uk7OQyXdspwxca4tjwXMuwbWx15uPuMKHFSUK35XNXdwIXzpzyil69Mef33I47aP/5xbXyn/7dmTK3YFcvTfxBg8f+/8B3j5af+MhieeS+Gb9S7cLrVzbKP/zNtfK5p9fKvM06exx90PY/8ZFo+8cfmLbzapTAc29slH/yW6vld7+97isNdxLY0AunNsr/40/d+5sH7Ba0D6/aYDOPGnByvkTaco7bIX/NYzfAqeEws3MVcHpija1Flshf95ltg7I2v+bRxN0x3Hf2dLk+N++zkh7xdOGvfG26/OPPc2XURN4hzE7x2yiffM9Y+dS7b5WHzm340jcz2WdfXSvfemO6vHV9w5fYuIfV497BjLX9CWv78bGR8qEnRsv9Z8KKvHJpozz9yoZdrG1Y3/SoOw72gv0jnyrlRz6w0L9za8C5cAHLhgJ36lu3OzmRYWjTcY78OB0mRtlRxr3BWALNEE0bWmLtWqJt04ifaW+TLvMhP5Cs2ZGTRFF31EGybdXpkyf8vZ/eOQZopCs3N8pf/scnyvW7+I3nk9OlnJ5ZK5MT8coNcs0vbZhTHLVZfilz/cX8PY0T5ix1wb5kTvFuXwyxKnb+ZCl/7o9ctwu2iU5jedyADu6Gk+xyOu32aDu6Nh3ojvO/HsaJxcM1FW1+lIHD45Sw7i8KOLm2Y1ZYdG0oX84v3DEHSSVPzkz7mjob9/YI3FoaKZ97ZrL8/c9tvSLq0eM4A7v3J35gtXz6fatlauKOmKlDD+z3xDg77kyUG7cWGsN/59DlRIDkaKdlh5XRNRPsKrsrDqdoKRYPbfCVc/UHa+zqilmh30NsaINfvBZCmcrX7ZQr7R2xynj4U7Nxn6N3jhU0xJtXlspnn97agXr0OO7Apv3K1yfKG5fnfCbRA4cRD8xNTkz4k63ZwdwJtJ2VQHxX2jD5uvJ30XfHib6WE84SfpFf8ThAOVn7P+AcM11GlBHl3BHtjpoQ42Pj/k20HhUXb4yWX/i9qfLG1Tt7Fdijx1EAo+K1Kxvln39xulybv7OO4DADI3/95i3faQejf5ghhyVHFeE44qDCYcVssguZTpDzA6IXH8DEgw9VB+KYaeQcFQbQCMEveB54r2P2yLr5vDnHe/XDqLeDmwuj5WsvTZYvvXhwm0D36HEv4EsvnizfeGWqzC/J6PVgI4FbC0sDH3U4uti5XXGq2VGGYxx0nHK0+D6ViAOETLRyjMNo2zh4Bzk65lc6NGiPijevjZTf+fbuH2Pu0eM443PPjJdLN6qhO+5g4sGWdOxffZi3ohNw4u0ZnNoyz/4EOaxK19XusXSqCwR1ja0XDJEAv9p/CA/yEQiTRt4D1SwNx6+/7ziIW4sj5TsXx8oLF9VYPXr02A68l/mdi+YU+vdw7xnICXVB8ZrpVUcZkGPMZehp1vbsULTKW51qOEkA7SBdhA/UQfJQzsQEy6vHd/PxNmiEF98aLb/3nX722KPHXvCF56fKq1fqO21tYPjaGx7c69C7e7xCd9iBc8ouqD2TBNXZ6VWNeg/S6VPewNal1qCpZQHCqCgcY4WcKhjYg7VxqgfqIHtsBe8WPvf6evn26+2G7tGjx3bgc1jPvbZabi0OuV9kBo13BI8T2MeaL3507SBz2OAXNi0Hx6mcEk5MD8vIueEocVSAfC1yT8tODgRN8FM5HONXw7rQUh7o2g75wBwkgiMk39zqEaBBXnhrsnzrjX6fyR49bgfffONUef3a5KZRzWD3Jz6Xd9yALriNJ0dyWJGdncAssjq4ujdqfqoU4LN8ptxxvxLIqWWIH0nMCPlplhiOdXCjc8KZxvXqKQeA6alJryxXOD0CV24sli89N1+++erWxuzRo8fO+PpLG+Wrz8+bI+xfGRNu3JovkzaL5InWo4pwVPVd1/bmAuvr8VWOLmQn1wUmJpot4iTzjBNnWJ1y3RgdfqQdmIPssRW/+vSZ8mvPnGnOevTocTv4xa+eK7/13KnmrMe9gOyoBH2VAzCzY/aII2w7w0yrL4hwb7bSDn7qCkdLehssU1MWEL/eQd4hfPWlyfL8xf7BnB499gPfenWyPPPq7c+YuG936kR/q+Nug5ndsNkfX/OQwxJwdnkG2Ia+AILDzLTwqLPIeIo1O8n8aa7sXA/EQc5MT/kNczYlv1dw6sSsv895u/j6S6W88GZz0qNHj7eFZ1/fKM+8Mty47oQlM4j3kn3i27o4BW5tHSXo3uBukJ1cBs6sPSPMTg46fGXmM3jvc3BJl3g51wNxkHrkeNia8VEEOwGtdEzLd4NvvDJZXro05h8p7tGjx9sHH35+4a2J8tybt/fUKsbzXrJP1AWz255xHQXsVmScmvZOpb66OKLOcnZylANObggd0H3PrDeFyXcgDvJeBMrSFclesLS8Ur7w7fXyyuUmokePHvuCFy6OlC89v1YW+ves71lku4vjkh/jiOMjjTzVGYZL41y0XXQR1oYBgXhIpzkxkK93kAeM59+c9tnjYr/TXo8e+4p584tsuPGr3zhe7z7eS4iZfJ3R4Z9wbEI4t3Bo5Iv88R5jxEc6jg06OT8QG5ZX2phl13Ogc8AsU6dK7x3kAeLmrfny+W+PlLdu9Gru0eMgcHlurHzrtVG/B9fjiCI7KX71dNDhNQkccpg8EedRm+BWn+LIP5heT+SQKUdOWOm95T5A/No3JsrXXxrxK90ePXocDN64Nlp+85vjm1f9PQ4HdtMeOC49syKw7JlnkUI4ufoT8Gfw0nJp5ptnm5kmY2s0S68Nn4tXrqVV1/3BiZn4hNNhfkqMPRtR3OoBfYj1pUvj5b/6xXGbPXY3yr2Kh84slofP9Ffzdwtj3/paGb30RnN2b+LWY0+VxQsPlWsLJ8vl+dMe9/h96+V/+aMr5Yn7j6+T5LWVVXMsh+WeLE5uu1cytsNeaLXsqvy+1MpDOhbGWWbnSN6YIYYjBtm5gliKbRzycXWQPA6NIpZXVpqY/QPl/q1fmy1feK4cq3uPZ6fnyqfedbl8+PHqIOlkcUVYL0R4CZdO2dVRwTCafE567uwaBPnqcT9oblfW26F5u7KC0c/+Ypn63L8s41cuNjH3Hq588FNl7vF3l9dvni8vX3ug3Jh6oFx+6LvLJ9+zUX7q+24NPLJ/nHDYHOR+AFual1lvFxpHgLDGJNGMKZyreLmDbWaQ1W0eM/Dx5oNwjiicbz1+5YWNY/dgzlP3Xy7vvHB10wEIGPL2UXl0zGGObRrtcpHTO2mac9GALTSJjrhcxiZNw7edzjGHLRB8m7z5mPNlnhxrnjhuVz8eHiBMnPJYYKB+FuHhhU/9eFl+6gMevldx/uu/XZ74hZ8pn/qNv1Z+6ut/ofzEc3+jPPTab5XrX/lyeeNak6kDGMGj8O3EHhV583CQLxqF9jnoysNP40npdmrjR7NLeEU/iXNL81CPfQEqX1pZL5/52qwd3/5Vz1HCqanl8uDZ8XJydnrTmAM64upq7FIxMTHhHZRzrtow8ORlFsRPdFzJkYe8cgIrdjFDWXIkKoP8/MSH+xnwEQ1o8+Uj3sFnfYAPZWzSNHxWoLF48rdldZqmDMu8yZdzySqa9Vw/+DR8tfPH9vXj6rbK6nyyrHauK97pqYkydt8DZeP0WU87Dnji+lfKv/2l/2P5A7/3l8rzX3zdV64GzWOAvUqP2+ewjjro//RrgTHivxRmbAicA+IUBow9fgBqbIyHLY/udwYvD3o6/+55B3knrxjX1jbK868tlt94et1fZD5O+MQ73ijvvj9mj3ROjDdhOuXEZOzusbS05B0yDPqo58F54BTonHRUnADGnjzkXV6OafiklUF50FB+pVlraIyP0ZDmNJZ3amrKaTgnXnzX1ladDnrRSF74AGjgPwmNxcMj7ouMOW/ooRFfy+z1A+KzpX7Gx2WFj+XZrn6Uofrxa9fPZbX6gXb9ln/0J8vKD/yIeYTjdZE2de2V8q6/8x+UZ3/3i2WjMXoZfJd2sdF3j6MHXBr9mx8XpjgxxgHjRGCsAOJI6wLjj4tOG36ehyV5xqJAkHTy3dMOEkN79tRJU0ITccC4MT9S/t8/f6Gsrh8vwzQxtl5OzIz7Vnxj5gzkEDD6GO6lxUXviNPT037EkRBPOvlwCjgOOqqcAHkYCNCARSvDHdYWmuDHwMBRQINjpJcvLCz4oOLcHYelkw8e0EBPnGSlfPh0yRo0Y04Db+g362d5dlU/C+9YP5MVGuTqqh9p1Ie86BW06wdGPjBTRj9y/PYaHbt1szz0N/9iKQtXw9LtErRbj8ONdbvoYewA+ruWQjMYK13g4la0gPGjsQLyVnXEa4Z5TztIKnn5+o29jJPbBktmb1y60pwdL/zkR14rH3li0TvnqjkDHAKdDCcA5DzcYTWNwTkOQJ10c/ZjRh4QxvBDI0CjsgEOCBAH5OhwNsKM0chhATm1TIPcWdaZmZlNhwWQQ7M/QH7ke7v1Q5aB+hnfleTkuupHOXLiyGkBP6dOyEkesPjAHywLD/4bHj5u2FhfLpf/xb9d1hcvNTHbgwuX86dPNmc97iYYP3nj8Ayf1dm4EbDvcmxddKTJ0bVpGT/5YS7d6gDEM558hnpcn2Ldb7x2ZaT85//IDN7yPX3NsQXf+56R8rFHXymnp276Oc6DzkcHI4xxx3ATJ+cBus7BTnn2gyZO90pTzy3G4u6MrGBYHoU3nTn57YgT5fzqpctl43OfKY/+6j/2/McKUyPl/F/5O2XygYc29bgd2ro/irgXn2K9HeAYcYjD2h3HxwM5upjcDsfLmh8Qrs6Nlt/8ls0gjplzBA9Mf6dMj4VzBMx+MDTMfuiAOEceSrl05bp32CvXbngHvXb9pl/x3by14E8UczE1Z+Hl5ZVy4+YtK2fd8wJoMV2c897qjbl53+OW/NBBz65FzOKvWrmUf/nqDed36er14HdjztOhXbSZH/ejbs0vejnXb865YYEWPm9dvuZHzoknnXzk9/tYRk85lEe5lA8f+MGXc2hJR65cP8qBlnpQH/hQP8A59ab+6GGwfguuL/RG+dIN/CYmJmNGao4RnWvmeuL0qXL2/gue79hhaaPM/dafL2tzrzQR2+PtOEfM8DmbgXLPqsedB22Xl0jbzrG9vMqtNz093qYlnPtC7yDfJlD+61dWym9+s4k4Rvix975Qnji/UCbGYtaCcaZzYZxvzS+YIwhHd/3GrXLm1AmnOX3yhMdPTU36DHN2Zso7JR14ZnrSlzomJifcsZw6Oesd/YwZHxzD7My0L4exQoEDwTJNmyOesvzwXlhYKidPzPoAgPayOS0+U8Y58aQzePj6OnTQ47BOzMxYuaNePnzgh7GjjFsmB3Xj/iqfcUNOvuqC3MjP+7TU54zVC1BPzomP+k17/qjflJfDk5Q421w/HCp5ke/E7ExZNLkY45SDvMQzM1D9OHr9rIyoU1yQANqAMHEr7/1Iuf4T/3OPP25Y+bmXy+JFLmC2PrCzn8CcstUdF4I9Dh60Z25TxhBjQOBcF+qA8aKveQDiRd+mJRz08RRs7yDfJq7Nj5enX50pN+abiGOExy6sltmp2iHpdDLMOMAZmz2yo8WJWXNs42PuBMbsKAcHzZLNjqDHeeAomaHxMVvo582J0ElxtjgPHCEzKeJmzEFt2EyKd1mXbWZFWeSxotxB4VROmqOZtxkYhgvngvPF4cATOuTD4S7YjJB7jMzUcE44MWaGzMpm7ZyZG7ItNfcPZ3GUNoCQCzkpU7cTiOOceMLohPwAesphZomslH/d+MDPnaLxRw7kQa5pkw89Ia87XMuHfqgP9aJ+1BP9YaAXmnuRQO0xcvpMGXv4cY87bti4Ym36tf+6rN18oYk5ONzup/B67B30d34Z7XPGluIifyytxvhgBhlL6jjCTKsw6Z7Pz3rcFjB0L11cKV98/vi9W/X973qlnJ5Z8w7FTAn4FZd1TJYlcSqk4SQmzCmybIiRp9sxa4MG5+n3y+wfjgPnCXBmPjO0/HRSd2rmXCh/anLcHYgFw2kYDT/44vSY+TFDg5+cF3HQsazJgCCdMPl5b1CvcuCocFIAZ8wS55gNFMrgylLv0NHunEODEyed/ACeOGweQ6fcxSW7ELAweaCHjtkqji94TrgzhnfIGkul/lCQyRgPDPAKSThJ+ER9Jk0PJqspgiVbLkwoP8/k0T9lrT/yRLnxg3/Y5TtuWP2VL5fL37aZZNOuPY4ucG7q13JkQI4uI6cLRAWtjlsdrWaOytc7yLeBFy6OlV/+2kR568bxW1r5wCNzZWo8OiUdCmCY+XH1hVHH0TETorNh6HEsgPD0dMzk6J68wE0aThInQHHQYtznbs377BLjP2fOaHyM10kmwmHaP/gM0pkjsfw4IS11spzZpsPBMBhwZrwr20XHjHOeZVl3vub0WnTM8KgA5ZO/iw6HhiNGTv616XxZuXG81CMG+5o7QemRf+70mrqSB+cpOnQ8Y3yZxdASXHzISfrv7IWy8b3fXUY/ePwu5DZesYu1f/6zZf3l7zQxPY4q2s6Mvq0ZYSvJ40kXGEegXUbMFCsiucb1DvI2cWVutHz5xenyzGuxfHZcMDa6Ub7vXZfLiemY/dHh8vIqhpvOiKOgn9FH6Zoc1TnVcTmPe202I7KyHJHUdFQCxWdyOElt+lA7vg0M+7vpXM3ZOJ0lZ34c3VmbYw6nEpn453ns//pGPP0Xy7RB53wIksXimPlCp2VN6Pmv/BzdWZoT9fsaFr1Z1+avZq4s70LPUilL0CzRenkNL2ai6JG8zC6ZITMLalj5UWVHTYKOGSt0OEnO3dmaERi/cH9Z/t4f8/zHDeNf/Z1y68Xn/YKsx9EF/ZlfG0QxPrrgF5ib9mIQRIeDDRCOpdlK1zvI28Tzb46Vr7+082PC9xLMv5R3PlDKD7z7km8OoM6KY5RBptNh1FkixAngeLDenKsTr1nnW2xmiMzYcDzQMhNyJ9AsazLb4z4btNx7474jzpCZkj9kY4COWZruE0KHo+M+HQ/oMDOEDsdD2ThJBNIyL+drRjc7Pe3OhPyi49zjLZ185JeT5NyX7axcyhed7nciB/IgF/LJqfKPgYfqWE5FF4AByTka9XwW0OD1BwyMxgcsOrREjugFeD4rBjrPZ/88bOBI+6xPnC/zj/5kufKB7/X444aFL/52WXrpeddhj3sD9O22Y9SYCUfHGIj25iKRc9q/9gHCTdBAuJ42dP63x55wfX60PPfGSHn1StLuMQBLqp986qb1zFjy4x1HGW1mkzgHZnmxlBlbpuFgcJinT866swCTE8w01915aikQY88P58hyIU4GJ0qn5slQXl0gn9//Mx7uIMyBsXUYeZhx+ezV8pCXWRdYWV2xcpZdDoBMul+Bc8YxISu0OGO9lM+RZVnKXrE0Zh/cS2UGCj3l8KCOz0iNJ3VEZpykz6iRw44MTGTFWfqSsp0jK851bX3N8s8M0FFH5fUnep1fbDXHj/q7HkyX6NkE9DzICZ34kQfg1DkHaydOlxs//kc9fNww8flfKeu/97Nl9eZLTUyPexHq94AwF5eMjQzlIZ6VHmwAIKycjBnSewe5R2AYn3lltHzrteN1P2dibK08dvZ6eeTka96JNGOkI6ETHjrBEWHAmQnixNxJmhOMpcF4UtW6pefD+JMHxxKOIGhwjuSnHJYeAeWcPnnSHRNPe6rMmIGO+eyN8nGC3Kc7ac4Yp+N0p046D2ajPE2qh2B8tmp03OtDLvLjtE+fPhl0dsx0DCF4Iif0lJPpcOKEufJkqRe9MHNEZp9JNo6NpWQc6+a9SEPIajNQk5sZJcu8jOHMjzD1xpEic8yUF905k+ZyNnTwQ17e9eKIs0c/XDRcuHC2zD3xnrJh8h03LH31F8ris5/zNulxtMFYys5Q4IJbCMdX8yi/LhijDI5b+4PSege5R9yc3zAHuV5evlQVfxxwdma5/Nj7Xm7OwujSifz9O3OW3Etk2ZGlRF6kx2metNkR/RPngbPhlQZoeO9vxfJDg1NjBoSTYzbI8inO4+TsrM9KMx1PxOKI5SRJgx9PmjLbZMbG6w44ybPG4+bcvNMxM8SJ4Mh4ApYfdMjrr1TYEYdD+YwK6KgfcsfsslkutnI5hy/3DJkNUjYPEsH7/NnTIcOtBXeCPKjjOjHHhDMlLDrqAD8cF07PXwkx3tyTlLMD4ke5lEF9OCef+ElO0YU+2Qxh0eSIJ435+Sx/aqa8+lP/ftkYjyXq44T1Z1bLwldfK4s37+0PSh8H2DBoHGA4s3wEhH1GaP2eMElxrHmxUZY84FSVTtn86x3kHsAS4DOvTZeXr4TxOi4YH90op2dZgqwPJLFDDrNBOpRe5cDJxEzHnJI5R4w2L/zT2dgs4NSJaXdsdEFmeTg7jD3GnI7s7/WZM6GcLrqzZ07FbMt4kJcnSnFC4seSKUd2voH2vvNn3FlyvpludIwBHAz0cp6US/miu3GTnXLC+UA3Nz/vdcQBIR/hW7wGIp4mJ8CZn2GDfHOCvqxsM0e9u5jpKPO0lQ2/qzduOg0zaGaRyINeuHjgydpMh0PkQSA5R+3kk+lwjFwlsykDFzD8MAbsHYsxeOT+82X93IVjOYvceOHny9pzP+vL1j2OLriVwNjD/rAioKOgOMD4YJbImNDsEXuTHaMgOsr2J8mb+B67wFtXbpXfeXapvPRWKP44gCusJy7Mlz/2Pa81TrGJNMzbrI8lQQwx98RwMixH4nRwjjgGZnJ0NpwOm2tfuXbTjROOBMOPk2IplZ1p6M9yVufMWTEI7r9wtqG7Ubi3SDx5+PmMz9yt+F2/ecuXTpmhsvUbuHztustAPM4EOu77MUCYbUJHHHmYbZEfZ3bh3OnYgs6cJOWyzMmSKIMHp4zj85mw1RtnSv2gu+/8WZf72vU5c1arvmTMhQAOmXoRh2Ok3KumC1R5v9Fcpn44vGZHHZZnmZmKDj7QMTtEBwz6y1euu6NEv/Bjhsn9TfRBO0DHxgoCdWYTdROwXPz3/tOyfv4c1zjHCutfXy1XP3upXHrzYhPT4yiDPs3KjI6C4oA7u11eDGY6MPZn/9yf/4tNeN9QH5Do3pX9qOJnPnuqfPmFOos6Dnj43Ej5vveaM5i85g4KzM7abMVmKcxa6FA4Hgwzhp3ZDQ4HI02nvGZOBifI/qbMtHCGxGPMmSUCljnpKzhOHAIfXcZZ4kx1H5IlySu+7ygfZZ5xRxHvGK76jJJ0HNMVduux/j1l+VhSjPhRd7DM2nDKnOPwoEd+6HCC5EWuNy9dtavHDe/HLMWqXr6suxwfMmbGh3PFiblzNIf15qUrXgaOC2dG+VylUib8kB0Hi2MmH3GXrlwzXiEv9WemSDwv/7Nzjtc10VEeOxIRj27QK+UT5j1MnpLlwgQHDA/Vd9ToaD+1IRsnzJ7/1VJespnvwvG54ANjrzxfZlaWyvQnvr+JuTdAf+MijbbvUaHVAjk+xiozRcYF4wp94US70H/NY5f4/Leny899YaS8dsy+aPWu+66X3/eBV8qpmXp1hoOkY+F0mD2yAw5dDwMOMN44D2YwOBIcEJ30kjk4ZktXrwcdHy7G2XAvEmcGnRVrHdkKsT8sj1IwTgA6cO0GTjOWRXEmOAdmdMy+KBO5oOf4ljkq6K4YP+7z4fAYJNxjZAmUB21wzNCxNInDvu8czq6+wsLRd7ox48NsELT5sXyDM2fWyaBjAA7KOe7OlbzSje4hZl4C5+RFTgYu58wgT5nTRSfzC2yAvuqza+h1AaCZJ1Bb8CQu9yZZ7mWJlVUALm7AyNpcmf0bf7mMvlrvLR8XLHz8h8rIn/4Pyzsff7iJOfo4jl/zYJzg7DR7ZJxwQQnk+Nrjazu0afoZ5C7A047/9Je/Ul588ZtlfcRmkGOnmpR7G4+cHykff+dyefAUS4G1k+EceIoVY8wS3rgZaAalP3xiRhoHgMM5dSIcCA7GZzM2k6Tzic5nceZ0piZjE28td2Lwb9psaGpqolw1wz9jR2ahOFpoGAwMAvJzXxgniZPiqU7kwjnx4A4P+sAP58ZyLOFb3LM0+X2LOSsTOjYkJz8zTOj5QsaM1YPlTs6RG/mYRVL3yo+HcEbLdXNkZ8+wlDzmS7vM2vhVOePjx+wxS3nIQR195x0ri03HcW7MDKkfjpqBjkyh9g13sugSx3fKHLOelGVpFh0iI04XHbFZADNJ2kKGA9nZ4Jx21CyyjE6W1y48USZff7FMzsWS9HHB2NW3ytT8XBn/yCc2dXTUcRxnkPRn/QD9X+Ecv1u0afp7kLvA3/75Z8qzL14sq8s3bfrwjVKWdvcJnaOO8zM3yhNn3/Kb1YCOwz0snBVhnFw4gnF/WR7HgdPi4RYcoq7EcDy+xGmGiJmWleQOh/cAmSUtm8FmFgkdS3/MdHwJxGh5TeOEOTrKwWH5zIqHVSwv71PyNCyOETn4KoeNDy9j3ByNP6yDUzEeLqfNprjXiXPkqVkcHPE8MMTMio8rw3Pgax7mkHDCbHPHbBZHhPP3OuKAzCkyO+MIWCqFb8g538hp+rHyuV/LE67QciFA+dTLH+pp+KEz6oGD5oe++U02eo6veYSD3fxaidGy1MuFAI6U7etoC/LgaJEXOqCPPFNf5/2OJ8vEbHyJ5DhhdNFm2C9+tiw/8183MT2OKujHAmHGHOMvx7dBOjamjTZN7yB3AIbslTdvmgFvrsrWuGfzLbM09/ay1Lvuu1o+/MgbZXIsZnQx29rwB064X4fj4UEQjC/Lp0s2a9HyRsxi4l1GZjwYepwkiHuQ8e4hjhbHOmmOEydCecygSGNGxQyLZVT4wTvuBfIaB3uVslIR9xi5R4Cz47FsHBmOjtkcaXY96PyRG4eMI6MulEV+LUdBRzm+nGqycKTe/lkrkx2nyvIm9cUJUQ6bheM8WXJFPmaAyI7MjDP/WojXLXbS4QqfeHjCn/L1NQ+cP0+x4lSRS/rTrBrdMkNk+KIP6kX9iIO37zJkeZjhagYPnb/6YfqAjg3cWcrGOTKLhA7eb33/Hyy3HnknajhWWH/9Rln61Wd9dt3j6IJ+nJ2dLswzuBXBrY9NWDp2qAuURZmgd5A7YPLlv1BGVl5rzhqs2Sxo4dvmJO/dXTkunFwtD52JXWXoLHQwHAsGn1kXXQtDzKwMQz9hszmchl+9WUfE8BKPUyAehwB4oIby9HoG+blvwhGHwOyKcpkFgmUz8HIK8Kbzw5+Hc8iLg4JfOGZLcyc0svn1EDlZwjgmf6jHnSW74LABuPG2uHVznszukBfA0+8BWpnufG28sJxKPmZhrg94Gq9Mw8UCS6NcGCAH9UVO+PJDDhwuDtuHpxUc9zhjVk6cDDZOnjozsMnv91YsA8u7LEFTFj9m1GOjltf44vjg6fdljJ50aHCkLMWiI2Tkh7OE58R73l+u/vC/XuYee7fzPTZYMMP65ZfK4j/475uIHkcRPm7sJ+SwEHmaEwPBrnwg4iOtd5BDgBG/dOVqGbvyT8rIWsf9mbUbNsCeuyed5LsfmCvvfpAPBbNXadz7wqByxGhj8EEY77jawiDzIAoGmA6mq7A4MmuKjaKhYbbm98EsnvK4ksNBMuNZXa3b1zHzYTcYZkrhHNhBxmaZ7qhjptrmh7MlH3wAmxbgZJnBMZPDoeH0oPMnYX2Wx+x12nngUHCqzBxHfC7XyGh0PhOciA8TB090Ejf2OUdO5OUL/5RNnJ6yJSN8uSjA4ekqlxk1jpqZH2XFzJpXSmIvV/JyLxb53VnbhQUzbtWPPFFW8fuZE+MxAyc/7YFekJ1PizkPo+FCAOcosEw79cGPlpEHH2lijg82blwtK1/4XLl89VoT0+MoQrNB+nsbmjky3gRsBbZLyHSUpay9gxyGjdUy9tpf9Sf9hsKdJDPJe2e59cGzI+VDj8+XR8/GU5B0JDqWHCWzG3UezuNSTJ2PH06FDhmZIi8zxVU3zBhvDL0fzWh7Gfaf2RiOAcfCD4fK07G+pIlzbPJxv9Jnjc05f/inzi/ZPL+B+3nkR26cCk4i8rKva4SJg5eXacjLjzygJToGmtfNaHBa0JKP/V59swTLj7z+XcuGB46OeH7k5wEayqP+sMOBumO1NF9CNd04LI3ZauxKFBcMXEAweLVEDFbXVt3B6gKEujp/K5yZsstIAmL7v1ImTM+0p+oJWN5ef/9Hy9Ljx2wWaVi/fq3M//w/HDCYPY43fKzb2OgdZAdQzo2b18p9c//fMroRO6QMhS+3fsumKi/cE47yXfffKg+fGXxMHOMcM8eYJTLj8NmeOQ0MK1dfmtHEsiuzqFhuxUGQlyVTjDfAyOMwWFLFATAT4wlYymBmAy/4YORFwwMuLHVqeZPOqx/AEfAPWaFjJunLiuYMcD5RnrWtpSEjZclBEBcOKV654FUMgBxevv2nDshKnXCC9BFmlNSBe40sgQKXlzLtyD1K6sSFgAYcadSfdHa8ER3viLrzRQ7LQ14c4UQjg+T02az9eNcR8KAQTi90En1XeUE48ShTV9lcoOAucZKkowc/fuDjZfVd7/M8xwkjc9fL+C//bLl4+ZrrrsfRRYy1sBlCzAjjYlbty7nbigbQDSLy9Q6yA+urt8riK3/PdLTLx6WZZd76sv2+ZlMC7lcezUH20Om58tiZt8qJibgooAOxZOhLc9axOPKKAc4CJ8PMB4ONI+IBERwdRhenyLKiHiAhjXjtGYpTwGAzg4vlzrhXx/IhMyp3oI3xxgkBZnMYcsrGAfNj2ZB7bzhGZOMhHMnCk6XOx+KoB/TuhI0OmeDrztOO8VBNPFnL+GG1hWVSWpE6aumYHzTI5DNKi+fIvT1taEAaZSE/+7HisHDWOE7kRQbqTf3Rl+jQKY6Z8njfUj0IJ8ngRV5+OOTQaThWK94vKlhSRW84ZOSknugFHh5vZUAL0AvOXg4ScKRu5eEnyspDj3vcccK66ePKL/+iPxV9NEdvD4HxwThug7jNC9UGnLdBur4C0jvIFtZXFsrqxV8vj17/v5aRjTBCu8bGcik3v1DKykULD17FHAV87PFL5dGzc94x+NFRcDo4DIwuy4L0MpwQjoqZGc5IzoNZIffH4gou7rPRAdlVhhkLYObGKwvV2cTSLU6K/BhvZqTkw2nw+oLoeB2Dh4LAUvOUJrvw4HTcqVg5/gqHxVsF/OnVSZvdcZ/Rd8Cxcpn9eX6rC4OAcnHMPqOzI099zt26ZdIzY132eJ7QxTnp6xvIqU0DcKA4vAlzZDh/5KXOyIazwjFRR7/PiGO08uSYedq2i47f/MKC69YfXLIjjpMfr5mgd28LA/JT7y46HCPOm4sPeDPzJ549Z8kLHXLQ1lx8wH/pI58six/9tJd9nDC6cKuc+8c/XRZe/bxdF8dydY+jCS7arUtvAeNBdg1w5IG3NsJphiPtHWQCelubf6Usf3Vw74RTsxi6Do13whR+47dKWb1kBR6dF3bPzCyV07Mxw6KDMbugg+AY2KEjjHjz9QlzVNzToyPhLHnvDqPPFzVi9yQMeGylxjmzJZ60BLyPt2Bx7gTNIZEXB8YsCIfBvTUcGDMr7uux7RxGnf1HeVqVp0NjlhVf10A+lhmZeVIeZcWOPGx0PuczLcKzVg4Oq/1VDsqe5IlZa152xoGn79WKrD5DNkc2M+U8yQ8dzgV+6AOH7q+eUMe5eZOF9w9DfvLgPMkPHY4S3SIn9c90OFwuRmKDc15HCcfqr4dYmt+btXPXpzlZNkeXXqiPz5hNvphpxmxQy9vIzkUKs1ieBs506B0nCUI/xuvcubJ+7j6PO1ZYt/b9zP+tLN245O3S4+ij3Y6MTfo78dgyxqOgvIx50hgfvYNMWF+bL2sLz5bzZ77ZxAR+5AOL5cKpPTq7G79pTvKyaf1ozCR/9D0vlYfPxNKq7s3pCU+MO7Or82dP+Uzk6vU5N7DuVMzwatkSo8xrE35vzYw1xtlffrcOyWbgAKe1+WUNO/rTltYRKV90OAyAs2GGxSYD5LnePF2Ks7hlMyUcAU9uwjucwrg733hPkKczp92RQEuZyMNXOXAE0PEeJo6FOvFaCEQXzp0xpxGvXFAOzsWf+jSeOBzo4hNdMTvkAgEdMKtDJ2yszgUB5YWsY+7AoaOOPpMzngxUZnI4ffZyZVBCg1NFplk2PTC98ZAQFyMsibL8xzI14xjd8N4ldWdjAuh4xYWZJQ8CxQx8xfnpgoG1wxOWTvtlOkB9uZig7Vc+9v1l+Q/90VKm0eIxgg3xtV9cLq99+emybH2xx9EHF5OM/wzOiW+Di1YfJw0Yk72DbIBiRue+UE4+/6eamIpPjv4n5Wx5pjnbA9xJvmWBwQY6bJgYWzeDG+/nCW4omxkTTuDcmfhgMVubYdAx8GwDh4HFkeB8cKbsfMMsEWfJbJAX4HEyl65ec8cBrX9KKtExkwJsDVfpwogvmaE65ffpNsqFs6fNWfG9RLax4+PC5ozNeeAMcD44J3jjyDH47EDDfqXIivOCF7NaZkk4HWajPPACDeWxGToD563LV72u7K2K88e5owt4IOsWOtMD+d+6EnXkHCcIL5weD9QgJ86fbfNcZ3ahwP1Bvh5CPZEV58xSK+k4dOqFk+UCg1mlfz2EC5QbN335mH1mqSd7uoqOV1pY7WD2ibPEscesMT6NNWvO8n5rg0zHUjO6o/2EkXdMltFPx+47xw2zf+MvlZE3Xz3ko7bHbsAMkfGfwXmeOQpcODMuMnoH2QDD99obB/AJnBu/Xcry4f5A67/1qRfLw2cXNmeMLLutb4yUBZuBMGviPhuOkSsqjPLFS1fdkTCLuWGzEAwxP5ZRcR6axeFw3SHY7Oek5b341hWnw0myY4zocCbMJtkyDjqcJI6NTdH1Y+NxHC2OfH1t1Z0QD+hAh0PFeQAc7yXLi6N60/nxPut1j5+dnrQZG5+ZumE5Y1mSZWFmVNSNstnI+/TJGXd28IMPDpnycWhAdDgclj3PnT7le7A+eP95n0miIxwTT9xSBkBOHBIP3VA/wjhfNkd3OU1e5OQhKNLhR73QJ0uvzBwBOj1h9Zi3mTBfHREdy8NcnEhftCEXNjhlLg5wmPHVkXWnwymLjlm8y2oXRdDxWz77veXWE/8b53kc8fJrb3pf6HFvg3GAbRiGfrPyBpNznylnXv3fldGNwVcchCcnb5TX5h8tl5fPNTF7AA/tjM6YdTvdRBwe/PAHR8sT566WidF4gITf2FgsJ2KocQ7MZHACOBtmPHzzkFkNzhQHhxG3Sy93mMyacA6A+2UYfBld7suxbMgeoppl8lkneGLIY1u0uEeIo6QsZp5cAFKO7o9SFg/MkJ+Z0eoqy7pL7px4yd/lsLJxMGw8Pj3F/dRYPolNBlgeZek4Zsm+92pTn01ZjRZe/jqF0fqyrOnEZ2lGQ9lcbbIxOlek7AuLvHx5hHzEww/HyFIuukCXxKEv9KcvflAW/LmXyzIym7+zmQLODzlwzDwwBD9mltIpaaLj3Udm6+ShvVhaZfYJP3gP8ot9Wp0fFzLj3O+MetMW6IT15luzZ8pbpx8oZ7/1JW/P44Txr3y+TH/go2Xsvge3zCoOKxhP9Bna/rgCZ8fF7jCEjauvPNG2/nS5hdEb5/ziYrh/itWx9Nqvl1tf+atlbJ2ZRTcePvuNMjt1m9+64mnY+a+Xcu0zpSw+10QeDrznwgtlaoydZrjvxpOoOEWehoynSAkzy6BjMWNi5oOxBcy8WOYkncGJIcahQIcTIZ7OxqBlBpqdIxdRuudlye5o2bTb3/2ztPhM1mg5f+a0z2zp9MzmmJHhVClf99Z4WR5HBB339XCOzOigP3f2lDmFWV/C5IfTi7paBTbiYRhmYzgXBg48kJn7eyybcmGArCyVUi93SpbObJk6ww9nzQNGAH7w9boYHfXT5uXhdBmM4SRxzNIN6eiXPNRjyhzukukSZ0fZ1A+944gXFhZcTvhQT5YCkV8XNVyI4PyQlwsIloFx8M7PL3ISP8vLBQ0zeravQ15dKEyZ3s4/9KDX67hhZH6uzH/x/1lWLx+/i4OjDPp5G4xj7BdgzPCj/2tFSJc/PjbdMChf7yDdYIxvvFROjP1eE9ONsbGl8uF3TZaHL9QtuvaE9UVrKTYVMAfJ7jt3GeOj6+Vf/9Cz5dQU96C46sRRxYvyGORqbGe8c2FAWVrESDMrw7CfOjnj9/J0L5A9TZn94KAwsjxI4w7NnAvOEnBk6Y9OSx4ecKF8HijBmOM4uJLjYRreM2RGSGflKyDMtJhF4kT09CgXguGI1lxGzTJxCjhj5IU/7cysjBkgzp8jDpN7edT3hDkgBgTOW06cc+ThwoGdcygLWXjghsHkT+aad6J89CZ+mj36cqo5Txw5D/bAk4du/PUTk5n3FK9avfgCCEucEzaT46Ee6mEFmn6ZZcfXQ3jyFZ48vEOZWZ/wRw84OuR1Ps0DOjhA2oeLCueHIzV+AB3RxtKbyqYu9AcuBDYeeaJc+SP/a89/3LD6a6+Wxe9c3Vwm73H4IQeXwThmDAtkIR9jOSPTKnzsHeTyG79RVl76h2Yg4kGR7fDdJ/5+eWxye0e6I9aNz+J3zEk+20TcHWBQ3/kArwXEOU4KhxWOKt6jYwaCY2FWiKHFQGvWQffB0WDomYXhQHCmzH4wzFydMbOiE+LYMPwYZ67wOMd54iR5P5HOyKsWGHgcs/dNczAsJ8ILcAxjHq9G8OoF5WPYeXKWjy9zxBGQjhNGHuvq7pD8qVeTE/6Uo427MX5avoSWpUanM+fM8iMyUSd4cWRGx3uFvO/JTJBt5pA39GJ0doI+cDo4JvJzxMmx/MN3HCmTGbM7ZKtX6C02dWdWTfVpD2iho62YJfurNVY3HD31QJ96mpY6xjJz7DFLu8CDsrgH7A6v4ceDOtSXp4aRjbqhB8Lwpe3Y8g6ZRmbsoujJp2iCY4eNaxtl+Zn/qaxd6meRRxn0dcZoG3KCXcA2YUeO9T1I32nl0s+XqWt/14znzi8HT49cLlNmQK4sPnB79yIFllz5bBbTj4nzEXcHMTOxVn78/W+Wh84su6PAKAIMIkbUd6exI46OWR1OC+PN7ATnguHFeeGQMMw4VZwNhtVn5JZXxpYwL+4zEwIY8bGxEX9pPxwBL9mPOx30GHiWdeHBTBB+zJBwqrxuQX5mqDgbOjhOC95+b9IcA2GcB52be35sHMA5vOiP1A1nQLocGPLgGOVYSccpUSZ1lwOFJ2lTODPjhcNlxhh6454eDy3dsmPsfkMe6OCJXjXouJplJolziyXUuJDQj3rAmzBHdOhlUKb9cJJcnDC+vW3cScYTeLQXvNzR2Q/90Jah1xW/sKDt0CsXD8hB3akHMjP7XDW6SZOBMpB31MrYOHW2jH/rqzThscLGjctl8cJTZeTBd7meDjNoU/oG47ZHN+jP/AA2h7EC3PbYGGCMMq7kPI/1DHLs+i+Vqbl/Yh2fj/juDu8799XyxKnnm7O3gfV5m0laOSy53kGY7S7vf3yjfOAR7rXFTAXE7JFPS8W2bXQeZoUss/mMwvJi0DHIzLQw1rx8L8NKPut5sWuL5Scfxp2LAJ46ZckUR0AZdETCPpuzfHRKnBfxGHNk8S3ubKDTlXGqdGoeRGGp0h2G/XxWZnlMVD8y6wknxIwrPmcFcOyUSXnIR33WjB+/UTjYfxwO71LGwzz2Mzq/P2nxca80vnuJY9fsenkFvYTjCb3ccl2MGa+1tRiIyIPRQp/8c8dnqiIfPHhCVbPecMThpEijHtChT5wduuZig80OcKLMPBnIseOPLjBYOorlI/JTZx5iYubqG7JbuSxdM8ONB3NiVqwLIvhwAUC5yITeNqZny8onvq+MftwufLfe4rmnsfGGtfe//LWy9vSXm5geRx/h/OQEgcJxYMYZv2PrILl/tXbls2Vy/vNNzO4wNXm9fPj+z5fvOvf1JuZtwJdbvx1LrncIMxOr5f0P8m7mIMIpWXewDkInwfmEk2SHl3X/4j/33ljmow9xHxCDivEH/GVmx1IpDoQ0HBR0zP5wvJ7PMvIEKQ5My3gY8k1Yul/hNXJAxT08HBXbrCGLG3HjhZOoiPIx/swCcRQ4EHdwJgNLoTg8HnI5c/KEP2zE75EH7yuP2u+h+86Vh++/UJ56/BH/Pf7QAxZ33t+BfODCWX9YiPcwed0CB4TD5Md7h37/1epMHdELr4AgR2DEHSgv+vvFhP2WTTfoinzkD8mjvn6yGYh2wIH5hYxFcaQsnkTVU7FBwy9oArhjg0XhhFktQX+8goM+3SDYf+Vp/jiIcwfrFzgNJqfK8g/9pDnIrPPjgfFnv1aWnn3a+1WPwwtd7HeBccLPnZ6NXx0Ft33NUU+8g2O7xLp08ZfL6BWbPa690sTsHg/OvlFGJi+Ulxa/u8wvDW+UXWHDdLR6xVrGpnbjZyyiNtp+Y2ZiqTx14c3yvgev+CwMYATpLMzAmFHQyZi90XmYydBhiGd5EYe0tBJPtTKDcidobc2sjLaWk2XWRD18BmOzGh6CwRHynqMvUZoT9aU8ZjzeMTVLtU5rP83+cNDMMnGIxIkO2ZE3lhW9GpYvlnhZykVWljmpC3uT4tzOmmPjyVLCOEaeTuWpTo68t4jzwxm2fzzIwoNE/jthP6v7SXNq9HFfcjP+PphsUFEX1xEXBVZn5EF+yxAzO3PQyO/yEjadMZOmftBxpE7srkNegC7RIxcEzC59FmvloU9e8mcY+0NLVi5O12ecphvplplqzKpjv1tebeGChfKiDXk/NO4R49TJKzr0547fZB+bMAc5855y663LZeqK9X8r/zhh2S4MRi88WKYfetj1cRhx3JdY6ftyeoQZnHJ0zaGz7ejnOV6OFBxLB7ly5Rtl5s3/okwv/GoTs3dMzpwrcxuPlBcu78e7jeZQli9aa5yw4E1zlrPWkmlWtU+4/+St8sPveamcshkEjpGOQOfgaUuMuhwaAwzjj6HkfiDGMhyPGX6jxSGSn83Dw4A3+xZap2KAEoexho5OSrkYY67Az5pDwrkxm6F/0KHJDx008PSqW1nQMOiZoeUZI+W6g20cAV6CDo1cyMDSMPnZVo0nbx+0meHDD1zwl/JxcLxrSXrcS9x+zRCe5POf0eDQeLoUh8n9PJwLS830eZaCeeAFfQDuzaJn5GXWzJxOjt7v85qspFE/lmjZISeeWo0LE5ZGaSN/oMiUgj7QEzNAZoT+9Ks5POQiDQeLXv3CwvhSN2afOFxm0+iduntbWxqzaxwjFzmksSk7Yeg0dv37lMbTl6it/CuPvruc/tJvlNGlnR9qu5cwevH1Mj5xq4w/9VgZmzmc+9TSD46zg8wzQsaADS/D4KyxDVOX/eKiEISTjdc9GHvHzkHiEJae/i/K2PVfNCNy+0smJ0deLutL18uLN+yqenU/tuSyllp+3X6vmQc4aT+c5P7d8GFp9Z33z5cPPKaHWybMMcUsw/qEL5/SWTCQ6IjZjTs5S8fIAl9mtTge8mD2hWMjDQfLkh+zKfLTM3FWlMsSIf2BB2x4gR9Dyz1BHE84jrgniTPwqz4rgyXECXMoOCP6EMZdG6XjCPhGYswimbXy8eH4wgVycDx5Yro89vCD5dEH7zeneNZnWBoA+wXqiVPj/URmoRfOnnEDxY8Bx2wZXbLsytOiMXOOJ2dxbsjPMj86COfF58LMeVqZoZdRn0Vi7HQVTJjXUaBH77yKggw4t3jvkc+I8VSqlWEGAV35g1SmRwA/dMiFCtvtIQt50CFlIq8vi3NP03hCh0mhn7gM9qMNR156voxdvWyzyMN5AXxQWN+wsXnGxsjjn9z3/rQfOO4OMkMOUb9hICnnybNJVmwOXysfMFZufqucmPiadaZrTczt4/2nny2//+Ffac72EXO/F45yr5/b2gaPnJ0rn36XOWADHYD37gDvvWEwMYK+n6cZSpbgmOEQzwyIJ1WZdbBEyQyIJUoeViG/v/5hnRHnhlNkFuWzLjPAOEd/JcQ6Gru/8N4hTsC3TbM+6F/DsNkSdFwg6BUIZq/+1Qob7DhjnAfbpeEUcCZ0fpwsR4wCtDhh7hV+4sPvK9/1rneUMzbLu5NAlofuP18ef/j+8oF3P1nOnznjThSZGW7rpl/C1M/3VzXnh571lZObcws+KwXc58Xp4bxwsOhSdLQT7cLSLyAf7YBeScc4ssRMe9EmbJLAQ0MIwewZWtqPdoRO9yOZBcOD9sM+MDNG7yyx0ge4oAI4hut/7H9bVi884OfHCRsvWJt87q1y65WXmpgeRx1c+DF2FNYtJ8YO58fKQXIVP/Pyny3jc7/exLw9TE9dKRdOPVdOjsfXJ/YVc19iix9rtbd/lT45tl5OTduMgKdSzcAx0wJ0BJbl2A0GY865OoecVbxEHjvDYCx5CR7w3h+zJ2ZCOLp4cIRdZkZ9psJMBIPNxuRclUFHR+TIOY6PcsnHPUocAcYbp4px5/4fMsGX9/2QCQcCDbS8gziOY7Y2vc9mbx9+77vK4w/d77IdBrz3nY/77/GHH/AlWWZ1LImiJ96vxPmgN+59AtWXupEXh4+TYlmWTQLQC/nRN3pH/wB9oiMcNLRcMEDPigBxvP+Jw6QdcJI4R5wsO++wCsDTq9BxYcRMl/5BOyInfLmoYdavCyr6js8iz5wrZfxwv/ZwEFj/vd8sq3/vp92W9DjaMP/n9k63WbBPOEXiuYBl/ByrJdZXXn2xTF//B2ViLWZS+4EzY4vlvvHl8uXrH3bF7itW3rBL9hlrrTO0ZBO5N1gblw8/dr38xAfe9HM6AI4OsKk1W5VhUDHaLKkxW7llhpi2w1DSgeI1iTE3ymx4TRxpbDWHg/OnRW3mgeFlNxYcIOfkwUkiOuGLl6/5Fyu4SnOHYb8on918YhcbHCByICdOkS3V9EUOvrZB34InzuT+C+fKU0886vcWDyNwVsx8mT2v2cyOCwCflZmeqAOOE1D3S1euWX42hmdWGfrgY9BccBDHxQrlMUPkXUv0SB7uKeLU0BNLyegV3XGRYr7VeaMr2o8viJDOxu980YN4Nm6nfOJDtxPeduyKxAUJZck5AvWd1Y99uoy/9EwZvbz1ieh7HUtn7iu33v2hcvrM4ep3/RLr7kG/xiHmpXLCjCnsGEd+x8pBnnvhj5bJxf19n2l8fLHMnJ4qq+f+cPnO69WQ7Bt8o3O7Uh+/vQ0F3vXQSPnYk0vl1ORc4RNNLKnKyLFshkPDUDLjYMkN+D0xM5As8bEEh8MiDw+/YMiJAyy98r1FllihIT9tTjod0GefZpjZJo50fu4IzBjzOSte0Gc5kQdYmBXxCgIPjtAx2b+U/PC+ePmqy+nvXZoDZdb1LnOMD5qDVF87zEDGeHL2ND7LH3ZCP8zarpmzQ1/UDydHXuqN3nCYSz6j5mv/636hQhpL0GxrRxjd8F4kD0/xHia6Y+aHY8UB8yoJdN6O1l7co8Uh8rWSTTqTATp0j/MmL4YWJ8uFDf3EH9Jp+s10cxE0eeq3y+hb5iCv7/eV4eHG6KU3yvTrL5XZH/n9TczhQO8gdw/6e3aOGXKUHva/xwAvvvp6WVnmfs/+D+bzo18vnx7/c83ZfsPknX/mtremOzl+sZwZf9XDLEcyG6DxWTrjs1U8UMLeqswYWKrjniAzHYyoG1hzeizHca8Lp8YrEQADy5UWMyRmHOTjvhjGlXttsUx6yg0r31XEIfCdRRwFy4TxCaaJcspmKbynhxHHGfJgEPzPnWEpMGRjpsgMkm9Dnje6h+6/4DMndeKjAGRFp489dH956IH7fBCeMH0xkwNcOLDMOm4Okpk6+oyl5BHT64zP8GgfLlyu2cUDM3lAe3DRwEwQZ4aR5OlieGnJWnRXzKkyK+eLIzGTH6SjvXVhw0M88PTlbYvLn36iHXCQt578d8vKmY80sccIpo85a4NvPt/fi7zXwMUFY0A4FjNIKn3mO3+yTC4/beZm/6+uRopN1cdOlPmzf7S89ObOW9btHetWietxnNj9I+YfefTN8oknL5eTM7E7jZ5cxVhzL4kZCsudvNwf97eYScYrHzgnjCAG9tSJE25MWRZkxiODysyDJx95tQGnSMfSEiLLpZTBFyKYMTKLxClqRjkxwdZ1sekAjpElRPhiyHG0lMWnn9xpmIwYaB6+wdnSv46ScxSQ2ZdWZ2ddh/FhZt6VjOXTG+aY2OKNdkFP6BZ9cnGCPrgQQVfoQ9vv8WUO9MvTxcwAcbw89ES5tAsXHCzv8tATS6a0o8pnxqq23NzjlosU4+sPT1l78GAP8ez2Q5hZJKsQxG2MTJS3zj5SNq5dKdNXYgn/uGD0lundZpHjn/ph77uHAbRjP4McBDYIeH+13052g3R+orvnZ5Ab66vl5m//X8rEwlfKyMZBOK/AqbHXyo+e+M+aswMAsi++UMr1Xy/l1teayO1xdjZ+/n6iOTuMG40vA8d9R2YUOEdmCxhqX56z2Zrfk7IBd4IlWDOqPMzjRtaMJGB2g3HFWDNT4Uh+jC/xLMnCg44Gf3/AxowywHhbkt8zwxizfRqvKEBPHm0szvuabELOO4jvf+odNhM64cZop05+mIHsOD42LHj3Ox5zHYH4jmUsIevBGl634PKL2ZwvvVo6+kTf3FsEtAf6ZQaO/nDAXOTQXtzDxFhyZAmb2ag2jB90jvPOF3pmrrQH/PhRLm0ZDwKFuWCJmP4ETj7ySJk6G6sKxwkjK8tl9NWvlsUv/eUmpsdhBLaMB9EYd227EfapXkzkCwvR3dMOEgUsLS2UU2v/zJzjwb7YbHOc8sj4l8qffOKfl7GRA7qC45NZq5dLWX55Ryf5wYffKu+8j28G8jL6mD/qj1FTJ4mvT/AQTszgmDHQWbjPyIvlzBzpMPFR4lV/cAeDigHGyOJAMa44V97X45wXzaHDiNcnWad99iE62gRnyXuChNlHFH4YY/hp5oOBZwZz//lz/iRoNtD3AnBILDe/951PuOPjU1emCE+j/uidJ1h5v5EZpOvJ9IXzzO3AMfQ74bNIZvLon/uLvhGCtT0XPjhb+gK0AJ44Q99cwPJG+8WertDBk/bwHYmML04Z6OKK1QjagwuWxU/+aFl4/8c9/Thh48ZCWf6Fr/vsu8fhhDtGHVsOkvNsUwgrD0feIb6nHeTI2vUy+cJ/XKYn3rQKh/E5SEyOLZZPPfKv7Ir+gHmt28xiyZwkH2EegofPLpfzJ+M9Sowe9x/doJlho/ExiPz0II0bVzOQZvs8nvfk/OVxM4DQYWRxWEbsS3o4VAwljg2DjKHFWLO8Kjr4+pKclW2ETgdI58GckCeeaBUdO8Gw1DtiZbP7zSP24x6cOu69BGZmPHDEHrBcCAB0ygwN3YQuxly/XKQoTk4x9BnvgqJDX+ZuykWf0NAu0NNOlI3jBWz6QBwP8/iM0PLQxjhl6HDg/GhndE9eHpxCBsDF1ljThuXRJ0t58BGPP1aw4bD+7PWy8N/+1bJhOutx+MEY0OoHyHaFC0jAmCEfafesg8RAXLn8Rpm8+vdNK3dmTR4nfHLmjfJTT/2dMnMQ70ZmaMl1/mlOIq7Bhx69Xh4733zGyAwsD+Jszh7tx5OjGFSMLAaOayy2EWOpjh8dhDJZcmOZgZkFMwkclxXmMwuMJ8Z5K51dKDR0/mK8GVbk4FUOHqxhyY403etEJhlz0TGz4QlN3mtkdnsvg/pzAcCuP9zr5UKGWbTPqO2IjrhHjKMkjBPzJ3/NSYY+46sccQ9YFzehTxyl2oZ2or0oB0CP48Qh0kcWG8fp96WNjlk9M0fC3uY4UHOIlMFFFv2JT49hSOgXG+//aFl9/3d7GccKyzZj/83PlEuXrwwY3h6HGYMX24yDjJhzxti8Zx3kyMqlMvrG/685u3NgefX3Pf5z5QOPm7GZGGyIfQebCCx8O55wbTYUePTCSPnoE3PlvpP1lROcIEaNpuceo/qHtT9+MMJx8FPiMbpcUbFsWlMDftaiA4QzHft94uAwohj1yBPv7jFb5OlVATqfgdqMhSNPqmLsjwvYM/YRf7o1ZoRyZA7pulG2L5U2FxtK22wInRtSsCYrcjNAMMKRB5e5ebIJnGw8GcuSeuw2giOnb/Fbe/K9Zf2THygjj96zJmU4+Jj1P/0fy+otvvHa47BC/VwzxTZ0gUM6/ZsVsHuyN68vXilrr/zjct+tn25i7jx+/B2/UU5O3okBY43KLJLZ5MZK+eAjc+XcbCyt0iFqp4jPF7FXJ7OCmLnM+iyB2QfOiI5Bft+D0NIJu8GeYobCk5ExC2H2qFkm5VIGPza2djrrWNDGFnR8Kmu5sGEA8JknxtXikcGv0ho68rKRN69CnDt90vMfJ5w/e6o8eN95b4s8WNFttAXtFm0JaA/0SRz3FNElusa5ssQNjdomaDY2Z/nQcu8YU4EhYOkW18gsNfpAtI3nt2OsGAQd/YU+ojzAy3/yybL2/vf7+bGCXShM/Yt/WJa+/bNlfflGE9njMIC+TX8GHOLHMmvEAfVtpVfcgw6SCq7f+k5Zff7/08TcHXzX6H9TPnTyi+XE+B26gT//9fLg7Ovl4VNvlNnJ+AJ+GNRwdH41ZMYW48l9JRDvLs74TI4w97Qwd9ynYpkOR8qSHrSrdpXMEiidxpf9JuJpUpbyWH51OivD6azDwWtlJZbgWJLlqUt4yAD7F+vN2OIINpdYrcyHbRbFTOq44rGHHvAnU1m+5FuTcoKuT9MRzo4nXAEzTd0LRq/RDuHUaGfoaEN+0NJe6BjQlpQDLfeBtTE69H4hRdvYj3ZS+bQfD1iRjyVa+hftRzplr53+YJl7xx8utx5+0nkcN8z/q58uK9fecn30uHvIzg97JTCG+AEuBjOgYbxYN94E/fuec5DrS9fK+s2vmJG5+y/x/pEn/nl5cPrOvR/28cdeKKeneGRfX8iIJ1M5p/F5lYKnE1nOw+DxZCJjmacY4ynWdd+5RYY0np5kqTY+lxQzh/gosL5iz2yHjc2h0/1GPezDE5PkgR9LqvDDwMKHd/p8v1CbifDUJEuGvPpwnJ2jwCySjRJ4l5TlZnTHcPa9WU2xvNCv9uPVF+4P0jbo1ZdnobG2xwFy8cEvZqWxWgB4ZzJWDaJf6AIJR8lDO5TBj3hm9+SN/hLvSsbFV1xAEaaf8Vt68n3l+vf9hPM4blj/7ZWy8MLXy9py7JPb4+5AF20g+mnyegbO/d56glZs2hc395SDpHIrV75cVr7515uYu4szp54vD514rUyPHcAWdC2cPjFWzp6adaOGY1SD0xn44ex4BYP7SMxC2FaO1wzIp69y4BR5PYAl0njKMe4LYkzpUNpCjod7+KQUV2PcW2TG6R/dNXo3wDhHK494fZUDHhh2jC2vgGBwo+zY7YVNBNjdpUcsl/LQDpuCM4vkIRj06/o0fePo0CH6pG3RLfqk7dE/28vxVLLH2cURM0tex6Ht0DOzSZZz0T2O1lcRzLniUKHTU8r8aMfgx7uXlR90tDdOkT5EPBdiLNufuf++snr++H3tAyz/1l8rSxef3Rx/Pe48GAf0x52QnSE0gHGQ4+8pB7mydMNmkM+4Yzos+GOP/1x5/7mXzFDt3GBvB//ax86UB87NuCPTO2qAK3x+3JOKr2vEfVGcEUtxfA3Cd1ix/HQMvaTPjA5jqxknxpLH/Ol458y4sskA9JqN4uR4AIh+ibPVcirvLwKcsW9bZsaWWU84RjPIUxPmeKetnPiQcY8AThLd8VQpwDmGPk+4jplh6r1SvsqBPnF8zPQZ5MzwmRnyIA9OkosbbQwBHbNK2iQ7SS6IuKChHZmJ8mNDCGaVp+3iq4sftkR9jAszZp8rNou89j/7My73ccPaZ1fKm198vszf6O9FHmbQjxknbYSjrLb6nnGQVHjy+j8tp1//803M4cC508+WH/zQfHn8/oNTNc730QfO+YwMxL2r+oQoxpKdWjCALNvxVQz0denyNTeSOMerN+bcyTEDYFNrDCVGVM5RM07ofC9P0V2f8xkKsxWMM5tu41hZFozlP/YADWPxwIVzbtzZxQU5MMDgfnPW7LHaYxDxfuRZdzw88MS2e8zy2KqP2TtpXLBIn7Qv7czTw8z8ZuyCiFkejpEjs0bo7jM69rjFQPheuo2TpI25B0k7coHDD570JZzjJj+jFT9WGlZWq6HBUbIBOvw3Jo7PU8gZM3/7r5exb37Fx0qPwwn6sWaNbdDf1Xb3jINkJvTWpSvN2eHCd4/+5+XRkc80Z/uLifGR8qf/wKPmoKKx2emEpS7ATJIfM0eu+jGCGFAMJB3kgfvYBHzUvwzBtm7MVkifn1/0GQcOF+OKI2OGd+nKdad7sKHjU1mnTgYdYNMBf9/RHCw08TmscZ9x8qkrgHNlE3OWc9k4/aTvSxpfB+mxFXwrU/phFsmuLcz+WcJ78xKbzW+U+86d9XbzGaa1Mw/RsPMR7ciFCt/75CKH9oKOTer9c1c2M8S54hC5wGElgYcXfLNym83zu2KOkRnohbNnKj/rP5mfnlAGOHPade2Jd5f5//AvNLHHD29cvOz7EPc4OtBDa3mJ9p5xkOdu/d3ywI2/0pwdLoyUtfLRp6bKux45iCVEm1mcmvF7e6A9e+TeEctkPGHKTIGZGq964KisF/hXJE6fOumOlO3ntBQLHYYWx8jMko2061c5rvlSHbNI7m254zVHyixn8GseNuOxMuIrIHF/ka9QsFRLZwQXzHkyS+3RDfSD7nA8pnyb8dmMbn3NNynnO5kM5MvX7ELFZ3Tj3g44NJa5aUecHk6S2SHtxYUNM8E8g4SOCyHajfZjudX3x7Xzc3Yxw0rClevD+UHny/jWhwAXaFPm2EfOTZSxnzyey+ZTf/+/KSNf+JxfkPQ4GqAPyzEK94SDXHjuH5XFb/9MGduIr90fRnxw8m+VJ8f/RXO2PzgxM26zx3f4TAAwe6SB+VIHn7Py7wiaM2S5i8f6cXY4NhwWhpGuwOwC48lSKEYPh8bSGsumGDruYeE0uSeGA6X8uJ/IMi0PIp1wQ3nCXxeJL04woyTOt7Ez2c6aUYcOZ4xDZ9bBawwYX5bq2p2yRwUOjVn26ZMn3dHxgBRL29yf5FNVXLBwIRL3BONbjsz80CntyEyStmBWX+9B3nAayiZOdNxTxNlBBy9ezWFJtoufO0ebIdE3aG8uytyJGwj7hdr0/WXuA/+xxx03jCzcKotf/+my9PIvNTE9Dju6zNCRd5BcoU2WZ8rMyDNNzOHEdLlUfuj8Z8v3nv9qE/P2cHJmtHz/B0+WC2fiHUScIwaKJ0Y5Ysj0XhwzAXao0QM4zC4wboDZBo6RGSMP3fjTrOZMmQFyzoMzzCQxmuSjXD5DxdchMJ58sgoDu/kVEDOWzDiJwyhTxpwZdQw2sxmWwpGJcnDS/YM5OwNd6/4hm5rj5LioQZ/oFf3qiVW//2v6948fWxtwH1IXPThBtYPfm7S2EN384qI7Qr+4sfb3uMbp+j1Mc4RcYHEvktUKd442Y+QhKzaeZwl3cpJ7njGLhM/k1GxZO/1QGfuJSZtWevSxwtoX3yxL37jkFx49jgby/Udw5B3k4gv/vKxf/IwZ/oN/leLt4tHT3y7f+66X92WpdXpyvLz3idjgGuAUaVwMGUaK2cESa+r2D4PHgxsYPWZ13B/EeWHscKgYVWYEzPZwjCx/YkAxyNz3wqnyQAazQy6zmE3GAyHxlQ7o8ldAIq55hw6ja0aY2Sc0OODV1RW/j8bskfQe2wNdMos8ZbNInBjtwiyRixq/ELL28HcYLd4vkrhotPbjPVNe9ucCieVWnkZleZt2oD2g4ceFE++j8j4sbU37c2FDWjjNiaBr+g3Oj9eB9PUQzAlpvN+DbaH/IZcbmwm7+PrEv28OMhznccLGjY2y8uy/Kiuv/koT0+OwA3tE/xaOtHVyAzz/m2V85RtNzOHG+PhCee+pz5YPnfrlJub2cGp2rHzwnbM+QwQsqWLQAMaRBuYeEsaRGQKOi3uQGDyMI0YMR8hsga6AcSNfvODP5tO8S2nGzehwuMxYMLzQQozTBBhO7k/Bm3w+GzHnyL0t4jDS4TT1RY/gS9lsCoCB7bE74Jjus4sK2oe2QNe0ny5SeCAHvfqs3fRPu9AXvJ0tLwOf+8VqB460C+1Du9JeODTGFDMeZobYCWaW0W/iPiV0PCjE8rucI6sG8IYX7Q8v5IT/xNSJsnL2Y+XqH/pTZX0mvmF5nLD2jRfKzS88XW7YBUaPuwP6If1xJ8RrH+EcRXOkHeTY5b9fppd/xQzEAX85Yx9xeuT58tTpZ8oTD97+I/CnZifK+5+sL9XTmDgubjLz7hvGkSt/Zo84N76QwREnycyQl8xxgnoYB+OHYcRYurEzeowkjpMfDhejF5uLx3Z1GFvocIwyqhhZ8WMZjg6HkWVWQpkAw0ocu+f0s8fdAyeoCyJd4Xo7m25RKEc+jIzuaTN0SxuQl3bhqIsYHtri6I51YdFpaUtvN/vRxtxPdj5mVxYsDzNW8vn3Py0PSaOj9VNltD/9wuWysMA39azgsva9P2RXYsdvOX3j8npZ+Y0vlZXf/Y0mpsedR4yXnUCf5heIwJG1UDxCPXrl58r4Ip97Olp4/OQL5WP3/U5ztjecPTlR3vfEqcLL9UAvaCvsS6NmkNyybUE0OoaQmQYP4HRdWeXuxMyAZVPuZQXauxgOgrw4SWYdm0gEUyYfD5y4Ye+xJ8RFTWw3R5vTTix3s4TKzM63/LMLpHBysUk5S9/x0MyKOzMuiAaQGzthSLQDGfQ9SfoHzpELHhwqqws4Zz7QLTnHLY12v/W9P1rWTpxuSjk+GHvpubL8ld/1Wxo97jzigq72aPolNiqDSYYu2AmHs7QLRo85YqBya2/9XNlY+E4Tc7RwduSb5UNT/6i87zZ2/OGhnA89FUbGG7BpVD2izDlHn8nZP2YRvlRgnQRjyf0ljCoPVjDD4wEQltownj7TtLx8lQMTqWWGKMsGesMLOu5n0YuYnXDvitknBpzNrcNJcg8rvgJCGTzgg7Hk6Ubeo4x7Vj32ApZC+WYkenSdnpxtZu88WMDsPNqatqDNaAdfFbD2oZ1wmhzjPdmY4bOFHQ5U74CF4bD+0vQb//pLMzNUf/FN6RsZ3Jjwr+k7q6vrdmTGG5uiw4eywOKP/OFSPnjePOx27vfexNJL3yk3v/BbmyspPe42Bh2kdd1O7NlBYny5crybWL74xXL2yl8v0ytHb/YoPH7i5fJjD+/t5v0Zmz0+/sCs37vDaGGgcDiAByNwdNwHwmhxL4i5ni/DmWPTvUS/7+R03IMMJ0UYQ+tO0s4xgDx4o3ZmaY90aHGK0Mmg4hBxvivGhzzIhSFnZoEc9Ssg8YQYwFlqOa7H7kGbcnED0DP6pL15b5F2ZnmdmTvOCv368rel0044QhxpbHTOLjlL7uwG6KxtRUd7crHFOf0D0O7koR8QT7szm+QYM9d4oIcZJQjHGn2UMP124/s/XMr54zeLnHrp22X61/9hWbr4lSamx92CJhKAsQHyihbpXNiB23KQ3Ke6m1j99n9ZNm4915wdTUxOzJX7Tz9XHp15o4nZHrPTo+VD7zpVPvH+894GYXwCamw9jUpjYzgxdDgrHBeGEkc50xhCnnzk/hP9g/tLGD1mCO2vclAOsw7SyQcBdDhTZgaUjUP1cs1Qch8M/rpfxi4t5MeYM8tlNhMdsMdegVPiVQ3ant1qmMX5zjnWbrQ9r8zQJszacVK0P21O+3CxQjtw4cLrNZrZ037+hGuLjiVT+oPanX4CPf2BjR1wtvQLytNDQCz1ckQO0vTKB9AKx8LDP1XWHn68lOnj1wfW3/xmWf7C/7BplHvcHaB+2oAf46INraKAPTtICmRXlbsFrmZPn3jeBvHR38bp0dk3yp9858+W07M7z6aefGi6vP8d8VI9DctVuRwjmwJgzHhpHwOGM8xf16BD8HoFMwce0GEpjNc9/Osa5tS4F4nD8wdBzIHhZMlLW2McMcyk+16dxp8XyL0c60hsQoAR5RczUN67jGU/3e/yHXXM8WLU+ZQTM6Eetwd0x0v7tAMOCDdDu6B70ngVxx2czda4WGGJlJkiGXmPkXv3tA3vVdJ+ODucI3vv0u6i40d/8Ha3tqaf0F/oN/Qf+hP9An60N0+9wh86nCYP89An6aP8aHv6LXKPfPrhUh4+fk+0blxcLyufX/ILjR53D+EYoy9qokGcwAU+acTt2UHebbzx6tfN2B7MR4g3NnhSk1cmpsvK6AN25MGUg7vSnRifK088+K3y4x+JZdJhYL/V86dny1lzgBibCZvBc2RzADUs77Vx9Y+TXDEHyUyQl/dZZnUnRpz9zpyOHXTYdoyHBjCW7KaDI8XJ8U4cRg/HiKHFOFIugxpHBz92YsFI05F4IpK8zDjdIVrhGGSMLcaVrcjobLyKAvRUbI/bAwMaR0U7+J6nNjNvf5WDe784PPIw42SWSDvRXr4jju+CtFGu3Zzz2Sevbcg50vYYjxMzcW+aculTXCzRX+g3tB7tSr+gfGRgtYH2ho4LM2aRXEhz8aYdngD9YOHxP1MW7/tEWT8sm5ljBU+MlY0z5+L+6AF2z/m5ufLSN59tznrcDXCxx1jI4KJOkKtkHBwpB4ng77zyp8vU6n5/zsquFspEWd24v1y6/uly8dYfKM8/8PPlrRs/VNZHTptG2Sz6YFR1auTF8oNj//syMTp8t433v2OmvO+JuPeEMVo2wwhowLmF+Dgx+6TeuDnvDo+dUljyxFFhmDCOGD+fyZlRYx9O4tmTE2NJmaSRh4dAMIbskIPjY4bhD4fYMdOxyTX3r0R381bsxcqSKsAo43Qx3pS3uBhXzecsvx726XF78IdirB1wPmxAzkwNPaNvnKTP9O0fmwv48rr9WFal7dlTla+qAN6r9K0ArU2gg572ox21oQQOML4eEnu4wpd+kL8ewvIp9yJxptC5DBZm318cMQ+EISu0OHX6w2s//sfKte/6uMtxV4AfnBgro1PTZfT+mTL+v3isLPwnf6VM/In7yuhZ68O8kuJPg+8vpl5+rtz3M/+l6+VOw9TfYwi4qBPWzIbSPj6TvHjl2r63lB4k4Cp2P8EM5dTXv6eMrrzWxOwP5hfvLxvn/kx59Ef+kp3hLBk9prCNFQvZYL54uUx+84+X8Vu/HQT7jLW1qfLCW58uf/npf7esbWxdfvyRj91fPvFd3HuMGQQGiSVLjA4NieG5ePmqG0FmfVzpczWPgwMYLmYDuqpnFgD4OgNGj47gX3Wwdltc5gEdPpc04++/QYcBBRrUmY5Ns3nlZNJmAzhJXjHhCg26+NxVbFbOJuULNjv95Ec/4DL2uH0wy/u9r3/Tw7QIX/ugD6gvEIeTpLm4wOGIc2Q3HJwieWhDwmz9J2dH/8LBUQ4XSizjc6HEcixxfJGFJ5AB7X7a6HyZd5MuHsDiHCfJhRntHrTwO2v9NpbuiZv+R/9dmfztu7PLzMhTY+XsH/uxGPMmb+F7rc2YLzaZ+MrTz5aNv/6flbHvhJ73EyOPvbNM/8W/5nsU7yfiYa24H90GFzhcnNJuPXaPsT/75/78X2zC+waWawCDcr+wsW4D7lf/gzI78lUzwvtX7tKFf6dMfOSnywPv/ckyOnHCLhp5YTo+dxLhiXLixMky+8gfKVdfny+rt7j/ub9LvKOj6zbju1x+4eWfLOstB/l9HzxXPvzUaXNe8RkrHswALFtxL4ireZZQcX7Xm69x8IkkBgmGCEfFDJH7hjg0nB9LazhD3m10J+czgtiDlSUwjBt8mBUALkzgfdWMqeiYiTDDgC8bYqMvHvyh7ZEBI41j5l4oS36a9T760P39DPJtguWg19+67GHamk9S4ahwUoCHZWgPNpCnLblfTFtylXzN8hLm4okLKVYGaDN25MFpkcZFDfegCdM/rt+c93uO0NBX2MKOdmdpFj70tU1+Sytl3vnFUis8RCvnSN8Fcw8/WdZtdjn52gt+fqcw8WM/We77j/7v5cEP/aEyNmVjfqw15u38wn3ny/Qnvr8sv/h8WXvj1YZyfzAybheS9325zDz5h5uY/QHjMV612foqCW1Lm9rhWIP+50undhG/GxytJdYlvve49amj28WthYess36onLv/KRsowx89x6CPTt1fZj/8fy6TD/1wE7uf2ChT4/PlP3r3z5QTyfl+9N2z5bvecaKcmI6XveUcfZnVOjtXhczuLl+5brHxlQzuGZKP5dWYRdavcmAAMIZc+bM0R73COcbX5Lni514lBg0Ph2PkCUVmBUTQuQB0fImD+1A8rYjzxRDztCTGEjp4M2DZEBunLKPYY39BP2CmzlIp7UQ70C94MpX24NzfQV2Lj17zLU6Ao8zOkQdy2Lpu8x7k7Iw5NO5BLlm/iq/A4Ozob6wSsO0cbcxFlX8c2f6x4kCbT9DudhFGmadPWV+z/smDQFx88Y4tMvtTrqdPl3Gbqd5JLP/g7y/T/8a/VS489uS2Y56LvLOPPFJm/53/Qxn9+Keb2H3CxmrZWI7vo95J0IbHHYyNYc6RCwsuJDKOjINk4ej8mWf2dfZ4+t1/vJx7359wA74bnDr/eJl74P9Urk//wSZm/zA6sl7e/+Cvl/HR+sDOhTPT5dTspM8OcHI0Hg3sDz3YESPHVTpGyD9FZf9wdjwwQWPH/SeWYnGSo36/CMPE0re+wYiRZKbHfSxmDLxcjmHkih+6+ArIouuIpyBZigXMVmKGEduVkY6xxMiyZMXeoISZVXL/kSXhC+fOunHtsX+gb2DMcXJcwDDDp41xjLQH7UL70E60l2aZm+1ueYnH2XFxw8YCOFcuguK1HJ5ejosraGIpNZ6MpX2ZndJfWCnAtrB3K6+B+cWROdGJ8Qnvn9DTB9h6jn6MzPzWPvWjZeX7fsxluhN44J3vKg+/+927GvPo4IH3vKec/uGHy8iTu7MRu8HGTbvY/Oz2D+b1ODjQF7uAjWynHSFrxabKN60C+zODnF94sKxPfqhMnnq0idkZDKqTFz5Spk6/q4nZT0T9/lfv/5vl/PTl8sEnZ8pjD8y6EYllgag3xoWwjFf9SsaUXxnhFJHTHZbFk5eZBHn54WA5MjMAzCAwkHrqMZbCeG1jxZ0m9yTJTzmUTV7AEhtGkOVVdtUhD0YZOr1riQGmfGSFXs6zx9sDbXiymXmxWuDtRpsy+/M25KKK+9T1qxyb7WftBmh/9QfiuXc1OcnSeGwmwUqCb1TORY7REE97sqRL2/LOJGXjDOHD7RQuqOgTvsJhcaJjRQEZ6Qdc3MGTPMi0fv7+svHRh8ro+/bPAQ0DjnjcZoPUe7fw+rz7x8vKwx9rYvYBdo2/8VY/m7tT8H7WMXumT2LjhOwciSf92F7Or9//k2Xj3Pc3Z7sHy1knGydxEPjIhd8r3/PURvnoe86W86fjviANRyNjWJgxYASZoTHQcUC+nGXx/r6azdCI52qIe0kYKHdQ1uAYMmYIGC8GPoinEFlei40BrGg3qMT50rL9uPJHBvLwY2aAXPF+nPEzI8lrJfCAjs6FvHoyDGNI18Np9/7x7YPlSpwP4CEa+gNtyjIrT6CyesAPfXPRhPOChvagnQDtSD+hH7HiJDquYJzOyvKLM5stctFDu0FDmD5Cv+PpVC/LyoFHLFEV70fkpS/4E9SWbh3ILsKWog9aJvoHs1p+q498qCw/9QNe1kFi/J3vLeOPPN6c7R4n7n9/mTn7ZHPW46gB22X/tyDiBxM2HSODwnBsHeT4+Q+WsVPvbM52D4wGA/8g8YMP/LPy2JnrbqhoLH4Z42PheJj1cUUvx8Nm1Rg08jMr4JUPDBVgJogzoz/IeQJfIjUjSb0wetzIZzbLFRd5cH6wZ8bAbILlNuidlq852KwBo4lzhBd02o2HfMgIXxiHw+zoqT32BAY1qwOAgextb7pml6J4KCsuptQXuNChDWkj2hv4xZPFtemiv8SDHtCx7Eo7A9LJTx9yHnYx5nuwmrMDOGG/12jtTH+iXzFWmLVy/xNZkYsLNo7q22vTj5bVE+/xMg4S3FunrnsF921ZUt5PcOHKLL3HwYN+3gb9LiYdYY/oz4C+jY2S8zy2DhJHwMzoMOLxkV8oDy7+92Vy9SVruFiKwqD41bad+zLmzN4GOk4Uo8oyqC+TWqdhBojxUidpw2cFOElzgj0OJ7jnGBcvNrtr2ovZPQ28tGyzSnNGw5YUYwk19vBt0+0Gfo/aHCn9hL4V9NsDhxmb4cfKgs8k518oEze/5nHHBlywdCz79dg/0LdwhHsBdjacZODYOsjlS18tK9f3vuGAlpIOGufm/6cytRr7zco5+s+u5pGBpaowjosxG7B8fK/Rr+qthTGKPEWIQwRc1bNBNVdKtD8zAQwUoFw6BfeU/KrJyoiZScwOiCM/cVxJ62oLfmwzhnFkSY6lvi10JjthLuOQ2S1Dj7cFBj0XSYC+wVOhGFv/QLbN8gHtzpKr+gDtSxupzblgoh2xH+vWjoN0vGtr6dZuLOXGd0DVZ4ImZpLRzv5tTwvTvlrupY/ydGsXPz2oA7w/vvx0GX/2d/38IMG9UMbAXsG7oqyc7CusPXQLosf+wu1NgtskBsAAOK9xOZmxRP/kd2wd5Imb/6pMz+99UM5dfLosXHuxOTtYzKx8pUysveYOzJcuWSY1w4SxwQiFoeSF/NjrlF1PWFZjeRXDQz6cFQ9y8AFcHsRgUEKHIfSHZgws9UCDU6Uj4XDDmMXThnQ4eLuztXQt2+IYyUs6hrga0EqH0UR+zCFLr2EWe7wd4IRY+gQ4R546pR20QTwPZaF/v+fIUnvjuDjizDyPtaW+AvL/Z+89ACzJrvru817n3D15Z3NerXal1Wq1CiChgBIKJoMJNmCwCcZ89sf3mc+AbTDOOANOGIwJQiCRlFBGWoWVNmiDtEmbZ2Ynz3TO/d53fufU6bqv+r1O090z0/3+M6+r6tY9N9/zv+fWrVvxPDOXYzN037icwRL1bPWnMpyjTGh3tBmeLzLNyhQ+YTEg4ueyeVtxWd439P0vFxXWscNSufdZqT61+YPO+WeekPkXDmVXq8fESfr8xr6rSb+kvzSx8UD/6H8bPC4lxoATYKDeOceLqIbYnYUdPTYmyd1dx6U8+1WZHVv9S8AogJnn/kjmT2zN7h97Jn5b+sc+IKXZM/b5IQiObZBQdChDKh/lCFiViBLi/TVIkrTaggr9x9QXygm/KFbC4X02ViXSFlCQKDzIDYWGYjULVI+sjKTsCZf33BBAzlY56hErlnSw7yuWNQoWJUhasHZRoPH+pr1GkDTEJtYHBh7j7FqkCgDE5g7UH0fKn3qgPnCjLhks8T4kz4RpF9R/7LqCpYgcI+2Qo5Z4dYOBEX5Q6EzNM2NBHdL+eAWI9khb4D7thXZH+6O9EGaslqbtQaiknY0MIGyaQudDX5Keh+42P5uNtrs/JfP3f9HSsVrQxktPfFzajn4lc9kAqOFY2ttIcTdxrogZseWAzkoHKMgEYnaE/nXRECQZODNyk3asjZuWGH3yj+X0o+8xhbESUCITZ78u7aWHbNebrUL36Q9I65m7bCcsvqfXqkrIVpBOTJmi8v1X57NPGPnm1fYlD1V0ZhHqP6ZBbfpTrQGsTFYWojhjn1TebWMBAyN/pqFQeLgHUfKuG2Cj85Bj9SQKk8aE0m1RCxLrAoWKLKSLskTBsMLW0zrWJMgNAh0YYqQTU872VQ49Z1oTdqMtUH/WVrT+aBc+Rd5tbYZ6YOEM7YF2YS/7qxz1x2DK6k/bFWTCtDr+aTe+lVzZ2h/vuNIv7dUPDZtBElOzhEkbIg2xByxx+oYGap0qsRJGZfiMLIxs7QvzJ555Wo488cSq+jwDhee/+lU586nDUn124yzcUp8q39fWfy7cxOaAtp2qnpX0UNy/KAiSqZqB3h4pdeziyh03AD1dx2Rq4l45/NyDUpk9bSRSD9bBzx6ShSf+npSUsLYSfT2Hpbv9kLSW5mzBRUyH8gUOwCbl7HASX+WA5CC8GL1jQaL8kOOVDpQke0AiQ25jL05WxiLHVCmkyMIP3nGEaBn9s2sOxMcOPBEvShLLE+WMAub5DooVyxGlTFgoVKYBm9hY0IHZgAGS5LUbrEHqj7ZhOyHpgIrBCTMC/NhIgEEerwQNDfYZwWJFMrCx9pLJUX/MGjAogmCp+5FRbzeQHe/dYiFCdtQv9cwnrljsZYMlvaZN0PbwQ5uxHXi0zUHgNnjqaFPLc066PvXn0vOVz2U52hq0f+5jMvze35bnHn9E5mdGGvb5+emzcvzZp6Tynv8urV/d2Oej1VKLVFt33kejzydod2xw4ee+ghUUqz+uuY+/i4IgacSnR6el9Ir/JGIkuXEYmvwjGXr8Thm+72/K6OhpqS6oZbagxGI/zqfka9qZJu//Dimd/UQmtbXoOvFBaT36Advsm5kDFBXTW2wTh6Jb/CqHkiQKDILjx8if+/YumipSpkPZt5MBx97dg9Ya9qisfboom3ZjMIBihVSxBiBVSBKrEbIlPICCNpI0hcjzrB6zKLEm3aLpMUWJQm5uM7fxiH4NSbL5fHyVg4EQBIcVx+CEdxIhTdoM1tuugX45eXrY6o/2g5UIkTGgwuKjPlEOvlk5XwbxzcpxO3lm2OqcQRikR/0iS7tj5gGLknpnJoG2x65L3j6HNC7/6gjtD7nTmoYJJebzAaZap//L35JnP/FLMnLmrA6Os/4+PyMVJXt+z33o78qZf/zXZf6hjV88VOk4KGPX/6PsqonNgj0qyBiPwVs8kmCwx8wH92IRWYBr3LmPv4vqax4kvPW+W6U0u7GbBxt0VCeldlXu3XJ6+BZ1qMj+3V/RDu4vvZeqWEG1q6O2Cnxd5FTP35KzQ/+XWQxmDapyia9ynODLDNnXNSgjlBJWBQoRoku/ymGkpSTKVxb4osM+JUr8o7jYAIHw+SoHU2As4kBpYk329XYtfpUD/3ydAdJEWXp842bhQpIQLM9JiY8GxyeOAs2veZw7IKO77n1I64eN430QBAH5Vzl827l4jsJAis+f2bnWxRklRQZHXEdb4XNWPFPEekQZsNk4Fink5zMP6Vc5hu0rICgPSJL6tvdjJ5XsVJhBVRAygy388HmtiIsj7aHt939D2h76kpSykfyWg3GeppWPEZQGS9L6ds276sqF96vO0mNlQfu7lsHiSGQD0XrltbLn3/6mlcdGYrmveTSxPlxUBAmef+YBufTk39qEb0I6IKNKxVfetST7op5vVEo9crbne+RE38/YSMie66k7Cs+IShVifILIn/v5cySsCUb4KE/fsHrKiIswmHJjlI8yw6qkwzLdxj3qEEWHZcEUKoTJFAV+sCSwRFCGoSQhPawPFCeyqgdr4ovvQV5/9RVG7BBrE2sHJEf5P/nc4cU6A21tsd/upA+MssVbKEsGRdQJswExDY8VuUutQQZLTnL+XJu6R5b6g+CYMqX+ANPrtDXCp92kcqSDwRipod3wIy5G8cxuMMtB++Q5et/h35SWD94j1Wc3Xj+sCzTFzoysJjeBERPMXH6tTP3gz8iLXvaSzGXj0CTIjQMDe3TeRaelBnZfJy2tmzdlx6boEOOFRI6gXJ2QhdmzZs0Bpp2ZToXcghyZVrNFEkqGPJNESbFHJ58h8qnTGbMmUIKM5M+q5YCVgMJEsWL18UV4tqODWLEM/EsQ/uwK1UE8Nl2XkSMkjNUyMeXkyLMoNkj3Z5CtJs/0Ld+uBFgkxN3E+gDhMDsAOQLKEqvfp8P9GTJ1AmFR/7QD6oD7fO2FRVt8XYNzFufQHiA5Pl1Fu8CSRI769JXPnR6f3qPeaXMMrJDDH+QLMUKqPMek3pneJw22mb7GO6SDKdLTpfGQ7Ornzkj1hQuEHAFGLMS4yeQIOrq6Zc+VV2ZXTWw2mNbnWWIKrnEvIp2Spb2jzy46gkT5j01cpx1/az+TcyFgcO4uOTjzmzblu6CEh+KDHONjxyg0W6Gq97mmwiEriA9lZos3FCguFBaWIV9bQAGiJJkiZcEFKxIZ6fNskdEoFgPhoZSJkzggaAg5lHBXR4f9sDghY4iS+LFmfXGRE/vxU6fNvYn1wQlyPLtyMAChTUBS1AX1xgAHv9Qb7YE6gxwhOOqdthLhQI60I3bGob0gR13GIIt6Bgx4bLWstgOmeXnWCAGySpp65xrShSRZPQtJMoiCnP0rMFXpev9vS/nxZ3WkZEHuKJT2laXjVZ324eImtgb2HJFRmYI+Yo/L9Bp3AB+GPqIPhN84XnQESSbarv8ZKfVcm7nsHLRXT0n/+Cek4/gHbKTDwox0igwliDKijHgpn0pGEaLEICzsY6bMWEyBPFPgLLxBkWEJMK3Ai+SxoTlyhAHJ0aCwUFB8xMfCHjYtMItRlTENjziZAsQKgUBR0nxcl9EY9wEKt2lBrg+ULeQT75UCrEem26knPlYcu+e0K5lR9pQ79YNVZxa+kih1CFHSZqibTlaVatgoCtqLhaV1STuifqln2hmwldFaf4THQIjZBb4CQtogZotHSZJ2RvjIo2pI15SmTw49LaWpCQtrp6G07wZpedn3Wh9tYmtAW9b/yblfc3Q3txb93N2wLhctSft7kaF93+0yVblJO+jOsyI7qodlsHKXVSAKql0VEkrJrQB/RcNISEmOl/TZJgyyQ0thDTJtiiUA2aHAaBIoNhQYDYUNCWgoWI1YHihYdlYxN+3YY0qMxGGy6sb+nyjQ2OHHNjfXuJluQ/HixnNNFHngrCpbrJMm1gYIrPhcn/qh3rDo6N/UeQx2bNCilh1u1A/kSr0xYwARUo/+NQ+1bLR+mGqH6Bg0tWm9IU/9Wt2bxelyXDMrQZtJvwJC+6PN8KONMUjinUeA396Pv19aRvjo+c4D1mPbSw9I1/6XZi5NbDXgvIz3FsFlccBO+w5clARpc8OX/HWRnhszl52DlpYZ6Wt5WIYm/sCmWVGE7u5WGnWNokMpsscmyhIFyvQaU2MoL+of/zEPj3+UGQ2lRW+iRE25qXJlsQ/KkyaUfg3CZPGvssjxI37kmKKlkS0ssHKR8H1JNZYOODPirxc0sTYwkGFalLKNsuQccgR8qQLiom7YEJz6htCoIwZHHAF1z6xBkC1hRN351JNeU49UnlY8q6CxBKPN0BYgXPzweMdH4LSBbPoqC482B4Eyvc4G6J0Pf1nKk7XTwzsFrVfcKF2veLPVRxPnBzRnfiD0lbX2zC1AH/A+cRHvxdpx2etlavcPynTrDZnLzgH7sw5O/blVMsv4gT0j1Iq1Z4Zq6VH5kKM9F1J3LAP7KgfaLUN+6oowTotAKbJLCsTH9CrTZ8RdDyhxGlYH03ZK0JBsrKgMoJgh6ibWBuowvsEY4PkudcbXXXzKM/8qBwTGgIYZBcgRAo13JG2qVOsJufgKSIr6tZujTjPRNlHffV4Jsu1zH5XSzAW0MGcLsXDFtSKv+GvSccmrM5cmNhPoviJCX9mgr4CYYq0nd9ESJJjd9R2y0HN7drWz0FIZloGZj6l117r4XAhlGN8AhICCHHk2ZaMlbRxYAbQVSI/pT2BfAdFGwn2sPkgNOZ5HIkd4HP27gP6dSMJh6EU8TNXhh/CYWrOVqihfVchmaSoIOz4vNq9HiDzuNbEymJJmBTPlSF1Rlr6oatYGR1iO9gwwm8qmDqmzsASpIxZgxYxD1CFWXkXPLVz9+Yo/Zgb8nUXaUz5rEDLefqhfnne6YsFadKuSgRQW6vz8nMxMj0vHmc/JwKf/VMrT52djgPON1pteIu2v+MZFRdzE5kKboP1SFN2iH6UrXIt+0IEXdY3xIdO2wdtloX3tHz6+2NG2cEwOjPwbaRt9UAly0p4DmbXW6e8gQm4oLMjRyE4VJM8FUaLaNmwalX03aQ8QKQoTRcfzRhQj4aEYITzkbSUqBKfCTLlineIvpvDm5nzFIySJBcPXHVCWvAJAuly55osTeJcPP02sDiyUim3+KEc6eGwaQT1QH7gz9enT115n1A3T5CgCSJR6B7zeE6tUITMjPa1/6g/S5B6yXBMHoN6py6h32gVh0n54xkh90rYg4/DXVZqXrrv/jwa+8t6n2xGV/ZdK19XXSX9fc+XqVsEGcQVD0chOfylon/wCIefu7nbRD2lmdv9Nmer9NlXAO287s/LCqAwd+4/S3cG39nxPVK1as84gPAiNawgr/woIL4H7FzmwPFCG+DeiU2WIYrNNrlXpsbcqSg9rgbBsJazKMkXKSlUsDqwaV7L+2SMUta+k9ak9SJdVlGw316phxsiN5f9M1br10cRyYLDCQie+4EHd8UwvrBGmvClTyp/pdvzGFCt1RjugfmkHvKLD80ob6CCr9ck59Qv5UW8x8IFIWaHKtbcZJ2nfHakifGwZQqV90E6cJFut/ZAGm+ovLUjr8NOycJfGtwPXZJX6Vdu+8Q0id74uc2liq5ASH3DSq3UDNhNWQMyigIueIO2VgrZbZKqy8xbslMtzsmvgMWmdOaIKyi0/FCCbA6DseOaEFcB7aulXQFjAgbJkZxVkUHooNixKFC5kaUpV2wifLUIZ89wKJY0yZuN4wqEh9aqFiBI1RarxsnIViwMrBgIm/l6IWwOb0/A5ssCE0Rzb2/FMrInlMaL1hMUNKH9+sUiHOsRSpz6oXwY31DflzhQo7YB6oV1Q5rxHzCs61AP1Sb1Sv2wMMMtCGq0/BjoxaOLdWfwx1couOpAjK6B7u3kfsmztg3aCf6b7nbD58oyS5fAR6Xn4NyydOxHll+2TXS+/3L6C08TWgnZKGw9wHtdx3mhwnpLmRU+QoOvqb5WOa75TO3E+hbdTUKrMyOBT/0RmJ04Je1xiRTK1hsKMr2swzQlpYdExtUbD4D243bsGNQRvNGwyzRQsRGmrG1XJoRxxG1MlzFcfIFIaFi9985FmGhLKkjiMfFUJ27uPqpCxKFCsWCHs4Yocu+mg3Ekn16fPDms6/dNLTdQHVhqW26QSGFY506qUF4MZ7rEvKhNHbOtmgxytr/gqBwt67IssSnS0C/yzCnZIiY56oD7tax5av9QX5Ej9ET7EyQAIqxBSZXMJagnLv7+v2+Qg54iPRPAsnGvImJ44/dwpWfj4Dp1Gby9J+43fJ60H35Q5NLGVYGBIGw8wCOSH7qNdc4/+FCiqoPC3LQiSLwe0lK9RhXxN5rJzwGbq+3Y/IC2lSX/fTRsBSpDRv684nbYNBCAtrrHasC5s03GVZ9sxpuHOjo7Zi+VYG1iXKEisApSu7ampFuLi10N2DxpJIsdzYKbjeD/SrEWVQ8manCpgnmGxRdlJjQdEQ2TKlQZ6enjMSLaJ+mBT+KMn/fujPMdlcEEdMCXKfqp05MWvcmQzAdQb7zxCiGwJxzTqWR2ksMiKfXBrvuah9Rrkihz1R/2z+Id2xMpYjruHBq29UPcMeJCjXlM5+iGLdjqYzXj6Mdn7f/69pXsnouU1ndJ5Y7cNTprYPNCOmdKvB9yLg2/0Y71p1eJrZ+gme26ZXV/UwOKpHHyb9N76E5nLzsO1p75NqhOPy+QkH7XtMgsCYuTZE9YD1iPP/FCQTD/wVQaaDgoPEtulyg5Fxw85LFB23MHiRAliLcQXHfgKyG61XJBjI2qsGRQxlqrv9LKwKHdmeMQaJF8NAViZ7e0d9hwNhT8yNmbWURNLQVnxcn6s/qXTxqfD6Oj79wzZwAOiYjEVVh6DFeqNKVAGLL6NIIOeLvviR8hBstSnWYFaT7Foh/qjP82pGwMcBlocT545a/GCkGNWokZO04tsWa3OiamdvQCr7+X/j3Re/sbsqonNAu0Ya7EeilYkg0l0Xz3UG8ign7YFQRpKLTLa80452v+PM4edhXJ1Wnqf/lVpnXzWnjFBiGxSziIcyA7FiaKjgTBNFhakWRHaEJhyxcrkhxxkx+Ia215OGw/TbFiNNDizIHnZ3yzIXiXVbGpW44FAsUC4ZmoQ5U2cix9a1nhZ/k9jZboQhX1S72HZNlGLkfFxm6ZmypyyosMy0uX546kzw4skN2yWng9KqL9xrTPKnhkDLDrqFgXg33Ws2vNM6on6pF6pX+qZAQ/PjVm808cHyjV8FnbRnhgQMaAyq1VlqVfIkHqmvpHjObjtyPTYA7L7ff/dM7EDMfUDf1cWbrrddFITFw7CeqQP0JdWglmR2fm2QHfPbhnau/Ne+Qjs7r5P2lpGTOFhPbADChakPYNURRebUkNqrEBletWeJ6nfPrUyUXb8kMOSxPJAwQZJ8twRxVr8CgjkyzMsXjpHUbKPJ+FgudIY7blXtlCB6bkWVfg01thkG8v2tFqazQU7OSAfng1SRnTmsCIpfzouFjv1Rz0Oar3wLJfnvQyGmBpi8RqDJIjTP4OUfQVE70FukB/1CZHihylS3oel3m22wRbt+FdZ8MdA67TGF18Bod7tWbPWPWHEV2baRx+U7ud+T8oTO3fAs++qq6S737/V2sTWo97UagqbOlX9g5+Ynk2naelvIb+tCBLlXxp8jUwd/KXMZWehtWVKeo69R9qnn1YFyHO+drMGsAJQeuxow3MplB4KEgJjWgwSY09OSJAfcvE1D5RnPTm+NI8cCzQgUpb9Ew/EyBGi5D4yWCnUDRYL/rFUAI0Q64gwz+o9pgCbcHI8cvykDSwgQ36UFZ26XG4xouMrLAxqmA2w1alKcJQrU+sLWu7UA4MW6oFr6pkVp1h/NvWuR+oGkkMOYiR86tIGO9kKWLNIs3onPl9U5V+LsdXKWtfs0OR7ss6LHFJivOdYlpOdh9a/8dPScfX1VpZNbD5ox8VpU+MBFGACX3TjC284cp8ffkEcAXUX8tuuFsvte6Xa+xod4V6RuewsDJa/IO1yzJQVVQzBxfuPLDXEWsO6oGEx8kcBomA5Morih38sTqzHWjl/hxIFThjIQbxYHmxMgEKNjQVQ0DQ6ZJh2Q6kz5WcLelRBo+hpiIzWrOFquEzbvnDiFNnY0Th+6ow926UuomNTVkyz+nRrm4wqeVKWlCnWHGVOfVKO9k6klisDHGSZKo+9VJkuRUY1gNUNgyHk0Acs0EIm5LDoIUyrd/2HP85RHizi4dUhVrNClMi0jjwoHYc/LdWN/wb7RYHyK9uk9xUvkZa+pvW4dfANALTZL06b0j4hTXRVIAiRdh7kB+I8jinZWr/LzrcNyGhr7zXSes1PZi47C+1to7Jn5velY/orVsEoRfZFpf7zaVNVsKpUUbQQI2WWfpUDiwWrAqsRoqUBstwfRaglbIo5LAum+Jhy4ysgNC7IkoYJWTJag2wJH8sU0gQ8D4sH6Ch+fkHYkEO887cTcfjYCVvYBDlSD5RRECSWIJY6ZR9f16Au+OGPXZB4zYJt/thyDnnq01Y365FnxFF3rDpmMMPMgYqaG4MipmlDDhAfAyUGNSarBMk0LtPryHAErHZdeOqwlL/2tF3vRLS//oekfWi/9YkmtgYUNW0/jgE/92v6D3B//gPonKL1mcpxvu0IEpQ7d0nLZd8qp3p+JHPZWeid+YKUZ56yUT1DK5SYNgtTdJAT1iBWHZaET7Gyz2r+VQ6m0LBEaCCQHNvVYZVwPT45uShHmChMszi0oaEYSkqWuBOmNzafMsTygKxjwRCWJw0xplijEWPxHsOCyr4/uJPAKx3HTp7JrG+3sKmPgBWnXqZf1/DyZJ/VWZOhfnkGTP0BI1oNh8FRTJm6Ba9dX8ODCPGr1exu2IrZfr78nAAZILVYvTPFSn3RHmgX1BdtqfOpR6X17gelerxW4ewEVLVsRl//bum87h1Sbm9uCnC+4O03QPuPvuN6iPaMPsuBvvKzIEq3Rr390863JUGCatseqRz4sexq5wGSbJ9+WCt+wUb3TLnxbAlFScV3d3U5OWpDqIFe4uTTbNlXOVQWpW1TcxmYcsvanTVDSC+UOZYp8REvC3einWb63cARhe6NNleqpAcCP3bytFqUO2fRDhY908s2qAFaRzFlxCCCcoHsfLrTkZZnfpLCSS47tTDjlGfB9iFlrSsnwTwAE9Ef9UN8IBSJh+OnXLDFIZZnyzOPScezj2XuOwulllbpftf3SHufb8DQxPlDqksCkF5aL0GUONWSai3ws20JkhHv0K79Mtz1Lu3GO2+59e75T8jQ+J9K6/Tz1miY6qRhoPxQjuyywvQpKxxRcJAZ1gXER9nVfJVDlaQ/l5yzBTc8m2JRCPfY1oznj8iZ5aJxuSXpCh5rEssFoOCxNmiZrdow8UOaaKT8kOXLEmB0fFyOnjxl07jbGeR/eGzCFuXEQhkrO60PyoNzCJJntjYFqu4MVPBLeXr9YeH7l1PwQ32YUtB/WJRMldvnsPQelnu8F4v1R3swa1Utf1cu/lUOtpvjiBtfAWHAA6hL4gk5Zg6qTz0m5Reet/s7DdX2Dpl/+TfKZQf3a3lsW3V60SAGhNGPgOu9zCLUdu1wf2FRUndxnstuY4IElfKAjB34FzI9t08LaOc13u7xu6Rj9HOq8njG5EqzQxUmjQWLkGdTgHNIEYW40lc5VNiec+GHnVOM1PSHnJGhyqGQiROljT+T0wZHfEa6GgaK3L/+UDYCiMbM0RSvNlamHI8cO2mvp0TD306gnHg/9PkXjtuiHMox7dicA9ypGzox5RblxysXlCdlzF6pEGXspRoECIFRX4RBfVldKDjyXNg3mPcwmGFgAGN1hrzGQT1wZBq3KMdWhjyjbP/KF6Tz6w/b/Z2GUnevtP7AT6BhM5cmzifQHQH6CWojjuEG6FvunusVn1rNLhRGqNn5tgQK5cD+AzLe+m6plroy152D7s6T0lN+QlrnT1nDwUpkIQwWAO9CMsVKg+A1DrNO1J0pVRoNShNrATkUIQqa5140Gl4XwIJBedoSf/WTy/nXPCBD4pmb9/chUeTE16/xhrLmvilylUGWsLmHlWTTinrOFnjPHjlmL8NzvR1AXiEaXnt54pnntVz8tQs6bbzvSFlQBq2tvgAHC45yobyx0GO6m+e7sVjGXs3QuqCsGayweTh1wY/3FFM5jkasWqbIxZQ4JAn5aXLMD/qCjQBoN0U5pmfnjjwv82d25srjUgfbyb1YLtm3J6svX1RFHVDW1Al1ys/Os3vhF7AuAIQ7OitkXd7dIlyGTosySXwcQSO5QMhuV9CPAm4Rer+ieLjH7bAUo7xDxsm1Vr7l//mHP/dPs+sNAyNMQIc738BCaTv4BpFj75FyZUSv8wLYCahOnJa5mQ6Z6HyxXXd1+tcZUHTUEw2Epf9Ye1zbqkbtXFyjaCHN2BmHZ4MoY7Y0Gxro16bkX5EIq4MOiwXDtCtEyUIOpmop8ZHRCSNl4uOcDgwxE66O21SuwxoyipcGy5EGzKsNEAgrW9lQnThQIKEQLjaQN6ao2V/1uSNHLR9sHwf5xUbk9qUOdaffYmVTB5Q7BQnRQWK85kEdUr5Y2Ljxcj9liOVP30OOMKgLG6TokUU2yDHw6OPdSS1PFl4RDlYi9Qh8xmDWBkJWj9o2CBs5vuZC/VWnT8jgh94jXU981WS2Jbq1remv2jsg1X4lwv5Badu1W9qHdkvHDTfL7v/3V6ws+LFhA4M+vnADGMzwKAFS8pXGPsjk0US/9inqaEj7BJY+9YN7j/YJaxPqnzqB3Owj2Nrce7t8UEn5U5ds1kEdR3woePwiX5RjlTp9b0jTSHx0n0h3+sOdNnOxgvKhnQLPj+uJIEHu4Q7CLZXhPGRwK504s/EvLfESMWB0e6Hg7F/9XRlq/QttsDtvh4+RrnfKoe6fldlq7+IuKlgMZ86O2lZlgO3IsAxRhLEbC/VI40B5o4TpzDQayIsjL/bHVmX4o1mxsIZnj3ziCjnCghiJk23K9mRfEKmNz1dVEh/P1SqVBVXcrRIbc9OQ43jpgX2yf/eQEUY05IsFpB9yZJXusROnluQtEO87xmpTBhIQlStFdjPy8meKljrkM1QUhYWj8mw1h7JELuolyJEt46L+mN61r7LoOXur2mscELFiesY/f8Z9FDmbFuzVukM29tHte/w/SvnjD0n18Paw7A1dWoatfVo+PnvS8moltoM6ANz3LTKz+/W2BR9tkMHFdgQDshq9rQ1oyUK+bQD6G2QYljxZTNWJrZ9gRf5OIUhQfvD1Up54SM+2X4WvhNHON8vhgX8l5Ra+Gdhue3nuyzatxjpjNIoVMqLEhXJmIQ/TaihWCI5pUEgNQmWzcjYf57uSKGhGsG5BLpXjSJjs3xqNcEl8SpK0GdoL8bDwJMiRT2RNqWXUpaNg3FDQ+/fslkv27V6c8r0YQIdkperhYye1HEeNoCBC8kTeyGM9kgRMTTPYsGeOc3P2/iObzrPhfNQhgxX7CocSKQMWrMSQg/TY+HzXkFr9Wn4mp4MMBkHEyC5G+McfswskA4sGWP0pOe4Z0oGNFvWJk2esDZzV+AZ/599Lx7OPm7+LGlgUSoilVrW8vqNDRm7+F7J7/zVy+SV7FwcMOxU2CLuI90lmwE1fC6uxEdA7DNaL2FEE+fyhZ+TA8R+V7tn7M5edg6nZvXKy8q0yec1PG+lANFh0EBcKlk4A0UFasBjTqYyw0qk5t1Ryq8f2ctX7TOnhhnK1j+gqwaFlUzmwSKzEN6zxqT+bjs/iY0EJ25lxn445M13bfkg31kvEv1eV/MF9e4woL2RgnR05fkqJcczSnhJhER2aR8oQUqJseA7CAhzIz8tzyjYdT+vBBxz+5Q0Lm/JUfyGHH6bLIWjIDYvArHm1JkkT9cD0Kum0+ssGPPyYccCCZEs7SJWvxYCu//or0vr8UzyoseuLFaV9ZWl917XS86pflcsO7BFRkqyWmZ1YWanuFBTbKx/wZpr2YgM6z7uHr3UI63E57CiCZFqx/dFvlfLo5zKXnQNW8Y63vUYO7fk1G1FBNhAgzyVYLIIFwRQbU6n2/KLTn3lhsWCVsDk2wC9TbbHROc9JeIbJohzIFeuRZ5O4I4elSKNkG7ldA/0W32kNo1fjg1jtaxUtrRbfVDY9yzlEgHKmc05nRBmkgHWFPwJmGgzLCqLk1ZMLCeSN1zcgnnjOwY92SPlA9jx/JH/UB9Yk17bLkZYlz/7onGwMwIDBSFKJblyv2fz91Fkd4DDtqeWAJQ7R+TNK30+XukAR8OyWcoPoRsecJKPuCZdnusRJvfM6CM+Q8Ysljz/uDQ74VCzhMDW7+7/9M2k7enG+2lG+vkXa3vR66b/lx2TPHh28dbdJqWPI8t/EymDQxj/AI4N4bn2hAKuRto2+aARtxvy19p0SZVF2RxEkmDj9Nek6/A+lfeLzmcvOwfTCPjle+W6ZvOLHTCHzqSusO5QoyhzLgY/qolhtyzlViCyiwZ3+gKLnGQyLDmhIft1tCta+84hiNmtSG5aOvnlVAPl4jgWRRnw0Qp6xsZcne4DSySCOnq4uG7mjuC3+bFoVQB6s8owRLV8FITKeyfV0ddvCoQElbYjkfIIR9gtKjDyPZYABiZNmI3WFlY/2P9xiqpUj06QMROicWHK8QkHZMs2HDNv4MW1K/ujUlClEizXO80bKHuXFYh0b5KgcO+wsaF1BfJR3LHQiLj6UjBuDI8ra5XSwYiuSa+OjvqgL0PY//420PfO4lOYunm8+lm9vlZmXvEv2XP9m2X/pLikxWOvatyoroonGoG/GM0pmOM6Xzvf+5WTHeRAcbtafVKeEHqGvBcIv+qyu7E4jSJTwzAO/IJ1jf6gKZWft+VmptMp4+TY5fOA3TWkri5mlwnQeypUfI0LIEOtFW4qtrOMfihJFCjky3YZyjUbF9CgKHYUMIaCkIVWOLPSAJHkeyRHyRUkjgywykCOEuPiyu/pDobPYBAIGhANZ0BkhBeuYSYO3/Gg6ucfqvX17dtlHoLcCpGNUBxhYb2eHR0xR8HJ9pC86HOnkB8lz5Bkj5zyDpEzJP3WA9Yx1DSlhhUNe5I9yYjoZWQYnWNipHNY/r14wuOE1DwiU+uA+8lFfrEKmfqh73KgT/CC3JD6th5jy5bURnl9e+d/+qbSN5h9QvpDBBuLdd/6oDL7oVmndc7l09O7TfOzs54qbBfr7vA6q6MPnY4OPlNwCuGkPRJVl5w7SSv8KFIkxptd3HEGCmVNflbYjv6xW5Mczl52DhXK/jHa+XY72/3+qPBfsvUQeUIfyBaxkwwJBEaNAIUvu23J0tXBiowDIy6zNhBwZgITFA9FBqoTHOSSJHMocEiEcplNpmPyz547qF3ksGd6hNALPpg/xx7QkRxo0SpwjRBSN24nAP7dFOKC/r88IgGesGzWNBvnQvrESeeWCXYSwECGYAK9r4EY5FtNpr3JonkdGx2TX0MBiudgKYu24kDwDCqw48kEZc05Ytum4uuHeSI4ODhlyH+CXusIaxA0/PD9m4JPKkUbeafX4KjYrgBvfpmxjFP67vy59Tzwk5fkL2HpUvcfq096X/bT033RAOg6+VIlxjxF/E5sP2jr9m4E1g7aNhA863SIkHn70iRTe53g3NHNQFOVA9MUi/L6T6o4kSKvAr/0zaT31W6pcdt43CGfLl8jDA3+hCsPfd7TVlKoc7bmYKXpVkqp0aUC2243+gyTxg6K151WqfJGF+IpydAw2ska5YiWZtajnEDCyEBWNmvCQx1rSWrFOBSGiyIgX/3QwrFbiYlRKmNyHBFMQXpARnYEX7OeyKUDe/WSFGmnr1nOOEClkyVQwIMziYh/ab0wfYUmTxxlNI1YfRD0z6xYapB7WICuE55XYYwUq6VzsiHrECqb9eblMW7rIGxYhz1ApA8ozJStGu5zj7l/XYBrU6wGS86+qKMlRR1ruqVyUL2WIhQvpIQOxR50Spz3v1HRFO6AcSTuyvBvbVlL/R94nLf/j09qAzv/7zXXRpYOC2wek55Yfkb5beqXzijdKZ3e/lflGgHKiXQ5PlOXQqfpW6NePVuXgLpFToyJ9XXlRqfEt46oOd/WKHFXj+6p9Ik+8UJUXXV6WJ45U7fqFMyI8Eh2dFNHqMyDfq+r0zLjIgSGR506IXH+wJI8eqsiNl5bkWb2O+Pq7GdxaM9M61PabxHf9JfXL4MDAhAz2VK3t0S82EvQcBsEcabe0x3NFSm6ccxnWXoD2XyTNVA64bE6u6K7UoiQM/O5IggSzx++Rlhd+VTqmPpa57BwslHrkaPv3yejQT6iC5mV9/15kSnIobrMsUf5KJChKrCPqlnq1l5qV6LBGbKpOyQmrinMaLIraLRMW7rhVhRUIKbC6EqKqJVVvtDRY27lH44QEWKDC+5JYSICpV8gsVrMCjjRmGjVyEGVYkgAyCjfyQkfgWSvH6DCk2V6sTsDzuzQO8keZkFfCQ7YYXxoXR+Q4J1/kFcI1RaSyLEoCXi6sOq2axW3kSLmoloSsKDPixh/xU1fklVXB+/fuEtt0HGsykTNyhLAzMiVuf6bpq1QpTzYDoE6pS/zU1qEPOCiv8YkJ6VhQMv6jvy+VR7VMfeb4gkLL3gPS/Y53Sf/te6Trmr+2ZLCzVlD3zxwvy+RMWY6pihye8AUczBSMTZXk+Eh9Mnn+ZFX2DpTUv/aPDj4jR9tkpxy+oVmVge6SkllVLtlVkufU7zX79XhCSXV3SU6OVJWsSkpsPCrw8OYWRLo1nBENb09/ScmuKlfsLckzx6py5b6Skury8fVrfKfHqnL5nloSCezpnVYC1nan5UWfH+xR0hzUvtA2L5cM+tT7uZYlQE/QvtEntMW1YpGwyFwDEI3g55oAAMYXSURBVG5KcvVAf9T/VkacB0EGqUY84WfHEiSYPvoXUj7yn3bkax+qRuXZ1l+Syv636sjWt36bVQUQCpYGgvVBg0NholxZ7MGzR2CLerSeeQYGgZmC1k6QkiTKHHeea9IYmd5jmo/dP5BNrSTi8warVqsOg7FQmUYMUiY+Gi4dlnDVt8WDTBBRPFcoEhZynONGfNrsTR5wLzoHcgCZlOys42j41jlJqMLk9ByyLsbnMsTlskynkue8PLG42d+U3W982pMjHdzLha3c/EsqRLdUjjL1ETkrTbEMbQcjLX+UXEqOEBzExzllTziQMItzYstAyg7rEwKg/nyzc19tS5wzZ05J2xc+IR0f/1PL+4WEyoHLpO3Wl8ueG26Unrd+67pWMpvi1rKjHI+O9BhxjU3MyFPHdXAyo6SkJARB7gQMqcV5YEj7mRLkQSVInkH36g8yPjgwKUMD3dbm1wvKeV77Www0GyH6ZCCIy/pgAxQJkn6Ad2Ro4wFO0TMcY9ONQDGebb/V3HKYKl8u1dmT0jm581a00jpaRp+U0f63SVtHn7QmZEOD8XOf1qOxUJeQHUfcaEiQgS3iUb/IMBULEdC2UMwQERZLTNvxQyGzcpUpP5psGh8/5JgGpHHjhw5FvMSHAnfL1nfaMRkNgzi8Q+VWJGESdpAdfqOjWFqzjhMdAX/A0qDnQXoernYg5C2PuRwv3UeYIcMRN582Jj3Eq2nJ/JJ+pp1wx4/n08uF/Ea5oDxQRJFuBga48RUW7jOQiRWvbBWHkufbnLhDqMRDWTJi11t67eXKIIeBB/kiLuQIF7+ERR448rOBiGZ47vhR6f2D39BYLxyUdunA48ZrpPP13yED3/79cuCOV9qAaS0YnxJ59kTFCPCeJ6bla8/NyBceb5ePP1CRh54r25QnU5fT2RfIdgKYoiXPR8+W5Ymj7fK1Q2V58NmqnFar99TIpJwc1UHrrDaKKu2VZ/5rI0sGvvAD097Wz2mcdbDY7zJEm0xB3wDhHv0/rr3vZX01iwY/eThuTeIG8O+6wa8Jf0cTpE0lVs+KTH5dyvMnM9edAfak7ewYltm2a6XaeZU2FbdAUNooZhoKP6wZiAKrg4bEdB8NCGuE6VPIa3bWn7P53p8VDUMVsB4Jjw7EaxxMs+JXPTphahtBkROmdZgsPv8qBWTszwlpqyhv4rX6ygjIplnVn3eSjMw1HBYSQRSQIuGF5Qg4hn+O0cHoVPyC5AD3iCf8pEf8ciQ84ggZznFXSbtHh2NKjjyiGEgzspE/wo/yDGvOCJQyV79hiTtR+giZvT19784e92fhsngJ67UlIzUnaIiPOqGeAOXO80eOTOlSTkxnQ752X+uL+PkBsx7PKks8fK90Pnnh7LdavuIa6f6mW2XwW98te1/zbbaad7WgfM6OL8jzp8py/9MV+dRDFXngmap84sEWefRIhxwb1vbgVd1EBtrecS2Xx17okHufhDyrMjI2KaNTZSVL+qj2vRafTVkt6NP2PF7Paf9FoqQvBbzvQWx+ncJJLb9BHwnZ1D09J7444h5E6uSKrMdHvDt6ihVglVRe+ANpf+4faqVt728PNsITu94vc23XqIL1Z4+QmT0n1Hqkwdk0Z7YCFOVuz686252I9L4pfvVPI4P0UOC2D6g2PBRx7LnqspP2XiTESdlDtGZJaWPEIkNZ8yyNBS/s88oKVt6dRLGxGMWmabFCVd4I11qvN3D2D/Wvh/RYGlDwrL4kfogyiAwiNCLTH52JuADndBLeEeXl/XY2Edd7TnaeP35BuoQTq2pLZR8Zk0fy7OlkStOfpfJMFsKiXOiQ5Jsy5T5bvZFHygOSo8zpOwwISLNbeEremgYIjnRHPbCrTipHh/dpU39Vh/qBEJmKJZyIj02xmQamXtL4zJpV0iQOplrnn/iq9P33f2Hlc75RGtTBwq4rpOfbf1R2v+5Na5pOZcr5+HBJXjg9I08drcj9z3TKU8c2XPXtOFy1rySvuG5Orj8osn+oQw4M8ujDB1irhfUZbX+0z3qIdk0/A7RNkF7HeRGpLH0YBIF6OD5rQv8JpDI72oIEFNb8xJjMnHpSOlsOZa47Cyerd0q1/RKZnPHRV3ubv4ReWeBjyb5wBdKEyNgHlC3KWP3JCJBngwCljFaGDGhgNHpkaWRmrag7zyvtRfWMcJDFnfaCW5sSNFYnceMP0nRyW7CX7/laAuFhfUE4NHBWlUIApIU4jRz1yHuJEDwkApHF80qeB3KMzhKdi3yzEQHudJi0Q3lHSv26JcqRMmHUGV/XSL+SAdmQH0CaCZe0peWCDGmD8H17Of8qB7I8a8Q6hJApCwhBxSyfrHq1HXE0jQwiSAekS7r4MgoyYU0TFv547og/wqFMqEuLT9MBUaZf87DNG0ZGZOGpx6XrsQfM7XyismuvdL35oAz9wN+TPbe9YdULR8amqnJ6TOSpI6PyB59ZkD/5Uoc8crhVrcjMQxPnBJ7NPnKoLHc9Upbnjs/K3j6+BtSugysfOK8GtH36P/0++lqKlBwBfvBlFqie00+D9AK4e1/NZTnGeSrHL/yDGpmdbkEu4vSHpPzYD2mhX/ikvhl4buDXZaLzlWo1sWtKPppCYfJjcQ4WHo2JhsUuPENqvfD8D8WOIkfZsyKW9/WwoCAulHbsxZrKseVZWysyXUa+gLAZRbI9nU2FKdmwlRovp3ME7B0aFilNmPBR/lib2qzNUoB4IfHoAPW+OpLC3LRDYPHSOULOpl702jqPe118AdosLR0UYA3XylRsZ5uBfjZDcOsYsqEvEA7klJYLcfBhaMjOBw7eUSFArrE4AQtIyBt9i29j9qn1iaXLnqpY8x1KGKzMRU4zYnmFBLEgqT/SiZXPVoGUTaSV56qky7YL1LRCrpTIwtyUVL/yeen8vf9h8Z9X9PbL7E/+vNzwmm+wAdBqwGBkYqYsH7xnQT7xYKVJiFuIg0ML8lNvm5BL9+22FbIQ4GpA32fQBho9m1wJiMFtDKqJN4huJaBv0ClF7HgLMjAzckomnntAR/cnMpedhYXjz8hsx41S6r5UlfmM1V1YgjzjwSI5m21pBmGFQocMUNqQFkqXumfkyFQqsovkqC03lWMqFYsFGZ5ExPtSkKP5V+WNldit4dpUmjb002d8KzYUOR0JMiFe0gnJQlTEa+RIfKfOGmnjBysL4sdaQo608QwPcjArU+/FrjS8PkGeIHPyA5nTz5h6pMNB/liIpB3LESvslH3VpMvyyLQnBIp1DEmG9Ue6Y8AR5QJaNOyzo/5NTtJA2PYKjRIwHZ0f9cFGC3R60mbTxCqLP0iYzebJA9eQHJYy+UU9LCz4FBZWF2VNXPjL8+dx8+MdTraUazn1Rel55Lek+tzal+RvJEotav3/8m/Ija+8c3HgvRxQkJT3E8+9IL/wB+1y/9O8y5vdbGJLMDZdlk99tUP+8v4Fue3y0/ZYwKyy7H4j0J9oo7ZmgRmpBPQBhrYp4dGPfTo0J2B//OFWYeoXf/R10lEPKYkTF7I2gGxakBmqWgFn/0paH/vOzGFngc3MDw39Bxnv/CZTrihgWAEljUKPjcNpOBz5ggRKHjLEDcJCsXOPlZQQqTVWDYfPZGEBpnIoZYiLsG06UpU5lou2ebPMnJQXzOLhk05YWbhBPJAI7Rzy8ylTy4GlAyuLtCzGB2EN5ekkLYQRlhl5hJwhsvQrGcgNaTptVSkRqDsRYUFySacHEZ9NO2eybOYNmREP10xt8k5oTAMzCCBvJqcDBgtfgTybwDPFHQMOlAKAnEknRIscaSWN8bkrwjg7wjSvv88aCoI6oD9yxOJM4+Kc8jXyVqWE9YlcBwPcL31aOt/3P1WzmPfzgpLW7Yv+4CNS7h/U8stnNRqBMj18YlQ+/UiffOKBBVtt6blt4nyho60qb3pJi7z5pVNy6R4+brByPQJrm9rP61mSEBfOq7FM/XEJhOn9yGV97QGkie4JOLn6au5AkyATTE+NyplnPyhXnP2pzGVn4fTEHXJmz0+K7HmV8AVyGhPK06cEZ2zaML7mQeOCbPiih+20okoVC8Qak/6hQdI4WcSC4ppWYsjl+LRWl1k+NNa0QQLcFpQpsc4G+/usI4QcFmQ820AuFhRBRj6V6At0kOXjzMhBTrb/qLZLOgQkx3QkacQywyKEuLAkmf7lW5lsfI7fkON1CeKwdzO1XTOty8YChMXXREgLcsRJ+mN7PN7ppNOxwQG55B7pw5I1Of0XX+XAGkcGJcLUJ9YwU9hM8zIFxEIb4kFpQLYTen9KrWwbcCi5Uf5YqXrbeDXiQxlwpD4hUUg5BiogLEjohDrrOPt56fj8H0v1rvO332rr4C657td/T9r3HaCiM9fGODFSlQ98aUG+8JgT41TTarxg0NXOryp33tAi77qzRQ7uWrk+Ae11WNsmfa0esCBZNZ8+EiqCvtCo+Vg/sTbvREkfKeqiJkEmoEIWRh+SrkfekLnsLCwsdMjRwX8iY73vsBE7Kyd5LoBFh+KGVCCU4lc5OMbXPEwR688Ja8bIx8JWP7hBsDYtqNYBlhUKnThomJDCvBIBJASBIEv49tURtQKxTG2DApWHtJlSRJ70cc3UTJe2PSch/7QTcpBVkAeERlxOCP6MFcLCIoyOEnmEnFkOAHGSN6ZM8c9zPdo4BEu8YfEuymXWNkROJ6YftGo+iJe8Yh2y2jeVo2wYSHj++Di0f7Wf9xdJJwuCIHoGBJQLg5OhgV4rV1/humDpJF+EB4FGfFZGKsfgwhYwUe5YqT09lgf8GBFrRJR76Ysfkv5P/LFebLhqWBG839j55ivl8m/+N9J59XWZa2NQHrzD+P4vdcvZca2ri0vl7Cj0KC0M9ZbkO189L6+60bd+XAn0SRbc0UbrgX4Gou8G6EvoDvoA9ziGFVlESowhR7/FrfkMMoEVYmuPTLdeL+0jH8pcdw7KZVWmlWdlvrxLxqtXWCOhEdMGIQZ7XqWWCgteICcsHKZimf6DPHmmiDsNleZW0UaNAp9UK4pnC0yNMi1KmNZwVanzaoZtSafkg+XJ9KCRSJcvxAE8Q0MRxopM4mDkyDNKDcjijTYHGSE3Nj5lpE5aGGFCRsghz494IEZIlQ7CIhh2roFMISjkIBxedSA8wmf7MQYDTGPS6QgTy5Bw6XxMfSKLBYgsBEm5YQFa/hSWP+LN5LgHqXI/X9XbZvfa2z2tlDHpwRKMuCgTwNQwK2RrPjem9QZxAxsIaGXwKgtulD+ypJNXYNgjl7LFjXJoveez0vlXH5Xy6NZvHVPaW5but90kl777H0vXpTdlro3x9LGqfPDeinziwbIcOVOyfUubuHChYzPbZ/b5U1j8ZentKsnuvvqkFaCt8/iFr4SgjwJuPfrsCLokfvSt1A1w8J9fI+cE6EYR/gMhF/5XnsTdaWjplfLg69W0v1YL0gt0J6Fj/impzhw2koKEaEAoYBQ3DQaFyxQjbAZh0YBRyhDhvCpZBkXx0jrWHM8IISFaHMoZwsDChAwgVZ63QSiQFbLEEyQAcRAnyhxZPn8FofAAX5uwuZnlpWllShgiQx7riVcpLJ0aF89RIQ+ImBf38Y8cRALpIRNyHCFy7kOEMQti+7Kq/66OIMdpSyPlQ/iaQY0T8lei03SyklSDs2lkwoz8YXn6XqmsLiUfTmKQK36RZ4UrZcTXVpAjvcRPGTPVG2ViG8BreFwTB8oB65ZwcGf7OKafkSUO0huyDBqs/tRyZCOB9ja+xjIvleNHpfXM1i9UK+0vS8+bb5UDb/sH0rX3lsy1PmhDjz4/Kx/7yoLc9YjIC2dX91yriQsDL5zhtZCqfPT+ijxxZOVFYOgSPrBOnwzQt2jLgTgPsuOafhrWYZBiIPqCbwzAINwt1AjHZZQ87aqJRVAwrXxd/Iaf11Jc29ZV2wWDs5+UXfOfU6Ly1y6wriAtpidZIYkChgQgNqwoGhmbI8eX6FtbfRMAsw71HuQFUWHBQGKUcVhGtuJSj0xrcA+CQNkDSASLFWWO8sY/JEa8kAPpwArFKiN9dADipzPgn/sgiNMW6ug9CI0OgVuQZJ4/HQgo+TMNSbogf/LAfaZbkSMc/PGz9Gj4DBhIB0euISjyT3djWpN0MVjgR3iQYHR40ooMAwk6LmFA7uSfcmF6lfgBW8WRThQB1iPp45r75JepWeoMgkVBaFBW9jba1rSSL8qTcsVS9T1dUSQVaXvwbmn7+sMWz1aidImS45teJvve+uPSc8nLM9f6YGD1yQdn5Q/vqsqXv17ZMXukbjdgSd73ZEXe89kF+ci9sys+jqOvMGCNPhNERtsN0N69/zjCD+CcS/pBkCYI/6lf7w/up0mQdVBq1VH+le+UU30/KZXS6t672k7oW3hYBkf/TNpGHzQCYdNt2g9WG/t+QlC4aRsyRc09m+ZUBc2UJP6w8qzx6r0Y1fkzOZS2LxiBcNxC0nOLh31B/dUSZCAZZFyWxSk03Hx6hdc0bBGM+sG/WV6QgiYINywu4P59dSxWJOnEEoVE+AdxRDrpFG5h8YV9n66F+OhIEApkbySpJEM6Iz2AOCErygIijGcgkX9ICKIknQB/+EeOKWjcSTPES7yWuiyv/IgzvmYCIj5W3+E35CxO/XFk9G1Ern65F7JcsyGBitkgo3z6bul69GPSfvR5u7+V6LnxNtn75h+S3ktflbnUB9bGh+6tykfuL8tDz5Wa7zZe5BhRkmSbvw/cU5FPPODPxpdDOySp/SRI0qEdN4M2d0OQZliJ0T85d4RF6f4A/SG9BtaPsvMmiii1ysLBvyfVlt7MYWeha/YB6Z76nJ75VzPi+RWEQOPifHH0pT+IDWVMK8Uv1qftGGP3M396D3mAUmfhCIRBHBAD1g+/IATCJB4sJY7I87wT6xQQFkofK8oIVx04hzRZyMM1YPs5LCXkjGS0k5EqFsqY5QXx6TnuZtnpNQRj4ll+QXQvv3J3fqzUhXx55skiIyNqTY91yBBSZMGYe5uWD+myRUnt2XNAOrL+j2lSFAFTwqTN4tIw6exY3Wl8KA38MIImyiwSixr/hMuiK442bazlyTNefDDFTV5bH7lPWl541mW3ED233CZ73vQ3pO/yb8xc6uPJoxBjRX9tcuRMqiCbuNjBxugfuq9FPvXgnK1aXQ48KgmSNAJTHUS/or/lA1E7WNuPvhsImRRBjOGVcDhHtkmQDUBB7tk1JOPdb7Ov8O808CHp/pb7pWfufmsoWGtaJGY9shk5ypb2hFLmmRDP5FDSc5k/lLj5UU9M+QFIEeLEg5OUW1EoamSwuAiVVaxYoDOz/rIwJAohQH6+ytVfD4HcIEjiIV0of0ga/6SJXVc48tyQuEMOoqRTEJ8tvsnSTmKxaD1O9j916xhShUTCIsUK4xp3wsCqCzmIOcgaooTwIVBkbJpW3fGDLN00iJznt3xIOvJKuZpFqIqAMiGexWlTvc7LxDd6J/3Ey30WL5En/IQMcWDxIsOzT8KgrCiL1rGvSenx41I9WTuC3mx03/wS2fu9Pyz9r/6mzKU+njlelQ/dsyD3fr0ioztzu+Rtj5OjLfIX97bLJ77CXrm1pFZESpIO1zMB+gqgzYMgxLjO3YMI7XJRzpH5sb9NNMTY/l+UqeoNqnx23qi1Z/Ye6R97j62AZCEHDQvCASh/LLWwKmmsEApKFyKLZ4NMZXIN00B8WJeEU1V6gBwgIMIkDEiTeJjCROGbZaRKnZfuOUJyWKVMOyID8aLgfYoRKNFqo6cDEQ8wa1avsZggKCePGUsnliPPCSG+2B8VUgIciROCgVCQwT9hQDzESxlAjOlzU/LVxysjRsD+3JD0IEt6STeExcbwpLetjYU0Iv19vRYWhArpLZKXHilbK3f1R3nj3peRP88nIUZkKDfKGIUAIVPuHImf555RLhAxeQ1Lt/3Rv5SW089YWrcKrVffIHu+70el/1Wvy1yWgjZx6FRV/vxLC/a8sfkKx/bG2YkWed+XeuVPvrhgH5HWptkQtGU23GdgTFuG3IL4AOe4cS+uk9satl9wOyXGCCOs0SZBroADe3fLbPtbZKG0J3PZWSjNn5Hy9BNZA/Ot3QBKli3JsCxR2ihmvimJ4qdRQiRYbihgnuVBePFyPG6+FZ3vSconmyAQAKkQD4SF8udVBMDqT6xSNhRng3L8YT0iZ5alkgbTrzyDhDjiXVx7X1HTA3FCSKzI5VkgK22N6JRU/JUSn0aO+EgrpAfBsHgGUiN8iw8y1I5F58QfJMox5AiHzRMg+CgXygT/kCmLgigD8s5QwWQ1DK6ZWo0db3hGCKGTDuSYJqa8ee5IeNQFK1EpE8qDFa7kHf+sqGXxFPkLOdLFO5p8eQR0aVm0Hj8k1btHpXpi66zHyv5LpfcH/o50vuyVmctSoBz5rNL7Pr8gdz+mZVW781gT2xTa3OXLT1TkvZ9bsMHR/DLNkoFjt7ZzoN3F+miA/hU6C0B4MR0LilZmIOT8XEm2+R7kymjZ9yopj3xayrOHVOnUFuh2R2f1BempPiWjLd8gc1Ve4HeSQJFTz5AfliOKmYaFQuaDxpQSihxSQ2GPjPLive8lyruGbGdmz770mtc9UN6QHMTDM7J2JROIjDhYvcouOpAAhLVoUSloY3wei1ca2NkGQCa8SE86+QoI7qzaNJKydEPk/n4kcSBPunitpI+3mTURkA8ytthG00f4kDxToW7hztuULrM3PN/DP+nnyGbi7BREmOQFzGXlQjikn3vkzS08X9AD4UOSDC44MvbFMiTdpJVCxZKNT1WxmTth0PmZpsYC5z71EO89Eh9x4O7b45VMjjJhdW33b/97aTmyhc8ee0tS+Rs/I/tf9drFTSSKQM+dGK7KH36WnXEqWnbZjSZ2BDDuDis5stL1ij0l6e3kuWF2swAW7jHzwkDTp0yz1af0CT3mliK9yQmRn5OlP36oJwfw07QgVwGU6djMbTIzvzOtyLbJp6Tv0G9Y42EP0NPDozbSgoSwHlHsLBhxy6VDSYJ3lvz9Rv/SR9l2fXG5qhJln3SrcuR7i1g/WD4AOciCbd7a25VYdXTI807AjjO8WgIJsdQfkiE+G4xpJ+HFfKZEbZ9WbdjsoEN8uzQsGjxfvIB03JKdtmeckKxt4abEQRohR9KEHEQfe81ClEY2anGxmlb/a7wtRkJ0MMqBfIVcrxIYL97jTtmQTqxJ8kf8hBdpTeWGR3x7OtobU82UJdYy6UWONNj+sG0+jbpbzy0MTQPlTF6wdrXrWzoplwktF9JAPZGekJuZ0TI4fVoqWzyIbX/zbrnxzmtkSNtAPaDPjBzv4h3HipFlEzsTDI7+SC3JE8OsmHeiKwI9wMAvSM0G2QkYeNLmA5zjBpChr4GiXKC51dwaUH78h6R8+i/0bMOL7ILHdNuL5Oldv68tpizd3fnIn23gUPyQDY3VRmVKnvFVDgCJsE/pvr27zCpik22mWplapO0amSoxMhKEOCAGSHBI/bDx9/49u+wLG7uV9LCuQJBPtDXANCIv3PMpqK6u/GO6EZ+RaQFYVrznCfGniPhiT1Ws0tXg+KkzKudfLAGkk3gpE56dst0b6cRaxcpkMwWQyrEdHwRHuQAs6BgoMC1NHiE5vlayT8smVQD1QN1AsuSHgQ1569fBQO+//lkpnz2V+doCqNV7/W/8vnRdd2PmsBRHz1TlPZDj15rM2ITjp982Kq98UZ/NnDQC/YvNzQMQHkQICTLjw5EBPmBQSj8IciwCWV4Hs4V4zSnW1ePo/MulOn1IOuefyFx2DqqzMzJ/4ojM7PavffBZJ1aFQlC2JZsq8JhyZNUm1g6NkqlV3LFqaHhsls2G4LQRLCue0dk0phIDRMDgA9LapRYjDZrwCYcj1hzkEe4QMoMwFtpAzMhBHITDECY+d8WAkW3vfGcen26MhTYQMlO/nrYxtVr9c1dsHm7PUY2s/ZkfVmfI8VwPN8IkLxA506usw6VDslwdeU8nzyCzctH4yDd5Id8hhz/yRlicR7nwQ4Y0Ex/T1uSRMuBbmgw8mMYm7SgELEYUAOXPD0UAQWKBIw/KpaocOn5ahu77jLSoJblVGPrX/1P6r7/R6roeyNt9j5+VP/9yh1mSTTQBHni2XQ4MTMuBIQaNSwe5ADKjX/F83661fyy29+QccI4b8GlW356OxX7cs+lWVWT0o6YFuQZQkC1P/1/SevL3MpedA7bdmylfKU/v/zNrRG1KiCg6vnZBw+QXz9sgRIA/FrBABjFFQqPDqoqvgEAEEI43Wn830VeB+kd87bNOfCVjaNCenfH+IN+ItGd12lmIFzZUcXuWyC45/b3+1REWofQkz7lICx2JpLAAhjRhxRE/Lyl3d7aZdYzFe3Zk1KZ6IR1IxjuOBqLx0NWsE6kbFh0DhPjqSJpPplIhWEgVvzxXJQ0QmvlTNzol5MaiJ+LB8mUqmXwhB7FjSfKck0EIpEfe40scpJV4GUFTXgxQbFCAIolyUaXBj6koRtk97a3S8e9/XtpOH5OSym06NO0TP/PP5KXf9E3SpeVLmopAsd396LT89qfbZWyq+eSniVr0d1XlB18/L994s2/dWA/0qVPa7+uBfkK7qyVGtyKjL+dH7zeg2RLXAAhhat/PyNTAd2QuOwcsTuqQI3LVmb+lDWjeSM/IUQkAkmP0D3PwTiCNkOlSSIdpRQgAMB3LyIzpV7OuevxTWsixmITVqGyEjjxE1tbqFiPPqyDPASW+HlWwxM3KU57TQYhYc1iCvCLBwg/8Dg70GpHyCSnIimlJOgTpjJW3hMMgjqla+36jEhDPAyEcpmR5rgd5xvNN4iE+m7JUOfLIC/58rZ988S1HwACAzgbR80yVlXaQnC/umTMiYzMAyo8RMdYdpIlFSJqY0g05CJ5nsZAjhIklyQAAoiU+8kr5Us7ER/n5QAEr3le8Uj/+/HNWulqUKJ/8l9I+vEXkqMBqv+WVdyo58rmuzLGAB59tkT/4XJMcm6iP0amSfOWZNjl0uv7sA4DceCzDMUCfp//TT2LfVYAftxp9cB5ufrSDodka14j23mtkrvRSVZZ7M5edg1J1TjrmHjNS4N1A9l/FKvJnibwO4Tu6GOmoOz9em8Dqo/GhwHmmB5nwjBGlzmwDR+QgoZj+tC9NKImi8CEwSAA54qJR88oF/iFVVmQSF9OTWFeQx/j4lC2igWRp8MTDitnoMBARpES6IUBGkjElCilH3DyLYAEN5MtXBYgPedK7MD+ncfoXOcgX+SMyyAhiIl+QKvmB8HiOCDEziIBAyQdHLEbKhwEFcbHDEJYli5dYeEM+KVNLEySj8UGuxA0W49OwGMTZhuoVTzN5tvJSwrSp7DklxQ8/Kcuun99AlHp6pesf/LL0DA5aHuuBjQDuflwJf7SpjppojIefE/nL+6vy9Rd8lqYe6CMD2g/pC/ycGOOXP38E3GMwDOgjKdATJp9dN7FKUKCtB98u5f1vzVx2FsrVGbl64helND+qBMN2c/5COtMeTDei4CEqLCQaHYtQ+NHYID/8YR1iEdl7i9WKWY/IQQa8PmLklVmmhIVFFnI0attDVAGp2cIeJZOIDxn82Z6lLa1mRdozRJXjGSIyPDvFCmQbNwtX4zPC1jTizrSoqnYbBNCZfGVp2axd4kPeiFvz4CSbPf/Q8DUQs95IN20FYiRfyJJGnicCtwR9+jfi8zyy6k6MWCFYLMxYTED6yQfvkEK0PLuk4y/Gp4JMczPdCknih3JWLxquKoazp6Tzff9bqkdVQTTWMRuH7pK0fWOPXPLa10tJFVc98Mmqj35lQR58ZmsIu4mLF2Pa7e99siL3PzllfboR6DP0hZQYA5zjFohzdEAK9IxZntl1E2tA28C1Uul6mSq53ZnLzkFJ5mX3/Cel59gfisyeNSvNrClVyrH4AqKigcV+oih2JFHikAVEhIVkU6n6Y7QGIB6aK8+jcjlf9BVykAlKHzIhHqwkvtBBfFh7WGv4w+oKqxB5SAwLENLhtQg6EMcgSeKj92CtIguDWBrUmoO0iJP8EL7lT/3a9LCmGOuNMIgHEAaETwfjSCckPvJKeggPy86+cqKI+CLtkC7hWR5Vnvg8jdm+qUr8yFDePOfkyH3Kjf1dCcvip5zJo6YT63FqeFhav3afxbkVaOvfLQe+7afNKk901CJI14PPzNqL4c2vcjSxGvBu5OcfFfny1+u1qBz2HrL2N8Agl34FnDD9eWNYkugf9EcK7qu3JkGuB1bIg68S2bMzrUiwa+b9yoRn7RzFz/MuYLvaZEodgsIS8tGZv/7h51p+eqQRekNUi1IVuLratCIkwIu/kCgWEZaQT4U4KRkBafg2danx8aP9Exbkg79o8PYMTskNy5Ade5CFFPFLWukcWL64M7XJ+4p0rJCD0NzSJVRHdDLSiaPnSTta1uFs5Ek6uEfeNB7Cj/zyzxYMZXIsxGGal/zz38nPSZY85h0aefWvVre956ggDKxl8gf5YzlC7MS7KKfhlM+elvbPf8JktgKVoT2y8IbvkMHr3pG5LMU9T1blC49Wm1/laGJNOHS6Ve5+otWm5huBPpeTXhxdR9CPUtCNUzih4q59PHNrYo1o23WzVC/9fhnraLyX5HZGT9dRGZr+E2mtnHQLzZS9kl32j4ZooKHpPztVN56XQaY0YIiIrdSsIWtjhPzc4vOva7BIJcKhsRKMXeoPd8LFeoJssCQJj5f5IVmsFn/BXomDfyrDVCThQyAWqgfpceh/CI6pT6ZU3YOPIuPcDgqc7Kg3Obe0KSKtdlQnK4ks3ZAeC3wgfQKCQLGGsZIpEyQZCJBv8sKXOwIWunrIw8/jNCI0N7U8O9vNsxE17nqO1WmEf+SQ9N73GZPZCrTt3S+D7/j27Gop2OHonifm5cljTRXUxNrx9LGKfPHRORsYNkLoGPRL9BeHD8pjgBpHEOSIDL2t2TrPAfPdt8vsru/OrnYe9kz8lixMPG3P6tg6DlUd27ah/K0R6jmWEJrbpjEVEABEZM8LtSEyoqNhxjM7Gj1Knvs868MvlhQtl2eBPIfDr1li6s8sNnXDP9OMWJcAGYgS0vHNyHkVxEkS/0HOyC1+TUOJLEgSUuOa56Gknc4GSBukzKpU4o6Vrawu5WiEp72Lc0g/8kdcEBbypMcJc0EtYJ8+JX2UFVPN+McCJ178I8tgAD9Mz/IsFHCEHMkT5W2fENM0I889jjJyRqpf+4r53wpUBndJ6613yGUH9mUuS/GVJ2fl+RM+xdxEE2vFmXGeRy7IfU82bkPMpvjMU44gRvpnWJJxBLjTx2ykqRdNgjwHMOIf2H2dEuXyX0Hfzmif+oqU50+bImaqEuVtC1OUnHCDRPrsdQ52c2Glpb8nyZfxIRDICeKBDIIcmUJkAQrkwmjP/CmJ0LhnZnk3UJW/kgDX8ZyRKUzi43NYvP5BK2fbNbasg+ggNMI3P5omiCnIEaKCWOg47HTDik9AmnnXkulM8kM6wsKlEzEIIH+QnafVyR9/kKRPhfpzR9LJs0WWmkd6OPLssFauS8PrlHlNp8WXlQuk7YuGauU4Wrlo2ZM3vlxC2MgxaJmfOC6dT31W9t3zSfO/FWi58jrpePf3ZFdLcWKkKp95rE+ePZXvgtREE2vFMyda5IP3tcmxsznBFeGDYac5BpIxC4Ne8Wvc89kaG3ibF38E0iTIc8RCzytk5uAvqgKtv/HydseVs78mA1OflIXps4sWIGTC4hYsSt5LhDyY7vTPLCl3ZUTE8z9IAOWPlWekGuSo1p1t2K0CXNvrG0oO9oxQGz3EZmSRfZWDcHDneaRtUKGtnOeIkDarRWn0hAHRYpWRTsgFOeQhOY7Eh/XI0ac8+ayWpxPLFTnCJD/s4INFCqHFJ7n4WgbxQHikm/wQLulkOhWLGqtW+5+VDYOGkCMO8g3BkbYgQ36UlRG/IuQAr8NQvrhR3pQPA2ALB8I8/Zh0PvkB87sVqPb2S89V18pVl16SudQCq/ZTDy7IoS3+9mQT2xOQ48e+ogNeHajWA32N2RkAIdKnONK/0Vfoo3SKlXup1dkkyHMEhVlu2y9jC6/JXHYeeo//oXSMP2hWmH0SShU5JIQSR7FDJgP9PfbCO9OF8b4fVlYs5sG64lkmq8/cmpox0oBceMeQc8AL/7hBwFh2EAnxQWY838P6i82L2duU1zfoFLwaYQt6NA6zxpTYIBbSx4v+PNHkfUTIifiIY3Rs0l7Up45JF6SGnD/X8110erudfLFo2X0HeQYCQZLIESfpRI50k07SBcgX8dExSTdpo0yQx/rkHU+epfCOJdZnyLGTDmVIXAwEvJynjLR5rYZ3JBdmRkWeOyOV+7duKrP64tul+te+P7taiqOnJuS+J+fkdL5tZhNNrBusfr73yXk5errxax/0I/QBRAghog8C9Dv6DkcQ5/hhgNkkyA1A29BN0v/KX5aF8kDmsrMw0PeMdLYdlc7Wik3ruVU2Z7vRQH5sK8eONuCsHvuVdJi6hJAgLcgDQoBIIS3k7buR2ljZIIBNtlmMwlZzHar4mcZl2hay9d1tZm0VKHueQrrs9wpo4HuUJOkcEBFh84wSP1haxOvTv8n2bdpP9u4etC9rkG7SP6aknMphqfJsFHl226lUFixt/RoWnYsvlPDVDbMINWzyxRf+Iz5euYDQkSFf5I80km4Ij8EFFiHTt8gxWOC9r5Dj0190YHYmIi6+WEI6+9Qqh7SZMiYd7Se/IF2H/tTKYitQbWuXXfv3ybVXXJq51II03/11bQvj9d+JPJ/A6m5vrf11t6sl36blWHDXot40EB+/Lo2bX5x3tGl6OuhfahXpkXRw5JpzHa9tKSgD0kUaVptOL8+NT+vIZFk+80jj6XqsyJh9gSRTC5F+R9+JdQuc44YfOLO5F+sGgedVLzz/gFx/Yme++jE8do2cGfpJWbjk7abIA2ZZqYW0T0knUPy6Bu/y0SghBQCpYClBbihVvnTBFz14Zhio/zWP+nKnz44sxhdy9j6kEqi93qEEy56vWGT4RQak6ayRq6qcklj9r4CcsfjJM/nB+gvY9nRaHkznQuhYuMX8sXk5cliSS/KnhIu1iFwKNo7nc2IMOJjupf9jMbfd9VEZ/Pj7Ml+bj/FXfbP0/uBPyEtuvCZzqcWxU2fln7+/Sw6fvjDG5drkjBiBVom88SW16br14Gl5YaRHTk/UKl+m9e5/ytWm/dU/G6FEScsPvHZY21uXks28hTkz1yKD3TNyTNNx1Z5RefTokNx+xUn50jP75Y4rT8pXX9glEzOtakVpO9p4Vd4Qd1xXktfeOCL7+qbk8NlemZ3XgXDXrBwf7ZKrdo/JY8eG5LbLT1k6X3HVcXn4yG65ft+IHDrbI5/+aoe2gY1NKxuZ/8aP+9qAehhnkKoDzUBYjhDicmgS5AaBQqxOHZL2r7zEHXYYqtWyHO//WTnT8332nInuzupPFHVsrH3iNF/JGLJGjGXIMzqsLCxCLCMIh40H+pWUGL65lTQie3YNOnmcUaJTK8neUVRrjEU4tDH8xdQpzwK5hmh6u9oXP82FBet7nDopA6Y7mUolTMiRNPEtx5ChE9WTc7BgaNYsT+TZw3Xf7iGbYsUqRBZSZSEPzxBJ/yLZ6X2euUJoe3Y5SfJVDojPBgEUkMpzPz67Q5ny3DbkKNOTZ85anB5kvFqjfudmpfyxP5H2T/6FlGzjgK1B9zu+S/b+2M/Ynrn18L7Pz8sH76noiD9zOI+4dHdJ3nDLvNx53Vz2zdCllmELuw9pkTL9ngK36Zl5OXxqSu56tEvrT+RTD7GyOfOwTrzi+pJ872vLcvkenwoEXqPWHLQdqFLXftZS5juZcSzJX95fkQ/fW9lygvzObyjLdZfQ7vyViOXTqUd15ysyv/PpdnngudpBx7mC75y/8xVlLb9iP3XQN9AbEzyaSSzIFDz6YHYI4sQPferCGMptA9A4Km375Kk975dqqf5u89sZpVJF9k78d9k98Xs+ldjLRt2tNrVJQwM9ShYQHpZbWGY+VVo1ssKywvrkmRwLY5hKDNKAHGPKE0IyctRRIQ2f53xYajzHhJQgFaw4iI5pSAiIzcuZrowpT+JjNS1pYPNwVrvtHhxQ4u00Iofo+PJFLx9RVj9YppA5cj4V7M9JyQdf2kAWnNH46GCkg/SQLqaFIf6YQh7Ve77at2Vxw3HLp7ohh19IkM7KwIGBBuUEORIGm5sjE9PHkDhTRDyfHZ+YMD+zStxbSY6AwUDMAhSBRf1XX12w7cLOF268tCQ/9uYF+fc/UpFf+uut8vY7OuXg3l5Trt0dtdOo/FpaeC2H/YZr3ZkmHOhpkRsv65EfeH2L/OAbWuQ3fqJN/r+/pgPAvvU/721VbczzMuJkn2N+bXFUN5S2pUv95EdV4hmZbjV4l5c0rC6desSP5pEPH2w0JtU4/NRDvPhVH0Z2mo6VyBF/caQfNwlyA9HS0i4HLr/dCncnoqUyIl2nPyztxz9sqz8ndcSGoudZIUqcfVEhKhrquLpjvXGOZQXRYQ1CrlhsEAjP+SAMwCIfpiUhzlidikIGPIfESoO0UNAQ8PDYuNUDcpAJ6bDt4pSAkWOa1OPrsK+K0Bl827ayfz0EWbWE3MpcsDRyxDrjXUzCITzCjS/6g4iPdJAe0sV7jn0aFvEiR3yQKguAWJiDtYsMG5Djh+lbnndSbvZVDiVm0sqUK7vmkE4IHNKh3LAsSTflxkKgns//pXTf/zlLz1Zh7tVvkvnXvc3KrQgsq898rV2Gx/n8Wea4hXjHbWfkn3zPnPy9d7XK627pkCv3tcvu/pKSoipDbX/rAW2LjfD7ukrS312S/YMleen1u+Tnv6dT/u93jck1+xq/wL4dcM2eUdnVc+HMEGo3kJGJqvz53ezNnDkWEHqZvkN/p+/Es8cgRV8N6/fxvmzrQNHwa2J1oIA7Ovtk4urfkWqLT33tNPS0PCW9LY9k7YavZpRkTokCZYJlxLZnkCeEsKAEOaNW2LxaOowq2VMVAsLddsCp8C1EdtuZMTm+CjKvYdBoeY8SOQ3G5BYW5nV0yqhv3uNTvyFHWLY1G69caPipXMRH2pA3GfsSxoyHqeHw1Q4bYaoMlia73CBHeJY/SLMQX5oeu1Z54l3Mn/olL8TVnuUR/4SN/4ivWl2wcmASi3ypgI3UkedLKh5nHkfHiQ9L16G/kpZx//TWVmHP1dfIvmuvy65qQVP45EMlmdpag1Zuu7okf/+vtcq7Xj0ot1yp1uKukvR2+Z64mwFmC67cV5Y7buiTH/+WTvnpt0/JrZdvz8dMJ8a6ZXwmf75+IWBOuY2p5kYESf0w88TrUOgf9DVtgcVwnHPEKnZ37us5zyC5AYMCFBse+MGwgPO1YCc+g0zBqGTmrndKb9v9qkC390iyHmZbrpCptpuzq52LicmD2mm39v3Y8v1PSOnhE1Id2zpTrXxdi+z/vp+Sva/74cwlByPxZ184KT//nkGZmV+bHlkvdKwiP/j6Wbnpsi65+kCLTe+dD7Dy+Ykjc/Khe8tyz5MrL3199Y0l+Z7XtirJrq2cPnjPgj3b3cpnkN/6ikl52x2dsn9obc8S735sSt73hZI8tYlbDP76356XA7u6jOSKoE6YgUrBIxj8xtGmVvUI/xlBQooxqsITfLhWUkyx0wkSTD//Mek+9n9Lef5w5tLETsOZkZtkZnZrX/1Z+NycVJ/1aaOtwvxbXi2XfOcPyyXXvCJzyTEzV5EPf3lE/uBz3TK/sLkEyasEN19ekjtvKMtrX7Qg3Z2satzcOFcC0/LsG/qFx8rylacrcuhUYxK7mAjyLS+dlXe9skMu27M2K/Jrz07IH3y2JI8c3rxRy49+c0Xe8NIOm0IvIggS8uOXziYYMdqMkVqSekTa7qae3LQ8v41qO6DzirfI8OCPylzLwcyliZ2M9rZR6Wgfzq4c5RL7v76QXeXo6jwlra21Sz3b9Lqr41R2VR+Vp5UYh7f+kUj/pXdIz76lMwY86xken5MvPMHK4s3VKV3tIi+5qizf/uoWedvtfPjat+A73+CZ8I2Xtcm77izLK2/cPKtpq3FmokOmZtdOckPd09LVtrkbV3zqqy0ykb/RUYP46HmKeIxohqEezXrMHpavWGPBtE2sHfP7fkiqHZdnV03sZLDKl18NeO5aWmrtlUT9LlmPh99cnvOermOL/rAaq1+dl+oWWhGgdGlZdl05YBu1FzEzW5WvPrcgTx711yU2C6xAvfXKsrzjjrLcoscLEUz7tm4ffpTdPTPS3b72h8rMUDJw2kzwEe5TZyeyBTe1YBW8fVpP2TAMQ5ITs6j+iNFfsyGddassJUUO9QiSjDaxPHYNDshMz2vVijyQuTSxUzAzOygLlXykyvX0jG9AEKjo/bGJpQOoyel9MjdfSzhc456DDzpPGMmCyqNKkKNb3ycXbr1JKpfV33d1Zq4kjx3Z3FeeepQcb7miLG9/eVleevWFyUBnx6ty9+MV+20XdKoV2Fpee3sbmWrXdrH5D4WfODIrkzON0welBYdBhsFx7sZgFMcGFqQTpJ9jbqZTsHlA26eyNxMTu39SJltfpcpy570buZPBs0cIcLNQrbbI8Ni1eixL9Zj2RbXWzgcW9n2zVPpelF3VYl6TdWqTSfvyvSUjx9uuOTdyRK3x6hD7BB8+VZFDJ6tLfieH57Re12Y1YcV89bl5+dhXKvLsifNTR5uBI8M9Mjq9dp02Ot0hMwubT5D3PdMnY1P1F0bBabyq5Tznr3SwSJVzeBFAlMZ9QXgpIERuFoHfIMbltujh/a0mgTr27BqSaqdakXJl5tLETkB350lpKTd4ELLBWLh7bktXraZgo3e2tyuC/s/zxwee2bx07eotycuvOzdy5JWAo2eq8tjhBbn/ySn57EOn5X2fn5M/vGthye/D90zJfV+ftCm806OVVZHl4ZOzcs8Ts9uKHEF3+7y0tax9MdjVeyZksHvzV/Y//FxVRib8W6lF8J5xb1escs3f2PB3H70txYYCZRyLqBOmgYDidZDlwI4jfDi3HsnuRHTd9ENS3vsNUqmep/XmTWw5hseulrn53uxq82DEeL7Got0l2btv0Hb5KWJyZl6ePlK7KGkjwasb33xbWb7zNSvro3rg+dLEdEUePVSR3/7EvPyj312Qf/2nnfK//mq/fOZrJfnCY6w8rf392T2d8m//vEv+1fvm5c/vnpYHnxy2fVnrPesCU8oDH3+wTe56dPNmEs4XDg5OSH/n2p9BstHHVhlPJ4anlYfq100Ye1iMkCE8iNGHG+dxv1zPEuTl5XPNBDuiLO49ucNBBUzO3qgd5rLMpYkmNgDKjQsfVit18vxYJ+Vv7Be5rP4029hUmzx4qPaZ60bihoMl2zpuPWDzlDOjs/LR+8bln75nXu55cm3ld3K0Kh+4t1X+5Z8NyM/9jlqHL4xq31YLJHumBfnOzlfl848syCOHzk/dbDaePdUvZyd9J6u1YL6CtbY1htO9T3XKqbH6A6gw9txy9E/uAY787BmkYnFugp07whxFMH3uGOB+bM3TxNrQe+uPS9fV786ummji4sf4lX9H5vpfml3V4uyEmNW1WWBa9fZr1ze1+sjzFfkvHyzL737m3AfwI5Ml+bnf75H/86kFee6FYXvvkW0VP3rftPzFl7fXc8cUN+wflj29a99Y94njg3JqfOmMw2Ygo7NlARHy6T2+shOA47hmurUcN/AUrAkwM4tWpAe2vimNJnTk2fcTcrL3b2dXTTRxDpjRweofT4ts8fZtFwLYDODq/euzQu5/qiLv/+KCfG0DLTueUn3ywYr8wh92yw//5wX5md/qkN/7TIsc2eBPOl1IeFyJ7uQ6iO6WS8dkX//WPJv/8tcrKy4Sc6Nv3vY5BpAjM372abtqYYqVm7kVWbtnYZiiqwXPIQmvjy+xN2EYHNxnvya2N04Pv0jb/uZtMVcd1079kVmR87yLIZ8u666zQIfdSvhG5WaBF+55tWOtYIXqA09NyaOHmQ7NHDcI7AM6NVuSCR2zTM6UbPHPdn4Tjs9srWeqtFLFINu8mYUUSj8yMj4lM3NLR5Fs4GBfEtKGEOtqgv84QpoYhOXUaoQUuXbr0WuXI9fmuc60K4A4g1gDXONUai7UWQTlO7vru2Vi909lLk1sR/BKT4NXjDcG6BclyfON3YP99jWUIs6Mt8jXDm/OwPimS0ty1b6SFDZDWRU+8pU2+ewjrZLMpjWxTly9Z0yG1vM1D222Ra7YTEB0fG2nCPispeyPEuE3gH7Oj/CWch4OTnAuBFh9GrzJMVajcr+eJUkkIdvE8mjtvlQqHbfL+OSlmUsTTawe1ZGqVO6+MOZV+bJJvZXq8wtlmVjHNmSrwW1Xz8nlu9e+DoJ9UB98xp8ZNnHuODnWKRPr+JrHc2d6ZWRq7Yt71ovHj3bIqfFGbREjznfQwWoMosQohOdsFSsOsbVOALLj5x5TYnRLMt4VCTQiR773NzfHpsFbVyAXOvj+XNueV0r5su/NXJpoYg2Y1T55YmumqJZD+TZVOoNbTzYHdrVKf8/a10Hc92RFnjt5/q3u7QI+dTU7v/Z62N07L13tW9d+RyZbZGaulq9yxDuQ/loHgz2fbs03Mbe/3ID8iqYvvJdyXxBh+A/AtEVZwIYB/PgiexM5WnoOSmnwlTIxtT9zaaKJlcE+q2wpdyGgdFAH1Z31CXJsqirPHN94MmJqdU9/qw0y14KTZ0bkyKkZ++p8ExuDSwYmpa9z7Q/B+ztnpLP1wpjjpvXCaRiCTKtCYfBYHMFiS3Puq23wbi26G8d60yn14JF4BAuVBfuqOh+qXA2Qi+ef2xVWrj03iuz/nsyliSZWgQntV89fGAQ5s+t1Umnfm13VAiLiBfqNxsuumpG9/WvP/1PHRIZrP47SxDlivlKWynoW6ahu3+zNylMcOS0yusx7ws5rTo7AplX1OnivHK9yuGM+/5qSHCgSVzzQBGmAALEQxdLk3SA2DmgiR2vfFdJy1ffLSOfbM5cmtgMmp/Zp29/4GROePVYPXxjkCCDIhfY92VUO+jsD4s3AtZeIDPasXSl/7UiPnBnbfrvZnE9UKmp55XSwapxZ52ey1osXzlRlbIXXNeEyeDChsMXzxb1Yc/LzoxOknS4iJczlrDwszdTarFSdJPnMyEow60pF07i2KyrtV8v03p/IrprYDuDrHJXKuSkAvh3Z0pLPBxo5PjYvla9fOATZCHML86oAN+f9k/6e7jU/roGs+WDx6NrfaW9iGfA1j7aWtevomfk2ma+u/dnlZsKtRn9sCP9w7fxWlXK8A5I/qHRrMCUqflynVmNYno0QcoCIJ6dn7EOVaQOP+/WwHAFvF7Rreezee7nM935D5nJ+YZ9UKt8i0z2vl+nub9Lzm9Vt897na6I+OtqVIJONzqtHFzaVHEu7dQR97VUyf9NLpXr1AfvGY2koGU6vAXTp5fr1VmN4bNxWKDaxsbCveUytfVbwsl2TMtB1YazChtNYiQ0/BQ9ClMF/6sOfQdKg8YBjNG6O/qslq7jPBgNxniJkinIQ6vjklL1YzG7q4VYvjCIZb2dU2q+UqSv/i5HT+cJ06w1S6rtD5rq+RUb3/JJMXvO7MnHN78norn8is51vk2rXDZnPJrYCYxOXqeXT7xc8P5nw043GwsErpOOGm6XnW14q7T/2I9L6d39BOn/4u6T3u18mXW96ibRc0njv4Fbtn65EalHVPr2wCYTU10Wcayftk8MLMjN3/lf9bjd0tS+oBbn2coWMVjKuNhr+damlPAMZdmVvWAQP4c85zH/GQiQ6eCrMSyxJ/zlZcR8B/AZSuVyegN1kLZIcD2cZ0Q30dlvYQcqNEGGmiIxsF1BOHR0DMjz3Jgz6zHXrUO28Uk4d+DVpveMzculb3isvesW3ybVXXCrXXXmpvOiV3yX73viHUrrh16Sk/hYWmq/rNEZJ5hc6tQ7XZ3k1ApZj5dGNf6bXsv+gVP/Oz8nl/+5/yTV/87fk5jveJS+56Tq58TU/Ile/4zflsh/+HzLwY/9A2g7sF6nz3K+vp9d2IymCDbt5nLLRuO3qsgysYwzJlmi8ktDExuLSwXHpX8cq1tn5sraRrdVzk1PTOkhamlaIc0KNNjvPeA3OgpPCkrSU+u7ldt9Ii5spID2+8IFAujVdKsdqVfwRAeS3HIyZQ7ABCKve1nZOytuMJDt3ydAb/qtUWlj0sFWNpyQL5QGpvOSTcvMtb5TeBlsCMiU+dNk3S+fLPibDU3dmrk0UUam2yOmzL9a2uYHPV+DFjeYa7XfVvgHZ96v/S2579Sulu8EXd1hUd9nr3iBX/od/J21vHcpcc7S1ad+v08/nF6pNi20H4MkTA3J6Yu2bvT9zen1fATkXGFvUoQymVwf6fNQVvBbbzQXP1LTwuBnAEz+3Bpfv+OmuGiEHILriM4DTI2NmRSIDIMKi2U1YKRkHnJSXJ9eLERXpkif2fVzmy5v3iaAUlVK3PLH3kzIweIUNalZC567r5Zp3/0521UQR5dK87N9znx03CpX756TyyMZaj9WePpn4xf8iu/btXXEgC9qGbpTB1/2H7CoHj0nqDXLZYYUvNjTRRD2wWfn+LdqsPAAXwUPLIf2aB2hRnoGDFr/mAYJ8grBQnMspT3bKqWfNpXKNiO7M6LhZLXQ0t1p9T7zliJW0bjPjcRGU0zVXXmZlsRWgfu586c2Lu9ivBnPlA/L1vR/RwdjWpPFiAh/DPn7q5Xa8kMG06J0vuXnV7Yz+2X/1dTLxs/8qc1keBwZm5MWqBJvY3rjxwLDsXcfnrph+X4msNhroujDeUvCh6+GxiUV+cv7zI/u3ks7Fr3mk1mM528QVQJRBWtxPSQsLMLXm6jE1MvWmSnEfnZi0DQR2DfTZCtcisRY7cWRgu4IdQp7d/X9ktuWKzGVzwGbaJ8/equW7NmXe2toul11+47a04M8Z2uw3khwr96r1+MwGz6/2ap96W8eiQlgtOjo65PJrr82uHKbo6oxWbTV8ZWOt3iYuPDxzql/OrHOqtFpvvnMTYdqqjspis/L+3u5FfQZP0aRruDBuQkxxnuo/+2hkxr7cDwIDECLheMAs7InlsTm4hmyL5Aog34npaTv2dHVKZ3vtsuE0KGSLYQeQ57cdsO/S26S1fXM/EVbu2CV9r/qPWsBrU5Rlrfu9QwPZVRObiSofStjg1fCl7r1SfvXPZ1erB31+z1C2qjbD2ZERmavzGSHIl8HuRuOBZyoyso7VvDfuH5bejgvjtYLthEsHJ9a1SOeZU31ydvLcP1S9FvCcvaNt6SspcAZvVsAttFu4DKMseAbeKgdp4eiE58zppMP7j3Zp9wJhETqpekDI+89umWyQVtwLcsW09Vg83PHJaUso92PHHdKRxpkScxER/nZAh+Z/+vJ/IwudN2UuG49qqVXmO6+i4DKX1QHfa7U+mlg7Kg/MS/X4xg/4Si3t0jZ4fXa1etC3Yr1AoNFUGX5j9mkjwW4oLABaK/q7K9LWbLIbDvuax+zaB0IHBmelr3NrZxiYmas3xRpGW8o1cFZwIEdty3ljdpLxgJx07NSQWpHxNQ/378c0YMCtuB+I6zJfD7EzB4TJjhczs3P24L+vp9u+AJJmqhhWCu4td/9iQ3noG2Ri7hZVQpvzbiR1dfrsMC0gc2niXFCptMnI+NXZ1bmh8uC8VJ7SAejUxtcNy9rHxsezq80B/XAzCHK94JuVa3nO3sTqsN6vefS0z+qAZYMfHawTzIjF6v3gmuCwaMN69BswKBzDL7X8EEAmzrmXEhdyHqa7MaqMSLJDDfAf8kVSDaKMrzkHUabI49u+YLTecvnflFLvjZnLBmN+QuTZ39cKWpuVwjOnial1fCR1m4NXPKZnNmb1cfUFrZNNIEfD7KjIc+/NLlYP+tzZkdURq+mQRD+cb6A/tmrh207CgYFJ6V3HFGvKD+cbpAPO8XM7LCLSuDjUo2EHyeXHxqDTAJdzBq5nxRFREO5qQIKnZmZlZm5uUS52OwDFKC6kAt9IdBz8Rhnf9UMy3bbxU63l6rjsnv5DPVtbuVVmx+X0w7+rYmsj1iZWh8pjC1LdLHJUlCYnpPWuv7JtH9cSy8LMsJx99D3Z1fJgcNe5ij2X14OR8UmbZVorLtstqsyziyY2BLzsX13H1zyYmp1cx9TsZqCq3DGtXFOEW4/OK0aQbhX680QIh2NYjADy45zL4vRJyAEsjJDll1qagHjSZ4kuy67wS0kOAqYjT8/OSov6YbUrP3+ImnkqgDDqPRdZjqA9X7UyayH0zcTCrm+TSvet2dXGoVxakJ7OZ2X2uV+X6sLqvgPE9Nz46DGRw/9Fr5oEuRmoPDbvW8ttFmZ0xPzwhJx65I+13ldHNLM6UD3x/HMy+8n3Zy6O9pF7pDx3JrvKAUFuxiId8PSxBRlZR/m84voF2T+4ieW6A2HPINexQxGviBVev99U7B8srWpwtJRT3MFSWksQ+TnO6a3UH0S3hIyy+ynpOFHGVnXm1FAOpLIAvxNKlLyPxY/Oxy9eUl5quRbCVqThFcGt9L7Hn10o6hHuVmGgv1eqvXfITOvGPN+qQWVGJh/5+zL61AekMrf88kAGK+MjL8jk4fdKf8/zmWsTG4nqcwtiO+dsMqozkzL2gV+TkSc/IpX55d9jm1Vr7fizz8rRD3/UFg6l6HjwI1Ie0QFTHXS2i+zpbzCKPQc8fKhbTo2t/XniTZeKXHtApLu5U+KGYaBr1r7osVZcMjglfZ1bt6r4ir2a1mU/keaGHDouDDoMJHjAuAuHmKPHMaw69+AEFIQR1l8Qin8BxE4z/7ls+Mnh29ABPn+V3o04AWJFWa55Z5IfLzrzOghfwmAbNGTDD4hrEG7LPYMgf6kM6Uit3PjKyfnC5OD3ykTntwj7fG4Gztz3izJ95H0yPXHCrMQUNJTpsRMydvivZOK5/yNdL/zj7E4TAZ4/zs71ZVf10doypb9lnt1q81r4kiqN6S1oZxrNwudm5IX3/oqMfOETMnzihG34kQJlMTV6VE4/+lk59sE/kY4PL31uaYQ5XD+9A90luf7gxhPkk0ercmp06a5bK4HnkLdfK3LprvPXj7cbnCDXvtiGtrWVM3S+KKg+kdMalKmMt0AcgZEj3JBdG0h8kAHH9DwsKc7xB5x43N3v+7kTnr/7CFw+LxRbMp7cC3DupOzJKt4DYxNTMjI+YWH0dPJ+i1qTRuIaR8F/pDOQhrdanO8H/EMD/dLao1akvChz2VgM9j8pM1/7YTn95O/K1Mkvyvzwl2XmzIMye+YBmT79RTnz9d+V4bt/VLqO/EIm0USK+fkuGRm7Jruqj472YfvGY11oE62e5k92vRXQuBY+OyeHfvkfyxN//n45++D9MvnYVxd/w199QF749Hvl9O//nHR8iGfVFw5ODs/K2NTaFfP1B2blyr3zqi8yhybOCSfHu9Y1xTo116KD/Rra2VRcPjSqZF5/azvjiPkF5QlvT+mGNnAKnFY6cSYfBvJOCNZTWHMBeCWcCDS9X5QhMM7cTHWrs558yOGPTY+ZMg0ShSDxxzUEhTyJr/cOHhsM4JeH9yaD5waIOElhkoUV0ahctgpWLof+s7Qe+hdaNps/PTE+eVDzyuYN9afQmsgxO9crp4dfnF2tEfDi2YosfGTtqwEvBFzxL39d+u949eLjjsDhUxX5ky/Oy6cfzhw2EC++oiTf+9oWueXKtSvZe5+syJ9+cUEeOdRYR5xPvPrGknzPa1vlyn1r0zMfvGdBfxU53sCi3wx872tG5c0v65FdA2vb1OSvHp6TP7u7Ks+dzBw2GT/99hl5zc0di+/XB4IzzoyMGRc0oo2aVgYBFUkA5RzERaBFq6wo43vY+aIfJ0BknJlJBGQDQg4CzJ8n8kKnJynu+bn7r4d47WCov9fIErliHgIRJ18miTytBvXKZStBmczMXyHjM7XbfW0WertfaJLjFqA6rn3jIiVHcOL0sH1KqIg9/Qty+1Wb8wn/rz1flSNqcaOL1oo7rivLrVeVZDNfi0RNsTGBGiDbGuv9msdNl4zL3r6t26x8oL9nCTmCOeWksckp45biLGGq742NfBNwb3AQWLowJYgOIIQwXtNNzpEJefwGyQFM1SA34qz30i4EGoTFMTV1Cbe403oRrHY9NTxqmd4z2G9fClkORspJGotxXojouvbbpefFfzu7aqKJ848zIyN1l8l3trfJLu2Hm4XjSsyM/NeDd94xL+++Y/NmYV5zU1ne8rKy7BvY5gy5TsAVfDP0fKO9tVV5ose4LIy2QMpnOUtkgMwgNeDEkVuPEVCR6IJxU6IDtdbj0r1YIyEpYTkh54xOuGlcIcMxJXIwo50VooQw2UEDqzJFyBYRcRbTeKF9PWSk693ywsAvZVdNXMzguePCX27tZ382Gr3P/TdpG30gu6rFUI+TxWbgQ1/pk88/vvwguBF6OjvknXe2yj9497y89OqNITHshze9tCz/8gdm5MfeUpIffEOr/OqPtMlPvL1FrlrjdOnFAr7msWcdX/NwbI1SvfOGUsPV1CxMYy3LSrAWDMHFAh0nOZ9KhRzCeqxHFE442YUivgICSfKzVUDqBiC6CCvkuA5TlvhSco20+LnLgJBxS7U28yQFOTI/PDpu+7tCklkUNfHVQ5pG4MSfXVwA6O0bkt17LsuumjjfmJ3r13a29r1NDTT1i3d21VD5nFpxh+tngn6zWXugzs6X5PiZcTk9vHYrkj4+0NMur7ihU7791S1y2zmSJIt+3nBrWb7vdS1y3aU90tPVYm49nSKvfXGLvPMVZbnmwAWkRDYIz55a34ePmZo9s46p2fXgloPDMtRdv33CKamxFLOcYewB4xhOghg4QnAI4iesOgAZpeQBXMbP3dL0CAknIuEQZJdGzGlcA8Jn5auRsxJlpAXgLeLOw/VjkHEK8k0YbKjMRuiY0oN9vb56VuFk7IuAirKESy4g5DR9yyEl83qI+M4VNvjof62MHfjlzKWJ84nW1gnp7TmcXa0e1ZPaHnit42LHZFWq8/XbdX/Xgtx21eo2oVgPvvB4h3ziobLNFq0V9OvO9rLceGlZfuytrfLz390qd1y3ur4eGFAD9u23l+WffX+bfPc3tshQHxu6q17L7oOudpFX3tgi77ijLNduM5KcmS+rjq3lg9Xgij1TMti9/COzjcLugXYdrNRPo+vsXPfHOccgTrih9MKJ09Vgz0B4iGMQFdco+pQoIYacSPPVoU4I/l4lQDYlnJDDzUnK3zuJOI2oCvEhw1QomXBCzf37IY8vBYuAbIePjnY7Z2FP+u5Xmq5ApDdN53JI8we5pmWa5ulcQXnMnvyyVB78cenvfTZzbeJ8gM3kR8evspWsa0H1SEUWPn2Rm48ZWn7sZ+Xg294tQwO174LSTp85Pic/+9uZwybg1iur8h1qBb70mnNbdcMShxfO8I6lv2/Nq2RPnuiT6bm8D+/vn5J9fTM6IOqybwi26629AyU5MLRynx7VgQQraD9yX8Xe5WyEc1nF+viRqszMNQ57PZjUsQeLourh2++ckLe9vEv2Dq3NGjxy/LT81qfa5P5nNt+K/JXvL8mLrmhdssoa3U8d13t+DtfQdtHZpvePnTpbjanKlHggLfR63DMCUIFq5h6kRWDhBwTZpWmqR3KpXCMCwdkT6u4hwxG/vMTP0c/rhwFCzjYW0PvxzHNmdlaVW+1ohnDS9KbpXC1CJi3PFMTh+VpK5qvBwvQZmTv0Puk9+Q8zlybOB2ZmB+XMyNo2lDfr8cF5qR6rnbm4WFF5281y2Xf+lOy56jWZS46TI1X5Tx+Yb6hkzxW9XaJWalneqpbcel77qAeW/tvy/4mOmvf1ejrmpLdzXnWI7+S1VrBF3n1Kkh9WknyqAUmulyAPn2ZP0exigzA7PydPHJqS3/lM/dc4vvnWOXn3q9rl8r1rK4vDx04ZQX7l2c395u2LLivJT35Lq1y2Z2lZUr88f4zHdgB9j74uconqaFfk4QBScsyVu57rX7emnEyBK3s7NeCf+3502TyM/JywPZ4gu5w4IBiAV+5FXMjE0YNZGm6E6UTtCDnIcFoLhxEEXwxh6zoafArCyYIyhGyE6+d5GushZNI04j/kHUkkK6AYX7ljSFr3vVZHQZdmLk1cDOAbj5WHtg85gpaHHpPy4aPZVS14BnnJKiys9WJ8SuTBZyty19dmVv21kZUA+WEhXrW/Ra47WFr8XbK73b4utN59Ztld6Or9Zdm7CYt7L9udp3OjftfsF9k30Pix0fBUu1rYa7fcj412y/jM0tcuNhrfcOOMDPSsvp+FakZHO8c5UdoQKSeEUML1G3UQT2r5pGQSSjzICv9EDGFwpyi7HCIuUBuHkzdH3CMj/By1aY8wUkCUfDEEouS5AVtRpQ0/0lhPFni8kUaPN9IE4hiDiSJIc5BooFFcIOILmHyHtuBLm699XEyontV2erRxPV+M4PNc1QYvqHe2l+RWtfA2E3xI+StPV+WD91bk0UMXbtkyffuwkvnhU5nDBQ50TEtBR6XY1T0hXW1rf0zAoCmbnNtU3HBpi3R31E9/yi0APd1I/y5JKsKukD3wnHwyIrC/+RRrkMBSCymQuekhbqcEghtyEAZxFsmDsNMM1IvCw8iIIwsHmbjXCPbtyewZI88o+VpISpSprOfT0xXpdOSewn+9OCNdjVCUScuzNj5HuXOXdF7/gzI1+H1cuWMTWwb2xp2eHcyuVkb1lBLJiQtXgZ8LRsd8xXgRbFr+smvKcuVe2m/muAk4OdoqH32gUz6kJPnEkQuvjCHHLzxWkU88qAR5uo5yuAjRUlZjp7T2vOzrm5ae9s1dpHP5npIM9nVqGpfqRfS9f0oxT3u0zeCd4Bp0roWwSGzqkJwauOYXSjoijQjyiHKSs6ssICPB7DpIdTE+Q36Oe/xAkBwIN8IgipwAI97cD4dIF/7TwkjDB5AknZt56eIXQyK9yCNSlLUCzNJB/OE/ygAUZRohZAOrkam2DsrM5b8iI13vkGqp+amCrcTcXK9MTqkVv0qYpfV84ymrixlnjzwooycez65q0d5alW+6eXrTrYaJGZH7nqrIn3+pIk8f8/56IeD0mJLjo0qOD1Tk0KkLJFEbgJPjfTIxu3adw9sFfKxiM/HGWxcafrmFNxumZ/IV5Ojq4iNGEOdlFHG8JM8CHHf3aUuIgWsIyEnCK5gDi2383J/NpYTlx/yci8VzRcQHUrn4gSC1uE5lAkFcgGN+vza+1HyOcAF+wh8jC1awTU3PmCXJ8waeT1Ic7iedTq0Nv4jVxLcSfCBQO31clGfBUU/voAxf8qsyvXCp3stX3TVx4aA6ovWminK7ov2Zu6R86L5FRZOitaUqL7tKCXId1sZaMT0rcs+TFfnjzy/I/UqWz5/knejs5haDxzfPHF+QjysxYjluJ3IEvR3zOvhZ+4BvfKZVZhc2R0/BVXv7S3Ln9RXpaq9f3qkORb+G1Qhov0GMi7Oc0ag5QlbIxupQQGCcc5kre3cDEFceKJEj44kN8gNhIUXiiC/OQw7//AgP/9xPycZl/Jx7+CGDnsbG8aWvXBStXH4pGOGMjE3IvPYsdt1gFx+sScJuRFqBOCe+OA8Z0EgOFK8DXjYhk9aBg7AvPbBPJlveLjML+9RPkyQvJLDfqi3MeWZ7Wo+g8viCjD0yLmOTS997ZMbpsgN7ZbBX+6p3g00FhHj34xX5lT+al9/79Lw89Jz25/E569dbAQbaZ7XOH3t+Rv73J2bkvXctbDtyBPv6Jm1l71pxcrxbJtfxFZDVgOebr79lVnYPdNVwQQAuoX6CU9CrwX+ho4N/AMdyEEkoco4o4rAQESBAFLPf80BTEgCcct8JKyc/jnmC/B1BgHyaqJTJc/grGYBwXMYuPU1JHI3iiwKI+9yLc483iNQOdo/RH1vWnR0bl+7OTn/vqbXVOrsVWiZHmQRhIRdxASfzLNAMjeTwVkxnwMvU00gZcV0PA6/+FZlo+zaZKt0gldLmLqFuYvXgu4n2MeRtjpFjx2T4aP3VrDTft9xWtmeSW4l7nqzKr7x3Xj5yz7A8e2xGRicXbIptuS/+rBdsSzk2VZVnjk7LB748K//5w+1Kzuf2fuaFjKfZSWcdO+Jcv39CdvduzjvAPBd96WWnpLVcv35ZmDk5Vf99mNCr8F7oYLiiDGGFco8beG5VQgChuCGm8BcWWcgCAg6lH0QAnHSXt2ri6xqEHfERVj6NmxNrgDDjBdBG8XE70hr5C4uX6yBSjqQBcI+8h9ywkiQbI7MjPNvWYU3ih5hTwnK5PJ9O5hmbFxByUZ54K6ZzPRh49T+Xk9f8mUx0vVETtDmjtCZojzoIXM3CKKb38jHTtkb7XX8pHZ/6QHZVC8a+3/6aFnvVoUGX2FS894sD8rP/u0X+4FOn5InnT8qpkRmZUh09N68D1XX2NTbcntX65XHWuBLjI08flz+6a1Z++Y/b5E/vLtnCnO2MFiWh0jqmzdHjm2HN065YtXrzdVcu6uQi3DAJPqvV1ym/pLq7zBQiNwkU5cxIiB8B4Ya/lFgQpk3hB1ncQh7LMRKQAnn8EFa9jceN7JTgCCMyB4lEBhrJgSLR5aRa+xWQNNOAeIJUPe68sOqBF0uxKtvUH18M6e7KR0+RvwDxZslbhA8gasumWEmgmM61gunW0k2/KbND35a5NLHRmJzeJyNjV2dXjbHw2dltuzBnPXjti0vSdx4nNz720JD84nt3yY//17L83O/MyUfunZLjp85md1cPVkE+cXhCfvfT8/KbH5uXv/Ef5+SX/mSvfOjekr2buRNw4/5h2bvuzco3HkM9C/L/vutU4SW/xmjESSDlF/tgMgodxQzZuDXm0aDQ8Ucgbum45cN5KHYCCzfkgnTqgbDsBf0sQSFbjxCC7VMC8fcWIeXMYY0oxkeaAW4RX6P8hQxHvjvJJ33Yqmi8zvfwAsvlrx68Hjx/yNarC8JbCVRuqTIhk4/8ppSP/0/7vmMTG4eJqQMyOn5ldlUfC59Ucjyu7WvpeHHboXx7q3S95fuk5+bvld7BQW1v9Vnw2Okx+efva5PDp1duw5sNulW7qiEWEeUzUSV5/a2q4wrdlQ8sH0lez+AMC3J+gZkE9JI5nzNQOa+8oSwHVv/20KaBfPEs9dMP5/lO8aobRA7uytdzrBYLqpvue7Iqhzb4fdD9Wma//uP+GKweRscnbYtR0kuSQ/encA6EHDMHhe3FikINgjTlqiGgnINFnUCw1Pw5JMo7SA4/To61yhxEGE48TjgRfvGcMLJTdfc4I/4grNQ/cBlfiZQSCP5CBjhRce7yqVyKCD+NpxgnwI1OxbRrV0eHzC343n7qrGHn+7DWkwWUI/eKaU3915NVJ/7WlOdyqMwMS2X2jExMjsjciY/IgbF/m91p4lywEkEaOfLO4zY3Hs+8+2/K3pffKUP7+6Slb1BK7f3S1c4K8PoEydTaH362Ip98sCJnV/7S0HkBX+EogmlUVSFbgs42dFh2cZ6BGmcquh7OJZ0bXZ7MSrzxJWX5oTfVWoIpWHgZH9dvBNSt69gcpeOnz1YhEJQxhBY6OSwq3FDkAKUNUoIEuIdfzvFmkek9GN0JYXml7mEHOdRaS0WygISIy+EjAhPPCNDOEpmifMSFE+kGeXiEonFoHoPoinB5zxtp5NipRMn7PVREbVrdso44/Zw79dPnZJ5bnZ6+WjKP+INYkWmcVi+v6txpqUw8IadfeFT6XvhNGep/IvPRxFpRlyC100OMoHp2m5KjNsGWN7XL+DU/IfsPXi2lS66Qtv7+mlmdGDgyy1IPzx2flF/7UFmePFZ/pN9EE2sF39z8he9uld0Nvv3IF1941x09CdCt6FP050qwKVYUbihZyCyUcShyQKBhQQZ54r9IVuE/UCSBiCfkIj4P3xMcMnEMIAPJpoRSJBDuRToBy3rjM1cgCCvk8Q+4TmUjXYF6RBdAKZAnwuhoa7P3KQPhP8rFoyPssK7ztALc0ny7vKfPFhToL8o7/KZpLeYvBeU3o9Zk2+Tj0t4+am5MEw+PjOnofkG6TnxI5ruvlbnem6R95F4pzU/IzO5vktapQ9J+9osyefC7pVSZlZ5DvykTl/2wVFu6pPvo+2V24OUqd5V0nPmcFkabzAy+Utomvi6t44/K1P53S3l+VLpfeK9MXP6jUtV09Rz5fZne8yZZ6DhgaXC5dpW7s77cFSqnZZjKdZ76hFTa98ls/0ukbfRhaZk5KtN736LHE9J58qOavh+0sHuf/18yecl3SqVtQLqOf1Dme27Q/N0g7cNf1rxMy8yu12n+nrdr/JUqM9LzvOaPOMsdmr/3yayma77rCk3nZ9WtU+ZlQFpO3GvhB6rSKeOtP6ydUa3HzK2zvVXbXz5wBLQV3Nq0vbBJRWdHm8l0d7bbC8wdOvCcpY9kbdCqUX+c48YqTDbdZ0/hbiUiZAljRsNq1zBXjK9d49M6X4xP0zg7F/H5zAqgrZEW+ltvT7eRXouGUb5E09B3k3R19y22wyJ4f3igt/4HjXlM8t7PVeVTD1Xl7MZsn9rEDsbBoTn5rlfPyOtv25W5LMWwGi1T09OozkVEO0dXLkeUpaMnfXIdAQKIToLS5tqVsHdQQIdxP7mCpqPgxjXnETnX4aaHxbBJVCh17ud+PcFxXeyAKREAwgORdpVajDuOIRPEEfB4PS0eN7KuWMJfEDJw/zn8sjaNxAlBtmVfip2YmllMYyDCiTRHfKQvJcp6SGUbYTV+UjBgmZ4hnaqAJx5XIhky4mmZPiyl6qwSwzVKVMPSoiQ513erRqCKWMlzTkmxWtK8jn9VFjovlUrrkPp5ViPWwU/n5VKeOyXlmZMy3/siI6K2sYeVSO/QGEv2Ffr5nmuVYP0TSUvkZlWuZ3m51skn9dijZHmJtMweUzIfU5K+XkoL45qPr8tc/8ssbEtr34uV2LrU/THN227N417N3yHN37zm72rPn17P9Ub+7tE4X6FRtmr+HrZ0VVoHlUif0Ty3mrulOYWWBemEAALWV6ra7rK6BlQLZc2sw7y2jbaM9CCwOW0D1Bp1aO0D/yblcv69VG8n1BvhQmRxdBkPe7XxQYyhIBAhLEuD/itrfKCrs0MHgK01/Wc50CfYbIM9juuB53n/46Pz8tCzWSKbaGIdGOoVed3NIt/5mor0dtefsWDjl7HEeizC9XDjdlg6dupMNcjDySQffaZK1k99WpLImGKls+I/JYG8Y7rfCCv8cQwy4Nr9eSKJP5dzsuQYSgF4Wn0q2P17XMU0F+Ui7kDqn3MuiwogZNJ0BkIecJ6Gbe9MaryRTkbq/oKqy3i+nJRDLuKqzV/9eFO5KMsU9eSauDgQbZqWktZevbqsbZ/eb/G2nnpP+1LA29rSflFEPVm2bBzs68muluKur07Jn31J5Onj9R8NNNHESrj58or84OtLctPljbe8Ozs6brNktOWVgB5Fn6YohxyNPJRuNPRQxtFROIaSDxAg91ymVi7c6MBpxFxzPxBh0hGTPlYDZEB63/27A0d+nsZ6fl2RRLwhF+nkMuQA51EeAdKZykcYRfBCKj+PjymnVhtNM2pvIJKUPX/sVOEnxBnxLoc8f0vlOBbrronNRdpewGrqINq0WXLJrx6izXDES9ofUni8tR0fRPsE9WS5xn09YEEOfaAR7riuLK+4vmxWQBNNrBUDOva68dKyXLW/cfuEGJnRSfvgcqjnrVwkAg8s9xmdhoUzuId/jk56EGtu6XGdy8TIkvB9tSZAnnvesfG7NGXeqUOe6+yGgutQPsVfAD+RL09XDqaj3H9tuClS90bptDD0GPEA4gqLDgXByimbBlM/bDIAWQLC8ymzPMwoW2LK8+5l6z/3m+YrtR6z23rflV3I5cgvimVyriiW/0Zio9O6dahXHl5OKxFlPaxWbrm6SMvSvaw+HY3qIUg0jRO/UzONv+LLtO1tV5flmv2rj7+JJgLX7C/Lq25slc72xtszsTinaBEuh3rt27QriphGHh5Q6ABFHMpWfdnR3WIq0N38vnfKvI84mXLPpxt9MwCAW3RifhEGsqEACDv34+Yv97gmXI4g3LjMZYNA/Dr84m5pXbwmXr/vadA4snsRXyD3k6cru8H/RblwT2XtfcnJKRtVxxfJsSbVdx6OotE56eQHwp1j4sUQ6QPc5zTKEUS5gHBL01kPHk+tn2K5cLv2WD/MRnGlMvXk43olebwVZTcCEf5qkKZxsb1l4DzqIA2vmK/l4gv3RmUBXD4PJ+J1t8yTgjaetpcIOz1PEW4Rd61Mfj/AJS/VN8JV+6pyx7Xzcumu7bjkt4nNwsFdFSXHqtygFmQjoHN5FFivHa8FZToIZMeRvmKkkZEh13SGICTOQ+H6fSfKIML4addY9EPyPJEuC9y/Zw55brt/VyLRAcM6CrJCzlexejpzOIHwq+28Tvix0CbgaXT5iNuhcSQjDuILRLjAw84VD3LVxTTHop6cxANm8s/NG0F26MiHIysQA563CCcUqR0W3VOSy/34PY6153ZqxyBwwL3l0llEmnewtFzcQva2kcedpgWEXDE+95+7FeNbKa04ubu30UA9v6tBUS7CxL1RmOHuabTTRRTlaDdRdyAtT1DMfyDkPLxamRTFushRu2I6hYcZ50U5R7Ee0nKhS+Uk7O7ka2x86QbmAVbGfsOLyvKGWxbO6w47TVw82Ns3L2+9bV5ee/PS9hlgWtU+OLFw7gOvxc3Kaey0az86GcHA0XnpALiHG3Ks8gSQnK8ScjnCgADp0HxCi3vhhzCQxZ+TY97J+NGxkYtwIn6OvEoR8u7mJGXxaDAckQec5x06jwNEHgH+U9JRMQP3iS9AnIQJPG+pTK64AhF3Cu5j9g+Pjtv3J3kuaSsE1W+8ipKWSZpOjul5lAtABkS5APJEchEhj76y0cMI/4B0Rr4C7s/P0zINRD2ANE6Ql6cr0DS+KE/SHmkBnlZPX5RlPaRpdXk7XYyzWA8Rb1yDkPNf7g4ayREmYbtsyOeynOd14M+Zi/eL1ynSdgZq48P/Upl67QuYTHYe5eLh5G2mGBYothevw6V+uY56KJZL3Kfe45xZk+UUFZsKvPTaHnsm2egbfk00AWgfb7x11lauskq6ESDHhWUGkGuBbVYOorHTOTgCOon/8g7DLfxCjpm3RcQ0Kj/u4QfFEZ0JEB8/rlEMhA1Czs+D9NxiBKm8d0IPF78+og1Cjc5pBwNp4NqPTrARby1Ip1uoofBSRJgRXwB3UwYFmYgvQP48z2UjyNPDo/aMkq+F9Pd0G4lx3/Puea5XPpFOQPipgg3yARwjnV42Xmb4T9MVp3HE2izKBUIuzRv3o9wDUecRXwCZULCpXNRfINISceRHO5jftA4C+It6iHhr0+pyaXzcWkkORB0U05rmMfynsmndIZeWZ4o0LlA/rUvbWQqTScKP+Lw+Il+1hBXRRnwB4oq01ubLTheR5o/2Sr3jhzhxZyXhciR53SUleecrynLbytvbNrGD8ZKrynL79f0y2N94ZZcNyOC0QhtdL0pHjq/vY2Wxk07tPq6u2OlUdAw6Cp3OydQ7ThAyQA53gDynyCFPh8xJAGL0PVyDXEOuHkKJhNJqhFA0kU7iXU4m8hHKAKxGDqT5qwfC3TXQZ9YlBEV+saoo00bpJJ+UR7qr0WpQlIsyJdyIsx5WE5/XXT6gKYJ8BUE2QtQfYaBYeWUg5MI95FeKbyUEKURba4SV6i+wmvw1wmra9mqBokBJrKZciJd8LVfv5H/5vrFyX9qt7btR+bHxwRcenZH/8dE2mZk/9/w3sb3Ak6i/+45W+cabG7dn2jxfXoKT6oG2R9eKtroaLBIkjRlBOgOgoXNKQ6fjoDg5xz2UZL2EpHL1EHJpfCgUjqEX/Nzjq9cpU0VCGLlcrULgOoh1PfB0rn5zdNJdJJB6yod8Rb6LCCXC7g/pS+crIcqUMoFUeE2AcDyuqJfVDRxAKtcItfVQO3gIJcl97sXn04pI5ZYrl5Ww0sChXj0UUU9uNVhJLjpklGVaNvXkVpPWFCuRcj3CSttLimJa6yEdrKwlncsRJGDV95cem5T/9KH6u/A0sXPxj76r1abhGzTxFclxvSgdPz1cpcEDOgyNng4PynQSPaVzNULIhIKjsyBelKEjhkIAqVxMIUWnJP4iIQMUCee4EV4o1yy5NfKETRzcijJNZQPEgXzIpkgJsqi0Urk0vkC9uFaDCIcpV46sfmU6Fnic+YCiGOdq4bI5aTVK60p5XCsozyCD1ZRPMZ1FkB7El1O6y8WzXN0HUvnVxJfC22f9NlPEciQXcoST1kFanoHl0rjaOlxvva8kx/Xuwf5sBfdSIDM+NStffnRMfu2j/ZlrEzsdP/2OWXnVjZ3S3VlfDwCMghOnh7Or9YPtGGmfbM/Yov2tTCcOcE4jDbCik0ZfUo+hJGJ0Hw0/ZPKjywRCJvwAZPGHWx19YEAZ0MmLnSzSR1iEjR9Pm3dA4HG6gojgQ9F5J87ziHwjhUe8hIus+/PQQhGEXBpfIMoLeJl4nMhGOkkHYacgDtzZHomPNTO9uKu/z74a4mnwsqgXJ2Hl5ZPXA3FHnMBl8zKNtKbpBGnZpPGlaU7bDPFFnIE0j2k9puWTynla3X8xnYFIZ5o+QFwhG2hUDyDki3Jp/lL58E9aozzT/IG0Dty/y4KQr4d65OjpDSvN0xF1ANLyjHooxpHWfVE+0orsWusdmJzJ16YTFOMClAX7FLPVXT0g09vVLrdcMyivvqlWtomdiZ9665TccT1fTVqqBwK0J9ZzbAR8M5eSbcFo7ZkOEh0NB27GeXRuXmGgA+E3FFl0OhR2dAaOqZxf+2IMgi0qd46Ew5FfijQu7pFGOmgoEuJRL+bmHR1/nq5UNkB8no7auHDzhRC5IkFVEGb4QzZVdB4/4YRS9nBTpNfu169TiwK3VImkcZIuwsWCnJ1jxavvbcltjzP3ixyIMgUeZ66sIs5GssBkMn/E7+W1VCZNc9pmOMZ5Wi7hP+4RVopUjjQQJtAgLIwi3A8yfh0kQBghC9LyBCEH0vwV5SK9aToJnzyB5eow6iCVjbgA8UXZBIrpDHgeIx6XS4kslYl6CKfF/CV5BqlMpBXZeuWS1iFIy4V7JmfyxOv36slFG+N6Ttsy+9M2An5297fKd39ji1oNhJ3daGLH4YdeNyx3qOXY19W22JaKgBzHdNCV9qdzQcTDlC19zZpfBB4kCDhmp4ugg6T3AZ2J85BN5WrduWbKFOvRV7fiTgd2/y5EAvnFfX50sEX/mv5ILx3TO7dmwzpmrlTMTRGKKtzwQzjA0x6F4sqFsLkKeZCmB0S6+FkhZsoF1FOqyBO2x5crDpCep3EGkGel60j2PhlfSeBTQqnfOE/TyblPXbuyA5Y3vUhlQ0kCk8kaBuep+9LyiEFJMU7Pp95Rmcib+w8QVmM5h6c1V8op0nYK8FdbB9E+XDaNhziK+QuEXLhHOv3c6xDEMfyn+Utlw+PSuNKyWZrONL215eJyuNW2s/y8mD9i8XBqSdll8vTVL5fadIZ7lEtcEza/HPXzB3h00KY6gNedmM6qB8brl+8pKUm2yp3Xl+3Dxk3sHLS3VuVvvHZYXvuSXunvbk/aYy1YozE+Obn4CGoj4W1cjynppY0+0sQ1nr0T5AorjiGbh2GHTM47ZsAVm3dE3K3j6O0gDX5454cscUT6osN5R/aOjjuyIEayIO6jECI/wBVAdqGINAJPQ61CDIXi4diphU36Un8g/MZIGrgfVz6kleuQC+AesmlYuAOOzIfTCCanZmSKzynpLV4N6c2+uRdyICxAUIwv/IUbSjLOa9OYy+LGvVwmz2fmVBv/omwej597ubi8u9eTy64S2dxPlEsqF20p9R/naX5r7+duaf7CD0jTyX3AfeLjB/Lw+eX1vlhG9jfaaXru8eGG32I665VLKuduaTvL221+vzZ/OIYfEPUXZZrKAS8TO13MD+A89ZPKMt3qZeV1EiA/fd1d9s4jfvjKDZtmRLnWA+qF7/x9x2ta5FvvGJaBro1dfNHEhYnezop872sm5Y239chQX1dNXygCvciHINK2tlYgm86i8SwTN2ZNCXVxs3IHju6QukcCokOAuJ+ODkGtnHe48MMxVy7u5h2RQgjlk8eBe5zn8ThxRjjROUEetysD3JGLDk5Y7u5xBfw8/OcVwrUrhIjHf/jhCPK02sHuRXzujzO/GfLIhHJwt1olVJQhHH5MTbEcnu275ud1oKDhQJL8Ij0MFAg/8grIX36exuNujjw+spSWT9wDIWLpyeoqZGrjzMucvOEfcDvCaCQXfuxVhQxRD3qnIBfh5GVKXGl5NkprDo87lfNw7VSxeLLonqYXFGWRSePMvGfwCw/HTg1RRmnaXDY85Z7T+FaTPyS5l8qACLsol8a5eKpIz7lnf9XRftm5Q9usnkf75FNbtFkGetOzs1a3tOVGViQgKN6RfMvtnfKO26dld1+uyJrYfhjqrcp3vnpB3nRbhwz09SRtaSls+86JqUI7Xwdot0k8cc6BM9usPGBKUf+nHTV+OfLAlsNSOUdOdK5cPC5XcOGfI2nhfijqVOFFqHiPDOHPw/DMedg5OQJXJKqw9V4aFyGGTCDkraB0tO1he/iAc4/TzyNfaXwB4g1/IA/L85iWCYh4AfmLH+6eB98ImmXxnnrfWQKF5IhjY6Txco5olCXg1NOYp79eWhsjT0sEW4wzyqMWiVx2BggjLZdAlE0RaZyNkOYvEHL1yibSWy++FMV0RhpXKk8vkzj39gHqya0GtXLe1opJ514xP7Xpra2zeuUSaQ05fqwZYCs5csCP7/LRZhnUBZgiw205kgSsfP3ml7XLt9w+LwcGV5f3Ji4u7OmvyjtfviBveVmrzY4th1k1EMYnp3Ww1fhrMfVAO+UHaK/wAC0/ZkPR3XwD1dq+uWj/sD+JgkgRjd3P8Zd35sxZkTd4kLs7omOC2g7qpGKJsY6YhZPcDyfSF52TI6trPc0edpASYXPt4fl5uDv8hOds4eZxeCePwgMhT5wRnrvnip201yu7KHAQysPT6udpuQbSS/fn5x63X6TngHOeT/IjPPZ3hShjJRbwuNwv51GHSTCL55G+WqUZHvM0Rbl62XjYUQ4RD+KEx7FenIGV5NK40nJJ5YDLej2CNE5cimlN84dbKhdxFuHyHkae3nw2w2c2ctk8DX7fEedLy9Ovo1+YU4Klcml8y+UvRZq/NK2eHy/HyF8RdZyWgDTRBjvbfY/haJ+NADlCniu98zvU3ytvfVmb/ipyyVCe7iYubrAH782XV+Wtty3I217eYltvLgfay/jEtJFk9K9GoH0v7XvJtZ5yFTNV2urtaMjuWQx5Z/JzV0TRYbIbGblEp8pJyZVaIJRFuEfYcYwE+306Y+5m0FOXc/IE+ZEO7ueeRmTt0sKIsLiH38gDaY3C4jrCxj9HwkzTgDwdPdxCTn3bNQi5OAchF+cgwnClV6vAPYxaJcp9P8/ls1uG8AciLOAkydL/1sUvhkRaQFEuvce558Hjjh8gfSEaMmlYxfPkUpFfpHFyHvkHjeRwWxpXbRpxivPcjyPi9FhAMSzPH0jl4jxNJ24k19pK4ocwi7JcpsdwB8uVJ/FEmaTxxnVRDlg82bleZcfVxcchP888KTgl7wD5sPrSeCN9fl6y15FsE35te5xzj4U4RVh6s6j8vCqzSo48l1yJJHu6O5UgW+Qdd5RVqZakv7mfwEWNXiXHl15dlu/6hrJ8yx0ttkp/OUCOrFhlin418Gfi3sZA2r+AndMGo63bfTt1vxxjJx0cCIhOUBuo/a2JpNE54NqJw++FH9wgqljFWowPpGFwDqmFP8C5ddiKr6AEXKvEYhgAfwQFEdaLK8JBLgX3SCcPbXkBO9LBMU9LHn4g5PBD/vDPqIS9VfELIg8cOMd/hB1+AOlNlU8g5NPwiC/1G7K93V22+TkKh2c+PqVsUuYv0hlI08A9jcXO8U94HldOcCCV8bR5mfh5bTq5R9ridaJIp6OxXL1zYFMhWfkBr3tPKwj/1CNxFsNKj3k66sWT10WUC/ECF19LGn1A2ag8Qb1ySeWQ4TrKMVCMGywXX9E/18RHfgD3QiZt1yCVDbnW1rJ9l482B9lhETZCWi6cE1TkmZmPaLsr4fEjFfmrh+bk/qcX5MRIc5nrxYZ9AxX7HujrbmmVF19R2w/qAV02Or66FavRboHvKuaPpsxS1CZrbVrbLsSY9iVeGeH9R9pmyJVeOHFa2zmdp8U6gjd6RdZfPKKcrGjMdGRA4LECiM7HffyRwAAdIIIE+KkXn3cS75QAOeJ1xeD+iI9OtZjGOmAVJx2McEgn8ZE25AIev1dKdNggtnALmTi6ovEy8Hy63wgHWdwBZYJ75JWjl5nnBzd+VlGat0bKJ+SRI24Q8n7PlWqRBAK+uUBpkSQjXYGQCcVclA+kYcd5mkfKh2PkB0Q60/yBNKzVygXRgVQe6CV/F924T7hpw2+U1gAyIJVL46k9t792xJ1wi3EWZfXCu1OdtNY7JyzSx3Uqg58ol9R/Wq95ePZ38TpFlGeEEfFxDaiDFGlcNVvUqXfiZUrVVhQWRvapXIpwT+sc4I71aRv3Z/lZDiPjE3LXV2flIw90y8hkSSYaz+Q2cYGAL3Ls6i3J22+flW+6pcVeWVsJkBV7VK/0rDraVU0bzdxTcI3+Xq6vu4z2weOnz1bpMEWsZpu5RiAuwo9OTgcMkKh68aVI5TjSWVDihIk87mmmo4ORVvxz7YSU+8+VtCsZrEvi4ZygSDOFFh0TGWSjsLl25Z0PALjGP2nxOFyWNIQc4eMPmTgPfxFvVIrL+NZ2QVrIcc058PRCrjQAczKkJJCChRLdSpRzC/P2moiqdgsTsL0Z8UU66gG/5NmVsqeLfIHl5FKk/hqlsx5SuSijIplH/Xk9LPUfSO+lSPMHQi5NJ3EW20uxDv28nixtzeuvNq21pFqvXPATdRXxgaJsgDCIp146A5FGEHFqDiyNRSCvfxfjinjb23wKFeWGO9P7xZF9msaIM45peQaiHmjXjOIH+3osLyuBeJ85NieffLhdPveIkvTGvxLXxAahv7sqr7iuLO98Ratctb9Og6sDBvZnhseWnX6nXQEsQNpmsb1BsBzhM/RfzFAU5ey8Rt9rv0i/5hE3QjBgHrVBe8N2wqJzgaIM92jYZCz9+HA9FGWjQ9C5UxAnfkn8ehCkQ5qJC2VY2zmd9CzdWR6JD4QS8QJzxRbp4zoUEO5RJsU9YwOEgSxyuHMeYUf+Iq31gH/i8XQuVZD1ENMKPPzu7+mykT4jbxDlnqaVcImfOFZCI7lIZ1g6y6V1tXLFvUqL6awlct4dXTBrJLCaPHqcDABWN2VXTCP1V9wbdb0gHeSJNAONavG8EcgjeUrbdopG+UvlyA+gnNKBA8Af+Rvq6zW/bF6B4jIZjZJHCkWQ7hiIEXfUQT2QX9oA5cnzIL5u08hvEceHq/K+zy/I5x+t6GBQ41x+DN7EFoLu0aa/n/6WKbn9um57Vr0SaKvg5JkR68uNQJuhXaX9DkvT9lO1Pl+r6wP15Oqh7ueuQsnQWFcLGjX+ibgeaOh0DhJdxHLxFeWIhw6JG/69I9stPQ/F2Tiu1aQzVXic40ZY9ZRPFHQ9uUgn90AoH9yWA3FRHlEuiBeVOeAefqOSOV+uXEg7K11ZEYjsqQb7FxbTiV/cIn/rRUogjcpzo5HWYRGUU5RzI0SZIr/a+ksRbSPqIpVtVH8el8vVq/f14FzrEMLidQvAVxNs4JVgpbIp9iUvd7f6Qb1ywe+BPUN2XA3o0kyz/v5n5uUTD1Q0jdmNJs4r3vTSsnzf61pkqLf+TEUR1D+6KdrJRoJ2yvNHCDRAFKyKZXEjAz7aKe0dy7Lh565AdM5QuFzTcQEjwvgKSD3gl8KIjlMPxThzZRBTMbWy9dJYD8jS4SjgenDiIeyoLY8PsqsnF/GSPuKmPJiCRppr32M2V0Akj3IiLM8HnT0ng1DMXp4+So+yDAuSNHB/JQKhJOr5IFzCiTIlTcRJvmOVIdNYfMw2fTetCMqE9Hq+fDDgdZ/nDxTjqweiybwvgZeJK0qPp1aZF+MDS/O4MgnUS2dRLiXyelgurWk6G5HcatJZBPXgU5C1swcrlUvIFQcBRYs8RZo/gGU40Ntjm+eDldpLxJfmszhQIYg06mL+iDv6AHK01dUs3iHcqdmqHD4+LHc91iOf+ZrI2FR2s4ktQ1e7yDfdUpI33Toll+zule4O2mh2cxkw8EInzS6zGIf2oa2lZqoUMqPPzqlcmxIdcUF2Laqbac+sTYkZDlovC3QWKiqjuszcNAzaZrRLwkP3JqtYvXHRML2xmnMNwo+fE5hf0Bm8U7nSB1wH8OsN359f0fDdPY8TWeItAtnoLLVxejpxc+Du910x+DNLEHGm6UxBQfg90pDLBfJ0egfHD3G5exCdy0V6cPdTTxPpDeAfv6Q58hV5jKko/BTJMeolyiuUj8t5Y4l0IEsYRXi6PFzC6evuttESX1ngeQ73I17Cibhq8+V5CjeAX2uI5pTnmWOkM+B1ESSSK3PCiCCXhp9fuwzlv3REmvpLywWkcRWRyhXjBhFnWjbhpZFsvXAC3taWkmTUfchFP/Ly8fAaxYEsAzGuoy5SuRS4kafaeqjNH89l2CIOpcWm+anVGOmMPhhyxItb5KsYTyDiUx/uoAi5kOHINf5Qbn3s41oor0ZgWm5ipiyHjo/JvU+1y+cfa5FTo3lcTWwOhnpFvuFFIq++YVYu3dMjPZ0Q2dL+Vg/UGdP2kCN1n4K+HDrNb9W2afxzHceiGzoJZ9ow15Dr4n29G4NiJIMcrR8Wp1jzAB3e8KPDeUeg8QIaLwlPZUhEiKf+w08cU7JK5esh7kd8qZse9GhOiRtpRtFj+eXpi2OAAgCRN0cul8YHwk+EYQWoTkFcAeRSRHlRFnhDhrDCPZRHpJE4w420qW/9EYeHkaaDcx+dt6pfz6vL+T38R/oIMwXxoHCoC55RQpST07yES549P4SBLOlIy6Ueogw4eny5kiScQHrtMkuJrh5CKYPV5A83yjgtXyIiKi9Xzx/yRVlAfIjk9/J0ElZRjvKsV/eeVy+bSD8gDO6lcuEWsDQrUrdAyNUrl/Aecp5et+wAssjk/RO/3p55RsTKVNxZmYrFODMzV5O3SKenj6MTI26ECSK+8BvpjHOO/AB+oqxwivzEffwzBcZ+rumz5ZVgrwdMluXI6Rl54JmSfPnrLXruZdrExuHAYEnuvKEiL7t6QS7b2yWDPTr4y9raaoAO4yPxkKS3qVqEG22MDsyAiXO23yzGY9Ok6kbbIbx4zQNEOPxljQz9Fz+005hWxS/tz9povWeQwBtoKP7oCN5g650DZLhO3Yp+AuGeyuQdK+9oMD6FEZ0Hf2QKPyHv2QURZnT68O9KJJUz33ofxHUg5OIIauPM5WLEThqIk7jscz4qFjIeTR4W15yGHH4CKCGUF7K5f5flMs0bflzReAPw9ORp86Ofcz/CCcVFvMgTJ2WMG1YDIz7b8zWZ5oiwkYn8B0hPhA8i7jy+nEiID6LFa1HOyyGNh/Lzxuv59PC8zh1E5W5p/vL4uI7wIz7ckPN88Mv9BCI+7nMs3DZ55EDEl07NRlxF1Euj53WpXydx7wdFGRBykUdvFx4HP+5H3sIv56lsLlO2T6pR/yzkQlHQjmmL4T9VRmndkU7Kw8P2dALShZ+8/mjTyOX5jvREHkI++gHgPPJP+giPnXpWs9gjQFhnJ0ROjJTkkeer8oXHKvLsCU9nE+vD1ftLcuOBcblqf1ku3dsn+wZ8P9XVWvmABTVsKMGUv72Opu0qHYgVQTsAtBXOuYLYOKfdEjfthHYHGNxxFo8FrIXpKffjWOOfNqnn7k/PIUg6nTf4nKyKDZefd1hX/PgvImSyg0eWyNaTc5mIL8u0/kghyeQ8MhHy+DU/i/I5KLKQy/Pl8iEX+QxRgop7HNO0pnFGIeIfvxGGy7pbxAWsY+PfrvnlaY2wCBs54gGkLQiSe4A4kEWGeEhfnEe6PJ+ugNK8eDqjQXjeQ6ERB2nlHkfuo3RQgu7mG0oD7uV14KQF8AMijjzOKEs/cg9EfAA/frSD+vMjID+UX5o+jpQNeQg3wkjDI67wE2XqZZMErvB0efl5GDnxgDSd5BF/kR+Qhhd+vV5qlT9xxDVwf5RlDFK8jYFIZ+QDFMMBuKX1UMyfl6vLcM5lnOPush5vhA85Rv4YUcdI3tPibSbC8HS7HO3N47S/+qtNK/AwaAN5fCHn5962yIOTqPvJn8tHfO6fH22UnVfWQpKBs+NVI8eTIwtycnhOHn6+TR4/YhloYhVgA/lbr5yTF13eJgeHFmzxzUq74NSDbTg+NW0DS+qcNhQDKPpwSpS0V4gLMqQtUlsM6pHDiKI9hDG1qD+za9pLECUgHtpSyAFkAHL4j/iMIL3heiczpi20FQQAiQHhPwVunklv3MDPXd47QK1cYxnvZMikqBcvWCrrhRj+QyF4fMi7/3rAbyhYgtUgF+OMsInHr0OBcZ6nLY/PlQIVAUniDhDnnHCiYvAX93HzMPN0IhPXlifIl3CzsPL8enmCUJpRjhGc+8tlQTGPjMSYyqJB8iUG/8yWx2FTutl8faQfGVdwXj6eXq8TgBywctE4kSXOPE9ed4Th8kvlPJ9e3tzGz9I4Ofe8hKzH43XP/fAf4DTKCuRxuX8PN48T4J7KgJBLEekNRNwRZ1oPcY7/iLeYxwgv6gGLNeTwl4YNolz54Y9fyBAGm0m0kA4VYjQPMQaK6cR/Hpf3j9yyd/95e8rTGTIBT2dtmXKuLnZEFiAHIgzPk3k0YE2224DOd/JZK+iXI+Pz8syJVjl0qqLKekYeO9KuZSHy9LGqzDTfqbTXM244KHJwYFj6+/xbtJftLsvV+xZksLe8SDBrAZYiq0b9WH+hZ7EvUf+0UaZLrQloHUV7xx0iDISOsTajDSraPoIhQ93jTngs1lFfJlvUTQ2nWBshGmsR0eiJHBA4iGuQN/T8iNJKvHiiTNaVAUjjrD33OAPe0Wo7GSjGh59UDiDj8rlfSso3Rq+fzkCcp3JUINdmRWbnKfCHWJBxyKaKMs9fKMa8ssP64JcqPHdzpco1eUrLAhAv94zolAQjb8h42bh/0t4OSWbh8OMLImnjJb6QTRFuHPETceb+8zIN2eJ5IzncvDzM6yJS+XpI05rWH8Cd9BD+cgQZYmn8JqN+qfNcLi+ziM+vIyzcvQyJjzaTjn7xF7Ig5CLeYjq5j9+inPvP+0TI8swZH1EObA9neUgQcaZpjbiA3/N4CRvk557XsAJoa4D7hOVh5O060k6YERZxAfxzHn5ScK9NtXh3Z+fiBunrAXlkP9jHj7ZbHM8er8rw+IwcPt1ii30AlufpMTvdlmCBze4+bw/dHVW5Ys+C9HW3y7UHRC7pV4Ls7ZZuJUhIZz3geTbtO4iRMgccnfy87YRuMaLT+o3orD1wkbUBaysqZ5Yk9xO95LJ5P4+BH4Qe8ZmcChJuUS7SsyaCJK7UUqqHSBDg1AvBlQOJiE7N0f3gPxRHZKhWqaf+03PvaK6E6sEymoQTCLkUxBudMCoJL+7mhYcCJS9+7vKR5iiTYh5DQRBmoziL+SM+T3dtOaRxubLw+xAk8nrL0hyK3v26AgIRl7u534jbwiMO/eXJ9DSzOIIROoO3SKd9028hV76AcC2Peo0T97gk7Egf6Yr4Ii/hJ4UFo050qOJzvchP5D/SwHXUVdQHiPIMP+7fyy/AOZeUB/Ayzs9TmZDjQJglwq+Tv/BXlOU80h35jvJBJGTjHIRcuOPX8+XlxzX3QbFMQMQZ+6bGFPnE5JQpgzRdINIQboQVefM2VBtvFo1d15ODIAkTdxDxBDw+lw8QF8jbqPfb8Bv1wjXKjmk+LID1WJP1wCeVnjnRIqNTXlYnR6q2IQEDCT7Ui5KvVEpyYqzL7l8s2Nc/KWcmOqW/a1Z6Oykv/7DB3oGS7B/0CujrrMh1lyysa+q0CHQF9cWOS7SDaJO0u1A6zLBRj5Tt4rSnkpqTmLcnvNM+Qp6LmJnDCUuwKBvtkOfnYU3i19sQ7k6U0a5Dztqu+lmRIKNBLyZqBVgj5l/WAZD3ROYKK0U0en4kGkTn8cz4OffquUf6Amk68461kizXfm6VlMkwGGAKyd3TivL0pkjDTeMryrmb30/dw41rzvG6qJj1GgfcuHb3NGx/JgeZcB9wCP9+7vL4wy0WTXhcHq9bs34fv5SLh+FhMe3KZtKAKRIernv4HifheD37cy6/9gaMO+Vq1q6601i5H3LIEIyXgcdH/nxlrhMViPSCvIw9/kgHcYUfEPnhdvgB+KCdRnzcIyyvG9oAnS0vA+Bxenl5uvwcxDNB/EQ64xykaYh7Xjbuh/Lx+x6ux+X+syjMjXPkictnAfI4F9uM/qIMKEfKG38svuHVjbHJSY2PvOXpA4jkbvw8DLdsXflwz8PmGP06T2MWrcLDJz9eNt4OXI44tI3wz/Lkafb7tYi8xDHavbuZDzsHPBbo7emy/DIFi8xGgzLktRe2bpxXgnzqxEB25+LAdftG5PkzfXJgYFJ29fH6zNpWBq8G1IcNIPTIFzionmK/tGs9ui7I+zHu1HGghrTUS9RptIeQDbn86P5TOc5B6Cf6XPQLX+BD/wm9qjIrEWR0FARBJKoe6t0rusV16l57bn/tnLjJAKBzBlmFUkHGCzLCzxVEGsfysl6Z+E1lU5lAGq53fncD9dKa+k/lSGe4hVzIcIQUooK9/KNx5WkA3MuVD1MH7gd39xv+I48c8zIgTOJBDn+4eRrx5w2FsMJfxM2RDaVnlCRRbjRgOgL+Is1p2ZLfKEvcPb3Em6cxgH/cowFzD+Uc94IMEAl5wudeWlZpern2cy8b5IGXU20HoxyJLyz/iDvSAyK9XCITfrnPPfJH/JHOPB1Ly4Z7PjDxsg6SJGyPx+U45z5I85cTVxY3eeXK5H2Ks1WJHv8oAN539XDJm28WADzeGJzl/cPLzo8A97QOXJl4vSOPG+cu7ytYSSPXAD/e/rytkm6Hx8v94tHT4WWEjKfJZeyvXkT6Qo54mRJE+TIo49jE5gM9QH3TDvn6RvT7QNoO4tzqVNtQTH+iT4KwCQ+/1F74x41mY+1Iz2te1+BVtMySpE3HM8VULvoR4YLolwBS9/ZNP9J/a5ti9cZazHQglAgRAvcfnd4LhMijU3sn8VF0yHlClzb4pedesEVEnMhH50zRSA647PL5C0UAVA1Yx0vzlyLy6OnJ5SJvIORS+fSc9IQ8MXIv4iM9nIc8fvVg4RfD4JzLKGvkqAsskLQuaE0+rWGiFjfnKEHCoTxROPhFAdEQWcBjJKlhLGTpBPgh3cRJekDUB/eIN8gZkCbi8/QgC1Hlmw97u/GwvAwoqyzP6iefbsnzFzJRJuTB84os6cjLhPvFY5BduFFAHP2+5yPup+lzv975uOYHsoOlgXukEb+kt5g3rzf3HyRknVcdQylEXCgk2mLkjyN1Ayky5Tin+UBhcQ854OVNHF4elhfCtPiifqgH70uN0ul5Ix3RFj0NkTcQ9Y4bcFmLya6jXKOtEx8Ejn/8RjjE7efIRlsnvV62Llfbf9mFh8cEiKTvxDWxcYg2yefOxiamtM5q68DbRQwGMz2rdUf10+aowGjL3i5cBr1COzZZPee4ONjhmPgHEBz6Ka3hohzhpn2PNIVOi/iAtdG1LtJZD0gcDbvYcFdCUY4Mxbkr0bzjrBZrkqM8V+ONwtd0Lqwjf9ZQqBRTBP5ielEpFFFPjnyFTCgRGkEgiAd3/IWSi8UTAZf1c71tfr0e3Eqh/NN64BxrkgbGsm2mXT0fadrzfWpxJzz8uPXBtZNB1Avufp/wfUvDyB/psxvqL/JnbgqP062YiMfdvMw8TCerVBY/EXaaP44eBj49Pr3M0gpJOsGk5Ykc57gRbrin8XEO+Ue5FPOHf86JK0u+nSMX5eRxkMa8fJwsfKFXvALBriRjk1OWLsLAH0qAdk3ctXF6miJeJ5K8PPP4agcqkR4Q5U5accOvBmHxAeLEf5RHPSC/KKuIdEZdpiCNkY7lQL7xy+IkNkEAyDUty/XDBqXUif7nOaPttlSoh2gPNhDXelwkKfvrTYP2wMCa1cjUOboEGNmpDPKAqDi1tqD/CAs5/Ph9jysQ10U5CDC/5ynhPKxHwo0NAzaFIOnEkaCVEB2bhCJHiTESWS3oSOSRMLyzuOIool4ns/gMFFaueBY7plbUfFZoyOIfpejV6nEWEQrLzwtyFIpF75VTLB8aRiPCyvPXWK5RHomWxszoOc1jGh+y3AvFBggm6pF407IJIMc9wBJwlA/vTk5MTZl8EZFOZAiLPJHGyJOlNUtDKGRQlCOPUTYAuWI6i/njHmEG0SDj4eQdLM1fvfiQK8LkNNz0OY7nzes94kOeMk7jDKT1h1/KxfPj9/Py8fylZRMEiYwGLb1aD9R3+kX/NG/F9pKmE3BNvPXKMxD5i3TSJUhqpDNFvfiiHNK4VkLoisgn54E0nSDthyDKJ+LBL88oGdwFCKOJ5UGdBRh48Rw2rYciWLGK9V4sWhukKcJaWw2o26jnIkgXO+jYTEEG2ly0mVSOa4iVa/yQtpAzkszaisW3FRYkKHY0EtYIJC63IooNfykJFFGUKYJCSxXCxYh6eSwq9CIalUvIgSjzUGKp4sILiqde3REuMgCSxB8P5wFpaVwXLkc80dGK6SwSHX6LSpJrr9elRABSuYgPkKc0j2Cl+FypO9kCT69bgsgSP+l3OcjH64K4OMcvKKY1gBtyxJmC9kr8pIkgUwLAbbCv10byKKWldZeXaeQv8hbpK6JYD42AH4KIugCNZFeKE9RLaxHcB4TTaFAM6sVH2VqaKU/VA9QHjxX4vFYTy4ONxCE3yjSt7wBtlPsMPlKk1lkKC0frBiuQOrLFMirLzEcQK/WPH+SppwBTtKShuMAIWcKgHaVoRMrES/oivpQkt4wgV0K9TrYSXManvlxp1R+JUrDLdXIrCBVuJIs74ZO2tKOlqKcQctkw5aPC3IIk3SGTpjHk6sWFHGlJFcJy+TuXckkR+SPelpba0XmA+x5fSTq0sWFR0ij5CkTjcslJhx/wOnXFBUh/FAXxu18vy3BnwIMc9zyN9cvT24w5Z+Ei452Tac9UDiBLfgiTI8oYOdIX7Y5z/NGRU6JLQfz4A6Td01k7YxEgDfiplfFy9XLJZYiXz5exOIEpLt5npJmleYx2Vi++tGwCHlfeZqLukcN/Mb2BolyKVI78kY+ofxDp9HJZGn6k02W8zxex2nSmQAa/gJkrO9e0gP6ensXpu50I+q59O1aLGuIClH3aVgKQFQMOyo/b1CdgtXtbq1tnuBFObEyhvcnqi9Ay74uyxEHdhBuJiGsQ8TFtuyirP/+aRy050g54EwByjbZu7SxbzBMrWNMj0720sfNGkNHg6xV2gEw26jArAdnoLJwTT3TMKCCKtNjRUrm49sqKinJFAAjL0+jKLPxG50xlGiH8hGzqBuIBtrratcfJ2dL8Adxc0bhbmj9Pa16e9eS4TvOXIvzHMVV0Ics99+uKkJEkRMk9G33WKZeIDz92pKnrf8KKsoxjxMsx/Nv7SvrPSczDjjRGOyOOqPsiIs2UAX45AhQEdyKf5DH8LsadxJfKh79o4/woJ9LBOWGFf64jfwYVJT9eh14PnKezKnRkLEb88r4e5EyHj/omHpJA+KCYzijTiB+3SNdSWa8H7od/gExaJml7wY1w6rU1vGenS5AFpWHX1ns9GcpEJSxczklbxJPGB9L8FRHpDzmAf5QnecLNXrVSxMBvO4H3E1mRHoB4YgGNHXFLyjJFtJHQU/jCLQYWaZkCC4drCw+i9PbkbSWXw4qD6BiIUw+EYf1Rj0F0YXmmiPiYbiUKl/V8eJ+ib9MfvX+jnwhnsT/okbrHH0RpBJnufr5eRGdpVJBFENdq/Dbyl8bnmW5MWIH0Os6jkxU7d/hz5YhitkuD3jaE23LxBKJiooPiJ9IZSJVk5A/kaba/S/KXyoVbhI9o5A03wk0VT+SPcNN4UMagWKYgV1rFuDx/XPNDlnzTiJFh4QhR8KoBCh0ZzyMyHh9hhDuyhEGaiTuuc39uSUa8HIvwTuZlE+FGegPIpeXJkfSGe6zsBMSfhhHphAiIi3xxL1BME/e4TX4Ji/vERTycR717+JFfvyYo4sSdZ2d8eWV+vqIdnRfWi/H4sSZ6dbP6zuKqjaM2rZEH4ouyAZ5GJ4645laIepj1+1/IRbl5mHmbCTkQsnFc2t9zudRfI9S7j1saZwrugQibOPEL/K+De+TrYgLEoBnLrpw8iu1nubIEhMGahqyY8vKyP15mgeAXypm+ZItrKHP1sjjlyjGTI4yYYtUaN7/Uf4RofrL0xXlsVA6Iz6diXQ/FVnLUH34hxGiL5Bs5jvhDjrr2wbH+gyC90bojHtLMrRZpos8VhMUvOmEK7yi41xYSKBYaoCBiFAuoIEZIRVmQdpaQi7DSDgq8syxNYxpfKuPxcG63DGk6QXpdvJfGt5xcCtxBPb/FY6S1XljEHfmIhpXKRDjRAF3e43Zl5mlgBSHoaG+VCaweJa4oP+RBhJUeIR4aNZ0pJeZAKht1SDoB18h42nLCT8E1TiEXZMc17shF3iK/XAfJQXC4F8sl0unhc54rIsol4rT8qXtte8unWZEjLka7nR3ttvimTe9zxG+AMLlO3QBhRlhp+Gl8IUuaQKQz9++DlHAjPPyErJaSnns55XnM6yKNKz0CzmkuWkp+roj46qUTcB5+F6FhhHURcikinZE+4GnwcCN/Xn+Uu10aIq2gGG96LwXh4DctD/xy7fnzASrHYlaKQC7Ks4hiPCDiqud/SbnVAX4gToitHnyK1I/ASlFPIy3ES78ApCvaBUVFuiINHEMuBeUfdZ3KhUVLPeMez5DR6cQR5Iiskbgeo3ZIK/FxH5BGZgYIx0kyWU2byZpPPJDIYHMEcQMcI1HLITK8UUjDSwsvCjS9727e4chU7b280QMKUv/auTeiCKu2gYVchOX3vBK8gvN7ES8IOeDlmnbqvKH7tcuDaFiBOC/Gxzk/UwaRJ3WPc2sQSRwgwkjLJu7HkbSmMvhzv17eFmfmHv5yP37u+eU8v0d58KPxTdm3Jud0dDgv3V0dMtDbbQqfsCOcNI1xNAVC4zVFEnF6pwG5bK6cI96QwR3/xBVygGvSlsoB5HD3cvNw8cE5ZR1ygOg9Pq+HvL6RSMvBnBfTEOn2NHpYfs/D5j7xdXbkZcXUE4TP+2YhH4j4kIlwOMc98sc1KMYXYfnB5eKeu+dxRXjhh+u4beVk1+onc4y4Iow0znCjcBfPFXFelA2Z1C9hWZknYYQciD7hcu4WMuGWhpf6C1n9b7/UX8D95z/8g9Cj4U6dupu3S+7FsVbexO0cEF7Ipv6ibnFHR6f3POxat/ilsPQkbiEH4ANuxQwMpBHyZmTo0cpRf15GWcK1/XCeztyYRWZl6CRHMIRlRJvJcY0/QLkjjxvypCv8Bk9xsM3LLRwNU93wF7NRli7c9H6UhdW5upEGwgpi9UF01h5M2mEhWQKJrNAYqBQiJhoEo+A2G5ZI/QWSUyuA5YAcaScvIPxHGH7fKxC33N3+1sgF6QBPU+rfT6KRIgtSufATx0Dh0lDPDaTu5MuhjvxP7uXnnHhaA7X3HOGWH71TcUzTy6krG3dzxW2ni2VLGVgbKsDdvHFTrhxpQ1g+fICXRorSZ8OBlCg5Rj2EXIQDPCqvPxBpTtOO3/gBd/e2nXkxhH+VXIyL+gs56wN6bmHb0eUX3fTHFHUejyuduMe1RpuVRSDk8jjNk4Fzb8M872JrP95n5IsqrE6dnvFl9cW+GOVFfBZnhjgnPj/aYTFuh8eXwv3xxwXwv7Q/+L2QjWvaA/DBaJ73NL4A9+J+Wu9RnnEEeR7zPpyj1n8xf/Z3Mb1Z+rJrkOYvZPEWfjjw8zR6O4rw03JxhExeRsDD8Os0nUUkIoY8DbU34tLc68gU/dcD+UhL0a7tl9VFdm73zGd2jjsnFo/7wc2JR8tGyyTkQJwHkXtQkJ2XM+5gqYxfc2pnWXyQnhNmTnYp6B+44Yf4Fu9n1/xCb8V9yNkt01zHlQmICkZ8MfGLIAPeIFbCUtmNAwleDmQuMlovDVR0vTDCP7L18khQeSfj3P3UiyNt6OntVIZ44hxwGfeL6cO9mCcOcc39xuXicoGQCblGyJJn8UZa4zyURori9WoQaYYkWXXJswYACXR2sMw6j7uIYnyRp3qorTc/h+jxXpSxMqkTDHJer/nNNE6S6fVQWzbk0esvc0jCXq48A4yA+QwVU68Aq5Ep6ZnZ2UU5j6O+/HLlUgThFL3m+fN0BsJfMd5GUYW/4n3CXCl9aRz5+VIZL08PM1BMX734FsvI6rB+OkH4W/RfB+Ec4awmf8shjWu5eBv3/1ogXxxQhb4mzRwhkpVgA0frQ439WlwaNk0f/4vxJiI2BUqlJYg0pNOfFl+WzhSkAfeaENRLxJkGbf6sjbhjSpic008jLkdtXOWIPCU4/topYSaxpREvgfp36fMATVekzY907LxBxL0gh+hMUWgOt0iQy/1RuHaawS+iwCmvKOyAK8w8bus02e3asAAO7hhx5qi9jrgcuVwgDzt3Xy6+uFfrJ78XeXTg4O52Fc6K6GBp+lzWThfL04/RCD0MvPP5LIgy5vzjOZuGlvn0Y5QpfqIzRxpr0pkhnIibc36Z2KJMuPM1Dod7CH+A+CL87GDwc/7U3uOYy2SOijRM3MN/5CvKiee0Pd2dRo5YjJQNxOhlm8uBOE/bXHofNLqulcnbclqPesf+4hcsjcNPUpk4T+s6kMYXYRRl0zgi3vCb9ttULtKx1H/el0HUI3KeBv1lsiD1z/li8Ak8jcSd5ydN8/kGfSP6B7D06i9W4aLnQV52er74B3c/9XyqX7vObipCLvxZprN8U55GcJl3DjEtG2FwH3+WTspY/xXlIKzFeDLHiI92lZOrH6lD/JM3WwyU5RH4FCzlkruBVAYQJ25B6NYOVE7j80iYDonE+49EafIWE+qFH4hGAWgwhJOOCpBL/W8mSHt0Hst6kg4QmY68xXl6TBt5Kp/KWoVqntyPOStq44v57zxcTVeWNO9YtWWSx5uHAdKy557//NzKVuVSmUhnmo+IqigHorxCDsQ9l/OGuxhX1nhwi2P419Dt2n8eX+7mcZtLdnS53GonDsiAH25Yk6x4hSh5AB+wdBBeFjbw8D2MSA/30nrjnDyFTMTr9aGyeuReHmbc9/ii3vL6y+T0j1/n5ehlE3l0cO3hc+UyIQ9ID3nt6uy0aVUW4LBtHz/CiXg8zLzcQz7C9mM+gnYZ9wO4n5ZLwM/92sOobWOpXxBhRNoCuV/3H+ksyqd+QC6X+/Vy9L4U8YE0rDgvprPoP9zjGOA6L1dHsf8G0nAaIY33fIH8pHUCuA7LzNqwHuOtBXS0PavTrOGPY+TTiFVPY6EO5RRy/mpVHh+/0Pchz18bKOl1Gl/45zrSBbiOcHzhm8enlzW6wuLXf5wvuun9mNLnVY0gRAsTXWap8Wt+3Cdti21Zw7DnpBoObpQJbuVg0HTOmIQRKZ74WQLUPS2olKWjgeEvTXQkuIi00240iDfSUwQZj/RFHsly5BtwOwotdaeC8vLJKzjii3s8dAcUPk5pWrjOvJn/qHRAnI3i4+inqZvH4ee5HOcervv1W7lcIGSLCBnyGGnPw8zl4kj+oyyQ8+u0HnKlHGUDCC/KMeLinOlEXnZng23eN2OXDAgz4s9l3L/Lep16GhqXa1oXmsLsmLuHX9IZMrgRD/Dw7SQ7r40LuDwynkeuOc+fU7oM7igB8sZ0Ks8a+S4f76TxvijkSLz+y8NO44s68PKlPCN/tWkCRdliueR5dL8pPPwc6f3ac7/2esll0nPuR3ycu4y780vTGHK4B3K3XA4QXponwLnXhceVx+v364Wf919PT4Dz9PpcsFHh1AOEUyQdrulXgHNiN6LiaGXCUesMN/15uVAXHk70L1Z4ch+EXHAEfqyss3sBVofWi490BLdYnPz0XqQXxCIdk9Frwl9Mp/7ztqL1okfcU51mxKpHC1P/eeyeXqBBWNiWfpW39CwefSEPnspBejSMyLwVoo6kLDFZoQQh2rkmNN3ex+d9tTFa5rOERETZdRxBmN0XAjyPeadLkc9Le+WkaSa/0dA5ppVjZWF59OvobD66D39ejiDCifhcPo+P9EU9RFrVl8UB0nQSV+p3qVyevhSRBp/fr60b5ElPKhfHyFvE5XlcWi6pGyiWJ7J0CMKFHM6MjNlejz2sdu3rUQurw8KKtlaEx+UdLso1gFzIhB/i4zzSzxFEWaZlChB3v9qmrUw9/VFWEX4qR5ngh3tR74txqxvTyeSNKVV2LDk9PGpWNH4CaXninuYtVgmCyGPEWQ/LlUuAtEVb4V6UCwi/IcdllCFIZUH4r22feZwehrfXSHe0M5DWhfu1yyVy7ua/NK6QA2k6Qz7OSVMRS9sn7bu2/BohC7ouGsW3XkQaOabVznncI05eXQCue7O2oCdu2Xm9hN7nqKEtlkH0dSM79YwbcpQnOp8fYVg4xKX+ApEGCyOJD2cnRU83fSpel4r4PC5/75oi5QeIg3+8+0g6qRfSHHIBX5nq5Ih/YDzmSbL8ETazVJRLHJGxtqWRl545fKxKRyUjJAgQMKwcFRkJCz/Fo717QoGZmxcU8EalykArB7OX5yppPOn5+QbpIL/FQi6CTkcel+ssFHqqvIqgAogvlAFhpv6RTzto1EPEudq01kO9+AD1R/jWoOrkr5HcahFl4nnLBw8g8kfLjXJJQbthOzX7WoC2JzaQjwHbVsHr3Ts06dVkLp7X26IOIIOfqEeAG/vUorCYRsZaBOst19XgXNpLimK7jjZD/qIO0za6nvaynFwaX4qNyt9GoVE6zwWERT6L52xMwXZrbP5A3416MGNF2x51hn/eOS7q+Ti3qUU9GskU5OrFiTVK+yUuk9V/1Fmg6NeNqdwt4ou0uqvLxXZv4dfyp2Hb5uIQl/oB3CedlDVhhxzgPPSMk74TeYAgcIe3iIUQKRvkLO16bfIqs7jVnGckTxggIwDWp8IR4DwKu96msPUKLEDkxMO0EvCC9pHIhQov6PU19nORBVQ+lgpKFqTEWkQaV8hZIzJRb5z1iIcG2Airja8IGj5Nop5cimL+UhBvKErSCXzP0bJ9b26K1x00fBbYEBfpYPRLO00VrKfTCTmNr5jGNL5AvTyuNm8p0r7Q3dkpvWox0oca7VEb8SHH6XKkA9l6/vJ6r5e/FGm917Ybjw+sNY8BbzNLySr9ugbpZKYCBbee8gTIocnqffmnUf6KoDxj8L4e1KuPzUDoXoiGfJC39kyHrhXMUKC7SXv6Un0RtCHqMPpejZzGT75XIxcwXa91gREVsHrRf3BAwPKn6Vr6VY6ckAEylAllE+VCHCDIzuveH23gn7iIk3Ag29h9J5drs7g9bJcrPX3oaDUIK0DgNHQKb7WoV9iegaX75S2HaMxk7kKFKRI9pp1zpc5iMgXlU09muQ5dD6kyWAnLpXElRbJc3kC9/G006FqMlvkALhsg80kt9iENAjlXeD6xklZXnishCItwecYIOc7MzdqHiynLjYpvrW1mOdB/i/VXrP80Ps9jPtV5LqjXzqJ9b2Qe1wPSBTajXZ8LUuKJNgUoJ3R40ahphCAe5Ovp7JQg64FywboLOeIPIvcNy3PZvO17mcYAoJjOVA5+oW1G/WOEEV8QXZo3DDd80XaKBMl/ZkejjRF2kGQQJHHghtVaOnzsZBVPeMCRcwInK9Yg9R+Fj+f/v71za3Ikt46wtLLWIa9kOfz/f5xf/OAnh63LKrSKsPPLRBKHmCK7pzWzM7vq5FQXCjh3HBxUcdhsxu34nRPhs8liOp8gkQVP32IFUxeycHJurNX/YwJbsOG8830LSNhOgO+WNfmd2I8FcYS1BeiZnVdF5KrgTZw86OuT2FXRm75d6ZvAVuRBf/Ixw/gAb+cefa+ZB9+8Ka783UNu7vqrIiyEkzc2csN3Pw/WqbhcPYGc6EaH/IkrW6sPNbR/991v/MlUbOR3P/MJu+t4FTNnnsVmPpVdAVrm/ozLnItneM1cFM/tvM6ZM7cL+Js3J8Jz/Vb3S3Y+0ve1wnHSi+KOj/h3PpnhDzFwW8dq3todJ2bEtX9dg7yZf8B4Al6e7nmKytujmx/kYSg52rkCUz8oD2fqfOe+D1/1DxpkoYu1wbyzv/QdSvYU6IlB9cFLP/POGG3fTC0eQB88t81RYG+yXbIBGc5N7Ue13X8DWPqhYcxvsfouREIwnEGU0oYIYHQdAHV8tsuX7myW8NhAKTp5oKffUD+Tb+cdiM33DA6QeND7KYB5Mu3vBn40dq+V6YlSTAqSgBhUTn1MUl7LnHpDn0ICGPMdpZICVN/kKa76invf7ummjYVIRPMhH3iswz8dg8YEe8mRyUKusMj5FQnygLdeP/xi+ehFJv0pkjsuABpsf1Rgy/vMvwJZLRi/++5fnKP4wEFheYb4iGzmPX0npr4Z04mX7Jx83Yz3ehehUN7JB2aenjk68UjfKa/wZx402Px85NsjPJL7U0IeFlJ7Qfy5r5ugDyh9suYJynVzvVtxq6Gi9+agszcQ1W/ajW3lMjZ1wAOQ0bd2QfWBylDLdGxAzB/54HW79AH4yLPmGHOc+Y6d9HXNkFusac7oQmb2J/YW5Yfo2eTI8fjIf6noyVM0p1/1pX1zk0QO/chHH/we0zW6sNE+0WlDZDBGYXgVZGOMkAYNoTgP5oLHQfigx2jANf3hmYs1RnG2oQSVxND1bXwFDIj95gDATmTCA+2nAno+BbCteK3MFobiLDxNJMApMdo3EGlPvfebwHldffR37gra5EPOmYfqqw1uL33l5ymrbymWb5HfrsFsA65bFMqLnhkTJ6xkTVvJnR90R/z9+qvm//773/7i97/7rW0ram/tcH6OOIDEJrrKey+j5/h3j/t5wPbf//Y7/38p64RfWeFTufzFDZA4xofJB+Ij8x45rEVAbHbMNh+0294dFz/tDjsb0wLaonnVuMw5hA5bEFs9c05Cv2P5oZ1pQ9PCCvm0FXoOasCcl8nzGgwzPorvxwT+tXaeYNP79a/5RGVuErwRKETEoTzEjKP+tYZ28/ighq65cHvNX2pn+mhT48vnzWLxAOZl5mj1mVc2RU7mPbUY+mXL4svmqA1n5Vn8ykbWHGXqOLzRQyvZ7De5Id4TS/zY3Kg7PAE7R5Ye7CAOIOe9OZLj6IW/+V4/+8QK8k5o9ir68f/u70HaAGlCmRerXnE87/ciHKXQERSuuyAImAX6KhMAHcZ4AejMgscYDOFMMFAOD/QgDuh6yW8Apq5p54lp588F3Ty234kNZ+IKZrvxnmObJ+Oz0JW3fBu0r3U8agN0wAewHV1X9Ke+R/JYbH26m2ONC9e85cNbKxSPb3mrRr7+r54o51PhGReAPA7oe834acOzmGIH4/wJKvKWt4ZYD3/9Ad3k44c6Tx3TR8AYvAy7+cI89DztpI/jWa6wBk/7DOkU9yUPmHzojK2MX/M8a4NeT5w6J+aaANBe5drXAOKPOdiHVViOnXMjdyz16gYH6gc89NOefK2h0NVvdFRfayg1vHzJ111He914gtbQyXd7i3TUbfNaZ58EkxfTTvr57znk88SIN9XEpgVsj3hZMzwZhyd2YaPjprPjYc2CTn1i9mv5Wnp4c9MlOcsmIo9u+PIdsMRtP7EmdtlYb7bxg0H4Q5DdE4Xn5tjJYywCE2jAWJTLBRvDBGeS8cbOqIUOj/kcx6HODr8cXrKaFN18Ae3I9eWNryjf1wRsTxyeg+S6AuFcIRV2fDmXp32gbWKdOO8+Tm2fvPOcduYCcOrcAcbz5RKrja5FC2tlkHDp+9DWnLc/U/7MrfnUBm3jCVsP8oKnNZ4m+f8+vtybv4Dxb3qSY+PcsY0u+KNv6we0od02VdemAbgKPwv6X/XEyNupPywb+L/G7//yVy+++g+qs7KqK+1dLKqPc9oe8hi459uy5rnY15kvtwY/9nFdvcB2DhsYq5yTD3CmuS7v7Cza7lgR3oxVVzH5TzA0h6ecZ3w/FtggOvf4xTrkinqnntu6dO3V2evHPa2hxDi1GCBv8gG3JdttdKg56zcjqYXN9TVvbkVn5n3xrToaPuZh89U+ztTc0nRvQD/ATuTXbuTDg9+sB6jqn7HO7A/sN8QDG+GDZ+bhtlyQIG+46mIMHo5symnbJvjUhs55sfjQx4FEaMHt7LUIj/TTEUGdBDeXYTA1GDt5uW5AAHw2UgwxImOoq1OlJwiGu3FiyeOnLmoLsqKPkTzSg0wTR8B1J8nX4q+dE/B/qYVz6o2N24fikXnwVwanKe/kqe/hodH2JmwiTN7Jh32dr/JxKn2LJB3t4zz54uMurGA0hz6fjN2mkQvoai/tiM/16Rdgnv/8/V988H8X5AbfyMMGxgdm+KQa9nNgI+ynjPtLLpKnzBl8/J8n8vzJVMnGPp4a+ULxP2uD7joCp400G5teg/pYfW6164bdMccqa8tcxWG1c+6PoM09vsfA/fgeO/max5P/lHUPxWPIuwf9z3g30HHq2TH8/ED3nOcThH9NgWjzg8v2tw4yT4ssdIJ7FnFe4Zl85DltPmTmWNyiqtzSBkC9tmwd1MbmxtSXup0++HIEkUaM1/VqIIc4c83cd5PsteWJrjWidbe2gPIXtE0j/m629k1t+tOX+NR6y1gec16iTe+3VsWDXciBinGO8iELWuzs3uGaoDM0+IUd8WIgTi5twnY+xa6PnggjwNvNALrctbwO5fdC0wXGFQ4OdxYr2BuxI3ZlktwL/bLvxE6LADp8m5j+gWcL4GOAXI6X8Mj2Z3jGU70zOSde0lebPTfCSe9Ecr488rH8mR/42y5qW3nTjuwr0Nux8nLketvK3PHJ1j/+6ft1Vxrb2dzY2Ng0OWhno8s39dQ+fleRhQb9d78JDcc/f/vtTQcy+X949PAVcdO/xmXadxWjMyb4Vp77mHQdbt1nLBvvCXg3T9Zx2vf807a2yzvnAr4rTJsr5wT6LOt6WHyx8WsEdj2y7awTfsJa8TCfn0h2jFpj4LurbZkmIXqyyWU+Jt+nAnOJbM+p9DRPwK1/wbVefdjgnFB7znOv6/OjOZ5w3R7+OSdXPNDn9jLJv3IBLa+h9yVAXyT+H5djtsYK9Q/mAiFc48QUN40rH5NM20+ZOggWB+Jk0qYVbpPsbv2IiAVakdM7pfL1/xRvDm+myBKPuWf/gO8OsE36kWmyitJ1g1Z94Eb3iTH1vRUzmSfq3wl8v8IunuEr3b2Me977gsDY5ikf5+bQVN321pfrYtqZ4hxdt/Yy60qmWuu494sNjN895FOu3NGWijzjP/R5W4ZP3JEjXOevaeRJk37GXawsMb+m9Ic//dkyeWqsjeC0ZdoJ6t8Vz57Te6ZTZtH+yiLeiWkGOhdXPMDtcX2NDwm2nVsnmLKv8NL41w1qGm9D7nWBP1zVf2qbm5tESD1jTsoL/Qd8Ojc87s2Q5S2yO/rWw8aU7EwTmsxJ1h83OXqYWTlSGYB+xt0zdEDSJy/WgDfy0mrQbb2QT0zwr0+SzYd4iH3xPXKXkgV1L5tjf8+3p05eEHks1327lBzkVZ6Kpm1+2hquPT1HVsBlaxk++SbAV51L6eRDOiwwgpXise4aGRRhA2gT1ZiFp3egDpSuoS1vHQTQ+Vpj3M3ffUhHMh2DgdfoS+B9eZt8Jiq8mRDbMvgAPnJdlchp8LDnCqc+aAF9XwKN8/1G9XFARn2ecjpX9fG1aCwmX3WcbXCOgfvx2HJL4GXnlRxw6jn9egZ4oOfMwZMlG2BlIafydz5uG0BpJx71cXS9zHFsoJ8uxuTVaN/H5xmS7ykKnwPTzp8SGr8ZT7o6p4XnZtSI1sLS4z/tblStMWdNQxt8me+sqa6vqbN8yMvcha+ovQDZ1LB84jI3a35LUQPQzfysHtdjXfdDM9WRurbtBM0Z+NCFTPT1d9UzHl2lRQbXXPGWb22Ang/3pE1VDhJP6Bc/7WV/6zP64LUdy3aeIm+xEyubc+RkgysvPhbZE+DLNToAciaIZ22dcKS6WzrQS1jvGBxojkWXzS87bwOEQU4MvejLHUUMaTJhPD2d2HzAg8nLQoOvG2v19a0J60P30EeETKuj+mh3jHP5Ju7vfsKPqbEfndExUZlFeb8UsPm1xf8RukhOOYnbx/vGXBLHgusuFFB9hRfMYrjixYTaxnXb5du8GU9765x+dfwZoG9c//t//rDelr3fHIHnfuUhqOzp3+7bdk4Q42kr4Dq69rV+rvaW+QylQf60EUz+18h6hmnnW/H32vAWdN0ynznUt2rMXM8UYgZLQz1inDlmzpwPsp9rmq0xFHH8ak0rH8DdzDf5s3MTm8rX2uT6Jz54O4/8pM2LGtp+6h6yqV+1jWPrix3oAKmjy2edkTL1gdTsbMSWLbuYc+jhT3ttVEKvueIhiOvWa2xFHm3368DHW1xWm1h2j2BzhA7Qz81KqFPruUA+vJmDfpBzv/PY/DK/2vOo3aB0V5sjuH2TDkrccWuziWwjM0W9e8kvgHL30g2vihLUGBqR5cv33gE7JIM6aWJwYCbCmruKovqmrmyMvrzZ2XH00O4ZoDdB86Unh3E+Zo+/ndTJA7iGafe843OAmJPAXSCAPGHeJnrjxXy9hM6t5/DAlb7X4hHvI33QwnOl68rHZ0DOKb+F6Ow/7fxYXZ8DHzN/bwGyGyPOExRX+pknNdzXujbpWyuIXeEaIRr6ieesFZOXtiKva1/e+ObTHkhN4+vUztoUXotRTePEOH3Ql4+x6V/nmK5TX8/8bmJrb/s3kBV9/hWIb5QrOveLCZg3bIwtc7PJfhGd2aSw0d+Is84AHuT5SVN0VFRuKBrP2khc0WF5apMnyNcQ5tk+UPvp/6dfycb1u/nmX/IAdsPE3BfwYuujzRH4r3kgLEQJKMZwJ4DRwI7rmAk0zzjC75J4dxdqvD9JJFmdjPLMjQ693DHMtzTAvAMpH9h6cdBdN33Y2Lsl6JDdCaq+8nkj18uBW7yPvk4P1E5iUn21d9pSTJuLk+/niC7wq03g54C5Jr4UiC/FnXX3j4artQbO9dY1zzonVr6RVn8pkMOv1nTNF+UDu+ZsnfcyuEptOOuMN5BRQ+GxTr3YeLK5RUbq0q5r/nUItalN3TRaQ4vSe9NCJy8piUVDn354oxMNNtU++omN65li0E0KOYz55kHS6lv14SO2EE/GWAfYWT7fiLkPffwyf2KHv66hooX3Vh80Rhvd1Fds6g0AeuFBCDr7QR0QnsTXsVbfzXddoPdTIF81t76/zgGXUzz9WbGMNZH62azojwP5cle+B3MmRVE+NtuC4DXYV7CTkuGkUIDn5jj5qg8dp51T3yNM/96KqS8b6/46puK1cflHhJN9LfwvAXIM1S9tcp/Cztfq+pT4Ejqfwd+RqfXwKUAtoDCyhotHa/BEawxgTs9NZ4L1yzpF1xUf9Yn1/KieFV3z8LemTfRLwPELffhR/5p7V3aeXx7euDRX2bB4+jpr6J0+jXWjmfr66xbYc8l3xMXPm/pH394c9z5RO8kBbDrRzRHZV2Be+9c1APmNfzO21QVqZ2Px98B/zaPfYj4L+tywgJNQASSoDdpENx6cKN/c6E7MDQR53FWY50lSXGHaWX3YMZP36pvoX5P0k++ljXUm4Qn7t5IQPIvLO96O5gFz+ynBgudpgzkrmM/+WSfS6Fe/ev7F4W8BvrDGu9F9Lv9+TmAdUlvmXyh6tHa7sc6N4GNx6qPdDeQKZ40pnvG9ZOd867OgjnaDPDFrL7iroYNv1rS5QdIPqJm04SG+qaF8iXjeesau/jUPWLrRYSdPrTz2daNzfZR/2AIvNp76PhVe2pAnbn/uCiOyEWAQDuc/V71h6dXHYu4GZ+AabLsqh2ewQTaD+8k9Jwj3Z1r0moniq42uNmWur96aJZaI7Tl98Q1c8U39M4En35THOBOLj0nenVClB+fbHxNT5xViJ0n/jOqnB+aSTYV4vhXEnVjPDesZovPDJ8FscuPtns+E2JtC947n6Jqnzpzo2u1G0NpEbZk41yGxn+tv8nVs8rQ++btBpQ+but6pZxR3/v+sdsKLbbMOgtYJUH3nBnnWz4lHdqLrrL3InLYC2tQQNqVZf5FBnaY28X+BPDGaDn3wqB8fz7dm4WctmZecFg0xw0Z4bb/s1D9b0LPfQRAPTtCHDPTAA7w5Sj9yT17O6IbWGyt8ax3BRx98j4AuYn6uvcp+Cf6QTieXhEApwvrL9wQJI6Jov5XRiSLw8GAkdJlkJirBzuSuQB5n+Ak0m6+TSWcChR4mNwm1n1wZL5ChDtvX/urzIhNPkuf+junkO/WB2ne3UGRn4kIiR5/lhcHX+DDf5qkc+uHrwn6E6OOJdfNe4fTvpwTHbMXrrUh81sUr8JJOxpkbcuIdPx7mmp+Yuf9s7aZGqeiqm7WZwstG2qePPJW1uFKTHvPtjaf651mKUW0eeOe4e1Z71rTyAfTsze6Kj6dA1VK1G5faSXuu+fJwhrZ1S502sBsIcdWlaaZfeeJUXKhnqt3e6HSWKtN4LRAX+QGYA/93mp4ie+NCTcQnvOBmoXPIZhReNtT9FMg1dsSmbFiuhxKAX/UHF/gzbtgI8JcHEOtCGTZ6JHjEV3T8rdB8RABONFhMDJPpCXXBzqRhBbo42BCdfP7zQiQbRuSunkRU884T5BMNHEAeMM+iaeAarAacIPopbPGA3jHQA503n8Fj/jW5ADvLz+Th4yN99DH5oHzIKg3n+BjDfaflyYPufsNCNvLK5z7R0t87yYkkUb6lHnrGSYwT0RX7SULAmeuvHZ/Cxo8V8ZJOxq/ifIJcZI18bSDvml8/BSSvsy5Yt1dIvbhfu5xplY9u93Gsm3T64AGNy1y/J1/rBO3ysf7JCfqwNe2sXfKEdKKfcdqsPdreHGVH1zd98PlhQS/0g/Bl7dIGtdVy9Zp2ut5IZtc8NIAx+GyvrqGhLrne6OW6JHvgwzboszlmA7xtjupHrm10PJCWNYMubtrh40YCXXkYko0+4hM2EgvkIqt/SxLa2lz7HUN43I4e0BscboD6oNGNGDBWau8LSx7g1H1houNvxTcEzk8iEsSkxDkFVi9A0Gg6+Dowqs46wId+G6R/jBH4bBLp16X50Elfk780TuAls4GDD72FF4FobBQ/xd8JLg8j8SULDZkFmz92wHOlj8EmciY7spg0KOCDhz54/Okv3+mhN4ukSPKEDjnuW/w6mQ+7O7H0O7kZ9PVuF7mTzBNpfQCTrwsU+zlOYMu080vD8dTxJeG8fQHQvILsR0eK9uczbOboBHWgN4qF826s16JrHiSvQ4ts7J88yeuVy2sNogva1gqvg5XbyGItIZex9rNG4ANX+ugDpWkOek2twa5BryXrTh27rXm15xqEPmvRXQZ2zPUJ5tp1TaNPB/zY8YF/qpuMs2GcfFy3RqILG3lRj1or6APUX57IvOaoP3qhB1pAjG4QH/YwPvlos7E6lksuaByp660/0ALTysZujo0HvplmjYPwRlbtBtB1jixv2ipM2reCmE458n8V8NUBJsGtbWcUaNES8BqXAMRowER6euBTd97WSEAIYBOAPj9piha5vssSD2zhyaQ6kVdQAG0mlkA3iWgn2KGDD11cNqBcR/72LTq2PkMdsSu87cbn1bzJsXzZwvnUB6Z/jDk5zCe9jKCc1Bw8xKe2WqcO+6oDQEl/Af08g+rLedMi88rOLw3C4FB85SB+mbOvC89s8hpZhecRGJ+F7gOQRyNf7vJz9RXklvNb49AVcy25uOqMzOZoeboJ1Z7yNedD23PqUPzLumVs5vZcK+XhAI3LpPGmI37fEMuGbAThTYHeBb/wml18uY6O1KbkTP2hnfhRD9JnvmVDY2Pd8Omag1HsRfZNHzrUByt9cCKXAyG2Qy9oXH/FYzrZ5bmLSrejddkioJv/Y43++NEzeqFv7aMPXwF6GMsmGXo/CGmMGKAfftrxcfs8cxC6E50Ltxf/p0Zzh5jZXpRgMODuZDuwFxU0MOJGg8OZiYaeQPi8DPYGpjZ8BAyYR68uLgdkOZyrBAi9nTyCbn0QCdXHGBHPaQe7zoH6VP3Q3ZiETh7X2Gv/JMM6F1HtTBJi02L2eK6r03bqXFtB6ZGS3vC1lR8aWSwtKOXzArO8zQfosa2yq2hcu2AsA179Q0YTuLIbl8k3bf8xgd4vpfvnDmfOTh2jeVY4X3TehTDF8JZPGnOBbX6uXOya97F4yK+5JgB8zbfmLCMuzKSoftzWrk9oyLVzQ+fqsq3oWEeuTXrT11zKWsgmWh1cm99tk9mGwuvEejLIiQNd+DDtbHx8qXFG5jpyD50aM+1Yg8isDtMvWXib3gAS+lyXpJs4EE94Tauzx0SHjdRPR0zXxKs+l9brfcmOrZFfOAfgcw2PXFBbGWef8DX/dC4NupwLyw9uKLAN//oWcjXR1zhVAKc8cK2YHED2Vf9bgazOH0hcs/9hC1bFGgHDuLPI4PJYsEH652RWojkIElpHGgz6IbVCC9cPXSPLG9EFSDg+MYsOJp5JuYJlLVif6MObBYNtBX0E8lyQBf3TP3hvSS+gq76BPZLkcDwWrEt9r4X16N+jeDzCW/lO4Hfj8hKc6Ic+rs54nph8xKdFAbzE+4+EMzbPkJi+THvm5zMwF2/NJtbHs2LldaHjUa6lVtzz9/o1+Ul+OSaLh9rxFGMRm/fJOvLaX+uE9YJsqbjpg3euI2ofsZw1A5rYJcWo0lEbLVNHeR6tidY0dN/FRB3lnXUxm+S+ZuyRn54/jZUHHdB/yPNhveDaf7tUZPWzoMk1vyEw/fIm6UDAk0132nqFR3H5FMDGq/V0ZdE3PP5652RY/25vU2izQhBOc+eCQ5zj7J4QB2SJZlJpeaFChbwVcALL2xb9f0dokjTwLAkRs0KZEeQ4kUQPL9edGH+6yQaKkUOw8yu4yOE6bV/FNvVZN/Z1XGeOJnr1ASejfYWOniVLF9jgHrWxYE58dTvJzOsfaqY/J2z31U1f+W5xAYOvehoX0LhWPTHimkVqer2Q28Q4+ZAV82pb9E0e1N/GhcbyDovvhtUk4R/xtvhcoXZyLsW5MD8W6HoL/1v5HuHVskQGJfSOm9ozLgXiGJt2hm/zAq+jEgu35sof54wa9DsvNISe5ieofPKK/CpP1ztMk692nmsJPm9CsPDDIINyAe1K6dvZYxbgfzfcbMIJITmttY6MZVveGSM+EUE/+msftiY3fbl5uIbHvIklvDwZcd2Cjk6wczQHFuFJeDPWNWEPbSOc4bVdOvxEKBHU4+jIpoW96OLcWs28w7M316XL+qMbuZ5/7OJadMxBqLKpm1Yv7Iaf+LBHcIYfG9BLSyJ8gOaXbcDGFRMw1781LF9jY+gYnjyfC/ZMPzJ/e+7zlBs/vIbU9w0XDQCGd3O5TYwDFkccODoZV+Bu74NLhidKtElKk3gMOU0auq1cvBz0QIMp6UvSOTF0ja5OProAYwkqvAk21/tQnydc0iWPT0aVDwYcr+wewLa1rVPsC0LfxR2/nCx6IZfrFp3aiS/pQ97WBV/vyuBDM0/mE3mSrl/pa1y4vLITfT7Do3P1AU5te1zNK/+qjzP6fLe4xjkwt/EEN93mSxv/PH/rGjmMcX3HC89qR2+vch2bcnYf50UTejdXe/DqKA9oXEDt/IBH7Sue2HDPR55P3hNT3zM0Z8DJc9pJ3B3HNabOW840TgAaZ9Ticx+H1gOYPuYTg6JT+4qPU9tcbH2xNTlaHjdXe+UOa/6OL3S1t2upPID6wTj8Xq9C+dyGVmfy0utPJKXDU9cKtaaf8FQnB/TlbVxkxd0aTDvX4clbq9VnHeoHSCCWXDs36DMN+lZsdXQcMIb/1NzOA3G173oxDm3ikLc6aztPb/BQZ1xzLd9iDXgmkOsNlfq+4ls+4uD5lJ2Jjxh0ZDz1zR/yWXHizIdnuPKxdHNGB2fkVP6E47fajNtX89/TfS7EPxzctgP3r7lvbjNXzjHR+FOsfGIMcj5gI04bD6OdFC+T0Y/bdlEnSfenxNj5cZyjhgCalYdR6ONTsyRIxjIZHtcLnabXC5rKaz/X9IcvE2RH7viUdBrv0x2gTZ/HeC2ZHADd+AQY9yd7hZ3YkYWOLg78J8mmv00m64NX8eGcgpAEApxIfPocdwHZOUefkyrirJPxR3ZWnxMVmqGvdgLmD5mVAepf9dVHeFGPfbfkqY0aY6GigzFdmr6H+0y/7rSXvsYOO4i97dO5bXDHt2LjQuLWvlGxHuvaevVj+RM0f0DtxJbOm481VvQutnGZfPE38uir7KL6cmT8pJlgpPoam+qb88Ai7txjA/EAvQb7aYN5TF/kSL6um2eF/RPByYc+2Bujqa/+2UZdN2dKx7Xt1RhH+chT6GacT/+gj+/MIVf1D9+yrvGKcdC5D2IT4+hqv29SeemSvOk6QEZ94MDOG4/a7Z/+2V4dnQfQOePa8nQQI2jgo+04LziW2CQ+ZCPP+pC7Ysc8AMtRE1n4gP2tt4C8SbxDg8HWp37TO3bSIQKsxD76Ws99g9Dxddif1c4HLsW38jM3/yuPxIeukMMXWwDXtbO+OO6rXTRfPgc6L4XnbvVxwl4QGzKX+EOMusc5BjQIFqwOrDoJIkwQe5LkBH3QMI5QfoenCcsvlHoiVvLMQDVYyElxzoT87Ye/uR/ZmSgx6EAGPDUS2dDxC6qc+YYfZHDYZjuVxOU1N0cWCrIqJxPaxMG/FNNtZwLEplb4m3yWf4Akhb+ArwUOmv7+TgpC7Ixza5J0AGLUhVJ9+KdLLxj4ahtAJ7qrb/KB6usYmPrK1za6ipO3PppHNpDkXsSDj7hwDfADf6qP3HHfC3zA86fraesdnxdl0JsNtxffGRf8wJ8iX7yQ+NfOAv7pX9Ffhm5cJl/1gfi1ix+ovqypyO/CvAJSq6/+VV/ngXjWx1NfcuZiHlYf1/SLyPInTv9ucwGt2s/8I17ErXSdP9rOM5/v9QH4Oh+nf50HxjuH9a+5WX1gzkVtKq7iMtEcnbKbo+DUZ9/0Qs7kqY/wUpug91zx0rg3LiBTltuSlbpKLGNnYoEO7Gp8AHTMR22dY8SI+UFGN1f0dW58zbyKBi5qY39v2vVQ/YA4Ug/hwT/XZLVZe6jj99CLyQeghw/bZ3/ROUEW9kyk1n7I8ykwawVoftGHzV4TAtedQ+aj841d+PTL//jP//q/81snMiFMchJlgoAhiG9XOPFr8cMLDWDyMIZ+lPrpEV3iRTYTjPwaD2ogicIYdsCHjeCvy07of5BjcdpDpvXiFh+y6UaXdV7wkRjVxxi82PztSIh3vOMd7wCzVlyB2kStm5sYCN+H9Wnir6pxjFOXvOEtGa2hrlVP6ho6+k4csC42LfVTX6mhV0BeNuxVRF+Jt/J9SRA/7lS4UXgNfIPwxz99/9Px8B3veMc73vGOHwm/1B3H+wb5jne84x3veMcdfvGL/wd7xI7G7qaj4gAAAABJRU5ErkJggg==;" vertex="1" parent="K3Nuk1EUV9wkUVcjrLwg-31">
          <mxGeometry x="7" y="19.999999999999986" width="56" height="53.67" as="geometry" />
        </mxCell>
        <mxCell id="K3Nuk1EUV9wkUVcjrLwg-55" value="" style="edgeStyle=orthogonalEdgeStyle;fontSize=12;html=1;endArrow=blockThin;endFill=1;rounded=0;strokeWidth=2;endSize=4;startSize=4;dashed=0;strokeColor=#9E9E9E;exitX=1;exitY=0.5;exitDx=0;exitDy=0;entryX=0;entryY=0.5;entryDx=0;entryDy=0;" edge="1" parent="1" source="K3Nuk1EUV9wkUVcjrLwg-31" target="K3Nuk1EUV9wkUVcjrLwg-29">
          <mxGeometry width="100" relative="1" as="geometry">
            <mxPoint x="180" y="359.5" as="sourcePoint" />
            <mxPoint x="330" y="359.5" as="targetPoint" />
            <Array as="points" />
          </mxGeometry>
        </mxCell>
      </root>
    </mxGraphModel>
  </diagram>
</mxfile>
